<?xml version="1.0" encoding="utf-8"?>
<!-- Generator: Adobe Illustrator 25.2.0, SVG Export Plug-In . SVG Version: 6.00 Build 0)  -->
<svg version="1.1" id="圖層_1" xmlns="http://www.w3.org/2000/svg" xmlns:xlink="http://www.w3.org/1999/xlink" x="0px" y="0px"
	 viewBox="0 0 1200 396" style="enable-background:new 0 0 1200 396;" xml:space="preserve">
<style type="text/css">
	.st0{fill:#892020;}
</style>
<path class="st0" d="M-80.6,407.1c-0.8-1.4,0.1-2,0.9-3.5c0.8-1.4,1.1-1.2,1.9-2.7c0.8-1.4,2-0.8,2.8-2.2c0.8-1.4,1.5-1,2.3-2.5
	c0.8-1.4-1-2.4-0.2-3.9c0.8-1.4,1.1-1.2,1.9-2.7c0.8-1.4,1.9-0.8,2.7-2.2c0.8-1.4-0.1-1.9,0.7-3.3c0.8-1.4,1.8-0.9,2.6-2.3
	s-1.2-2.5-0.4-4c0.8-1.4,0.9-1.4,1.7-2.8s2.3-0.6,3.1-2s0.1-1.8,0.9-3.2c0.8-1.4,0.8-1.5,1.6-2.9s-0.2-2,0.6-3.4s2.8-0.3,3.6-1.7
	c0.8-1.4-0.1-1.9,0.7-3.4c0.8-1.4,0.7-1.5,1.5-2.9s1.1-1.3,1.9-2.7c0.8-1.4,1.4-1.1,2.2-2.5s0.1-1.8,0.9-3.2
	c0.8-1.4-0.1-1.9,0.7-3.3s0.5-1.6,1.3-3s1.5-1,2.3-2.5c0.8-1.4,1.4-1.1,2.2-2.5s-0.4-2.1,0.4-3.5s2.8-0.3,3.6-1.7
	c0.8-1.4,0.3-1.7,1.1-3.1s0.4-1.6,1.2-3.1c0.8-1.4,1.5-1,2.3-2.5c0.8-1.4-1.1-2.5-0.3-3.9s1.2-1.2,2-2.6s0.6-1.5,1.4-2.9
	s1.9-0.8,2.7-2.2c0.8-1.4,1.7-0.9,2.5-2.4c0.8-1.4-1.7-2.8-0.9-4.3c0.8-1.4,2.1-0.7,2.9-2.1s0.5-1.6,1.3-3s1.3-1.2,2.1-2.6
	c0.8-1.4-0.6-2.2,0.2-3.6s1.2-1.2,2-2.6c0.8-1.4,1.9-0.8,2.7-2.2c0.8-1.4-0.6-2.2,0.2-3.6s1-1.3,1.8-2.8c0.8-1.4,2.5-0.5,3.3-1.9
	s0.5-1.6,1.3-3s-0.6-2.2,0.2-3.7c0.8-1.4,2.4-0.5,3.2-1.9s0.7-1.5,1.5-2.9s-0.9-2.4-0.1-3.8s2.8-0.3,3.6-1.7c0.8-1.4-1.2-2.6-0.4-4
	s1-1.3,1.8-2.7c0.8-1.4,1.1-1.2,1.9-2.7c0.8-1.4,2-0.7,2.8-2.2c0.8-1.4,0.2-1.8,1-3.2s-0.3-2.1,0.5-3.5s1.6-1,2.4-2.4
	s0.7-1.5,1.5-2.9s2.1-0.7,2.9-2.1c0.8-1.4-1.3-2.6-0.5-4c0.8-1.4,1.2-1.2,2-2.6c0.8-1.4,2.1-0.7,2.9-2.1c0.8-1.4,1.1-1.2,1.9-2.7
	c0.8-1.4-0.8-2.3,0-3.7s1.8-0.9,2.6-2.3s-0.3-2,0.5-3.4s1.3-1.1,2.1-2.5s1.5-1,2.3-2.5c0.8-1.4,1.7-0.9,2.5-2.4
	c0.8-1.4-0.3-2.1,0.5-3.5s1.5-1.1,2.3-2.5s-0.4-2.1,0.4-3.5s0.2-1.8,0.9-3.2c0.8-1.4,0.9-1.4,1.7-2.8c0.8-1.4,2-0.7,2.8-2.2
	c0.8-1.4,1.4-1.1,2.2-2.5s-1.3-2.6-0.5-4s3-0.2,3.8-1.6c0.8-1.4-0.5-2.2,0.3-3.6s0.2-1.7,1-3.2c0.8-1.4,2.3-0.6,3.1-2
	s-1.2-2.5-0.4-4c0.8-1.4,3.2-0.1,4-1.5s0.6-1.6,1.4-3c0.8-1.4-0.6-2.2,0.2-3.6s2.3-0.6,3.1-2s-1.5-2.7-0.7-4.1
	c0.8-1.4,1.3-1.2,2.1-2.6c0.8-1.4,0.7-1.5,1.5-2.9s2.9-0.2,3.7-1.7c0.8-1.4-1.5-2.7-0.7-4.1c0.8-1.4,2.8-0.3,3.6-1.7
	c0.8-1.4-0.7-2.2,0.1-3.7c0.8-1.4,2-0.8,2.8-2.2s0.6-1.5,1.4-3c0.8-1.4,0.7-1.5,1.5-2.9s0.6-1.6,1.4-3c0.8-1.4,0-1.9,0.8-3.3
	s1.6-1,2.4-2.4s1.4-1.1,2.2-2.5c0.8-1.4,0.8-1.4,1.6-2.9c0.8-1.4-0.7-2.3,0.1-3.7c0.8-1.4,1.3-1.1,2.1-2.6c0.8-1.4,1.3-1.2,2.1-2.6
	c0.8-1.4,1.7-0.9,2.5-2.4c0.8-1.4-1.1-2.5-0.3-3.9s2.8-0.3,3.6-1.7c0.8-1.4-0.7-2.3,0.1-3.7c0.8-1.4,0.9-1.4,1.7-2.8
	c0.8-1.4,1.4-1.1,2.2-2.5c0.8-1.4-0.7-2.3,0.1-3.7c0.8-1.4,2.4-0.6,3.2-2c0.8-1.4,0.4-1.7,1.2-3.1c0.8-1.4,1.1-1.3,1.9-2.7
	c0.8-1.4,0-1.9,0.8-3.3s1.9-0.8,2.7-2.2c0.8-1.4-0.7-2.2,0.1-3.7c0.8-1.4,1.3-1.2,2.1-2.6c0.8-1.4,1.6-1,2.4-2.4s1.6-1,2.4-2.4
	s0.6-1.6,1.4-3s0.5-1.6,1.3-3s-0.6-2.2,0.2-3.6s1-1.3,1.8-2.8c0.8-1.4,0.5-1.7,2.1-1.7s1,0.4,1.8,1.8s-0.2,2,0.6,3.4
	s1.7,0.9,2.5,2.4c0.8,1.4,1.7,0.9,2.5,2.3c0.8,1.4,0.2,1.8,1,3.2s-0.5,2.1,0.3,3.6c0.8,1.4,0.4,1.7,1.2,3.1s1.1,1.3,1.9,2.7
	c0.8,1.4,1.5,1,2.3,2.5c0.8,1.4,0.7,1.5,1.5,2.9s1.1,1.2,1.9,2.7c0.8,1.4,1,1.3,1.8,2.8c0.8,1.4,1.2,1.2,2,2.6s-0.5,2.2,0.3,3.6
	s2.7,0.3,3.5,1.8c0.8,1.4,0.6,1.6,1.4,3c0.8,1.4,0.6,1.5,1.4,3c0.8,1.4,0.6,1.5,1.4,2.9c0.8,1.4,0.9,1.4,1.7,2.8s0.5,1.6,1.3,3
	s0.8,1.4,1.6,2.9c0.8,1.4-0.5,2.2,0.3,3.6s0.9,1.4,1.7,2.8s2.3,0.6,3.1,2s0.1,1.8,0.9,3.2c0.8,1.4,1.1,1.3,1.9,2.7
	c0.8,1.4,0.1,1.8,0.9,3.3c0.8,1.4,0.1,1.8,0.9,3.2c0.8,1.4,1.2,1.2,2,2.7c0.8,1.4,1,1.3,1.8,2.7s1.5,1,2.3,2.4s-0.2,2,0.6,3.4
	s1.9,0.8,2.7,2.2s0.8,1.4,1.6,2.9c0.8,1.4-0.8,2.3,0,3.7s1.2,1.2,2,2.6c0.8,1.4,0.9,1.4,1.7,2.8c0.8,1.4,1.9,0.8,2.7,2.2
	s1,1.3,1.8,2.8c0.8,1.4-1,2.4-0.2,3.9c0.8,1.4,1.7,0.9,2.5,2.3s0.5,1.6,1.3,3s2.1,0.7,2.9,2.1c0.8,1.4,1,1.3,1.8,2.8
	c0.8,1.4-0.4,2.1,0.4,3.5s1,1.3,1.8,2.8c0.8,1.4,1.1,1.3,1.9,2.7c0.8,1.4,1.6,1,2.4,2.4c0.8,1.4,0.7,1.5,1.5,2.9s-1,2.4-0.2,3.9
	c0.8,1.4,2,0.7,2.8,2.2c0.8,1.4,1,1.3,1.8,2.7s1.4,1.1,2.2,2.5l1.6,2.8l1.6,2.8c0.8,1.4-0.2,2,0.6,3.4s0.7,1.5,1.5,2.9
	s0.7,1.5,1.5,2.9s1.9,0.8,2.7,2.3c0.8,1.4-1,2.4-0.2,3.9c0.8,1.4,1.9,0.8,2.7,2.2s2.1,0.7,2.9,2.1c0.8,1.4-0.3,2.1,0.5,3.5
	s1.5,1,2.3,2.4s0.7,1.5,1.5,2.9s1.1,1.3,1.9,2.7c0.8,1.4,0.7,1.5,1.5,2.9s-0.1,1.9,0.7,3.3c0.8,1.4,1.6,1,2.4,2.4
	c0.8,1.4,0.8,1.4,1.6,2.9c0.8,1.4-0.7,2.3,0.1,3.7s1.5,1,2.3,2.4s-0.2,2,0.6,3.4s2.1,0.7,2.9,2.1c0.8,1.4,0.4,1.6,1.2,3
	s-0.2,2,0.6,3.4s0.7,1.5,1.5,2.9s1.2,1.2,2,2.7c0.8,1.4,1.7,0.9,2.5,2.4c0.8,1.4,1.2,1.2,2,2.6s0.9,1.4,1.7,2.8s0.2,1.8,1,3.2
	c0.8,1.4,0.4,1.7,1.2,3.1s2.2,0.6,3,2c0.8,1.4,0.1,1.8,0.9,3.2c0.8,1.4-0.2,2,0.6,3.4s0.7,1.5,1.5,2.9s0.9,1.4,1.7,2.8
	c0.8,1.4,1.2,1.2,2,2.6s1.9,0.8,2.7,2.2c0.8,1.4-1.4,2.6-0.6,4.1c0.8,1.4,2,0.7,2.8,2.2c0.8,1.4,0.8,1.4,1.6,2.9
	c0.8,1.4,1.1,1.3,1.9,2.7c0.8,1.4,0.6,1.6,1.4,3s1.3,1.2,2.1,2.6c0.8,1.4,1.2,1.2,2,2.6s-1.1,2.5-0.3,3.9s2.6,0.4,3.4,1.9
	c0.8,1.4-0.7,2.3,0.1,3.7c0.8,1.4,2.2,0.6,3,2.1c0.8,1.4-1.3,2.6-0.5,4s2.8,0.3,3.6,1.7c0.8,1.4,1,1.3,1.8,2.7
	c0.8,1.4,0,1.9,0.8,3.3s1.3,1.1,2.1,2.6c0.8,1.4,1.1,1.3,1.9,2.7c0.8,1.4,1.2,1.2,2,2.6s-0.7,2.2,0.1,3.7c0.8,1.4,1.5,1.1,2.3,2.5
	s0.9,1.4,1.7,2.8c0.8,1.4,0.5,1.6,1.3,3s1.7,0.9,2.5,2.4c0.8,1.4,0.2,1.8,1,3.2c0.8,1.4,1.4,1.1,2.2,2.5c0.8,1.4-0.4,2.1,0.4,3.6
	c0.8,1.4,2,0.8,2.8,2.2c0.8,1.4-0.5,2.2,0.3,3.6s1.1,1.3,1.9,2.7c0.8,1.4-0.3,2.1,0.5,3.5s0.7,1.5,1.5,2.9s1,1.3,1.8,2.8
	c0.8,1.4,1.6,1,2.4,2.4s1.5,1,2.3,2.5c1,1.7,0.2,1.8,1.8,4.1c0.4,0.5,0.4,1.2,0.1,1.8c-0.7,1.2-1,0.6-2.6,0.6
	c-1.7,0-1.6-1.7-3.3-1.7s-1.6,0.2-3.3,0.2s-1.6,0.3-3.3,0.3h-3.3c0,0-1.6,0.8-3.3,0.8c-1.6,0-1.6-1-3.3-1c-1.6,0-1.6,1-3.3,1
	c-1.6,0-1.6-0.5-3.3-0.5c-1.6,0-1.6,0.5-3.3,0.5c-1.6,0-1.6,0.2-3.3,0.2c-1.6,0-1.6-0.8-3.3-0.8c-1.6,0-1.6-0.3-3.3-0.3
	s-1.6,1-3.3,1c-1.6,0-1.6-0.5-3.3-0.5c-1.6,0-1.6,1-3.3,1c-1.6,0-1.6-1-3.3-1s-1.6,0.8-3.3,0.8c-1.6,0-1.6-0.6-3.3-0.6
	c-1.6,0-1.6,0.5-3.3,0.5c-1.6,0-1.6-1.2-3.3-1.2c-1.6,0-1.6,1.7-3.3,1.7c-1.6,0-1.6,0.7-3.3,0.7c-1.6,0-1.6-2.7-3.3-2.7
	c-1.6,0-1.6,2.1-3.3,2.1c-1.6,0-1.6-1.8-3.3-1.8c-1.6,0-1.6,2.3-3.3,2.3c-1.6,0-1.6-0.6-3.3-0.6s-1.6-0.2-3.3-0.2
	c-1.6,0-1.6,0.4-3.3,0.4c-1.6,0-1.6-0.8-3.3-0.8s-1.6,1-3.3,1c-1.6,0-1.6-0.8-3.3-0.8s-1.6-1.4-3.3-1.4c-1.6,0-1.6,1.7-3.3,1.7
	c-1.6,0-1.6-1.1-3.3-1.1c-1.6,0-1.6,1-3.3,1c-1.6,0-1.6-1.5-3.3-1.5c-1.6,0-1.6,1.5-3.3,1.5c-1.6,0-1.6,0.3-3.3,0.3
	s-1.6,0.6-3.3,0.6c-1.6,0-1.6-2-3.3-2c-1.6,0-1.6,0.3-3.3,0.3s-1.6,0.7-3.3,0.7c-1.6,0-1.6-0.3-3.3-0.3c-1.6,0-1.6,0.9-3.3,0.9
	c-1.6,0-1.6-0.4-3.3-0.4c-1.6,0-1.6-1.1-3.3-1.1c-1.6,0-1.6,1.6-3.3,1.6c-1.6,0-1.6-1.5-3.3-1.5c-1.6,0-1.6,0.8-3.3,0.8
	s-1.6,0.6-3.3,0.6c-1.6,0-1.6-0.9-3.3-0.9c-1.6,0-1.6-1-3.3-1s-1.6,2.2-3.3,2.2c-1.6,0-1.6-2.1-3.3-2.1c-1.6,0-1.6,2.3-3.3,2.3
	c-1.6,0-1.6-0.1-3.3-0.1c-1.6,0-1.6-0.3-3.3-0.3c-1.6,0-1.6-0.2-3.3-0.2c-1.6,0-1.6,0.4-3.3,0.4c-1.6,0-1.6-0.4-3.3-0.4
	c-1.6,0-1.6-2-3.3-2c-1.6,0-1.6,1.5-3.3,1.5c-1.6,0-1.6-0.4-3.3-0.4c-1.6,0-1.6,0.8-3.3,0.8c-1.6,0-1.6-1.7-3.3-1.7
	c-1.6,0-1.6,0.8-3.3,0.8c-1.6,0-1.6-0.3-3.3-0.3c-1.6,0-1.6-0.7-3.3-0.7c-1.6,0-1.6,1.8-3.3,1.8c-1.6,0-1.6-1.2-3.3-1.2
	c-1.6,0-1.6,1.2-3.3,1.2c-1.6,0-1.6-0.7-3.3-0.7c-1.6,0-1.6,0.4-3.3,0.4c-1.6,0-1.6,0.6-3.3,0.6c-1.6,0-1.6-1.5-3.3-1.5
	c-1.6,0-1.6,1.7-3.3,1.7c-1.6,0-1.6,0.6-3.3,0.6c-1.6,0-1.6-0.4-3.3-0.4s-1.6-0.5-3.3-0.5c-1.6,0-1.6,0.3-3.3,0.3
	c-1.6,0-1.6-1.5-3.3-1.5c-1.6,0-1.6,1.2-3.3,1.2c-1.6,0-1.6,0.8-3.3,0.8c-1.6,0-1.6-2.7-3.3-2.7c-1.6,0-1.6,1.8-3.3,1.8
	c-1.6,0-1.6-1.7-3.3-1.7c-1.6,0-1.6,0.6-3.3,0.6c-1.6,0-1.6,0.5-3.3,0.5c-1.6,0-1.6-1.3-3.3-1.3c-1.6,0-1.6,0.5-3.3,0.5
	c-1.6,0-1.6,2.3-3.3,2.3c-1.6,0-1.6-1.2-3.3-1.2c-1.6,0-1.6,0.6-3.3,0.6c-1.6,0-1.6,0.1-3.3,0.1c-1.6,0-1.6-1.9-3.3-1.9
	c-1.6,0-1.6-0.3-3.3-0.3c-1.6,0-1.6,1.2-3.3,1.2c-1.6,0-1.6-0.7-3.3-0.7s-1.6-0.5-3.3-0.5c-1.6,0-1.6,0.2-3.3,0.2
	c-1.6,0-1.6,1.7-3.3,1.7s-1.6-2.3-3.3-2.3c-1.6,0-1.6,2.4-3.3,2.4c-1.6,0-1.6,0.2-3.3,0.2c-1.6,0-1.6-2.3-3.3-2.3
	c-1.6,0-1.6,1.4-3.3,1.4c-1.6,0-1.6,0.3-3.3,0.3c-1.6,0-1.6-0.1-3.3-0.1c-1.6,0-1.6,0.8-3.3,0.8c-1.6,0-1.6,0.2-3.3,0.2
	c-1.6,0-1.6-1-3.3-1c-1.6,0-1.6-0.2-3.3-0.2c-1.6,0-1.6,0.2-3.3,0.2c-1.6,0-1.6-0.7-3.3-0.7c-1.6,0-1.6-0.4-3.3-0.4
	c-1.6,0-1.6,1.9-3.3,1.9c-1.6,0-1.6-2.2-3.3-2.2c-1.6,0-1.6,0.2-3.3,0.2c-1.6,0-1.6,2.5-3.3,2.5c-1.6,0-1.9-2.5-3.5-2.1
	C-79.2,406.7-79.8,408.5-80.6,407.1L-80.6,407.1z"/>
<path class="st0" d="M36.5,378.6c-0.8-1.4-1.1-1.7-0.3-3.1s1-1.3,1.8-2.7c0.8-1.4,0.8-1.4,1.6-2.9c0.8-1.4,0.5-1.6,1.3-3
	s2.5-0.5,3.3-1.9s-0.2-2,0.6-3.4s2.4-0.5,3.2-2c0.8-1.4-1.5-2.7-0.7-4.1s1.4-1.1,2.2-2.5s0.6-1.5,1.4-2.9c0.8-1.4,0.7-1.5,1.5-2.9
	s2.7-0.4,3.5-1.8s0.6-1.5,1.4-2.9c0.8-1.4-0.4-2.1,0.4-3.5s1.6-1,2.4-2.4c0.8-1.4,0.6-1.6,1.4-3c0.8-1.4-0.2-2,0.5-3.4
	c0.8-1.4,0.5-1.6,1.3-3c0.8-1.4,1.3-1.2,2.1-2.6c0.8-1.4,0.3-1.7,1.1-3.1c0.8-1.4,2.9-0.2,3.7-1.7c0.8-1.4-0.4-2.1,0.4-3.5
	s2.3-0.6,3.1-2c0.8-1.4,0.5-1.6,1.3-3s-0.2-2,0.6-3.4s1.9-0.8,2.7-2.2c0.8-1.4,1-1.3,1.8-2.8c0.8-1.4-1-2.5-0.2-3.9s1.6-1,2.4-2.4
	s0.4-1.7,1.2-3.1c0.8-1.4,1.2-1.2,1.9-2.7c0.8-1.4,0.5-1.6,1.3-3s1.4-1.1,2.2-2.5c0.8-1.4,0.1-1.8,0.9-3.2c0.8-1.4-0.1-1.9,0.7-3.4
	c0.8-1.4,1.4-1.1,2.2-2.5c0.8-1.4,1.2-1.2,2-2.6s1.8-0.9,2.6-2.3s-0.3-2,0.5-3.4s-0.1-1.9,0.7-3.3c0.8-1.4,2.6-0.4,3.4-1.9
	c0.8-1.4,1.1-1.2,1.9-2.7c0.8-1.4-0.4-2.1,0.4-3.5s-0.1-1.9,0.7-3.3c0.8-1.4,2.4-0.5,3.2-2c0.8-1.4,0.6-1.5,1.4-3
	c0.8-1.4,1.7-0.9,2.5-2.3s-0.9-2.4-0.1-3.8s2.5-0.5,3.3-1.9s-1-2.4-0.2-3.8s1.1-1.3,1.9-2.7s2.3-0.6,3.1-2c0.8-1.4-1.7-2.8-0.9-4.2
	c0.8-1.4,1.7-0.9,2.5-2.4c0.8-1.4,1.5-1,2.3-2.5c0.8-1.4-0.5-2.2,0.3-3.6s1.1-1.2,1.9-2.7c0.8-1.4,1-1.3,1.8-2.8
	c0.8-1.4,1.9-0.8,2.7-2.3c0.8-1.4,0.8-1.4,1.6-2.9c0.8-1.4,0.3-1.7,1.1-3.1c0.8-1.4-0.6-2.2,0.2-3.6s2.5-0.5,3.3-1.9
	s-0.1-1.9,0.7-3.4c0.8-1.4,2-0.8,2.8-2.2s1.3-1.1,2.1-2.5s-0.6-2.2,0.2-3.6s0.5-1.6,1.3-3s0-1.8,0.8-3.3c0.8-1.4,2.5-0.5,3.3-1.9
	s0.6-1.5,1.4-3c0.8-1.4,1.4-1.1,2.2-2.5s1.1-1.2,1.9-2.7s-0.7-2.3,0.1-3.7s1.3-1.2,2-2.6c0.8-1.4,1.8-0.8,2.6-2.3
	c0.8-1.4,0.7-1.5,1.5-2.9s-0.7-2.3,0.1-3.7s0.1-1.8,0.9-3.3c0.8-1.4,1.3-1.1,2.1-2.6c0.8-1.4,0.6-1.5,1.4-3c0.8-1.4,1.6-1,2.4-2.4
	c0.8-1.4,2-0.7,2.8-2.2c0.8-1.4-0.5-2.1,0.3-3.6c0.8-1.4-0.3-2,0.5-3.4s1-1.3,1.8-2.8c0.8-1.4,1.7-0.9,2.5-2.3s0.8-1.4,1.6-2.9
	c0.8-1.4,0-1.9,0.8-3.3s0.9-1.4,1.7-2.8s1.6-1,2.4-2.4c0.8-1.4,2-0.8,2.8-2.2c0.8-1.4-0.4-2.1,0.4-3.5s1.9-0.8,2.7-2.2
	c0.8-1.4,0.7-1.5,1.5-2.9s0.9-1.4,1.6-2.8c0.8-1.4-0.4-2.1,0.4-3.6c0.8-1.4,2.1-0.7,2.9-2.1c0.8-1.4,0.7-1.5,1.5-2.9
	s-0.9-2.4-0.1-3.8s0.7-1.5,1.5-2.9s1.7-0.9,2.5-2.4c0.8-1.4,1.1-1.2,1.9-2.7c0.8-1.4,0.2-1.8,1-3.2c0.8-1.4,1.8-0.9,2.6-2.3
	s0.5-1.6,1.3-3s0.2-1.8,1-3.2c0.8-1.4-0.2-2,0.6-3.4s1.3-1.1,2.1-2.6c0.8-1.4,2-0.8,2.8-2.2c0.8-1.4,0.4-1.7,1.2-3.1
	c0.8-1.4,1.3-1.2,2.1-2.6c0.8-1.4-0.9-2.4-0.1-3.8s3.2-0.1,4-1.5s-0.4-2.1,0.4-3.5s-0.2-2,0.6-3.4s1.7-0.9,2.5-2.4
	c0.8-1.4,0-1.9,0.8-3.3s1.3-1.1,2.1-2.6c0.8-1.4,0.3-1.7,1.1-3.1c0.8-1.4,2-0.7,2.8-2.2c0.8-1.4-0.5-2.2,0.3-3.6s1.9-0.8,2.7-2.2
	c0.8-1.4,0.5-1.6,1.3-3s0.9-1.4,1.7-2.8s-0.1-2.3,1.6-2.3c1.6,0,1.9,0.2,2.7,1.7c0.8,1.4,0,1.9,0.8,3.3s1.6,1,2.4,2.4
	c0.8,1.4-1.1,2.5-0.3,3.9s0.5,1.6,1.3,3s3.1,0.1,3.9,1.6c0.8,1.4,0.6,1.5,1.4,3c0.8,1.4-0.4,2.1,0.4,3.5s-0.1,1.9,0.7,3.4
	c0.8,1.4,2.6,0.4,3.4,1.8c0.8,1.4,1.3,1.2,2,2.6c0.8,1.4-0.9,2.4-0.1,3.8s1.4,1.1,2.2,2.5c0.8,1.4,0.4,1.7,1.2,3.1
	c0.8,1.4,0.2,1.8,1,3.2c0.8,1.4,1.9,0.8,2.7,2.2c0.8,1.4,1.4,1.1,2.2,2.5c0.8,1.4,0.5,1.6,1.3,3s-0.6,2.2,0.2,3.6s2.5,0.5,3.3,1.9
	s0.1,1.8,0.9,3.2c0.8,1.4,0.9,1.4,1.7,2.8c0.8,1.4,1.3,1.1,2.1,2.6c0.8,1.4-0.1,1.9,0.7,3.4c0.8,1.4,1.5,1.1,2.2,2.5
	c0.8,1.4-0.9,2.4-0.1,3.8s3,0.2,3.8,1.6s-0.9,2.4-0.1,3.8s0.5,1.6,1.3,3s1.4,1.1,2.2,2.5c0.8,1.4,2.1,0.7,2.9,2.1s-0.1,1.9,0.7,3.4
	c0.8,1.4,1.4,1.1,2.2,2.5c0.8,1.4,1.1,1.3,1.8,2.7c0.8,1.4,1.1,1.3,1.9,2.7c0.8,1.4,0.4,1.7,1.2,3.1c0.8,1.4-1.1,2.5-0.3,3.9
	s1.1,1.3,1.9,2.7s1,1.3,1.8,2.7s0.3,1.7,1.1,3.1c0.8,1.4,2.4,0.5,3.2,2c0.8,1.4,0.6,1.5,1.4,3c0.8,1.4-0.6,2.2,0.2,3.7
	c0.8,1.4,0.8,1.4,1.6,2.9c0.8,1.4,2.6,0.4,3.4,1.8c0.8,1.4,0.9,1.4,1.6,2.8c0.8,1.4-0.6,2.2,0.2,3.7c0.8,1.4,2.2,0.6,3,2.1
	c0.8,1.4,0.2,1.8,1,3.2s0.8,1.4,1.6,2.9c0.8,1.4,1.8,0.9,2.6,2.3s-1.6,2.7-0.8,4.2c0.8,1.4,3.2,0.1,4,1.5s-1.4,2.6-0.6,4.1
	c0.8,1.4,3,0.2,3.8,1.6c0.8,1.4,0.2,1.7,1,3.2c0.8,1.4-0.8,2.3,0,3.8c0.8,1.4,2.9,0.2,3.7,1.7c0.8,1.4,0.6,1.6,1.4,3
	s-1.4,2.6-0.6,4.1c0.8,1.4,2.8,0.3,3.6,1.7c0.8,1.4-0.6,2.2,0.2,3.7c0.8,1.4,1.6,1,2.4,2.4s1.7,0.9,2.5,2.4c0.8,1.4-0.9,2.3-0.1,3.8
	c0.8,1.4,2.5,0.5,3.3,1.9s-0.8,2.3,0,3.7s0.3,1.7,1.1,3.1c0.8,1.4,3.2,0.1,4,1.5s-0.3,2.1,0.5,3.5s0.9,1.4,1.7,2.8
	c0.8,1.4,1.4,1.1,2.2,2.5c0.8,1.4-0.9,2.4-0.1,3.8s2.4,0.5,3.2,1.9c0.8,1.4,0.3,1.7,1,3.2c0.8,1.4-0.2,2,0.6,3.4s0.4,1.6,1.2,3.1
	c0.8,1.4,3,0.2,3.8,1.6c0.8,1.4,0.1,1.8,0.9,3.3c0.8,1.4,0.9,1.3,1.7,2.8c0.8,1.4-0.6,2.2,0.2,3.6s1,1.3,1.8,2.7s2.2,0.7,3,2.1
	s0.7,1.5,1.5,2.9s0.2,1.7,1,3.2c0.8,1.4,2,0.8,2.8,2.2c0.8,1.4,0.4,1.6,1.2,3.1c0.8,1.4-0.8,2.3,0,3.8c0.8,1.4,0.7,1.5,1.5,2.9
	s2.5,0.5,3.3,1.9s0.1,1.8,0.9,3.3c0.8,1.4,2,0.8,2.8,2.2c0.8,1.4-0.1,2,0.7,3.4c0.8,1.4,1.1,1.3,1.9,2.7c0.8,1.4,0.5,1.6,1.3,3
	s0.7,1.5,1.5,2.9s0.6,1.6,1.4,3s0,1.9,0.8,3.3s0.9,1.4,1.7,2.8c0.8,1.4,2.6,0.4,3.4,1.9c0.8,1.4,0.3,1.7,1.1,3.1
	c0.8,1.4-1,2.4-0.2,3.9c0.8,1.4,2.7,0.4,3.5,1.8s-0.8,2.3,0,3.8c0.8,1.4,2.9,0.2,3.7,1.7c0.8,1.4-0.9,2.4-0.1,3.8s0.6,1.6,1.4,3
	s2.5,0.5,3.3,1.9s-0.8,2.3,0,3.8c0.8,1.4,1.1,1.2,1.9,2.7c0.8,1.4,0.4,1.6,1.2,3.1c0.8,1.4,1,1.3,1.8,2.8c0.8,1.4,1.9,0.8,2.7,2.2
	c0.8,1.4,0.5,1.6,1.3,3s-0.6,2.2,0.2,3.7c0.8,1.4,2.6,0.4,3.4,1.9c0.8,1.4-0.2,2,0.6,3.4s1.8,0.9,2.6,2.3s0.3,1.7,1.1,3.2
	c0.8,1.4,0.7,1.5,1.5,2.9s1.2,1.2,2,2.6s0.5,1.6,1.3,3s-0.1,1.9,0.7,3.4c0.8,1.4,2.4,0.5,3.2,2c0.8,1.4-1,2.4-0.2,3.9
	c0.8,1.4,3.5,0.8,2.7,2.3c-0.8,1.4-1.6,0.6-3.3,0.6c-1.6,0-1.6-1.2-3.3-1.2c-1.6,0-1.6,0.3-3.3,0.3c-1.6,0-1.6,1.4-3.3,1.4
	c-1.6,0-1.6-2.3-3.3-2.3c-1.6,0-1.6,2.4-3.3,2.4c-1.6,0-1.6-1.6-3.3-1.6s-1.6,0.9-3.3,0.9c-1.6,0-1.6-1.7-3.3-1.7
	c-1.6,0-1.6,2.2-3.3,2.2c-1.6,0-1.6-1.9-3.3-1.9c-1.6,0-1.6,1.6-3.3,1.6c-1.6,0-1.6-0.4-3.3-0.4c-1.6,0-1.6-1.5-3.3-1.5
	c-1.6,0-1.6,0.8-3.3,0.8c-1.6,0-1.6,1.6-3.3,1.6c-1.6,0-1.6-1.6-3.3-1.6s-1.6,1.5-3.3,1.5h-3.3c0,0-1.6,0.4-3.3,0.4
	c-1.6,0-1.6-2.7-3.3-2.7c-1.6,0-1.6,1.6-3.3,1.6c-1.6,0-1.6-0.1-3.3-0.1c-1.6,0-1.6,1.1-3.3,1.1c-1.6,0-1.6-1.1-3.3-1.1
	s-1.6-0.2-3.3-0.2c-1.6,0-1.6-1.5-3.3-1.5c-1.6,0-1.6,1.1-3.3,1.1c-1.6,0-1.6,1.6-3.3,1.6c-1.6,0-1.6-0.3-3.3-0.3h-3.3
	c-1.6,0-1.6-1.4-3.3-1.4c-1.6,0-1.6,1.8-3.3,1.8c-1.6,0-1.6,0.2-3.3,0.2c-1.6,0-1.6-1.3-3.3-1.3s-1.6,0.1-3.3,0.1
	c-1.6,0-1.6-1.1-3.3-1.1c-1.6,0-1.6,1.4-3.3,1.4c-1.6,0-1.6-1.3-3.3-1.3c-1.6,0-1.6,1-3.3,1s-1.6-0.7-3.3-0.7c-1.6,0-1.6,2-3.3,2
	c-1.6,0-1.6-0.9-3.3-0.9s-1.6-1.5-3.3-1.5s-1.6,0.5-3.3,0.5c-1.6,0-1.6,0.9-3.3,0.9s-1.6-0.3-3.3-0.3c-1.6,0-1.6-1.3-3.3-1.3
	c-1.6,0-1.6,1.6-3.3,1.6c-1.6,0-1.6,0.6-3.3,0.6c-1.6,0-1.6,0.2-3.3,0.2s-1.6-2.2-3.3-2.2s-1.6-0.7-3.3-0.7c-1.6,0-1.6,2.2-3.3,2.2
	s-1.6-0.4-3.3-0.4c-1.6,0-1.6-1-3.3-1c-1.6,0-1.6-0.7-3.3-0.7s-1.6,1.8-3.3,1.8c-1.6,0-1.6-0.4-3.3-0.4c-1.6,0-1.6-0.4-3.3-0.4
	c-1.6,0-1.6,1.3-3.3,1.3c-1.6,0-1.6-1.5-3.3-1.5s-1.6,0.8-3.3,0.8c-1.6,0-1.6,1.1-3.3,1.1c-1.6,0-1.6-0.8-3.3-0.8
	c-1.6,0-1.6,0.5-3.3,0.5c-1.6,0-1.6-2.2-3.3-2.2c-1.6,0-1.6,1.1-3.3,1.1c-1.6,0-1.6,0.7-3.3,0.7c-1.6,0-1.6-0.8-3.3-0.8
	c-1.6,0-1.6,1-3.3,1s-1.6,0.4-3.3,0.4s-1.6-0.5-3.3-0.5s-1.6-1.9-3.3-1.9c-1.6,0-1.6-0.2-3.3-0.2c-1.6,0-1.6,1.4-3.3,1.4
	c-1.6,0-1.6-1.3-3.3-1.3c-1.6,0-1.6,0.6-3.3,0.6c-1.6,0-1.6,0.1-3.3,0.1c-1.6,0-1.6,2.1-3.3,2.1c-1.6,0-1.6-1.5-3.3-1.5
	c-1.6,0-1.6-0.5-3.3-0.5c-1.6,0-1.6-0.7-3.3-0.7c-1.6,0-1.6,2.3-3.3,2.3c-1.6,0-1.6,0.4-3.3,0.4c-1.6,0-1.6-2-3.3-2
	c-1.6,0-1.6,2-3.3,2c-1.6,0-1.6-1.8-3.3-1.8c-1.6,0-1.6-0.5-3.3-0.5c-1.6,0-1.6,0.3-3.3,0.3c-1.6,0-1.6,1.6-3.3,1.6h-3.3
	c-1.6,0-1.6-0.2-3.3-0.2c-1.6,0-1.6-1.7-3.3-1.7c-1.6,0-1.6,0.2-3.3,0.2c-1.6,0-1.6-0.4-3.3-0.4c-1.6,0-1.6,2-3.3,2
	c-1.6,0-1.6-1.5-3.3-1.5c-1.6,0-1.6,1.8-3.3,1.8c-1.6,0-1.6-2-3.3-2c-1.6,0-1.6,1.1-3.3,1.1c-1.6,0-1.6-1.2-3.3-1.2
	c-1.6,0-1.6,1-3.3,1c-1.6,0-1.6,0.9-3.3,0.9c-1.6,0-1.6-0.1-3.3-0.1c-1.6,0-1.6-0.2-3.3-0.2c-1.6,0-1.6-1.5-3.3-1.5
	c-1.6,0-1.6,1.3-3.3,1.3c-1.6,0-1.6-1.9-3.3-1.9c-1.6,0-1.6,0.3-3.3,0.3c-1.6,0-1.6,2.5-3.3,2.5c-1.6,0-1.6-2.4-3.3-2.4
	c-1.6,0-1.6,0.1-3.3,0.1h-3.3c-1.6,0-1.6,2.1-3.3,2.1c-1.6,0-1.6-0.4-3.3-0.4s-1.6,0.6-3.3,0.6c-1.6,0-1.6-2.4-3.3-2.4
	c-1.6,0-1.6,0.2-3.3,0.2c-1.6,0-1.6,1.8-3.3,1.8h-3.3c-1.6,0-1.7-1.8-3.4-1.5C37.6,378.9,37.4,380,36.5,378.6L36.5,378.6z"/>
<path class="st0" d="M275.7,431.4c-0.8-1.4,1.4-1.8,2.2-3.2c0.8-1.4-0.3-2.1,0.5-3.5s0.8-1.4,1.6-2.9c0.8-1.4,0.7-1.5,1.5-2.9
	s1.3-1.2,2.1-2.6c0.8-1.4,1.4-1.1,2.2-2.5c0.8-1.4,0.6-1.5,1.4-3c0.8-1.4,1.9-0.8,2.7-2.2c0.8-1.4,0.1-1.8,0.9-3.3
	c0.8-1.4,1.1-1.3,1.9-2.7c0.8-1.4,0-1.9,0.8-3.3s0.9-1.4,1.7-2.8c0.8-1.4,1.1-1.3,1.9-2.7c0.8-1.4,1.6-1,2.4-2.4s-0.8-2.3,0-3.7
	c0.8-1.4,0.4-1.6,1.2-3.1c0.8-1.4,2.5-0.5,3.3-1.9s0.5-1.6,1.3-3s0.3-1.7,1.1-3.1c0.8-1.4,0.9-1.4,1.7-2.8c0.8-1.4,1.3-1.1,2.1-2.5
	s1.5-1,2.3-2.4s-0.4-2.1,0.4-3.5s0.8-1.4,1.6-2.9c0.8-1.4-0.2-2,0.6-3.4s0.8-1.4,1.6-2.9c0.8-1.4,2-0.8,2.8-2.2
	c0.8-1.4,0.5-1.6,1.3-3s-0.2-2,0.5-3.4c0.8-1.4,2.8-0.3,3.6-1.7c0.8-1.4,0.2-1.7,1-3.2c0.8-1.4-0.6-2.2,0.2-3.6s2.8-0.3,3.6-1.8
	c0.8-1.4,1.2-1.2,2-2.6s0.6-1.5,1.4-2.9s-0.7-2.3,0.1-3.7c0.8-1.4,1.8-0.9,2.6-2.3s-0.4-2.1,0.4-3.5s1.1-1.2,1.9-2.7
	c0.8-1.4,2.4-0.5,3.2-2c0.8-1.4,0-1.9,0.8-3.3s1.3-1.1,2.1-2.6c0.8-1.4,0.2-1.7,1-3.2c0.8-1.4,0.1-1.8,0.9-3.3
	c0.8-1.4,0.7-1.5,1.5-2.9s0.6-1.5,1.4-2.9s1.7-0.9,2.5-2.4c0.8-1.4,1.5-1,2.3-2.5c0.8-1.4-0.8-2.3,0-3.7c0.8-1.4,0.5-1.6,1.3-3
	s3-0.2,3.8-1.6s-1.4-2.7-0.6-4.1s1.1-1.2,1.9-2.7c0.8-1.4,1.3-1.2,2.1-2.6c0.8-1.4,1.6-1,2.4-2.4s0.6-1.5,1.4-3
	c0.8-1.4,1.5-1.1,2.3-2.5s-1.3-2.6-0.5-4s1.1-1.3,1.9-2.7c0.8-1.4,2.9-0.3,3.6-1.7c0.8-1.4-1.2-2.5-0.4-4c0.8-1.4,2.8-0.3,3.6-1.7
	c0.8-1.4-1.3-2.6-0.5-4s2-0.7,2.8-2.2c0.8-1.4-0.2-2,0.6-3.4s1.3-1.2,2.1-2.6c0.8-1.4,0.7-1.5,1.5-2.9s1.6-1,2.4-2.4
	s1.4-1.1,2.2-2.5c0.8-1.4-0.3-2,0.5-3.5c0.8-1.4,0.4-1.6,1.2-3.1c0.8-1.4,1.6-1,2.4-2.4s1-1.3,1.8-2.7s-1.2-2.5-0.4-4
	c0.8-1.4,0.7-1.5,1.5-2.9s2.4-0.5,3.2-2c0.8-1.4,0.8-1.4,1.6-2.9c0.8-1.4-0.4-2.1,0.4-3.5s0.4-1.6,1.2-3.1c0.8-1.4,1.3-1.1,2.1-2.6
	c0.8-1.4,0.9-1.4,1.7-2.8c0.8-1.4,0.9-1.3,1.7-2.8c0.8-1.4,1.2-1.2,2-2.6c0.8-1.4-0.4-2.1,0.4-3.5s1.3-1.1,2.1-2.6
	c0.8-1.4,2.4-0.5,3.2-1.9c0.8-1.4,1-1.3,1.8-2.8c0.8-1.4-1-2.4-0.2-3.9c0.8-1.4,0.4-1.7,1.2-3.1c0.8-1.4,2.9-0.3,3.7-1.7
	c0.8-1.4,0-1.9,0.8-3.3s-0.5-2.1,0.3-3.6c0.8-1.4,2.8-0.3,3.6-1.7c0.8-1.4-0.7-2.3,0.1-3.7c0.8-1.4,2.3-0.6,3.1-2l1.6-2.8
	c0.8-1.4-0.7-2.3,0.1-3.7c0.8-1.4,0.9-1.4,1.7-2.8c0.8-1.4,1.5-1,2.3-2.5c0.8-1.4-0.7-2.3,0.1-3.7c0.8-1.4,2.7-0.4,3.5-1.8
	c0.8-1.4-1-2.4-0.2-3.8s1.6-1,2.4-2.4s0.9-1.3,1.7-2.8s2.1-0.7,2.9-2.1c0.8-1.4-1.8-2.9-1-4.3s2.8-0.3,3.6-1.8
	c0.8-1.4,1.1-1.3,1.9-2.7c0.8-1.4-0.2-2,0.6-3.4s0.7-1.5,1.5-2.9s0.8-1.5,1.6-2.9s1.6-1,2.4-2.4s1.2-1.2,2-2.6s-0.3-2,0.5-3.5
	c0.8-1.4-0.4-2.1,0.4-3.5s1.4-1.1,2.2-2.5c0.8-1.4,1.8-0.9,2.6-2.3s1.7-0.9,2.5-2.4c0.8-1.4-0.3-2,0.5-3.5c0.8-1.4,0.6-1.6,1.4-3
	l1.6-2.8c0.8-1.4,1.7-0.9,2.5-2.3s-1-2.5-0.2-3.9s2.9-0.3,3.7-1.7c0.8-1.4,0-1.9,0.8-3.3s-0.3-4.3,1.3-4.3s0.7,2.8,1.5,4.2l1.6,2.8
	c0.8,1.4,1.3,1.1,2.1,2.6c0.8,1.4,1.6,1,2.4,2.4s0.3,1.7,1.1,3.1c0.8,1.4,0.5,1.6,1.3,3s1,1.3,1.8,2.7c0.8,1.4-0.1,1.9,0.7,3.4
	c0.8,1.4,1.1,1.2,1.9,2.7c0.8,1.4,1.1,1.2,1.9,2.7c0.8,1.4-0.9,2.3-0.1,3.8c0.8,1.4,1,1.3,1.8,2.7c0.8,1.4,1.5,1,2.3,2.4
	s0.2,1.8,1,3.2c0.8,1.4,2.1,0.7,2.9,2.1s-0.9,2.4-0.1,3.8s1.3,1.2,2.1,2.6c0.8,1.4,1.3,1.1,2.1,2.6c0.8,1.4,2.1,0.7,2.9,2.1
	s0.1,1.8,0.9,3.3c0.8,1.4,1.1,1.3,1.9,2.7s1.1,1.3,1.9,2.7s-1.4,2.6-0.6,4.1c0.8,1.4,1.6,1,2.4,2.4c0.8,1.4,1.4,1.1,2.2,2.5
	s0.5,1.6,1.3,3s2,0.7,2.8,2.2c0.8,1.4,0.5,1.6,1.3,3s0.6,1.5,1.4,3c0.8,1.4,1,1.3,1.8,2.8c0.8,1.4-0.9,2.4-0.1,3.8s0.5,1.6,1.3,3
	s1.9,0.8,2.7,2.2s0.9,1.3,1.7,2.8c0.8,1.4,1.9,0.8,2.7,2.2s-1.2,2.5-0.4,4c0.8,1.4,2.9,0.3,3.7,1.7s-0.1,1.9,0.7,3.4
	c0.8,1.4,1,1.3,1.8,2.8c0.8,1.4,1.3,1.2,2.1,2.6c0.8,1.4,0.9,1.4,1.7,2.8c0.8,1.4-0.4,2.1,0.4,3.5s0.1,1.8,0.9,3.3
	c0.8,1.4,0.9,1.4,1.7,2.8c0.8,1.4,1.8,0.9,2.6,2.3s1.7,0.9,2.5,2.3s0.1,1.8,0.9,3.2c0.8,1.4,1.5,1,2.3,2.5c0.8,1.4-0.9,2.4-0.1,3.8
	s2,0.7,2.8,2.2c0.8,1.4,1,1.3,1.8,2.7s-0.6,2.2,0.2,3.7c0.8,1.4,0.3,1.7,1.1,3.2c0.8,1.4,1.2,1.2,2,2.6c0.8,1.4,1.4,1.1,2.2,2.5
	s1.5,1,2.3,2.5c0.8,1.4-1,2.4-0.2,3.9c0.8,1.4,1,1.3,1.8,2.8c0.8,1.4,2.6,0.4,3.4,1.8c0.8,1.4,1.2,1.2,2,2.6c0.8,1.4,0,1.9,0.8,3.3
	s1,1.3,1.7,2.8c0.8,1.4-0.4,2.1,0.4,3.5s2.6,0.4,3.4,1.8c0.8,1.4-1,2.5-0.2,3.9s0.6,1.5,1.4,2.9c0.8,1.4,1.8,0.8,2.6,2.3
	c0.8,1.4-0.5,2.2,0.3,3.6s1.1,1.2,1.9,2.7c0.8,1.4,1.4,1.1,2.2,2.5s0.5,1.6,1.3,3s1.9,0.8,2.7,2.2c0.8,1.4,0.2,1.8,1,3.2
	c0.8,1.4,0.4,1.7,1.2,3.1s2.3,0.6,3.1,2s-1.3,2.6-0.5,4s2.7,0.4,3.5,1.8s-0.9,2.4-0.1,3.8s1.3,1.1,2.1,2.6c0.8,1.4,1,1.3,1.8,2.7
	c0.8,1.4,1.3,1.1,2.1,2.6l1.6,2.8c0.8,1.4-0.1,1.9,0.7,3.4c0.8,1.4,2.2,0.6,3,2.1c0.8,1.4-0.9,2.4-0.1,3.8s0.6,1.5,1.4,3
	c0.8,1.4,1.9,0.8,2.7,2.2c0.8,1.4,0.7,1.5,1.5,2.9s-0.4,2.1,0.4,3.5s0.8,1.4,1.6,2.9c0.8,1.4,2.6,0.4,3.4,1.8c0.8,1.4,0.6,1.5,1.4,3
	c0.8,1.4-0.3,2,0.5,3.5c0.8,1.4,2.4,0.5,3.2,2c0.8,1.4,0.9,1.4,1.7,2.8s-0.7,2.3,0.1,3.7c0.8,1.4,1.4,1.1,2.2,2.5s0.4,1.6,1.2,3.1
	c0.8,1.4,0.9,1.4,1.7,2.8s1.4,1.1,2.2,2.5s1.1,1.3,1.9,2.7c0.8,1.4-0.9,2.4-0.1,3.8s1,1.3,1.8,2.7c0.8,1.4,0.7,1.5,1.5,2.9
	s2.5,0.5,3.3,1.9s-1.6,2.8-0.8,4.2c0.8,1.4,3.2,0.1,4,1.5s-1,2.4-0.2,3.8s1.5,1,2.3,2.5c0.8,1.4,0.5,1.6,1.3,3s0.6,1.5,1.4,2.9
	c0.8,1.4,2,0.8,2.8,2.2c0.8,1.4,1.3,1.2,2.1,2.6s0.1,1.8,0.9,3.3c0.8,1.4,0.9,1.3,1.7,2.8c0.8,1.4-1,2.5-0.2,3.9s2.3,0.6,3.1,2
	s0.6,1.5,1.4,3c0.8,1.4,1.5,1,2.3,2.5c0.8,1.4,1,1.3,1.8,2.7c0.8,1.4-0.2,2,0.6,3.4s1.9,0.8,2.7,2.3c0.8,1.4-1,2.4-0.2,3.9
	c0.8,1.4,1.2,1.2,2,2.6s0.9,1.4,1.7,2.8s3.8,2,2.9,3.4c-0.8,1.4-2.8,0-4.4,0c-1.6,0-1.6-0.2-3.3-0.2c-1.6,0-1.6,0.4-3.3,0.4
	c-1.6,0-1.6-1.7-3.3-1.7c-1.6,0-1.6,0.5-3.3,0.5s-1.6-0.1-3.3-0.1c-1.6,0-1.6-0.3-3.3-0.3s-1.6,0.5-3.3,0.5c-1.6,0-1.6,0.5-3.3,0.5
	c-1.6,0-1.6-0.8-3.3-0.8c-1.6,0-1.6-0.5-3.3-0.5c-1.6,0-1.6,2-3.3,2c-1.6,0-1.6-1.5-3.3-1.5c-1.6,0-1.6,1.5-3.3,1.5
	c-1.6,0-1.6-0.2-3.3-0.2c-1.6,0-1.6-1.7-3.3-1.7s-1.6-0.4-3.3-0.4s-1.6,1.1-3.3,1.1c-1.6,0-1.6-0.9-3.3-0.9c-1.6,0-1.6,2.6-3.3,2.6
	c-1.6,0-1.6-2.7-3.3-2.7c-1.6,0-1.6,1.3-3.3,1.3c-1.6,0-1.6-0.1-3.3-0.1c-1.6,0-1.6-0.1-3.3-0.1c-1.6,0-1.6,0.5-3.3,0.5
	s-1.6-0.6-3.3-0.6c-1.6,0-1.6,0.4-3.3,0.4c-1.6,0-1.6,1.2-3.3,1.2c-1.6,0-1.6-2.2-3.3-2.2c-1.6,0-1.6,0.4-3.3,0.4
	c-1.6,0-1.6,1.1-3.3,1.1s-1.6-0.3-3.3-0.3c-1.6,0-1.6-1.2-3.3-1.2c-1.6,0-1.6,1.2-3.3,1.2c-1.6,0-1.6-0.6-3.3-0.6
	c-1.6,0-1.6,1.7-3.3,1.7c-1.6,0-1.6-1.5-3.3-1.5c-1.6,0-1.6-1.4-3.3-1.4c-1.6,0-1.6,1.7-3.3,1.7c-1.6,0-1.6,0.6-3.3,0.6
	c-1.6,0-1.6-1.8-3.3-1.8h-3.3c-1.6,0-1.6,0.9-3.3,0.9c-1.6,0-1.6,1.4-3.3,1.4c-1.6,0-1.6,0.1-3.3,0.1c-1.6,0-1.6-2.5-3.3-2.5
	c-1.6,0-1.6,1.4-3.3,1.4c-1.6,0-1.6-0.5-3.3-0.5c-1.6,0-1.6-0.6-3.3-0.6c-1.6,0-1.6,0.8-3.3,0.8h-3.3c-1.6,0-1.6,0.4-3.3,0.4
	c-1.6,0-1.6-1.8-3.3-1.8c-1.6,0-1.6,0.1-3.3,0.1c-1.6,0-1.6,0.3-3.3,0.3s-1.6,0.6-3.3,0.6c-1.6,0-1.6,0.9-3.3,0.9
	c-1.6,0-1.6-1.3-3.3-1.3c-1.6,0-1.6,1.7-3.3,1.7c-1.6,0-1.6-1.5-3.3-1.5c-1.6,0-1.6,0.7-3.3,0.7c-1.6,0-1.6-1.5-3.3-1.5
	s-1.6,2.4-3.3,2.4c-1.6,0-1.6-1.9-3.3-1.9c-1.6,0-1.6,0.8-3.3,0.8c-1.6,0-1.6,1.3-3.3,1.3c-1.6,0-1.6-0.1-3.3-0.1
	c-1.6,0-1.6-1-3.3-1c-1.6,0-1.6-1.1-3.3-1.1c-1.6,0-1.6,0.8-3.3,0.8h-3.3c-1.6,0-1.6,0.8-3.3,0.8h-3.3c-1.6,0-1.6-1.5-3.3-1.5h-3.3
	c-1.6,0-1.6,1.7-3.3,1.7c-1.6,0-1.6,0.1-3.3,0.1c-1.6,0-1.6-2.3-3.3-2.3c-1.6,0-1.6,1.7-3.3,1.7c-1.6,0-1.6,0.9-3.3,0.9
	c-1.6,0-1.6-1.9-3.3-1.9c-1.6,0-1.6-0.2-3.3-0.2c-1.6,0-1.6,0.5-3.3,0.5c-1.6,0-1.6,1.4-3.3,1.4c-1.6,0-1.6-1.5-3.3-1.5
	s-1.6,1.7-3.3,1.7c-1.6,0-1.6-2.1-3.3-2.1c-1.6,0-1.6,0.6-3.3,0.6c-1.6,0-1.6-0.4-3.3-0.4c-1.6,0-1.6,0.8-3.3,0.8
	c-1.6,0-1.6,0.7-3.3,0.7c-1.6,0-1.6-1.4-3.3-1.4c-1.6,0-1.6,2-3.3,2c-1.6,0-1.6-2-3.3-2c-1.6,0-1.6,1.1-3.3,1.1
	c-1.6,0-1.6-0.8-3.3-0.8c-1.6,0-1.6,1.1-3.3,1.1c-1.6,0-1.6-0.1-3.3-0.1c-1.6,0-1.6,0.5-3.3,0.5s-1.6-1.9-3.3-1.9
	c-1.6,0-1.6,0.2-3.3,0.2c-1.6,0-1.6-0.7-3.3-0.7c-1.6,0-1.6,0.1-3.3,0.1c-1.6,0-1.6,2.1-3.3,2.1c-1.6,0-1.6,0.1-3.3,0.1
	c-1.6,0-1.6-2.3-3.3-2.3c-1.6,0-1.6,2.2-3.3,2.2c-1.6,0-1.6-1.3-3.3-1.3c-1.6,0-1.6-0.1-3.3-0.1c-1.6,0-1.6-0.2-3.3-0.2
	c-1.6,0-1.6,2-3.3,2c-1.6,0-1.6-1.7-3.3-1.7c-1.6,0-1.6,0.3-3.3,0.3c-1.6,0-1.6,1.4-3.3,1.4c-1.6,0-1.6-2.2-3.3-2.2
	c-1.6,0-1.6,0.8-3.3,0.8s-1.6-0.6-3.3-0.6c-1.6,0-1.6-0.6-3.3-0.6c-1.6,0-1.6,2.4-3.3,2.4s-1.6-0.2-3.3-0.2c-1.6,0-1.6-0.4-3.3-0.4
	c-1.6,0-1.4,0-3,0.5C277.8,432.5,276.5,432.8,275.7,431.4L275.7,431.4z"/>
<path class="st0" d="M366.3,442.4c-0.8-1.4,1.1-0.1,1.9-1.5s0.3-1.7,1.1-3.1c0.8-1.4,0.9-1.4,1.7-2.8c0.8-1.4,0.1-1.8,0.9-3.2
	c0.8-1.4,0.7-1.5,1.5-2.9s0.3-1.7,1.1-3.1c0.8-1.4,1.3-1.1,2.1-2.6c0.8-1.4,0.3-1.7,1.1-3.2c0.8-1.4,1.2-1.2,2-2.6s1.8-0.9,2.6-2.3
	s1-1.3,1.8-2.7c0.8-1.4-1.5-2.7-0.7-4.1s2-0.8,2.8-2.2c0.8-1.4-0.6-2.2,0.2-3.6s2.8-0.3,3.5-1.8c0.8-1.4,0.7-1.5,1.5-2.9
	s-0.1-1.9,0.7-3.3c0.8-1.4,2.4-0.5,3.2-2c0.8-1.4-1.3-2.6-0.5-4s0.6-1.5,1.4-3c0.8-1.4,2.7-0.4,3.5-1.8s-0.2-2,0.6-3.4
	s0.1-1.8,0.9-3.2c0.8-1.4,1.9-0.8,2.7-2.2c0.8-1.4-0.2-2,0.6-3.4s1.3-1.1,2.1-2.6c0.8-1.4-0.2-2,0.6-3.4s2.4-0.5,3.2-2
	c0.8-1.4,0.3-1.7,1.1-3.1c0.8-1.4,1.4-1.1,2.2-2.5c0.8-1.4,1.3-1.1,2.1-2.6c0.8-1.4,0.4-1.6,1.2-3c0.8-1.4-0.9-2.4-0.1-3.8
	s1.2-1.2,2-2.6s1.4-1.1,2.2-2.5c0.8-1.4,1.4-1.1,2.2-2.5c0.8-1.4,0.1-1.8,0.9-3.2c0.8-1.4,1.3-1.1,2.1-2.6c0.8-1.4,0.3-1.7,1.1-3.1
	c0.8-1.4,2-0.8,2.8-2.2c0.8-1.4-1.3-2.6-0.5-4s1.1-1.3,1.9-2.7c0.8-1.4,1.9-0.8,2.7-2.2c0.8-1.4,1.7-0.9,2.5-2.4
	c0.8-1.4-0.6-2.2,0.2-3.6s0.5-1.6,1.2-3c0.8-1.4,1.4-1.1,2.2-2.5l1.6-2.8c0.8-1.4,1.3-1.1,2.1-2.6c0.8-1.4,1.2-1.2,2-2.7
	c0.8-1.4-0.5-2.2,0.3-3.6s2-0.7,2.8-2.2c0.8-1.4-0.3-2.1,0.5-3.5s0.9-1.4,1.7-2.8c0.8-1.4-0.1-1.9,0.7-3.4c0.8-1.4,2.5-0.5,3.3-1.9
	s-0.5-2.1,0.3-3.6c0.8-1.4,0.5-1.6,1.3-3s2.5-0.4,3.3-1.9c0.8-1.4,0.5-1.6,1.3-3s1.5-1,2.3-2.5c0.8-1.4-0.6-2.2,0.2-3.6
	s1.3-1.1,2.1-2.5s0.7-1.5,1.5-2.9s0.9-1.4,1.7-2.8s-0.5-2.2,0.3-3.6s2.2-0.6,3-2.1c0.8-1.4,0.9-1.4,1.7-2.8c0.8-1.4,0.9-1.4,1.7-2.8
	c0.8-1.4,0.6-1.6,1.4-3s-0.6-2.2,0.2-3.6s2.1-0.7,2.9-2.1c0.8-1.4,1.1-1.3,1.9-2.7s0-1.9,0.8-3.3s0.9-1.4,1.7-2.8
	c0.8-1.4-0.4-2.1,0.4-3.5s2.6-0.4,3.4-1.8c0.8-1.4-0.2-2,0.6-3.4s0.1-1.8,0.9-3.2s1.2-1.2,2-2.6c0.8-1.4,0.5-1.6,1.2-3
	c0.8-1.4,2.9-0.3,3.7-1.7c0.8-1.4,0.2-1.7,1-3.2c0.8-1.4-0.9-2.4-0.1-3.8s3.2-0.1,4-1.5s-0.8-2.3,0-3.7s0.3-1.7,1.1-3.1
	c0.8-1.4,2.3-0.6,3.1-2c0.8-1.4,1-1.3,1.8-2.7s0-1.9,0.8-3.3s1.3-1.1,2.1-2.5s0.4-1.6,1.2-3.1c0.8-1.4,1.7-0.9,2.5-2.3
	s1-1.3,1.8-2.8c0.8-1.4-1.6-2.8-0.8-4.2s1.9-0.8,2.7-2.2s2-0.8,2.8-2.2s0.4-1.7,1.2-3.1c0.8-1.4,0.5-1.6,1.3-3s1.4-1.1,2.2-2.5
	s-1.2-2.5-0.4-4c0.8-1.4,2-0.8,2.8-2.2s1.4-1.1,2.2-2.5s1-1.3,1.8-2.8c0.8-1.4-0.6-2.2,0.2-3.6s1.9-0.8,2.7-2.3
	c0.8-1.4-0.6-2.2,0.2-3.6s1.3-1.2,2.1-2.6c0.8-1.4,1.9-0.8,2.7-2.3c0.8-1.4,0.9-1.4,1.7-2.8c0.8-1.4-0.3-2,0.5-3.5
	c0.8-1.4,2.2-0.7,3-2.1s0.2-1.8,1-3.2c0.8-1.4,1.1-1.3,1.9-2.7c0.8-1.4-1.1-2.5-0.3-3.9s2.3-0.6,3.1-2s0.6-1.5,1.4-3
	c0.8-1.4,0.2-1.7,1-3.2c0.8-1.4-0.1-2,0.7-3.4s1.7-0.9,2.5-2.4c0.8-1.4,0.4-1.7,1.2-3.1s1.9-0.8,2.7-2.3c0.8-1.4,1.1-1.3,1.9-2.7
	c0.8-1.4,1-1.3,1.8-2.7c0.8-1.4,1.2-1.2,2-2.6s-1.3-2.6,0.4-2.6c1.6,0,1.6,0,2.4,1.4c0.8,1.4-0.6,2.2,0.2,3.6s2.1,0.7,2.9,2.1
	c0.8,1.4,0,1.9,0.8,3.3s1.5,1.1,2.2,2.5c0.8,1.4,1.3,1.1,2.1,2.6c0.8,1.4,0.1,1.8,0.9,3.3c0.8,1.4-0.4,2.1,0.4,3.5s1.1,1.2,1.9,2.7
	c0.8,1.4,2.5,0.5,3.3,1.9s-0.9,2.4-0.1,3.8s1.8,0.9,2.6,2.3s0.9,1.3,1.7,2.8c0.8,1.4,1,1.3,1.8,2.7c0.8,1.4-0.4,2.1,0.4,3.5
	c0.8,1.4,2.2,0.6,3,2.1c0.8,1.4-0.8,2.3,0,3.8c0.8,1.4,2.3,0.6,3.1,2s-0.8,2.3,0,3.7s1.4,1.1,2.2,2.5s1.3,1.2,2.1,2.6
	c0.8,1.4,0,1.9,0.8,3.3s2.4,0.5,3.2,2c0.8,1.4-0.1,1.9,0.7,3.4c0.8,1.4,0.4,1.7,1.1,3.1c0.8,1.4,0.2,1.8,1,3.2s1.1,1.3,1.9,2.7
	l1.6,2.8c0.8,1.4,1.2,1.2,2,2.6c0.8,1.4,0.1,1.8,0.9,3.2c0.8,1.4,2.5,0.5,3.3,1.9s-1.3,2.6-0.5,4s2.7,0.4,3.5,1.8
	c0.8,1.4-0.6,2.2,0.2,3.6s1.6,1,2.4,2.4c0.8,1.4,0.5,1.6,1.3,3s0,1.9,0.8,3.3s0.8,1.4,1.6,2.9c0.8,1.4,1.4,1.1,2.2,2.5
	s1.6,1,2.4,2.4c0.8,1.4,1.5,1,2.3,2.4s-1.1,2.5-0.3,3.9s2,0.7,2.8,2.2c0.8,1.4,1.2,1.2,2,2.6c0.8,1.4,0.1,1.8,0.9,3.2
	c0.8,1.4-0.5,2.1,0.3,3.6c0.8,1.4,2.4,0.5,3.2,1.9s-0.4,2.1,0.4,3.5s2.4,0.5,3.2,2c0.8,1.4,0.4,1.7,1.1,3.1c0.8,1.4-1,2.4-0.2,3.9
	c0.8,1.4,1.9,0.8,2.7,2.2s1.1,1.2,1.9,2.7c0.8,1.4,1.3,1.2,2.1,2.6c0.8,1.4-1.1,2.5-0.3,3.9s2.3,0.6,3.1,2s0.6,1.5,1.4,3
	c0.8,1.4,1.5,1,2.3,2.4l1.6,2.8c0.8,1.4-0.6,2.2,0.2,3.6c0.8,1.4,1.9,0.8,2.7,2.2c0.8,1.4,0.3,1.7,1.1,3.1s0.2,1.8,0.9,3.2
	c0.8,1.4,0.7,1.5,1.5,2.9s1.7,0.9,2.5,2.3s1,1.3,1.8,2.7c0.8,1.4,0.3,1.7,1.1,3.1s1.7,0.9,2.5,2.3s-0.2,2,0.6,3.4s0.3,1.7,1.1,3.1
	s1,1.3,1.8,2.7c0.8,1.4,0.9,1.4,1.7,2.8s1.4,1.1,2.2,2.5s1.6,1,2.4,2.4c0.8,1.4-1,2.4-0.2,3.9c0.8,1.4,1.4,1.1,2.2,2.5
	s1.3,1.2,2,2.6c0.8,1.4,1.5,1,2.3,2.5c0.8,1.4,0.1,1.8,0.9,3.2c0.8,1.4,1.6,1,2.4,2.4l1.6,2.8c0.8,1.4,0,1.9,0.8,3.3
	s0.8,1.4,1.6,2.9c0.8,1.4-0.4,2.1,0.4,3.5s2,0.7,2.8,2.2c0.8,1.4-0.5,2.2,0.3,3.6s1,1.3,1.8,2.7c0.8,1.4,2.2,0.6,3,2.1
	c0.8,1.4-0.9,2.4-0.1,3.8s2.7,0.4,3.5,1.8s-0.5,2.2,0.3,3.6s0.2,1.8,1,3.2c0.8,1.4,0.7,1.5,1.5,2.9s1.4,1.1,2.2,2.5s1.3,1.1,2.1,2.6
	c0.8,1.4,1.5,1.1,2.3,2.5s1,1.3,1.8,2.8c0.8,1.4,0.1,1.8,0.9,3.2c0.8,1.4,1.5,1,2.3,2.5c0.8,1.4-0.2,2,0.6,3.4s0,1.9,0.8,3.3
	s1.4,1.1,2.2,2.5s1.8,0.9,2.6,2.3s-0.2,2,0.6,3.4s1.8,0.8,2.6,2.3c0.8,1.4-1.3,2.6-0.5,4s2.7,0.4,3.5,1.8s0.6,1.6,1.4,3
	c0.8,1.4,1.5,1,2.3,2.5c0.8,1.4-1,2.4-0.2,3.8s1.1,1.3,1.9,2.7c0.8,1.4,0.9,1.4,1.7,2.8s0.2,1.7,1,3.2c0.8,1.4,2.1,0.7,2.9,2.1
	c0.8,1.4,0.5,1.6,1.3,3s-0.3,2.1,0.5,3.5s2.1,0.7,2.9,2.1c0.8,1.4,1,1.3,1.8,2.7c0.8,1.4-1,2.5-0.2,3.9s0.8,1.4,1.6,2.9
	c0.8,1.4,1.2,1.2,2,2.6s1.8,0.9,2.6,2.3s-0.2,2,0.6,3.4s2.3,0.6,3.1,2s-0.7,2.3,0.1,3.7c0.8,1.4,2.2,0.4,1.4,1.8s-0.6,0.6-2.2,0.6
	s-1.6-0.8-3.3-0.8c-1.6,0-1.6-0.6-3.3-0.6c-1.6,0-1.6,2.4-3.3,2.4c-1.6,0-1.6-2.2-3.3-2.2c-1.6,0-1.6,0.3-3.3,0.3
	c-1.6,0-1.6-0.4-3.3-0.4c-1.6,0-1.6,1.8-3.3,1.8c-1.6,0-1.6-0.9-3.3-0.9c-1.6,0-1.6,0.1-3.3,0.1c-1.6,0-1.6,1.5-3.3,1.5
	c-1.6,0-1.6-2.4-3.3-2.4c-1.6,0-1.6,2.6-3.3,2.6c-1.6,0-1.6-2.2-3.3-2.2c-1.6,0-1.6,1-3.3,1c-1.6,0-1.6-1.3-3.3-1.3
	c-1.6,0-1.6,1.1-3.3,1.1s-1.6-0.4-3.3-0.4s-1.6,1.7-3.3,1.7c-1.6,0-1.6-1.3-3.3-1.3c-1.6,0-1.6-0.8-3.3-0.8c-1.6,0-1.6,0.9-3.3,0.9
	c-1.6,0-1.6-0.4-3.3-0.4c-1.6,0-1.6,1-3.3,1s-1.6-0.9-3.3-0.9c-1.6,0-1.6,0.8-3.3,0.8s-1.6-0.4-3.3-0.4c-1.6,0-1.6-1.5-3.3-1.5
	c-1.6,0-1.6,2.1-3.3,2.1c-1.6,0-1.6-1.6-3.3-1.6c-1.6,0-1.6-0.6-3.3-0.6c-1.6,0-1.6,2-3.3,2c-1.6,0-1.6,0.6-3.3,0.6
	c-1.6,0-1.6-0.3-3.3-0.3s-1.6-0.4-3.3-0.4c-1.6,0-1.6-1.9-3.3-1.9c-1.6,0-1.6,2.4-3.3,2.4c-1.6,0-1.6,0.1-3.3,0.1s-1.6-1.6-3.3-1.6
	c-1.6,0-1.6,0.8-3.3,0.8s-1.6-0.2-3.3-0.2c-1.6,0-1.6-0.1-3.3-0.1s-1.6-0.8-3.3-0.8c-1.6,0-1.6,1.4-3.3,1.4c-1.6,0-1.6-2-3.3-2
	c-1.6,0-1.6,0.8-3.3,0.8c-1.6,0-1.6,0.3-3.3,0.3c-1.6,0-1.6-0.7-3.3-0.7c-1.6,0-1.6,1.5-3.3,1.5c-1.6,0-1.6-0.8-3.3-0.8
	c-1.6,0-1.6,1-3.3,1c-1.6,0-1.6-0.2-3.3-0.2c-1.6,0-1.6-0.8-3.3-0.8c-1.6,0-1.6,1.4-3.3,1.4c-1.6,0-1.6-1.1-3.3-1.1
	c-1.6,0-1.6,1.3-3.3,1.3s-1.6-2-3.3-2c-1.6,0-1.6,1.6-3.3,1.6c-1.6,0-1.6-2.2-3.3-2.2c-1.6,0-1.6,0.5-3.3,0.5
	c-1.6,0-1.6,1.7-3.3,1.7c-1.6,0-1.6-0.6-3.3-0.6c-1.6,0-1.6-1.6-3.3-1.6c-1.6,0-1.6,0.7-3.3,0.7c-1.6,0-1.6-0.7-3.3-0.7
	c-1.6,0-1.6,0.6-3.3,0.6c-1.6,0-1.6-0.3-3.3-0.3c-1.6,0-1.6,1.6-3.3,1.6c-1.6,0-1.6,0.6-3.3,0.6c-1.6,0-1.6-1.3-3.3-1.3
	s-1.6,0.6-3.3,0.6s-1.6,1.1-3.3,1.1s-1.6-1.9-3.3-1.9c-1.6,0-1.6,0.2-3.3,0.2c-1.6,0-1.6,1.8-3.3,1.8h-3.3c-1.6,0-1.6-2.7-3.3-2.7
	c-1.6,0-1.6,2.3-3.3,2.3c-1.6,0-1.6-1.2-3.3-1.2s-1.6-1.3-3.3-1.3c-1.6,0-1.6,2.6-3.3,2.6c-1.6,0-1.6-1.5-3.3-1.5
	c-1.6,0-1.6,1.3-3.3,1.3c-1.6,0-1.6-1.1-3.3-1.1c-1.6,0-1.6,1.4-3.3,1.4c-1.6,0-1.6-1.2-3.3-1.2c-1.6,0-1.6,0.5-3.3,0.5
	s-1.6-1.4-3.3-1.4c-1.6,0-1.6,2-3.3,2c-1.6,0-1.6-0.5-3.3-0.5c-1.6,0-1.6-1.4-3.3-1.4c-1.6,0-1.6,0.9-3.3,0.9
	c-1.6,0-1.6,0.9-3.3,0.9c-1.6,0-1.6-0.2-3.3-0.2s-1.6,0.5-3.3,0.5c-1.6,0-1.6-2.6-3.3-2.6c-1.6,0-1.6,1.9-3.3,1.9
	c-1.6,0-1.6-0.4-3.3-0.4h-3.3c-1.6,0-1.6,0.7-3.3,0.7c-1.6,0-1.6,0.6-3.3,0.6c-1.6,0-1.6-0.9-3.3-0.9c-1.6,0-1.6,0.7-3.3,0.7
	c-1.6,0-1.6-0.2-3.3-0.2c-1.6,0-1.6-1.2-3.3-1.2s-1.6-0.6-3.3-0.6c-1.6,0-1.6-0.1-3.3-0.1c-1.6,0-1.6,2.1-3.3,2.1
	c-1.6,0-1.6-1.6-3.3-1.6c-1.6,0-1.6,1.7-3.3,1.7c-1.6,0-1.6-2.1-3.3-2.1c-1.6,0-1.6,1.3-3.3,1.3c-1.6,0-1.6,0.7-3.3,0.7
	c-1.6,0-1.6-0.4-3.3-0.4c-1.6,0-1.6-1.2-3.3-1.2c-1.6,0-1.6,1.6-3.3,1.6c-1.6,0-1.6-0.7-3.3-0.7c-1.6,0-1.6,0.6-3.3,0.6
	c-1.6,0-1.6-2.2-3.3-2.2c-1.6,0-1.6,1.7-3.3,1.7c-1.6,0-1.6-1.3-3.3-1.3c-1.6,0-1.7,0.1-3.3,0.4C367.3,443,367.2,443.8,366.3,442.4
	L366.3,442.4z"/>
<path class="st0" d="M437.7,417.9c-0.8-1.4,1.6-0.9,2.4-2.3s-0.3-2,0.5-3.5c0.8-1.4,1.8-0.8,2.6-2.3c0.8-1.4-1.3-2.6-0.5-4
	s3.2-0.1,4-1.5s-0.4-2.1,0.4-3.5s-0.4-2.1,0.4-3.5s1.3-1.1,2.1-2.5s0.9-1.4,1.7-2.8c0.8-1.4,1.1-1.3,1.9-2.7
	c0.8-1.4,1.3-1.2,2.1-2.6c0.8-1.4,0.8-1.4,1.6-2.9c0.8-1.4,2-0.8,2.8-2.2c0.8-1.4-0.2-2,0.6-3.4s0.8-1.4,1.6-2.9
	c0.8-1.4-0.4-2.1,0.4-3.5s2.8-0.3,3.6-1.7c0.8-1.4-1.2-2.5-0.4-3.9c0.8-1.4,2-0.8,2.8-2.2c0.8-1.4,0.3-1.7,1.1-3.1
	c0.8-1.4,0.6-1.5,1.4-3c0.8-1.4,2.2-0.7,3-2.1s0-1.9,0.7-3.3c0.8-1.4,1-1.3,1.8-2.7c0.8-1.4,0.7-1.5,1.5-2.9s-0.1-1.9,0.7-3.4
	c0.8-1.4,0.5-1.6,1.3-3s1.4-1.1,2.2-2.5c0.8-1.4,1.8-0.9,2.6-2.3s0.5-1.6,1.3-3s0.8-1.4,1.6-2.9c0.8-1.4,0.7-1.5,1.5-2.9
	s1.2-1.2,2-2.6s-0.1-1.9,0.7-3.3c0.8-1.4,0.6-1.5,1.4-3c0.8-1.4,0.9-1.4,1.7-2.8c0.8-1.4-0.2-2,0.6-3.4s1.9-0.8,2.6-2.3
	c0.8-1.4,1.5-1,2.3-2.5c0.8-1.4,0.9-1.4,1.7-2.8c0.8-1.4-0.9-2.4-0.1-3.8s3.1-0.1,3.9-1.6c0.8-1.4-1.5-2.7-0.7-4.1s3.2-0.1,4-1.5
	s0.9-1.4,1.7-2.8c0.8-1.4,0.2-1.8,1-3.2c0.8-1.4-1-2.4-0.2-3.8s2.7-0.4,3.5-1.8s-0.4-2.1,0.4-3.5s0.9-1.4,1.7-2.8s1.2-1.2,2-2.6
	s1.7-0.9,2.5-2.3s-1-2.4-0.2-3.8s2.5-0.5,3.3-1.9s0-1.9,0.8-3.3s1.8-0.9,2.6-2.3s-0.9-2.4-0.1-3.8s2-0.7,2.8-2.2
	c0.8-1.4,0.9-1.3,1.7-2.8c0.8-1.4-0.7-2.2,0.1-3.7c0.8-1.4,1.9-0.8,2.7-2.2s-0.4-2.1,0.4-3.5s1.4-1.1,2.2-2.5l1.6-2.8
	c0.8-1.4,1.8-0.9,2.6-2.3s1-1.3,1.8-2.7s-1.2-2.5-0.4-3.9s2.9-0.3,3.7-1.7l1.6-2.8c0.8-1.4,0.5-1.6,1.3-3s-1.2-2.5-0.4-4
	c0.8-1.4,2.7-0.4,3.5-1.8c0.8-1.4,0.6-1.5,1.4-3c0.8-1.4,0.3-1.7,1.1-3.1c0.8-1.4,0.4-1.6,1.2-3s1.2-1.2,2-2.6
	c0.8-1.4-0.4-2.1,0.4-3.5s0.5-1.6,1.2-3c0.8-1.4,1.1-1.2,1.9-2.7c0.8-1.4,2-0.7,2.8-2.2c0.8-1.4,1.3-1.1,2.1-2.6
	c0.8-1.4-0.3-2,0.5-3.4s-0.2-2,0.6-3.4s2.1-0.7,2.9-2.1c0.8-1.4,0-1.9,0.8-3.3s2-0.7,2.8-2.2c0.8-1.4-0.4-2.1,0.4-3.5
	s1.8-0.8,2.6-2.3c0.8-1.4,1.2-1.2,2-2.6c0.8-1.4,0-1.9,0.8-3.3s1.5-1.1,2.3-2.5s-0.2-2,0.6-3.4s2.2-0.6,3-2.1c0.8-1.4-1-2.4-0.2-3.9
	c0.8-1.4,0.8-1.4,1.6-2.9c0.8-1.4,2.6-0.4,3.4-1.8c0.8-1.4,0.3-1.7,1.1-3.1c0.8-1.4,0.5-1.6,1.3-3s1.8-0.9,2.6-2.3s-1.3-2.6-0.5-4
	s0.6-1.5,1.4-3c0.8-1.4,2.9-0.2,3.7-1.7c0.8-1.4,1.1-1.3,1.9-2.7c0.8-1.4,0.6-1.6,1.4-3c0.8-1.4,0.4-1.6,1.2-3.1
	c0.8-1.4-0.2-2,0.6-3.4s0.6-1.5,1.4-3c0.8-1.4,1.7-0.9,2.5-2.3s-0.4-2.1,0.4-3.5s0.4-1.6,1.2-3.1c0.8-1.4,0.9-1.4,1.7-2.8
	s2.8-0.3,3.6-1.7c0.8-1.4,1-1.3,1.8-2.7c0.8-1.4-1.1-2.5-0.3-3.9s0.6-1.5,1.4-3c0.8-1.4,2.8-0.3,3.6-1.8c0.8-1.4-0.8-2.3,0-3.8
	c0.8-1.4,1-1.3,1.8-2.8c0.8-1.4,0.4-1.6,1.2-3.1c0.8-1.4,2.2-0.6,3-2.1l1.6-2.8c0.8-1.4-0.8-2.3,0-3.7c0.8-1.4,1-1.3,1.8-2.8
	c0.8-1.4,1.3-1.2,2.1-2.6s0.4-1.6,1.2-3.1c0.8-1.4,0.6-2,2.2-2s0.3,1.2,1.1,2.6c0.8,1.4,1.3,1.1,2.1,2.5s0.1,1.8,0.9,3.3
	c0.8,1.4,1.5,1,2.3,2.4s-0.3,2.1,0.5,3.5s1.8,0.9,2.6,2.3s0.2,1.8,1,3.2c0.8,1.4,2.1,0.7,2.9,2.1c0.8,1.4-0.8,2.3,0,3.7
	c0.8,1.4,1.4,1.1,2.2,2.5s2.6,0.4,3.4,1.8c0.8,1.4-0.9,2.4-0.1,3.8s1,1.3,1.8,2.8c0.8,1.4,1.3,1.2,2.1,2.6s1.6,1,2.4,2.4
	c0.8,1.4,0,1.8,0.8,3.3c0.8,1.4,1.1,1.2,1.9,2.7c0.8,1.4,0.1,1.8,0.9,3.3c0.8,1.4,1.7,0.9,2.5,2.3s0.5,1.6,1.3,3s0.1,1.8,0.9,3.2
	c0.8,1.4-0.2,2,0.6,3.4s1.2,1.2,2,2.6s0.4,1.6,1.2,3.1c0.8,1.4,2.1,0.7,2.9,2.1c0.8,1.4,1.2,1.2,2,2.6c0.8,1.4-0.9,2.4-0.1,3.8
	s2.9,0.3,3.7,1.7s0.2,1.8,1,3.2s0,1.9,0.8,3.3s1.8,0.9,2.6,2.3s-1.1,2.5-0.3,3.9s3,0.2,3.8,1.6c0.8,1.4-1.1,2.5-0.3,3.9
	s1.3,1.2,2.1,2.6c0.8,1.4,0.9,1.3,1.7,2.8c0.8,1.4,1.8,0.9,2.6,2.3s0.5,1.6,1.3,3s0.8,1.4,1.6,2.9c0.8,1.4,0.7,1.5,1.5,2.9
	s-0.8,2.3,0,3.8c0.8,1.4,3,0.2,3.8,1.6c0.8,1.4-0.7,2.3,0.1,3.7s1.3,1.1,2.1,2.6c0.8,1.4,1.6,1,2.4,2.4c0.8,1.4-0.4,2.1,0.3,3.5
	c0.8,1.4,1.1,1.3,1.9,2.7c0.8,1.4,0,1.9,0.8,3.3s2,0.7,2.8,2.2c0.8,1.4,0.3,1.7,1.1,3.1c0.8,1.4,2.2,0.6,3,2.1
	c0.8,1.4-1.1,2.5-0.3,3.9s1,1.3,1.8,2.7s0.4,1.6,1.2,3.1c0.8,1.4,1.7,0.9,2.5,2.4c0.8,1.4,0.8,1.5,1.6,2.9s-0.3,2,0.5,3.4
	s1,1.3,1.8,2.8c0.8,1.4,1,1.3,1.8,2.7s2.4,0.6,3.2,2s-0.7,2.2,0.1,3.7c0.8,1.4,1.8,0.9,2.6,2.3s0.3,1.7,1.1,3.1
	c0.8,1.4,1.7,0.9,2.5,2.4c0.8,1.4-0.1,1.9,0.7,3.4c0.8,1.4,1.9,0.8,2.7,2.2s-0.7,2.3,0.1,3.7s2.2,0.6,3,2.1c0.8,1.4-0.1,1.9,0.7,3.4
	c0.8,1.4,0.1,1.8,0.9,3.3c0.8,1.4,2.5,0.5,3.3,1.9s0.8,1.4,1.6,2.9c0.8,1.4,0.3,1.7,1.1,3.1s-0.6,2.2,0.2,3.6s3.2,0.1,4,1.5
	s-1.2,2.5-0.4,3.9s0.6,1.5,1.4,3c0.8,1.4,1.2,1.2,2,2.6s0.8,1.4,1.6,2.9c0.8,1.4,1.5,1,2.3,2.5c0.8,1.4,0.7,1.5,1.5,2.9
	s-0.2,2,0.6,3.4s2.8,0.3,3.6,1.7c0.8,1.4,0,1.9,0.8,3.3s-0.1,1.9,0.7,3.4c0.8,1.4,2.1,0.7,2.9,2.1c0.8,1.4-0.8,2.3,0,3.7
	c0.8,1.4,1.7,0.9,2.5,2.3s1.7,0.9,2.5,2.3s0.5,1.6,1.3,3s1.3,1.1,2.1,2.6c0.8,1.4-1.5,2.7-0.7,4.2c0.8,1.4,0.8,1.5,1.6,2.9
	s2,0.8,2.8,2.2c0.8,1.4,0.5,1.6,1.3,3s-0.3,2,0.5,3.4s1.5,1,2.3,2.5c0.8,1.4,0.8,1.4,1.6,2.9c0.8,1.4,1.2,1.2,2,2.6s1.2,1.2,2,2.6
	s0.5,1.6,1.3,3s-0.2,2,0.6,3.4s1.9,0.8,2.7,2.2c0.8,1.4,1.6,1,2.4,2.4c0.8,1.4-0.2,2,0.6,3.4s0.9,1.4,1.7,2.8s-0.2,2,0.6,3.4
	s1.7,0.9,2.5,2.4c0.8,1.4,0.5,1.6,1.3,3s0.6,1.5,1.4,3c0.8,1.4,0.5,1.6,1.3,3s0.9,1.4,1.7,2.8s1.8,0.9,2.6,2.3s-0.1,1.9,0.7,3.4
	c0.8,1.4,1.3,1.1,2.1,2.6c0.8,1.4,1.4,1.1,2.2,2.5s0.6,1.5,1.4,3c0.8,1.4-0.6,2.2,0.2,3.7c0.8,1.4,2.2,0.6,3,2.1
	c0.8,1.4,1.8,0.9,2.6,2.3s-0.3,2,0.5,3.5c0.8,1.4,0.2,1.8,1,3.2c0.8,1.4,2.3,0.6,3.1,2s0.3,1.7,1.1,3.1s-1,2.5-0.2,3.9
	s4.9,1.5,4.1,2.9c-0.8,1.4-2.9-2.2-4.5-2.2s-1.6,1.1-3.3,1.1c-1.6,0-1.6,1.4-3.3,1.4c-1.6,0-1.6-0.9-3.3-0.9c-1.6,0-1.6,0.1-3.3,0.1
	s-1.6-0.9-3.3-0.9c-1.6,0-1.6,1.6-3.3,1.6s-1.6-0.8-3.3-0.8c-1.6,0-1.6-0.2-3.3-0.2c-1.6,0-1.6,0.1-3.3,0.1c-1.6,0-1.6,1.4-3.3,1.4
	c-1.6,0-1.6-0.5-3.3-0.5s-1.6-0.4-3.3-0.4s-1.6-1.2-3.3-1.2h-3.3c-1.6,0-1.6,0.1-3.3,0.1c-1.6,0-1.6,1.8-3.3,1.8s-1.6-0.2-3.3-0.2
	s-1.6-1.5-3.3-1.5c-1.6,0-1.6-0.6-3.3-0.6c-1.6,0-1.6-0.3-3.3-0.3c-1.6,0-1.6,1.1-3.3,1.1c-1.6,0-1.6,0.6-3.3,0.6
	c-1.6,0-1.6,0.2-3.3,0.2c-1.6,0-1.6-0.7-3.3-0.7c-1.6,0-1.6-0.3-3.3-0.3s-1.6-0.1-3.3-0.1c-1.6,0-1.6,0.5-3.3,0.5H744
	c-1.6,0-1.6,1.6-3.3,1.6c-1.6,0-1.6-2.4-3.3-2.4c-1.6,0-1.6,0.9-3.3,0.9c-1.6,0-1.6,1.4-3.3,1.4c-1.6,0-1.6-2.3-3.3-2.3
	c-1.6,0-1.6-0.3-3.3-0.3c-1.6,0-1.6,1.8-3.3,1.8c-1.6,0-1.6-1.4-3.3-1.4c-1.6,0-1.6,1.2-3.3,1.2c-1.6,0-1.6-0.7-3.3-0.7
	c-1.6,0-1.6,1.5-3.3,1.5c-1.6,0-1.6-1.2-3.3-1.2c-1.6,0-1.6-1.1-3.3-1.1h-3.3c-1.6,0-1.6,1.6-3.3,1.6c-1.6,0-1.6-0.5-3.3-0.5
	c-1.6,0-1.6-1.2-3.3-1.2c-1.6,0-1.6,0.2-3.3,0.2c-1.6,0-1.6,0.2-3.3,0.2s-1.6-0.6-3.3-0.6c-1.6,0-1.6,1-3.3,1
	c-1.6,0-1.6-0.3-3.3-0.3c-1.6,0-1.6,1-3.3,1c-1.6,0-1.6-0.7-3.3-0.7c-1.6,0-1.6,0.1-3.3,0.1c-1.6,0-1.6-1-3.3-1h-3.3
	c-1.6,0-1.6-0.1-3.3-0.1c-1.6,0-1.6,0.2-3.3,0.2c-1.6,0-1.6,0.1-3.3,0.1c-1.6,0-1.6-0.2-3.3-0.2c-1.6,0-1.6,0.2-3.3,0.2
	c-1.6,0-1.6,1.5-3.3,1.5c-1.6,0-1.6,0.9-3.3,0.9c-1.6,0-1.6-2.2-3.3-2.2c-1.6,0-1.6,1-3.3,1c-1.6,0-1.6,0.9-3.3,0.9
	c-1.6,0-1.6,0.3-3.3,0.3c-1.6,0-1.6-2.5-3.3-2.5H612c-1.6,0-1.6,2.5-3.3,2.5s-1.6-0.8-3.3-0.8c-1.6,0-1.6-0.5-3.3-0.5
	c-1.6,0-1.6-0.6-3.3-0.6c-1.6,0-1.6-0.1-3.3-0.1c-1.6,0-1.6,2.1-3.3,2.1c-1.6,0-1.6-2.4-3.3-2.4c-1.6,0-1.6,1.9-3.3,1.9
	c-1.6,0-1.6-2.4-3.3-2.4c-1.6,0-1.6,1.9-3.3,1.9h-3.3c-1.6,0-1.6,0.2-3.3,0.2c-1.6,0-1.6-0.3-3.3-0.3h-3.3c0,0-1.6-0.4-3.3-0.4
	c-1.6,0-1.6-1.1-3.3-1.1c-1.6,0-1.6,1.3-3.3,1.3c-1.6,0-1.6,1.3-3.3,1.3c-1.6,0-1.6-2.1-3.3-2.1c-1.6,0-1.6-0.1-3.3-0.1
	c-1.6,0-1.6,1.3-3.3,1.3c-1.6,0-1.6,0.7-3.3,0.7c-1.6,0-1.6-2-3.3-2c-1.6,0-1.6,1-3.3,1c-1.6,0-1.6,1-3.3,1c-1.6,0-1.6-2.4-3.3-2.4
	h-3.3c-1.6,0-1.6,1.8-3.3,1.8c-1.6,0-1.6-0.3-3.3-0.3s-1.6,1.3-3.3,1.3c-1.6,0-1.6-2.5-3.3-2.5c-1.6,0-1.6,2-3.3,2
	c-1.6,0-1.6-0.4-3.3-0.4c-1.6,0-1.6-1.5-3.3-1.5h-3.3c-1.6,0-1.6,2.3-3.3,2.3s-1.6-2.1-3.3-2.1c-1.6,0-1.6-0.1-3.3-0.1
	c-1.6,0-1.6,0.6-3.3,0.6c-1.6,0-1.6,0.7-3.3,0.7c-1.6,0-1.6-0.8-3.3-0.8c-1.6,0-1.6,0.5-3.3,0.5c-1.6,0-1.6,0.5-3.3,0.5
	c-1.6,0-1.6-0.5-3.3-0.5c-1.6,0-1.6-0.9-3.3-0.9c-1.6,0-1.6,0.4-3.3,0.4c-1.6,0-1.6,1.2-3.3,1.2c-1.6,0-1.6,0.4-3.3,0.4
	c-1.6,0-1.6-2.4-3.3-2.4c-1.6,0-1.6,1.2-3.3,1.2c-1.6,0-1.6,1.3-3.3,1.3c-1.6,0-1.6-1.8-3.3-1.8c-1.6,0-1.9-0.7-3.5-0.3
	C438.9,417.6,438.5,419.3,437.7,417.9L437.7,417.9z"/>
<path class="st0" d="M552.3,391.3c-0.8-1.4,0-0.6,0.8-2s1.2-1.2,2-2.6s1.2-1.2,2-2.6s-0.2-2,0.6-3.4s1.2-1.2,2-2.7
	c0.8-1.4,1.4-1.1,2.2-2.5s-0.6-2.2,0.2-3.6s0.6-1.5,1.4-3c0.8-1.4,1.9-0.8,2.7-2.3c0.8-1.4,0.1-1.8,0.9-3.2c0.8-1.4,0.9-1.4,1.7-2.8
	s-0.4-2.1,0.4-3.5s2.5-0.5,3.3-1.9s0.6-1.5,1.4-3l1.6-2.8c0.8-1.4-0.3-2,0.5-3.5c0.8-1.4,0.9-1.4,1.7-2.8s0.3-1.7,1.1-3.1
	s0.7-1.5,1.5-2.9s1.4-1.1,2.2-2.5s2-0.7,2.8-2.2c0.8-1.4,0.5-1.6,1.3-3s-0.1-1.9,0.7-3.3s1.4-1.1,2.2-2.5s0.7-1.5,1.5-2.9
	s0-1.9,0.8-3.3s2-0.7,2.8-2.2c0.8-1.4,0.4-1.7,1.2-3.1s-0.4-2.1,0.4-3.5s3-0.2,3.8-1.6s-1.2-2.5-0.4-4l1.6-2.8
	c0.8-1.4,0.9-1.4,1.7-2.8s0.9-1.4,1.7-2.8s1.7-0.9,2.5-2.4c0.8-1.4-0.6-2.2,0.2-3.6s3-0.2,3.8-1.6s-0.6-2.2,0.2-3.7
	c0.8-1.4,1.8-0.9,2.6-2.3s1.2-1.2,2-2.6s-0.5-2.2,0.3-3.6s0.4-1.6,1.2-3.1c0.8-1.4,1.8-0.8,2.6-2.3c0.8-1.4,0.2-1.8,1-3.2
	c0.8-1.4,0-1.9,0.8-3.3s1.2-1.2,2-2.6s0.4-1.7,1.2-3.1s3.1-0.1,3.9-1.6c0.8-1.4-0.7-2.3,0.1-3.7s0.3-1.7,1.1-3.1
	c0.8-1.4,1.5-1,2.3-2.4s0.1-1.8,0.9-3.2c0.8-1.4,2.1-0.7,2.9-2.1c0.8-1.4,1-1.3,1.8-2.8c0.8-1.4-0.9-2.4-0.1-3.8s2.2-0.7,3-2.1
	c0.8-1.4,0.2-1.8,1-3.2s1.3-1.2,2.1-2.6c0.8-1.4-0.7-2.3,0.1-3.7s2.2-0.6,3-2s0.4-1.7,1.2-3.1c0.8-1.4,0.6-1.5,1.4-3
	c0.8-1.4,0.6-1.5,1.4-2.9c0.8-1.4,1.9-0.8,2.7-2.2s0-1.9,0.8-3.3s1.2-1.2,2-2.6c0.8-1.4-0.1-1.9,0.7-3.4c0.8-1.4,1.5-1,2.3-2.5
	c0.8-1.4,1.4-1.1,2.2-2.5s0.5-1.6,1.3-3s0.2-1.8,1-3.2s1-1.3,1.8-2.7s-0.1-1.9,0.7-3.4c0.8-1.4,3-0.2,3.8-1.6
	c0.8-1.4-1.1-2.5-0.3-3.9s2.2-0.6,3-2.1c0.8-1.4-1-2.4-0.2-3.9c0.8-1.4,2.4-0.6,3.2-2s-0.7-2.3,0.1-3.7s0.9-1.4,1.7-2.8
	c0.8-1.4,2.5-0.5,3.3-1.9s-0.3-2.1,0.5-3.5s-0.2-2,0.6-3.4s2.3-0.6,3.1-2s-0.2-2,0.6-3.4s2.9-0.3,3.7-1.7s0.2-1.7,1-3.2
	c0.8-1.4,0.9-1.4,1.7-2.8c0.8-1.4-0.6-2.2,0.2-3.6s0.3-1.7,1.1-3.1c0.8-1.4,1.4-1.1,2.2-2.5s2.4-0.5,3.2-2c0.8-1.4-0.1-2,0.7-3.4
	s-0.5-2.1,0.3-3.6c0.8-1.4,1.8-0.9,2.6-2.3s0.4-1.6,1.2-3.1c0.8-1.4,0.5-1.6,1.3-3s2.2-0.6,3-2s-1.1-2.5-0.3-3.9s0.9-1.4,1.7-2.8
	s2.7-0.4,3.5-1.8s0.1-1.8,0.9-3.3c0.8-1.4,1-1.3,1.8-2.7c0.8-1.4-0.4-2.1,0.4-3.5s2.7-0.4,3.5-1.8s-1.2-2.5-0.4-4
	c0.8-1.4,2.7-0.4,3.5-1.8s0.1-1.8,0.9-3.2c0.8-1.4,0.9-1.4,1.7-2.8s-0.7-2.3,0.1-3.7c0.8-1.4,2.4-0.5,3.2-1.9s1.3-1.2,2.1-2.6
	s-1.1-2.5-0.3-3.9s1.2-1.2,2-2.7c0.8-1.4,0.7-1.5,1.5-2.9s1.6-1,2.4-2.4c0.8-1.4,2.1-0.7,2.9-2.1c0.8-1.4-1-2.5-0.2-3.9
	s1.5-1,2.3-2.5c0.8-1.4,1.2-1.2,2-2.6c0.8-1.4-1.1-2.5-0.3-3.9s1.2-1.2,2-2.6c0.8-1.4,2.8-0.3,3.6-1.7s-0.6-2.2,0.2-3.7
	c0.8-1.4,0.4-1.7,1.2-3.1c0.8-1.4,0.7-3.6,2.3-3.6s1.2,2.3,2,3.8l1.6,2.8c0.8,1.4-0.4,2.1,0.4,3.5s2.5,0.5,3.3,1.9s0.9,1.4,1.7,2.8
	c0.8,1.4,0.9,1.4,1.7,2.8c0.8,1.4-0.1,2,0.7,3.4s0.2,1.8,1,3.2s2.2,0.6,3,2.1c0.8,1.4-0.4,2.1,0.4,3.5s0.3,1.7,1.1,3.2
	c0.8,1.4,1.4,1.1,2.2,2.5s2.2,0.6,3,2.1c0.8,1.4-0.1,1.9,0.7,3.4c0.8,1.4,0.6,1.6,1.4,3c0.8,1.4,0.9,1.4,1.7,2.8s0.9,1.4,1.7,2.8
	s-0.5,2.2,0.3,3.6s2.4,0.5,3.2,1.9s1.4,1.1,2.2,2.5s-1.5,2.7-0.7,4.1s1.4,1.1,2.2,2.5s1.9,0.8,2.7,2.2c0.8,1.4,1,1.3,1.8,2.7
	c0.8,1.4-1.1,2.5-0.3,3.9s2.3,0.6,3.1,2s0.8,1.4,1.6,2.9c0.8,1.4,0.7,1.5,1.5,2.9s-0.6,2.2,0.2,3.6s1.9,0.8,2.7,2.3
	c0.8,1.4,0.9,1.4,1.7,2.8s-0.4,2.1,0.4,3.5s1.1,1.2,1.9,2.7c0.8,1.4,1.8,0.9,2.6,2.3c0.8,1.4,1.3,1.2,2.1,2.6
	c0.8,1.4,1.1,1.2,1.9,2.7c0.8,1.4,0.4,1.6,1.2,3.1c0.8,1.4-0.2,2,0.6,3.4s1.2,1.2,2,2.6c0.8,1.4,1.2,1.2,2,2.6
	c0.8,1.4-0.9,2.4-0.1,3.8s0.9,1.3,1.7,2.8c0.8,1.4,2.8,0.3,3.6,1.7s0.3,1.7,1.1,3.1c0.8,1.4,1.3,1.1,2.1,2.6
	c0.8,1.4-0.3,2.1,0.5,3.5s0,1.9,0.8,3.3s1.7,0.9,2.5,2.3s1.7,0.9,2.5,2.3s-0.3,2,0.5,3.4s1.3,1.1,2.1,2.5s1.4,1.1,2.2,2.5
	s-0.7,2.3,0.1,3.7s1.4,1.1,2.2,2.5s1.4,1.1,2.2,2.5s0.4,1.7,1.2,3.1c0.8,1.4,1.6,1,2.4,2.4c0.8,1.4-0.3,2.1,0.5,3.5s0.7,1.5,1.5,2.9
	s0.2,1.8,1,3.2s1.7,0.9,2.4,2.4c0.8,1.4,1.6,1,2.4,2.4c0.8,1.4,0.5,1.6,1.3,3s-1,2.4-0.2,3.8s2.8,0.3,3.6,1.7s-0.9,2.4-0.1,3.8
	s0.5,1.6,1.3,3s2.2,0.7,3,2.1c0.8,1.4,1.2,1.2,2,2.6c0.8,1.4-1.1,2.5-0.3,3.9s2.3,0.6,3.1,2s0.5,1.6,1.3,3s0.9,1.4,1.7,2.8
	c0.8,1.4,0.3,1.7,1.1,3.1c0.8,1.4,1.9,0.8,2.7,2.2s-0.3,2.1,0.5,3.5s1.6,1,2.4,2.4c0.8,1.4,0.2,1.8,1,3.2c0.8,1.4,0.5,1.6,1.3,3
	s0.6,1.5,1.4,3c0.8,1.4,2.5,0.5,3.3,1.9s-0.1,1.9,0.7,3.4c0.8,1.4,1,1.3,1.8,2.7c0.8,1.4-0.7,2.3,0,3.7c0.8,1.4,0.9,1.4,1.7,2.8
	s2.5,0.5,3.3,1.9s-1.1,2.5-0.3,3.9s1.9,0.8,2.7,2.3c0.8,1.4-0.3,2,0.5,3.4s0.9,1.4,1.7,2.8s2.1,0.7,2.9,2.1c0.8,1.4,1.3,1.1,2.1,2.6
	c0.8,1.4,1,1.3,1.8,2.8c0.8,1.4-0.6,2.2,0.2,3.6s0.5,1.6,1.3,3s0.2,1.8,1,3.2c0.8,1.4,1,1.3,1.8,2.7c0.8,1.4,3,0.2,3.8,1.6
	s0.7,1.5,1.4,2.9c0.8,1.4-1,2.4-0.2,3.9c0.8,1.4,1.4,1.1,2.2,2.5s2,0.8,2.8,2.2c0.8,1.4,0.7,1.5,1.5,2.9s-0.9,2.4-0.1,3.8
	s2.2,0.6,3,2.1c0.8,1.4-0.5,2.2,0.3,3.6s1.9,0.8,2.7,2.2c0.8,1.4-0.7,2.3,0.1,3.7c0.8,1.4,1.7,0.9,2.5,2.4c0.8,1.4,0.6,1.5,1.4,3
	c0.8,1.4,1.9,0.8,2.7,2.3c0.8,1.4,1,1.3,1.8,2.7c0.8,1.4-0.7,2.2,0.1,3.7c0.8,1.4,0.9,1.4,1.7,2.8s1.4,1.1,2.2,2.5s1.2,1.2,2,2.6
	s-0.4,2.1,0.4,3.5s1.9,0.8,2.7,2.3c0.8,1.4,1.7,0.9,2.5,2.4c0.8,1.4-1.7,2.8-0.9,4.3c0.8,1.4,1.9,0.8,2.7,2.3
	c0.8,1.4,0.9,1.4,1.7,2.8s0.7,1.5,1.5,2.9s1.2,1.2,2,2.6s1.6,1,2.4,2.4c0.8,1.4,2.4,2.7,1.6,4.1c-0.8,1.4-2.7-0.2-4.4-0.2
	c-1.6,0-1.6,0.5-3.3,0.5c-1.6,0-1.6-0.4-3.3-0.4c-1.6,0-1.6-0.9-3.3-0.9c-1.6,0-1.6,0.1-3.3,0.1c-1.6,0-1.6-0.5-3.3-0.5
	c-1.6,0-1.6-0.4-3.3-0.4c-1.6,0-1.6,1.4-3.3,1.4c-1.6,0-1.6-0.8-3.3-0.8c-1.6,0-1.6-0.9-3.3-0.9c-1.6,0-1.6,0.9-3.3,0.9
	c-1.6,0-1.6,1.9-3.3,1.9s-1.6-0.7-3.3-0.7s-1.6,0.6-3.3,0.6c-1.6,0-1.6,0.2-3.3,0.2c-1.6,0-1.6-1.3-3.3-1.3c-1.6,0-1.6-1.4-3.3-1.4
	h-3.3c0,0-1.6,2.3-3.3,2.3c-1.6,0-1.6,0.1-3.3,0.1c-1.6,0-1.6,0.1-3.3,0.1c-1.6,0-1.6-0.8-3.3-0.8c-1.6,0-1.6-0.6-3.3-0.6
	c-1.6,0-1.6,0.6-3.3,0.6s-1.6-1.3-3.3-1.3c-1.6,0-1.6-0.3-3.3-0.3c-1.6,0-1.6,0.8-3.3,0.8c-1.6,0-1.6,1.9-3.3,1.9
	c-1.6,0-1.6-2.9-3.3-2.9c-1.6,0-1.6,1.3-3.3,1.3c-1.6,0-1.6,0.1-3.3,0.1s-1.6-0.5-3.3-0.5c-1.6,0-1.6,1.1-3.3,1.1
	c-1.6,0-1.6-1.2-3.3-1.2s-1.6,0.9-3.3,0.9c-1.6,0-1.6-1.1-3.3-1.1c-1.6,0-1.6,0.5-3.3,0.5c-1.6,0-1.6,0.9-3.3,0.9
	c-1.6,0-1.6,0.3-3.3,0.3c-1.6,0-1.6-1.6-3.3-1.6s-1.6-0.6-3.3-0.6c-1.6,0-1.6,0.1-3.3,0.1c-1.6,0-1.6,0.1-3.3,0.1s-1.6,1.9-3.3,1.9
	c-1.6,0-1.6-0.5-3.3-0.5s-1.6-1.3-3.3-1.3s-1.6,2-3.3,2c-1.6,0-1.6,0.2-3.3,0.2h-3.3c-1.6,0-1.6-0.9-3.3-0.9c-1.6,0-1.6-0.1-3.3-0.1
	c-1.6,0-1.6-0.6-3.3-0.6c-1.6,0-1.6,0.4-3.3,0.4s-1.6,1.1-3.3,1.1c-1.6,0-1.6,0.4-3.3,0.4c-1.6,0-1.6-0.9-3.3-0.9
	c-1.6,0-1.6-1.5-3.3-1.5c-1.6,0-1.6-0.1-3.3-0.1c-1.6,0-1.6,0.5-3.3,0.5c-1.6,0-1.6,1.9-3.3,1.9c-1.6,0-1.6-0.7-3.3-0.7
	c-1.6,0-1.6-1.2-3.3-1.2c-1.6,0-1.6,1.9-3.3,1.9s-1.6-0.5-3.3-0.5c-1.6,0-1.6,0.4-3.3,0.4c-1.6,0-1.6,0.2-3.3,0.2
	c-1.6,0-1.6-0.2-3.3-0.2c-1.6,0-1.6-2.4-3.3-2.4c-1.6,0-1.6,2.3-3.3,2.3c-1.6,0-1.6-0.6-3.3-0.6c-1.6,0-1.6-1.7-3.3-1.7
	s-1.6,1.6-3.3,1.6c-1.6,0-1.6,0.9-3.3,0.9c-1.6,0-1.6-2-3.3-2c-1.6,0-1.6-0.3-3.3-0.3c-1.6,0-1.6,2.4-3.3,2.4
	c-1.6,0-1.6-1.9-3.3-1.9c-1.6,0-1.6,0.5-3.3,0.5c-1.6,0-1.6-0.9-3.3-0.9c-1.6,0-1.6,2.2-3.3,2.2c-1.6,0-1.6-0.7-3.3-0.7
	c-1.6,0-1.6,0.4-3.3,0.4c-1.6,0-1.6-0.8-3.3-0.8s-1.6,0.9-3.3,0.9c-1.6,0-1.6-1-3.3-1c-1.6,0-1.6,0.1-3.3,0.1
	c-1.6,0-1.6,0.4-3.3,0.4c-1.6,0-1.6-1.9-3.3-1.9c-1.6,0-1.6-0.1-3.3-0.1s-1.6,0.6-3.3,0.6c-1.6,0-1.6,1.2-3.3,1.2
	c-1.6,0-1.6-0.6-3.3-0.6c-1.6,0-1.6-1.1-3.3-1.1c-1.6,0-1.6,0.6-3.3,0.6c-1.6,0-1.6-0.4-3.3-0.4c-1.6,0-1.6,2.2-3.3,2.2
	c-1.6,0-1.6-0.6-3.3-0.6s-1.6-1.7-3.3-1.7c-1.6,0-1.6,2-3.3,2c-1.6,0-1.6-0.4-3.3-0.4c-1.6,0-1.6-1.1-3.3-1.1
	c-1.6,0-1.6,1.1-3.3,1.1c-1.6,0-1.6-1-3.3-1s-1.6,1.9-3.3,1.9c-1.6,0-1.6-0.5-3.3-0.5c-1.6,0-1.6-1.7-3.3-1.7
	c-1.6,0-1.6,1.2-3.3,1.2c-1.6,0-1.6,1-3.3,1c-1.6,0-1.6-1.5-3.3-1.5c-1.6,0-1.6,1.1-3.3,1.1c-1.6,0-1.6,0.3-3.3,0.3
	c-1.6,0-1.6-0.8-3.3-0.8c-1.6,0-1.6-2-3.3-2c-1.6,0-1.6,0.4-3.3,0.4c-1.6,0-1.6,0.7-3.3,0.7c-1.6,0-1.6,1.4-3.3,1.4
	c-1.6,0-1.6,0.4-3.3,0.4c-1.6,0-1.6-0.9-3.3-0.9c-1.6,0-1.6-0.3-3.3-0.3s-1.6-1.3-3.3-1.3c-1.6,0-1.6,0.9-3.3,0.9
	c-1.6,0-1.5,0.7-3.1,0.9C553.4,393.1,553.1,392.8,552.3,391.3L552.3,391.3z"/>
<path class="st0" d="M669.7,451.5c-0.8-1.4-1.1-1.5-0.3-2.9s1.1-1.3,1.9-2.7c0.8-1.4,1.9-0.8,2.7-2.2c0.8-1.4-0.2-2,0.6-3.4
	s1.9-0.8,2.7-2.2c0.8-1.4-0.1-1.9,0.7-3.4c0.8-1.4,1.5-1,2.3-2.5c0.8-1.4-0.6-2.2,0.2-3.6s2.9-0.3,3.7-1.7c0.8-1.4-0.6-2.2,0.2-3.6
	s0.9-1.3,1.7-2.8c0.8-1.4,0-1.9,0.8-3.3s3.1-0.1,3.9-1.6c0.8-1.4,0.5-1.6,1.3-3s0-1.9,0.8-3.3s1.8-0.9,2.6-2.3s-0.6-2.2,0.2-3.7
	c0.8-1.4,1.7-0.9,2.5-2.4c0.8-1.4,0.5-1.6,1.3-3s0-1.9,0.8-3.3s2.3-0.6,3.1-2s-0.7-2.3,0.1-3.7c0.8-1.4,2-0.8,2.8-2.2
	c0.8-1.4,0.9-1.4,1.7-2.8l1.6-2.8c0.8-1.4-0.7-2.3,0.1-3.7c0.8-1.4,2.7-0.4,3.5-1.8s0.6-1.5,1.4-3c0.8-1.4,0.4-1.6,1.2-3.1
	c0.8-1.4,0.9-1.3,1.7-2.8c0.8-1.4,1.1-1.3,1.9-2.7c0.8-1.4-1.5-2.7-0.7-4.2c0.8-1.4,2.9-0.2,3.7-1.6s0.7-1.5,1.5-2.9s1-1.3,1.8-2.7
	c0.8-1.4-0.7-2.3,0.1-3.7c0.8-1.4,1.2-1.2,2-2.6s0.8-1.4,1.6-2.9c0.8-1.4,1.8-0.9,2.6-2.3s-0.5-2.1,0.3-3.6c0.8-1.4,1.2-1.2,2-2.6
	s1.2-1.2,2-2.7c0.8-1.4,1.2-1.2,2-2.6s-0.7-2.3,0.1-3.7c0.8-1.4,0.2-1.7,1-3.2s2.6-0.4,3.4-1.9c0.8-1.4-0.7-2.3,0.1-3.7
	c0.8-1.4,1.2-1.2,2-2.6s1.1-1.3,1.9-2.7c0.8-1.4,1.3-1.1,2.1-2.6c0.8-1.4-0.4-2.1,0.4-3.5s2.4-0.5,3.2-2l1.6-2.8
	c0.8-1.4,1-1.3,1.8-2.8c0.8-1.4-0.3-2,0.5-3.5c0.8-1.4,2.1-0.7,2.9-2.1c0.8-1.4,0.9-1.4,1.7-2.8s0.9-1.4,1.7-2.8s0.6-1.5,1.4-3
	c0.8-1.4,0.6-1.5,1.4-3c0.8-1.4,0-1.9,0.8-3.3s2.1-0.7,2.9-2.1c0.8-1.4,0-1.9,0.8-3.3s-0.7-2.3,0.1-3.7c0.8-1.4,1.7-0.9,2.5-2.4
	c0.8-1.4,1.5-1,2.3-2.4s0.6-1.6,1.3-3c0.8-1.4-0.1-1.9,0.7-3.4c0.8-1.4,2-0.8,2.8-2.2c0.8-1.4,1-1.3,1.8-2.7s0.3-1.7,1.1-3.2
	c0.8-1.4,0.3-1.7,1.1-3.1c0.8-1.4,0.7-1.5,1.5-2.9s0.4-1.6,1.2-3s0.4-1.7,1.2-3.1c0.8-1.4,1.2-1.2,2-2.6c0.8-1.4,1.5-1.1,2.2-2.5
	c0.8-1.4,1.6-1,2.4-2.4c0.8-1.4-0.7-2.3,0.1-3.7s1.7-0.9,2.5-2.3s1.4-1.1,2.2-2.5s1.1-1.3,1.9-2.7c0.8-1.4-0.8-2.3,0-3.7
	s1.2-1.2,2-2.6c0.8-1.4-0.2-2,0.6-3.4s2.6-0.4,3.4-1.9c0.8-1.4-0.7-2.3,0.1-3.7s1.1-1.2,1.9-2.7c0.8-1.4,1.5-1,2.3-2.5
	c0.8-1.4,1.4-1.1,2.2-2.5s-0.3-2,0.5-3.5c0.8-1.4,1.4-1.1,2.2-2.5s1.4-1.1,2.2-2.5s-1-2.5-0.3-3.9c0.8-1.4,1.1-1.3,1.9-2.7
	c0.8-1.4,2-0.8,2.8-2.2s0.4-1.6,1.2-3.1c0.8-1.4-0.2-2,0.6-3.4s1.5-1,2.3-2.4s1.7-0.9,2.5-2.4c0.8-1.4,0.9-1.4,1.7-2.8
	c0.8-1.4-1.1-2.5-0.3-3.9s1-1.3,1.8-2.7s1.8-0.9,2.6-2.3s0.3-1.7,1.1-3.1c0.8-1.4,1.2-1.2,2-2.6c0.8-1.4,1.3-1.2,2.1-2.6
	c0.8-1.4,1.3-1.1,2.1-2.6l1.6-2.8c0.8-1.4-0.2-2,0.6-3.4s-0.3-2,0.5-3.4s2.6-0.4,3.4-1.8c0.8-1.4,0.6-1.5,1.4-2.9
	c0.8-1.4-0.7-2.3,0.1-3.7c0.8-1.4,1.8-0.9,2.6-2.3s-0.1-1.9,0.7-3.3s1.2-1.2,2-2.6s2.1-0.7,2.9-2.1c0.8-1.4-1.5-2.7-0.7-4.1
	s1.6-1,2.4-2.4c0.8-1.4,1.8-0.8,2.6-2.3c0.8-1.4-0.9-2.4-0.1-3.8s1.9-0.8,2.7-2.2c0.8-1.4-0.6-2.2,0.2-3.7c0.8-1.4,1.3-1.2,2.1-2.6
	s0.7-3.3,2.4-3.3c1.6,0-0.5,3,0.3,4.4s2.9,0.2,3.7,1.6s-0.6,2.2,0.2,3.7c0.8,1.4,0.3,1.7,1.1,3.1s1.7,0.9,2.5,2.4
	c0.8,1.4,0.2,1.7,1,3.2c0.8,1.4,1.5,1,2.3,2.5c0.8,1.4,1.7,0.9,2.5,2.4c0.8,1.4,0.7,1.5,1.5,2.9s1.1,1.3,1.9,2.7
	c0.8,1.4-0.3,2,0.5,3.4s0.6,1.5,1.4,3c0.8,1.4-0.4,2.1,0.4,3.5s2.5,0.5,3.3,1.9s1,1.3,1.8,2.7s0.6,1.5,1.4,2.9
	c0.8,1.4,1,1.3,1.8,2.8c0.8,1.4-0.5,2.1,0.3,3.6c0.8,1.4,2.2,0.6,3,2.1c0.8,1.4,0.3,1.7,1.1,3.1c0.8,1.4-0.7,2.2,0.1,3.7
	c0.8,1.4,2.9,0.3,3.7,1.7s-0.5,2.1,0.3,3.6c0.8,1.4-0.1,1.9,0.7,3.3l1.6,2.8c0.8,1.4,0.9,1.4,1.7,2.8c0.8,1.4,3,0.2,3.8,1.6
	c0.8,1.4,0.1,1.8,0.8,3.3c0.8,1.4,0.2,1.7,1,3.2c0.8,1.4,1.6,1,2.4,2.4c0.8,1.4-0.5,2.2,0.2,3.6c0.8,1.4,1,1.3,1.8,2.7
	s2.6,0.4,3.4,1.8c0.8,1.4,0.2,1.8,1,3.2s1.5,1.1,2.3,2.5s-1.3,2.6-0.5,4s1.7,0.9,2.5,2.3s1.9,0.8,2.7,2.2s-0.5,2.1,0.3,3.6
	c0.8,1.4,1.2,1.2,2,2.6c0.8,1.4-0.3,2.1,0.4,3.5c0.8,1.4,1.8,0.8,2.6,2.3c0.8,1.4-0.7,2.3,0.1,3.7s2.4,0.5,3.2,1.9s0.8,1.4,1.6,2.9
	c0.8,1.4,0.4,1.6,1.2,3.1c0.8,1.4,1,1.3,1.8,2.8c0.8,1.4,1.7,0.9,2.5,2.3s-0.8,2.3,0,3.7s1.8,0.9,2.5,2.3c0.8,1.4,0.3,1.7,1.1,3.1
	c0.8,1.4,0.8,1.4,1.6,2.9c0.8,1.4,0.7,1.5,1.5,2.9s-0.2,2,0.6,3.4s1.7,0.9,2.5,2.3s1.7,0.9,2.5,2.4c0.8,1.4-0.4,2.1,0.4,3.5
	c0.8,1.4,1.6,1,2.4,2.4c0.8,1.4-0.5,2.2,0.3,3.6s2,0.8,2.8,2.2c0.8,1.4,1,1.3,1.8,2.7c0.8,1.4,1.4,1.1,2.2,2.5s0.1,1.8,0.9,3.2
	c0.8,1.4,1.2,1.2,2,2.6s-0.3,2,0.5,3.4s1.1,1.2,1.9,2.7c0.8,1.4,1.2,1.2,2,2.6s1.1,1.3,1.9,2.7c0.8,1.4,1,1.3,1.8,2.8
	c0.8,1.4-0.2,2,0.6,3.4s-0.1,1.9,0.7,3.4c0.8,1.4,3.2,0.1,4,1.5s-0.1,1.9,0.7,3.3s-0.3,2.1,0.5,3.5s2.6,0.4,3.4,1.8
	c0.8,1.4-0.2,2,0.6,3.4s-0.2,2,0.6,3.4s1.8,0.9,2.6,2.3s0.3,1.7,1.1,3.1s0.7,1.5,1.5,2.9s1.2,1.2,2,2.6s1.5,1,2.3,2.5
	c0.8,1.4-0.7,2.3,0.1,3.7c0.8,1.4,3.1,0.1,3.9,1.6c0.8,1.4,0.5,1.6,1.3,3s-0.5,2.1,0.3,3.6c0.8,1.4,1.4,1.1,2.2,2.5
	s-0.7,2.2,0.1,3.7c0.8,1.4,0.7,1.5,1.5,2.9s1.5,1,2.3,2.5c0.8,1.4,2.4,0.6,3.2,2s0,1.9,0.8,3.3s1.8,0.9,2.6,2.3s0.5,1.6,1.3,3
	s-0.7,2.3,0.1,3.7c0.8,1.4,2.6,0.4,3.4,1.8c0.8,1.4-1.5,2.7-0.7,4.2c0.8,1.4,0.9,1.4,1.7,2.8c0.8,1.4,2.3,0.6,3.1,2
	c0.8,1.4-0.6,2.2,0.2,3.6s2.3,0.6,3.1,2c0.8,1.4,0.2,1.8,1,3.2c0.8,1.4,2,0.8,2.8,2.2s0,1.9,0.8,3.3s1.3,1.1,2.1,2.6
	c0.8,1.4,1.1,1.3,1.9,2.7c0.8,1.4-1,2.4-0.2,3.8s0.5,1.6,1.3,3s3,0.2,3.8,1.7c0.8,1.4-0.7,2.3,0.1,3.7c0.8,1.4,1.1,1.3,1.9,2.7
	c0.8,1.4,1.8,0.8,2.6,2.3c0.8,1.4,0.7,1.5,1.5,2.9s1,1.3,1.8,2.8c0.8,1.4,0.1,1.8,0.9,3.3c0.8,1.4-0.4,2.1,0.4,3.5s2.9,0.3,3.7,1.7
	c0.8,1.4-0.1,2,0.7,3.4c0.8,1.4,0.5,1.6,1.3,3s1.5,1,2.3,2.5c0.8,1.4-0.4,2.1,0.4,3.5s1,1.3,1.8,2.7c0.8,1.4,0.7,1.5,1.5,2.9
	s2.4,0.5,3.2,2c0.8,1.4-0.4,2.1,0.4,3.5s3,1.8,2.2,3.2c-0.8,1.4-2.2,1.1-3.9,1.1s-1.6-1.3-3.3-1.3s-1.6,0.8-3.3,0.8h-3.3
	c0,0-1.6-0.6-3.3-0.6c-1.6,0-1.6-1.2-3.3-1.2h-3.3c0,0-1.6,2.1-3.3,2.1s-1.6-1.1-3.3-1.1h-3.3c0,0-1.6-0.3-3.3-0.3s-1.6-0.4-3.3-0.4
	s-1.6,0.3-3.3,0.3s-1.6-0.4-3.3-0.4c-1.6,0-1.6-0.5-3.3-0.5c-1.6,0-1.6,2-3.3,2c-1.6,0-1.6-1.2-3.3-1.2c-1.6,0-1.6-0.6-3.3-0.6
	s-1.6,0.7-3.3,0.7c-1.6,0-1.6-0.2-3.3-0.2c-1.6,0-1.6-0.1-3.3-0.1c-1.6,0-1.6,1.6-3.3,1.6c-1.6,0-1.6-2.6-3.3-2.6
	c-1.6,0-1.6,1.3-3.3,1.3c-1.6,0-1.6-0.2-3.3-0.2c-1.6,0-1.6,1.5-3.3,1.5c-1.6,0-1.6-1.5-3.3-1.5c-1.6,0-1.6,0.9-3.3,0.9
	c-1.6,0-1.6-2-3.3-2c-1.6,0-1.6,2.5-3.3,2.5c-1.6,0-1.6-2.3-3.3-2.3c-1.6,0-1.6,1.8-3.3,1.8c-1.6,0-1.6-0.6-3.3-0.6
	c-1.6,0-1.6,0.3-3.3,0.3c-1.6,0-1.6,0.1-3.3,0.1s-1.6-0.3-3.3-0.3c-1.6,0-1.6,0.3-3.3,0.3c-1.6,0-1.6,0.5-3.3,0.5s-1.6,0.5-3.3,0.5
	c-1.6,0-1.6-1.2-3.3-1.2s-1.6-0.9-3.3-0.9c-1.6,0-1.6,2-3.3,2s-1.6-1.7-3.3-1.7c-1.6,0-1.6,0.1-3.3,0.1c-1.6,0-1.6-0.9-3.3-0.9
	c-1.6,0-1.6,1-3.3,1c-1.6,0-1.6-0.6-3.3-0.6c-1.6,0-1.6,0.3-3.3,0.3c-1.6,0-1.6-0.5-3.3-0.5c-1.6,0-1.6,1.7-3.3,1.7
	c-1.6,0-1.6-1.8-3.3-1.8c-1.6,0-1.6,1.3-3.3,1.3c-1.6,0-1.6,0.9-3.3,0.9c-1.6,0-1.6-0.9-3.3-0.9s-1.6,0.9-3.3,0.9
	c-1.6,0-1.6-0.6-3.3-0.6c-1.6,0-1.6-0.3-3.3-0.3c-1.6,0-1.6,0.4-3.3,0.4c-1.6,0-1.6-0.1-3.3-0.1c-1.6,0-1.6-0.5-3.3-0.5
	c-1.6,0-1.6,0.9-3.3,0.9c-1.6,0-1.6-2-3.3-2c-1.6,0-1.6-0.1-3.3-0.1c-1.6,0-1.6,2.2-3.3,2.2c-1.6,0-1.6-1.4-3.3-1.4
	c-1.6,0-1.6-0.5-3.3-0.5c-1.6,0-1.6,0.4-3.3,0.4h-3.3c-1.6,0-1.6,1.5-3.3,1.5c-1.6,0-1.6-2.3-3.3-2.3c-1.6,0-1.6-0.4-3.3-0.4h-3.3
	c0,0-1.6,0.4-3.3,0.4s-1.6-0.3-3.3-0.3c-1.6,0-1.6,0.8-3.3,0.8c-1.6,0-1.6,0.7-3.3,0.7c-1.6,0-1.6-1-3.3-1c-1.6,0-1.6,1.4-3.3,1.4
	s-1.6-0.8-3.3-0.8c-1.6,0-1.6,0.5-3.3,0.5c-1.6,0-1.6,0.5-3.3,0.5c-1.6,0-1.6-1.3-3.3-1.3c-1.6,0-1.6,1.9-3.3,1.9
	c-1.6,0-1.6-1.5-3.3-1.5c-1.6,0-1.6-0.7-3.3-0.7c-1.6,0-1.6,0.8-3.3,0.8c-1.6,0-1.6,1.5-3.3,1.5c-1.6,0-1.6-0.1-3.3-0.1
	c-1.6,0-1.6-2.7-3.3-2.7c-1.6,0-1.6,2-3.3,2c-1.6,0-1.6-0.5-3.3-0.5c-1.6,0-1.6-0.2-3.3-0.2c-1.6,0-1.6,1.1-3.3,1.1
	c-1.6,0-1.6-1.7-3.3-1.7c-1.6,0-1.6,0.8-3.3,0.8s-1.6-1-3.3-1c-1.6,0-1.6,2.3-3.3,2.3c-1.6,0-1.6-0.4-3.3-0.4
	c-1.6,0-1.6-2.1-3.3-2.1s-1.6-0.4-3.3-0.4c-1.6,0-1.6,2.8-3.3,2.8c-1.6,0-1.6-2.3-3.3-2.3c-1.6,0-1.6,2.4-3.3,2.4
	c-1.6,0-1.6-0.6-3.3-0.6s-1.6,0.6-3.3,0.6c-1.6,0-1.6-1.9-3.3-1.9c-1.6,0-1.6-0.4-3.3-0.4c-1.6,0-1.6,1.3-3.3,1.3
	c-1.6,0-1.6,1.2-3.3,1.2c-1.6,0-1.6-0.8-3.3-0.8c-1.6,0-1.6-1.6-3.3-1.6c-1.6,0-1.6,1.7-3.3,1.7c-1.6,0-1.6-0.4-3.3-0.4
	c-1.6,0-1.6-0.1-3.3-0.1c-1.6,0-1.6,0.3-3.3,0.3s-1.6-1.6-3.3-1.6c-1.6,0-1.6,0.5-3.3,0.5c-1.6,0-1.6-0.4-3.3-0.4
	c-1.6,0-1.6-0.6-3.3-0.6c-1.6,0-1.6,1.6-3.3,1.6c-1.6,0-1.6-0.5-3.3-0.5c-1.6,0-1.9-0.9-3.5-0.6
	C670.5,451.2,670.5,452.9,669.7,451.5L669.7,451.5z"/>
<path class="st0" d="M774.3,363.4c-0.8-1.4-0.8-1.1,0-2.5s1.2-1.2,2-2.6s-0.2-2,0.6-3.4s3-0.2,3.8-1.6s-1.2-2.5-0.4-4
	c0.8-1.4,3-0.2,3.8-1.6s0.7-1.5,1.5-2.9l1.6-2.8c0.8-1.4-1.4-2.7-0.6-4.1c0.8-1.4,1-1.3,1.8-2.8c0.8-1.4,0.5-1.6,1.3-3
	s1.5-1,2.3-2.5c0.8-1.4,1.2-1.2,1.9-2.7l1.6-2.8c0.8-1.4,0.5-1.6,1.3-3s0.4-1.6,1.2-3.1c0.8-1.4,2.7-0.4,3.5-1.8s-1.6-2.8-0.8-4.2
	c0.8-1.4,1.1-1.2,1.9-2.7c0.8-1.4,1.6-1,2.4-2.4c0.8-1.4,1.6-1,2.4-2.4c0.8-1.4,0-1.9,0.8-3.3s0.6-1.5,1.4-3
	c0.8-1.4,0.4-1.6,1.2-3.1c0.8-1.4,2.4-0.5,3.2-2c0.8-1.4-0.3-2,0.5-3.5c0.8-1.4,0.5-1.6,1.3-3s2-0.7,2.8-2.2c0.8-1.4-0.8-2.3,0-3.7
	c0.8-1.4,1.3-1.1,2.1-2.6c0.8-1.4,0.2-1.8,1-3.2c0.8-1.4,0.5-1.6,1.2-3c0.8-1.4,2.2-0.6,3-2l1.6-2.8c0.8-1.4,1.7-0.9,2.5-2.4
	c0.8-1.4-1.3-2.6-0.5-4s2.2-0.6,3-2.1c0.8-1.4-0.8-2.3,0-3.7c0.8-1.4,1.5-1,2.3-2.4s0.5-1.6,1.3-3s2.5-0.5,3.3-1.9s-1.1-2.5-0.3-3.9
	s1.5-1,2.3-2.4s1.6-1,2.4-2.4c0.8-1.4-0.1-1.9,0.7-3.3c0.8-1.4,0.1-1.8,0.9-3.2c0.8-1.4,1.4-1.1,2.2-2.5s1.6-1,2.4-2.4
	c0.8-1.4,0.3-1.7,1.1-3.1c0.8-1.4,0.3-1.7,1.1-3.1c0.8-1.4,0.9-1.3,1.7-2.8c0.8-1.4,1.7-0.9,2.5-2.3s-1.1-2.5-0.3-3.9
	s1.7-0.9,2.5-2.4c0.8-1.4,0.8-1.4,1.6-2.9c0.8-1.4,0.5-1.6,1.3-3s1-1.3,1.8-2.7s1.1-1.3,1.9-2.7c0.8-1.4-0.3-2.1,0.4-3.5
	c0.8-1.4,3.2-0.1,4-1.5s0.6-1.5,1.4-3c0.8-1.4,0.1-1.8,0.9-3.2c0.8-1.4,1.3-1.1,2.1-2.6c0.8-1.4-1.2-2.5-0.4-3.9s3.1-0.2,3.9-1.6
	c0.8-1.4-0.1-1.9,0.7-3.3c0.8-1.4,1-1.3,1.8-2.8c0.8-1.4,1.3-1.2,2.1-2.6c0.8-1.4,0.4-1.6,1.2-3.1c0.8-1.4,1.6-1,2.4-2.4
	c0.8-1.4-0.3-2.1,0.5-3.5s-0.5-2.1,0.3-3.6c0.8-1.4,1.7-0.9,2.5-2.3s-0.3-2,0.5-3.5c0.8-1.4,1.8-0.9,2.6-2.3s1.3-1.2,2.1-2.6
	c0.8-1.4,1.9-0.8,2.7-2.2s0.4-1.6,1.2-3.1c0.8-1.4-0.8-2.3,0-3.7s0.6-1.6,1.4-3c0.8-1.4,0.4-1.6,1.2-3.1c0.8-1.4,2.2-0.6,3-2.1
	c0.8-1.4-0.4-2.1,0.4-3.5s1.6-1,2.4-2.4c0.8-1.4,0.8-1.4,1.6-2.9c0.8-1.4,1-1.3,1.8-2.8c0.8-1.4-0.4-2.1,0.4-3.5s2.2-0.6,3-2.1
	l1.6-2.8c0.8-1.4,1.6-1,2.4-2.4c0.8-1.4,0.9-1.4,1.7-2.8s-0.5-2.1,0.3-3.6c0.8-1.4,1.1-1.3,1.9-2.7c0.8-1.4,1-1.3,1.8-2.7
	c0.8-1.4,0.4-1.7,1.2-3.1s0.5-1.6,1.3-3s1.6-1,2.4-2.4c0.8-1.4,0.1-1.8,0.9-3.2c0.8-1.4,2.2-0.6,3-2s0.7-1.5,1.5-2.9
	s-0.6-2.2,0.2-3.6s0.5-1.6,1.3-3s0.9-1.4,1.7-2.8s2.3-0.6,3.1-2s-1.4-2.6-0.6-4.1c0.8-1.4,1.8-0.9,2.6-2.3s0.9-1.3,1.7-2.8
	c0.8-1.4,1.1-1.2,1.9-2.7c0.8-1.4,1.2-1.2,2-2.6c0.8-1.4,0.9-1.4,1.7-2.8c0.8-1.4-1.1-2.5-0.3-3.9s3-0.2,3.8-1.6
	c0.8-1.4-0.3-2,0.5-3.5c0.8-1.4,1.8-0.9,2.6-2.3s-0.2-2,0.6-3.4s2.1-0.7,2.9-2.1c0.8-1.4-0.5-2.2,0.3-3.6s0.5-1.6,1.3-3
	s1.1-1.3,1.9-2.7c0.8-1.4,2-0.8,2.8-2.2c0.8-1.4-1.5-2.7-0.7-4.2c0.8-1.4,1-1.3,1.8-2.7s2.2-0.6,3-2.1c0.8-1.4-0.2-2,0.7-3.4
	c0.8-1.4,2-0.8,2.8-2.2s-0.8-3.9,0.9-3.9c1.6,0,1.9,1.5,2.7,2.9s0.9,1.4,1.7,2.8s-0.4,2.1,0.4,3.5s0.9,1.4,1.7,2.8s0.4,1.6,1.2,3.1
	c0.8,1.4,1.1,1.3,1.8,2.7c0.8,1.4,0,1.9,0.8,3.3s1.6,1,2.4,2.4c0.8,1.4-0.4,2.1,0.4,3.5c0.8,1.4,1.4,1.1,2.1,2.5
	c0.8,1.4,1.8,0.9,2.6,2.3s0.3,1.7,1,3.2c0.8,1.4,1.2,1.2,2,2.6c0.8,1.4-0.6,2.2,0.2,3.6s3,0.2,3.8,1.6c0.8,1.4,0.7,1.5,1.5,2.9
	s0,1.9,0.8,3.3s-0.3,2,0.5,3.5c0.8,1.4,2.2,0.6,3,2.1c0.8,1.4,1.5,1,2.3,2.4s0.9,1.4,1.7,2.8s0,1.9,0.8,3.3s-0.7,2.3,0.1,3.7
	c0.8,1.4,1.1,1.2,1.9,2.7c0.8,1.4,1.4,1.1,2.2,2.5s-0.3,2.1,0.5,3.5s1.6,1,2.4,2.4c0.8,1.4,1.8,0.8,2.6,2.3c0.8,1.4,1.1,1.3,1.9,2.7
	c0.8,1.4-1,2.5-0.2,3.9s0.6,1.6,1.4,3c0.8,1.4,2.6,0.4,3.4,1.9c0.8,1.4,1.1,1.3,1.9,2.7c0.8,1.4,1.2,1.2,2,2.6s-0.6,2.2,0.2,3.6
	s0.2,1.8,1,3.2c0.8,1.4,1.3,1.2,2.1,2.6c0.8,1.4,2.1,0.7,2.9,2.1s1,1.3,1.8,2.8c0.8,1.4-0.2,2,0.6,3.4s0,1.8,0.8,3.3
	c0.8,1.4,0.7,1.5,1.5,2.9s1.3,1.2,2.1,2.6c0.8,1.4,1.5,1,2.3,2.4c0.8,1.4,1.1,1.2,1.9,2.7c0.8,1.4,1,1.3,1.8,2.7s-0.2,2,0.6,3.4
	s1.3,1.1,2.1,2.6c0.8,1.4-0.7,2.2,0.1,3.7l1.6,2.8c0.8,1.4,2.2,0.7,3,2.1c0.8,1.4,1,1.3,1.8,2.8c0.8,1.4,1.1,1.2,1.9,2.7
	c0.8,1.4,0,1.9,0.8,3.3s-0.6,2.2,0.2,3.7c0.8,1.4,2.8,0.3,3.6,1.7c0.8,1.4,0,1.9,0.8,3.3s-0.3,2,0.5,3.5c0.8,1.4,1.6,1,2.4,2.4
	s0.7,1.5,1.5,2.9s2,0.8,2.8,2.2s0,1.8,0.8,3.3c0.8,1.4,1.3,1.1,2.1,2.6c0.8,1.4,0.6,1.5,1.4,2.9s-0.5,2.2,0.3,3.6l1.6,2.8
	c0.8,1.4,2.3,0.6,3.1,2c0.8,1.4-0.6,2.2,0.2,3.7c0.8,1.4,0.3,1.7,1.1,3.1c0.8,1.4,2.6,0.4,3.4,1.8c0.8,1.4-0.6,2.2,0.2,3.6
	s1.5,1,2.3,2.4s1.9,0.8,2.7,2.3c0.8,1.4,0.1,1.8,0.9,3.2s-0.6,2.2,0.2,3.6s1.6,1,2.4,2.4s1,1.3,1.8,2.7s1.1,1.2,1.9,2.7
	c0.8,1.4-0.3,2.1,0.5,3.5s2.4,0.5,3.2,2c0.8,1.4,1.4,1.1,2.2,2.5c0.8,1.4,0.6,1.6,1.4,3s-0.1,1.9,0.7,3.3c0.8,1.4,1.8,0.9,2.6,2.3
	s0.1,1.8,0.9,3.2s0.4,1.6,1.2,3.1c0.8,1.4-0.4,2.1,0.4,3.5s2.8,0.3,3.6,1.8c0.8,1.4,0.7,1.5,1.5,2.9s-0.4,2.1,0.4,3.5s1.6,1,2.4,2.4
	s1.4,1.1,2.2,2.5c0.8,1.4-0.7,2.3,0.1,3.7c0.8,1.4,0.6,1.6,1.4,3s0.8,1.4,1.6,2.9c0.8,1.4,2.6,0.4,3.4,1.8s-1,2.4-0.2,3.8
	s0.9,1.4,1.7,2.8c0.8,1.4,2,0.8,2.8,2.2c0.8,1.4,0.7,1.5,1.5,2.9s-0.5,2.1,0.3,3.6c0.8,1.4,0.5,1.6,1.3,3s1.1,1.3,1.9,2.7
	c0.8,1.4,1.9,0.8,2.7,2.2s0.6,1.5,1.4,2.9s1.7,0.9,2.5,2.3s0.5,1.6,1.3,3s0.7,1.5,1.5,2.9s-0.1,1.9,0.7,3.3c0.8,1.4,0.2,1.7,1,3.2
	c0.8,1.4,2.1,0.7,2.9,2.1s0.9,1.4,1.7,2.8c0.8,1.4,0,1.9,0.8,3.3s-0.2,2,0.6,3.4s2.7,0.4,3.5,1.8s-0.4,2.1,0.4,3.5s1.6,1,2.4,2.4
	s-0.8,2.3,0,3.8c0.8,1.4,1.2,1.2,2,2.7c0.8,1.4,2.3,0.6,3.1,2c0.8,1.4,0.7,1.5,1.5,2.9s1.5,1.1,2.3,2.5s-1.4,2.7-0.6,4.1
	s2.7,0.3,3.5,1.8c0.8,1.4-0.9,2.4-0.1,3.8s2.6,0.7,1.8,2.2c-0.8,1.4-1.1,0.6-2.7,0.6s-1.6,0.7-3.3,0.7s-1.6-0.1-3.3-0.1
	s-1.6-1.5-3.3-1.5s-1.6-0.1-3.3-0.1s-1.6,0.3-3.3,0.3s-1.6,1.3-3.3,1.3s-1.6-2.2-3.3-2.2s-1.6,1.7-3.3,1.7s-1.6,0.1-3.3,0.1
	c-1.6,0-1.6,0.1-3.3,0.1c-1.6,0-1.6-1.2-3.3-1.2s-1.6,1.3-3.3,1.3s-1.6,0.6-3.3,0.6c-1.6,0-1.6-0.5-3.3-0.5s-1.6,0.6-3.3,0.6
	c-1.6,0-1.6-1.4-3.3-1.4s-1.6,0.5-3.3,0.5s-1.6-0.2-3.3-0.2c-1.6,0-1.6,1.2-3.3,1.2s-1.6-0.8-3.3-0.8c-1.6,0-1.6-0.7-3.3-0.7
	c-1.6,0-1.6-0.9-3.3-0.9c-1.6,0-1.6,1.1-3.3,1.1s-1.6-0.1-3.3-0.1s-1.6-1-3.3-1c-1.6,0-1.6,0.3-3.3,0.3c-1.6,0-1.6,1.3-3.3,1.3
	s-1.6-0.1-3.3-0.1s-1.6-0.2-3.3-0.2c-1.6,0-1.6-0.4-3.3-0.4c-1.6,0-1.6,0.8-3.3,0.8c-1.6,0-1.6-1.6-3.3-1.6c-1.6,0-1.6,1.9-3.3,1.9
	c-1.6,0-1.6,0.4-3.3,0.4c-1.6,0-1.6-1.3-3.3-1.3s-1.6,1.1-3.3,1.1c-1.6,0-1.6-1.8-3.3-1.8s-1.6,0.3-3.3,0.3s-1.6-0.5-3.3-0.5
	s-1.6,2.4-3.3,2.4s-1.6-0.2-3.3-0.2s-1.6-0.9-3.3-0.9s-1.6,0.3-3.3,0.3s-1.6-1.7-3.3-1.7s-1.6-0.3-3.3-0.3c-1.6,0-1.6,2.9-3.3,2.9
	c-1.6,0-1.6-1.9-3.3-1.9c-1.6,0-1.6,0.8-3.3,0.8c-1.6,0-1.6-1.2-3.3-1.2c-1.6,0-1.6,0.9-3.3,0.9c-1.6,0-1.6,0.9-3.3,0.9
	c-1.6,0-1.6-2.3-3.3-2.3c-1.6,0-1.6,0.2-3.3,0.2c-1.6,0-1.6,0.3-3.3,0.3c-1.6,0-1.6,2.3-3.3,2.3c-1.6,0-1.6-2.6-3.3-2.6
	c-1.6,0-1.6,1-3.3,1c-1.6,0-1.6,0.5-3.3,0.5c-1.6,0-1.6-1.1-3.3-1.1s-1.6,1-3.3,1c-1.6,0-1.6,0.1-3.3,0.1c-1.6,0-1.6,0.1-3.3,0.1
	c-1.6,0-1.6-1.9-3.3-1.9c-1.6,0-1.6,0.7-3.3,0.7c-1.6,0-1.6-0.2-3.3-0.2c-1.6,0-1.6-0.3-3.3-0.3c-1.6,0-1.6,0.9-3.3,0.9
	c-1.6,0-1.6,1.1-3.3,1.1c-1.6,0-1.6-1.7-3.3-1.7s-1.6,1.1-3.3,1.1c-1.6,0-1.6-1.4-3.3-1.4c-1.6,0-1.6,0.3-3.3,0.3
	c-1.6,0-1.6-0.3-3.3-0.3c-1.6,0-1.6,1.2-3.3,1.2c-1.6,0-1.6,1-3.3,1c-1.6,0-1.6-1-3.3-1c-1.6,0-1.6-0.8-3.3-0.8
	c-1.6,0-1.6-0.7-3.3-0.7c-1.6,0-1.6,0.5-3.3,0.5c-1.6,0-1.6,1.8-3.3,1.8c-1.6,0-1.6-0.7-3.3-0.7c-1.6,0-1.6-1.2-3.3-1.2
	c-1.6,0-1.6,0.9-3.3,0.9c-1.6,0-1.6-0.1-3.3-0.1c-1.6,0-1.6,1.2-3.3,1.2c-1.6,0-1.6,0.3-3.3,0.3c-1.6,0-1.6-1.8-3.3-1.8
	c-1.6,0-1.6,0.7-3.3,0.7s-1.6-0.7-3.3-0.7c-1.6,0-1.6,0.8-3.3,0.8c-1.6,0-1.6,0.9-3.3,0.9c-1.6,0-1.6-2.3-3.3-2.3
	c-1.6,0-1.6,0.7-3.3,0.7c-1.6,0-1.6,0.8-3.3,0.8c-1.6,0-1.6,0.8-3.3,0.8c-1.6,0-1.6-0.9-3.3-0.9c-1.6,0-1.6,0.2-3.3,0.2
	c-1.6,0-1.6-0.7-3.3-0.7c-1.6,0-1.6,1.7-3.3,1.7c-1.6,0-1.6-0.2-3.3-0.2c-1.6,0-1.6-1.4-3.3-1.4s-1.6,1.7-3.3,1.7
	c-1.6,0-1.6,0.2-3.3,0.2c-1.6,0-1.6-2.5-3.3-2.5c-1.6,0-1.6,1.6-3.3,1.6h-3.3c-1.6,0-1.6-0.8-3.3-0.8c-1.6,0-1.6,0.7-3.3,0.7
	c-1.6,0-1.6,0.9-3.3,0.9c-1.6,0-1.6-1.8-3.3-1.8c-1.6,0-1.6,0.9-3.3,0.9c-1.6,0-1.6-0.6-3.3-0.6c-1.6,0-1.6,0.1-3.3,0.1
	s-1.6-0.1-3.3-0.1c-1.6,0-1.6,0.9-3.3,0.9c-1.6,0-1.6-2.3-3.3-2.3c-1.6,0-1.6,1.7-3.3,1.7c-1.6,0-1.6-1.1-3.3-1.1h-3.3
	c-1.6,0-1.6,0.2-3.3,0.2c-1.6,0-1.8-0.4-3.4-0.1C775.1,363.6,775.1,364.8,774.3,363.4L774.3,363.4z"/>
<path class="st0" d="M883.7,418.3c-0.8-1.4,2.6-1,3.4-2.5c0.8-1.4-1.1-2.5-0.3-3.9s2.6-0.4,3.4-1.8c0.8-1.4,0.6-1.5,1.4-3
	c0.8-1.4,0.7-1.5,1.5-2.9s0-1.9,0.8-3.3s1.8-0.9,2.6-2.3s0.3-1.7,1.1-3.1s0.3-1.7,1.1-3.1s-0.5-2.2,0.3-3.6s2.6-0.4,3.4-1.9
	c0.8-1.4,0-1.9,0.8-3.3s1.4-1.1,2.2-2.5s0.9-1.4,1.7-2.8s0.2-1.8,1-3.2c0.8-1.4,0.5-1.6,1.3-3s2.4-0.5,3.2-2
	c0.8-1.4-1.4-2.6-0.6-4.1c0.8-1.4,0.6-1.5,1.4-3c0.8-1.4,2.4-0.5,3.2-2c0.8-1.4-0.3-2,0.5-3.4s1.4-1.1,2.2-2.5s0.2-1.8,1-3.2
	c0.8-1.4,1.1-1.3,1.9-2.7c0.8-1.4,2.3-0.6,3.1-2s-1-2.4-0.2-3.8s1.3-1.2,2.1-2.6s2.2-0.7,3-2.1s0.2-1.8,1-3.2
	c0.8-1.4,1.4-1.1,2.2-2.5s-1.1-2.5-0.3-3.9s1.7-0.9,2.5-2.4c0.8-1.4,1.1-1.3,1.9-2.7c0.8-1.4,0.6-1.5,1.4-3c0.8-1.4-0.1-1.9,0.7-3.4
	c0.8-1.4,1.6-1,2.4-2.4c0.8-1.4,1.3-1.1,2.1-2.6c0.8-1.4,0.8-1.5,1.6-2.9s0.1-1.8,0.9-3.2c0.8-1.4-0.2-2,0.6-3.4s1.5-1,2.3-2.5
	c0.8-1.4-0.1-1.9,0.7-3.3s2.5-0.5,3.3-1.9s-0.1-1.9,0.7-3.3s1.6-1,2.4-2.4c0.8-1.4-0.7-2.3,0.1-3.7c0.8-1.4,1.8-0.9,2.6-2.3
	s1.4-1.1,2.2-2.5s-0.6-2.2,0.2-3.6s1.1-1.3,1.9-2.7c0.8-1.4,2.8-0.3,3.6-1.7c0.8-1.4-0.4-2.1,0.4-3.5s1.2-1.2,2-2.6s0.6-1.6,1.4-3
	c0.8-1.4,1.5-1,2.3-2.5c0.8-1.4-1.3-2.6-0.5-4s1.8-0.9,2.6-2.3s1.8-0.9,2.6-2.3s-0.8-2.3,0-3.7s0.7-1.5,1.5-2.9s0.6-1.5,1.4-3
	c0.8-1.4,1.3-1.2,2-2.6c0.8-1.4,2-0.8,2.8-2.2s-0.4-2.1,0.4-3.5s2.1-0.7,2.9-2.1c0.8-1.4-0.8-2.3,0-3.7s0.9-1.3,1.7-2.8
	c0.8-1.4,1.2-1.2,2-2.6c0.8-1.4,2.1-0.7,2.9-2.1c0.8-1.4,0.2-1.7,1-3.2c0.8-1.4,1.5-1.1,2.3-2.5s-0.1-1.9,0.7-3.4
	c0.8-1.4,1.2-1.2,2-2.6c0.8-1.4-0.1-2,0.7-3.4s0.4-1.7,1.2-3.1c0.8-1.4,2.7-0.4,3.5-1.8c0.8-1.4,0.2-1.8,1-3.2s1-1.3,1.8-2.7
	s1.2-1.2,2-2.6c0.8-1.4-0.7-2.2,0.1-3.7c0.8-1.4,1-1.3,1.8-2.7s1.3-1.1,2.1-2.5s0-1.9,0.7-3.3c0.8-1.4-0.1-1.9,0.7-3.4
	c0.8-1.4,2-0.7,2.8-2.2c0.8-1.4-0.1-1.9,0.7-3.3c0.8-1.4,1.3-1.1,2.1-2.6c0.8-1.4,0.8-1.4,1.6-2.9c0.8-1.4,1.6-1,2.4-2.4
	s-0.2-2,0.6-3.4s0.7-1.5,1.5-2.9s1.6-1,2.4-2.4s1.7-0.9,2.5-2.4c0.8-1.4-1-2.4-0.2-3.9c0.8-1.4,0.5-1.6,1.3-3s2.3-0.6,3.1-2
	c0.8-1.4,0.1-1.8,0.9-3.2s1-1.3,1.8-2.8c0.8-1.4,0-1.9,0.8-3.3s2.7-0.4,3.5-1.8l1.6-2.8c0.8-1.4-0.7-2.3,0.1-3.7
	c0.8-1.4,2.2-0.6,3-2.1c0.8-1.4-1.3-2.6-0.5-4s1.3-1.1,2.1-2.6c0.8-1.4,0.6-1.5,1.4-3c0.8-1.4,0.8-1.4,1.6-2.9
	c0.8-1.4,2.1-0.7,2.9-2.2c0.8-1.4,1.1-1.2,1.9-2.7c0.8-1.4,0.9-1.4,1.7-2.8c0.8-1.4-1.1-2.5-0.3-3.9s2.8-0.3,3.6-1.7
	c0.8-1.4,0.7-1.5,1.5-2.9s-1.4-2.6-0.6-4.1c0.8-1.4,2.1-0.7,2.9-2.1s0.5-1.6,1.3-3s1.5-1.1,2.3-2.5s1.3-1.1,2.1-2.6
	c0.8-1.4-1.1-2.5-0.3-3.9s2.3-0.6,3.1-2c0.8-1.4-0.1-2,0.7-3.4c0.8-1.4,0.8-1.5,1.6-2.9s0.1-1.8,0.9-3.3c0.8-1.4,0.9-1.4,1.7-2.8
	c0.8-1.4,0.9-1.4,1.7-2.8c0.8-1.4,0.8-3.4,2.4-3.4s-0.4,3.1,0.4,4.5s2.3,0.6,3.1,2c0.8,1.4,1.2,1.2,2,2.6s1,1.3,1.8,2.7
	c0.8,1.4-0.3,2,0.5,3.4s1.2,1.2,2,2.6s0.7,1.5,1.5,2.9s1.1,1.3,1.9,2.7c0.8,1.4-0.3,2,0.5,3.5c0.8,1.4,0.2,1.8,1,3.2
	c0.8,1.4,2.9,0.2,3.7,1.7c0.8,1.4-1,2.5-0.2,3.9s0.6,1.5,1.4,3c0.8,1.4,3,0.2,3.8,1.6s0.9,1.3,1.7,2.8c0.8,1.4-1.5,2.7-0.7,4.1
	s0.6,1.5,1.4,3c0.8,1.4,3.3,0,4.1,1.4c0.8,1.4-0.9,2.4-0.1,3.8s2.5,0.5,3.3,1.9s0.4,1.6,1.2,3.1c0.8,1.4,0.9,1.4,1.7,2.8
	c0.8,1.4-0.2,2,0.6,3.4s1.5,1,2.3,2.5c0.8,1.4-0.2,2,0.6,3.4s1.7,0.9,2.5,2.3s1.5,1.1,2.2,2.5c0.8,1.4-1.5,2.7-0.7,4.2
	c0.8,1.4,1.8,0.9,2.6,2.3s0.4,1.6,1.2,3.1c0.8,1.4,0.4,1.7,1.2,3.1c0.8,1.4,0.6,1.5,1.4,3c0.8,1.4,2,0.8,2.8,2.2s1.6,1,2.4,2.4
	s0.7,1.5,1.5,2.9s-0.9,2.3-0.1,3.8c0.8,1.4,2.8,0.3,3.6,1.8c0.8,1.4,1,1.3,1.8,2.8c0.8,1.4,0.8,1.4,1.6,2.9c0.8,1.4-1.2,2.5-0.4,4
	c0.8,1.4,1.5,1,2.3,2.5c0.8,1.4,0.3,1.7,1.1,3.2c0.8,1.4,0.7,1.5,1.5,2.9s1.4,1.1,2.2,2.5c0.8,1.4,0.6,1.6,1.4,3s1.7,0.9,2.5,2.4
	c0.8,1.4,1,1.3,1.8,2.7s1.1,1.2,1.9,2.7c0.8,1.4,0.9,1.3,1.7,2.8c0.8,1.4-0.9,2.4-0.1,3.8s1.1,1.2,1.9,2.7c0.8,1.4,1.7,0.9,2.5,2.3
	s-1,2.5-0.2,3.9s3.1,0.1,3.9,1.6c0.8,1.4-1.4,2.7-0.6,4.1c0.8,1.4,2.9,0.3,3.7,1.7c0.8,1.4-0.4,2.1,0.4,3.5s1.9,0.8,2.7,2.2
	c0.8,1.4,0.4,1.6,1.2,3.1c0.8,1.4-0.4,2.1,0.4,3.5s1.3,1.1,2.1,2.5s-0.2,2,0.6,3.4s0.9,1.4,1.7,2.8c0.8,1.4,3,0.2,3.8,1.6
	c0.8,1.4-1,2.4-0.2,3.8s1.6,1,2.4,2.4s-0.6,2.2,0.2,3.7c0.8,1.4,2.3,0.6,3.1,2c0.8,1.4-0.1,1.9,0.7,3.3c0.8,1.4,0.5,1.6,1.3,3
	s2.2,0.7,3,2.1s0.2,1.8,1,3.2c0.8,1.4,2,0.8,2.8,2.2c0.8,1.4-0.1,1.9,0.7,3.3c0.8,1.4,1.1,1.2,1.9,2.7c0.8,1.4-0.6,2.2,0.2,3.6
	s2.9,0.3,3.7,1.7c0.8,1.4-0.4,2.1,0.4,3.5s1.1,1.3,1.9,2.7c0.8,1.4,1.1,1.3,1.9,2.7c0.8,1.4-0.4,2.1,0.4,3.5s1.6,1,2.4,2.4
	s-0.5,2.2,0.3,3.6s1.6,1,2.4,2.4s-0.2,2,0.6,3.4s2.8,0.3,3.6,1.7c0.8,1.4-1.1,2.5-0.3,3.9s3,0.2,3.8,1.6s-0.7,2.2,0.1,3.7
	c0.8,1.4-0.1,1.9,0.7,3.4c0.8,1.4,2.3,0.6,3.1,2c0.8,1.4-0.3,2.1,0.5,3.5s2.2,0.6,3,2.1l1.6,2.8c0.8,1.4,1.2,1.2,2,2.6
	s-0.4,2.1,0.4,3.5s1.4,1.1,2.2,2.5c0.8,1.4,0.2,1.8,1,3.2c0.8,1.4,1.3,1.1,2.1,2.6c0.8,1.4,0.2,1.8,1,3.2c0.8,1.4,1,1.3,1.8,2.8
	c0.8,1.4,0.6,1.5,1.4,3c0.8,1.4,0.5,1.6,1.3,3s0.4,1.7,1.2,3.1s0.8,1.4,1.6,2.9c0.8,1.4,2.4,0.5,3.2,1.9c0.8,1.4,1.2,1.2,2,2.6
	s0.7,1.5,1.5,2.9s-1.2,2.5-0.4,3.9c0.8,1.4,1.8,0.9,2.6,2.3s1.3,1.1,2.1,2.6c0.8,1.4-0.3,2,0.5,3.5c0.8,1.4,2.7,0.4,3.5,1.8
	s-1.5,2.7-0.7,4.1s2.1,0.7,2.9,2.1s1.8,0.9,2.6,2.3s-0.5,2.1,0.3,3.6c0.8,1.4,1.2,1.2,2,2.7c0.8,1.4,0,1.9,0.8,3.3s1.6,1,2.4,2.4
	s1,1.3,1.8,2.8c0.8,1.4-0.6,2.2,0.2,3.6s2.4,0.5,3.2,2c0.8,1.4,0.4,1.7,1.2,3.1c0.8,1.4,0.9,1.4,1.7,2.8c0.8,1.4,2.6,2.1,1.8,3.5
	s-2.3-0.5-3.9-0.5s-1.6,0.7-3.3,0.7c-1.6,0-1.6-1.6-3.3-1.6s-1.6,0.4-3.3,0.4s-1.6,2.1-3.3,2.1c-1.6,0-1.6-1.6-3.3-1.6
	c-1.6,0-1.6-1.2-3.3-1.2c-1.6,0-1.6,2.6-3.3,2.6s-1.6-2.1-3.3-2.1s-1.6-0.1-3.3-0.1s-1.6,1.9-3.3,1.9c-1.6,0-1.6-2.3-3.3-2.3
	s-1.6,2.3-3.3,2.3s-1.6,0.1-3.3,0.1c-1.6,0-1.6-0.3-3.3-0.3s-1.6,0.2-3.3,0.2s-1.6-2.2-3.3-2.2s-1.6,1.3-3.3,1.3s-1.6-0.7-3.3-0.7
	c-1.6,0-1.6,1.5-3.3,1.5c-1.6,0-1.6,0.2-3.3,0.2s-1.6-0.9-3.3-0.9s-1.6,1.6-3.3,1.6s-1.6-0.4-3.3-0.4c-1.6,0-1.6,0.3-3.3,0.3
	s-1.6-1.9-3.3-1.9s-1.6,0.3-3.3,0.3c-1.6,0-1.6-1.1-3.3-1.1s-1.6,0.4-3.3,0.4c-1.6,0-1.6,1.1-3.3,1.1s-1.6,0.7-3.3,0.7
	s-1.6-2.2-3.3-2.2h-3.3c-1.6,0-1.6,1.6-3.3,1.6s-1.6,0.3-3.3,0.3s-1.6,0.9-3.3,0.9s-1.6-2.2-3.3-2.2c-1.6,0-1.6,1.6-3.3,1.6
	c-1.6,0-1.6-0.9-3.3-0.9s-1.6-0.9-3.3-0.9s-1.6-0.5-3.3-0.5s-1.6,0.3-3.3,0.3s-1.6-0.2-3.3-0.2s-1.6,1.5-3.3,1.5
	c-1.6,0-1.6,1.3-3.3,1.3c-1.6,0-1.6-1.9-3.3-1.9s-1.6,0.6-3.3,0.6s-1.6,0.7-3.3,0.7s-1.6,0.3-3.3,0.3s-1.6-0.4-3.3-0.4
	s-1.6-0.8-3.3-0.8c-1.6,0-1.6,1.5-3.3,1.5c-1.6,0-1.6-0.2-3.3-0.2s-1.6-0.6-3.3-0.6s-1.6,0.3-3.3,0.3s-1.6-2.4-3.3-2.4h-3.3
	c0,0-1.6,1.9-3.3,1.9s-1.6,0.2-3.3,0.2s-1.6-2.1-3.3-2.1s-1.6,0.3-3.3,0.3s-1.6,1.7-3.3,1.7s-1.6-1.6-3.3-1.6s-1.6,1.3-3.3,1.3
	c-1.6,0-1.6,0.8-3.3,0.8c-1.6,0-1.6-2.1-3.3-2.1s-1.6,0.5-3.3,0.5s-1.6,1.5-3.3,1.5s-1.6,0.3-3.3,0.3s-1.6-2.5-3.3-2.5
	c-1.6,0-1.6,2.4-3.3,2.4s-1.6-0.3-3.3-0.3c-1.6,0-1.6-1.7-3.3-1.7c-1.6,0-1.6,1.5-3.3,1.5c-1.6,0-1.6-1.7-3.3-1.7
	c-1.6,0-1.6,2.1-3.3,2.1c-1.6,0-1.6-0.9-3.3-0.9c-1.6,0-1.6,0.3-3.3,0.3c-1.6,0-1.6-1.6-3.3-1.6s-1.6-0.3-3.3-0.3s-1.6,1.1-3.3,1.1
	c-1.6,0-1.6,1.7-3.3,1.7c-1.6,0-1.6-1.2-3.3-1.2c-1.6,0-1.6-1.4-3.3-1.4c-1.6,0-1.6,2.3-3.3,2.3c-1.6,0-1.6-1.1-3.3-1.1
	c-1.6,0-1.6-1.4-3.3-1.4c-1.6,0-1.6,2.1-3.3,2.1c-1.6,0-1.6-0.8-3.3-0.8c-1.6,0-1.6,0.2-3.3,0.2c-1.6,0-1.6-1.8-3.3-1.8h-3.3
	c-1.6,0-1.6,1.3-3.3,1.3c-1.6,0-1.6,0.6-3.3,0.6c-1.6,0-1.6,0.2-3.3,0.2c-1.6,0-1.6-0.8-3.3-0.8c-1.6,0-1.6-1-3.3-1
	c-1.6,0-1.6-0.3-3.3-0.3c-1.6,0-1.6,1.6-3.3,1.6c-1.6,0-1.6,1-3.3,1c-1.6,0-1.6-2-3.3-2c-1.6,0-1.6,0.1-3.3,0.1
	c-1.6,0-1.6,0.3-3.3,0.3c-1.6,0-1.6,0.7-3.3,0.7c-1.6,0-1.6-0.3-3.3-0.3c-1.6,0-1.6-0.5-3.3-0.5c-1.6,0-1.6,1.2-3.3,1.2
	c-1.6,0-1.6-1.2-3.3-1.2c-1.6,0-1.6-0.6-3.3-0.6c-1.6,0-1.6,2-3.3,2c-1.6,0-1.6-0.2-3.3-0.2c-1.6,0-1.6-1.6-3.3-1.6
	c-1.6,0-1.6,1.9-3.3,1.9c-1.6,0-1.6-1.5-3.3-1.5c-1.6,0-1.6,0.5-3.3,0.5s-1.6,1.3-3.3,1.3c-1.6,0-1.6-2.6-3.3-2.6
	c-1.6,0-1.6,1.6-3.3,1.6H894c-1.6,0-1.6-1.8-3.3-1.8c-1.6,0-1.6,1.9-3.3,1.9c-1.6,0-1.5-0.4-3.1,0.1
	C885.6,419.2,884.5,419.7,883.7,418.3L883.7,418.3z"/>
</svg>
