<?xml version="1.0" encoding="utf-8"?>
<!-- Generator: Adobe Illustrator 25.2.0, SVG Export Plug-In . SVG Version: 6.00 Build 0)  -->
<svg version="1.1" id="圖層_1" xmlns="http://www.w3.org/2000/svg" xmlns:xlink="http://www.w3.org/1999/xlink" x="0px" y="0px"
	 viewBox="0 0 1200 396" style="enable-background:new 0 0 1200 396;" xml:space="preserve">
<style type="text/css">
	.st0{fill:#510B0B;}
</style>
<path class="st0" d="M715.9,412.5c-0.8-1.4,1-0.5,1.8-1.9s0.1-1.8,0.9-3.2c0.8-1.4,0.2-1.8,1-3.2c0.8-1.4,0.9-1.4,1.6-2.8
	c0.8-1.4,2-0.7,2.8-2.2c0.8-1.4-0.9-2.4-0.1-3.8s1.8-0.8,2.6-2.3c0.8-1.4-0.7-2.2,0.1-3.7c0.8-1.4,1.6-1,2.4-2.4
	c0.8-1.4,1.7-0.9,2.5-2.3s1.3-1.1,2.1-2.6c0.8-1.4,0.6-1.6,1.4-3l1.6-2.8c0.8-1.4,0-1.9,0.8-3.3s1.7-0.9,2.5-2.3s-1.3-2.6-0.5-4
	s2-0.8,2.8-2.2c0.8-1.4,2-0.7,2.8-2.2c0.8-1.4-1.3-2.6-0.5-4s0.4-1.7,1.2-3.1s1-1.3,1.8-2.8c0.8-1.4,1.1-1.3,1.9-2.7
	c0.8-1.4,0.4-1.7,1.2-3.1s1.7-0.9,2.5-2.4c0.8-1.4,2.4-0.5,3.2-2c0.8-1.4,0.3-1.7,1.1-3.1s-0.4-2.1,0.4-3.5s1.5-1,2.3-2.5
	c0.8-1.4,0.4-1.7,1.2-3.1s1.4-1.1,2.2-2.5s0.6-1.5,1.4-2.9c0.8-1.4-0.3-2,0.5-3.5c0.8-1.4,0.4-1.7,1.2-3.1s1.9-0.8,2.7-2.2
	c0.8-1.4,1.3-1.2,2.1-2.6s0.5-1.6,1.3-3s0.2-1.8,1-3.2c0.8-1.4,2.2-0.6,3-2.1c0.8-1.4-1.1-2.5-0.3-3.9s1.5-1,2.3-2.4
	s1.7-0.9,2.5-2.4c0.8-1.4,0.4-1.6,1.2-3.1c0.8-1.4-0.5-2.1,0.3-3.6c0.8-1.4,1.8-0.9,2.6-2.3s0.8-1.4,1.6-2.9c0.8-1.4,0.2-1.7,1-3.2
	c0.8-1.4,2-0.8,2.8-2.2c0.8-1.4,1.5-1.1,2.3-2.5s-1.5-2.7-0.7-4.1s2.7-0.4,3.5-1.8s1.3-1.2,2.1-2.6s-0.1-1.9,0.7-3.4
	c0.8-1.4,1.4-1.1,2.2-2.5s0.4-1.7,1.2-3.1s-1.1-2.5-0.3-3.9s1.9-0.8,2.7-2.2s1.6-1,2.3-2.4c0.8-1.4,0.9-1.4,1.7-2.8
	c0.8-1.4-0.6-2.2,0.2-3.6s2.4-0.5,3.2-1.9s-1-2.4-0.2-3.8s1.1-1.2,1.9-2.7c0.8-1.4,1.3-1.1,2.1-2.6c0.8-1.4,0.3-1.7,1.1-3.1
	c0.8-1.4,2.4-0.5,3.2-1.9s-0.3-2,0.5-3.5c0.8-1.4,1-1.3,1.8-2.8c0.8-1.4-0.5-2.1,0.3-3.6c0.8-1.4,1.1-1.2,1.9-2.7
	c0.8-1.4,2.1-0.7,2.9-2.1c0.8-1.4-0.5-2.2,0.3-3.6s0.8-1.4,1.6-2.9c0.8-1.4,0.5-1.6,1.3-3s1.6-1,2.4-2.4c0.8-1.4,2-0.7,2.8-2.2
	c0.8-1.4-0.4-2.1,0.4-3.5s0.7-1.5,1.5-2.9s2.2-0.6,3-2.1c0.8-1.4,0.3-1.7,1.1-3.1c0.8-1.4,1.3-1.1,2.1-2.6c0.8-1.4-0.5-2.1,0.3-3.6
	c0.8-1.4,0.4-1.7,1.2-3.1c0.8-1.4,2.7-0.4,3.5-1.8c0.8-1.4-1.1-2.5-0.3-3.9s2.5-0.5,3.3-1.9s-0.1-1.9,0.7-3.4
	c0.8-1.4,1.3-1.1,2.1-2.6c0.8-1.4,0.2-1.8,0.9-3.2c0.8-1.4,0.2-1.8,1-3.2s2.4-0.5,3.2-2c0.8-1.4,0.4-1.7,1.2-3.1
	c0.8-1.4-0.8-2.3,0-3.8c0.8-1.4,3-0.2,3.8-1.6c0.8-1.4-1.1-2.5-0.3-3.9s0.2-1.7,1-3.2c0.8-1.4,1.2-1.2,2-2.6c0.8-1.4,2-0.8,2.8-2.2
	s-0.5-2.2,0.3-3.6s2.2-0.7,3-2.1c0.8-1.4,0.3-1.7,1.1-3.2c0.8-1.4,0.9-1.4,1.7-2.8s0.4-1.6,1.2-3.1c0.8-1.4,0.2-1.8,1-3.2
	c0.8-1.4,2.3-0.6,3.1-2s1.2-1.2,2-2.6s1-1.3,1.8-2.7c0.8-1.4-0.3-2,0.5-3.5c0.8-1.4-0.3-2,0.5-3.4s1.1-1.3,1.9-2.7
	c0.8-1.4,1.2-1.2,2-2.6s0.8-1.4,1.6-2.9c0.8-1.4,0.2-1.8,1-3.2c0.8-1.4,0.7-1.5,1.5-2.9s1.2-1.2,2-2.6s2.8-0.3,3.6-1.7
	c0.8-1.4-1.2-2.5-0.4-4c0.8-1.4,1.1-1.3,1.9-2.7c0.8-1.4,1.6-1,2.4-2.4c0.8-1.4,1.2-1.2,2-2.7c0.8-1.4,0.4-1.7,1.2-3.1
	s-0.4-2.1,0.4-3.6c0.8-1.4,0.6-1.6,1.4-3c0.8-1.4,0.8-1.4,1.6-2.9c0.8-1.4,1.7-0.9,2.5-2.4c0.8-1.4,0.3-1.7,1.1-3.2
	c0.8-1.4,0.8-3.5,2.4-3.5c1.6,0,1.4,2.2,2.2,3.6c0.8,1.4,0.9,1.3,1.7,2.8c0.8,1.4,0.9,1.4,1.6,2.8c0.8,1.4-0.7,2.3,0.1,3.7
	s2.7,0.4,3.5,1.8s-1.4,2.6-0.6,4.1c0.8,1.4,1.7,0.9,2.5,2.3s2.2,0.6,3,2.1c0.8,1.4-0.2,2,0.6,3.4s0.6,1.5,1.4,2.9
	c0.8,1.4,0.9,1.4,1.7,2.8s1.9,0.8,2.7,2.3c0.8,1.4,0.7,1.5,1.5,2.9s-1.6,2.8-0.8,4.2c0.8,1.4,2.9,0.2,3.7,1.7l1.6,2.8
	c0.8,1.4,0.1,1.8,0.9,3.2c0.8,1.4,1.1,1.2,1.9,2.7c0.8,1.4-0.3,2,0.5,3.5c0.8,1.4,0.4,1.7,1.2,3.1s1.2,1.2,2,2.6s0.3,1.7,1.1,3.1
	s0.7,1.5,1.5,2.9s1.8,0.8,2.6,2.3c0.8,1.4,0.3,1.7,1.1,3.2c0.8,1.4,2.6,0.4,3.4,1.9c0.8,1.4-1.1,2.5-0.3,3.9s2.1,0.7,2.9,2.1
	c0.8,1.4,1,1.3,1.8,2.7s-0.2,2,0.6,3.4s-0.1,1.9,0.7,3.3c0.8,1.4,1.9,0.8,2.7,2.2s0,1.9,0.8,3.3s1.8,0.8,2.6,2.3
	c0.8,1.4-0.6,2.2,0.2,3.6s2.4,0.5,3.2,2c0.8,1.4,1.5,1,2.3,2.5c0.8,1.4-1.4,2.7-0.6,4.1c0.8,1.4,1.6,1,2.4,2.4
	c0.8,1.4,0.2,1.8,1,3.2s2.5,0.5,3.3,1.9s-1.1,2.5-0.3,3.9s1.4,1.1,2.2,2.5s2.4,0.5,3.2,2c0.8,1.4-0.7,2.3,0.1,3.7l1.6,2.8
	c0.8,1.4,1.8,0.9,2.6,2.3s-0.5,2.1,0.3,3.6c0.8,1.4,2.2,0.6,3,2.1c0.8,1.4-0.5,2.1,0.3,3.6c0.8,1.4,2.1,0.7,2.9,2.1
	c0.8,1.4-0.4,2.1,0.4,3.5s0.4,1.7,1.2,3.1c0.8,1.4,1.2,1.2,2,2.6c0.8,1.4,2.1,0.7,2.9,2.1c0.8,1.4-0.8,2.3,0,3.7s0.4,1.7,1.2,3.1
	l1.6,2.8c0.8,1.4,3,0.2,3.8,1.6c0.8,1.4-1.7,2.8-0.9,4.3c0.8,1.4,3,0.2,3.8,1.6c0.8,1.4-0.9,2.3-0.1,3.8c0.8,1.4,0.4,1.6,1.2,3.1
	c0.8,1.4,1.8,0.8,2.6,2.3c0.8,1.4,1.1,1.3,1.9,2.7c0.8,1.4,1.6,1,2.4,2.4l1.6,2.8c0.8,1.4-0.7,2.3,0.1,3.7c0.8,1.4,1.2,1.2,2,2.6
	c0.8,1.4,0.4,1.6,1.2,3.1c0.8,1.4,2,0.7,2.8,2.2c0.8,1.4,0.2,1.8,1,3.2c0.8,1.4,0.4,1.6,1.2,3.1c0.8,1.4,1.1,1.3,1.9,2.7
	c0.8,1.4,1.8,0.9,2.6,2.3s0.2,1.7,1,3.2c0.8,1.4-0.7,2.3,0.1,3.7c0.8,1.4,2.3,0.6,3.1,2c0.8,1.4-0.2,2,0.6,3.4s0.2,1.8,1,3.2
	c0.8,1.4,3.3,0,4.1,1.5c0.8,1.4-1.1,2.5-0.4,3.9c0.8,1.4,2.1,0.7,2.9,2.1s-1.1,2.5-0.3,3.9s2.1,0.7,2.9,2.1s0.4,1.6,1.2,3.1
	c0.8,1.4,0.2,1.8,1,3.2c0.8,1.4,2.4,0.5,3.2,2c0.8,1.4-0.2,2,0.6,3.4s1.4,1.1,2.2,2.5c0.8,1.4,0.4,1.6,1.2,3.1
	c0.8,1.4,0.6,1.5,1.4,3s1,1.3,1.8,2.8s0.3,1.7,1.1,3.2c0.8,1.4,1.9,0.8,2.7,2.2c0.8,1.4,1.5,1.1,2.3,2.5s0.2,1.8,1,3.2
	c0.8,1.4,1,1.3,1.8,2.8c0.8,1.4,1,1.3,1.8,2.8c0.8,1.4,1,1.3,1.8,2.8c0.8,1.4,0.2,1.8,1,3.2c0.8,1.4,0.3,1.7,1.1,3.1
	c0.8,1.4,0.4,1.7,1.2,3.1c0.8,1.4,1.8,0.9,2.6,2.3s0.7,1.5,1.5,2.9s0.7,1.5,1.5,2.9s0.1,1.8,0.9,3.2c0.8,1.4,1.2,1.2,2,2.6
	s0.6,1.5,1.4,3c0.8,1.4,0.9,1.4,1.7,2.8c0.8,1.4,0.2,1.7,1,3.2c0.8,1.4,0.9,1.4,1.7,2.8c0.8,1.4,0.5,1.6,1.3,3s1.1,1.3,1.9,2.7
	c0.8,1.4,0.3,1.7,1.1,3.1c0.8,1.4,1.1,1.3,1.9,2.7c0.8,1.4,2.7,0.3,3.5,1.8c0.8,1.4,0.6,1.5,1.4,3c0.8,1.4-0.4,2.1,0.4,3.5
	s0.2,1.8,1,3.2c0.8,1.4,1.1,1.2,1.9,2.7c0.8,1.4,1.6,1,2.4,2.4s1.5,1,2.3,2.5c0.8,1.4-1.1,2.5-0.3,3.9s0.6,1.6,1.4,3s4,1.1,3.1,2.5
	c-0.8,1.4-2-1.5-3.7-1.5s-1.6,0.7-3.3,0.7c-1.6,0-1.6-0.7-3.3-0.7s-1.6,2.7-3.3,2.7s-1.6-1.5-3.3-1.5c-1.6,0-1.6-1.1-3.3-1.1
	s-1.6,2.5-3.3,2.5s-1.6-1.7-3.3-1.7s-1.6-0.7-3.3-0.7c-1.6,0-1.6,0.8-3.3,0.8s-1.6,0.6-3.3,0.6s-1.6,0.7-3.3,0.7
	c-1.6,0-1.6,0.1-3.3,0.1s-1.6-0.8-3.3-0.8c-1.6,0-1.6,0.8-3.3,0.8s-1.6-1.4-3.3-1.4s-1.6-1-3.3-1s-1.6,1.5-3.3,1.5s-1.6-1.3-3.3-1.3
	s-1.6,2.1-3.3,2.1s-1.6-0.3-3.3-0.3s-1.6,0.4-3.3,0.4c-1.6,0-1.6-1.6-3.3-1.6c-1.6,0-1.6,0.6-3.3,0.6s-1.6-0.5-3.3-0.5
	s-1.6,1.6-3.3,1.6s-1.6-0.8-3.3-0.8c-1.6,0-1.6,0.3-3.3,0.3c-1.6,0-1.6-1.7-3.3-1.7c-1.6,0-1.6,0.3-3.3,0.3c-1.6,0-1.6-0.2-3.3-0.2
	c-1.6,0-1.6,0.9-3.3,0.9c-1.6,0-1.6,0.6-3.3,0.6c-1.6,0-1.6-1.6-3.3-1.6c-1.6,0-1.6,1.8-3.3,1.8c-1.6,0-1.6-0.4-3.3-0.4
	s-1.6-1.6-3.3-1.6c-1.6,0-1.6,0.2-3.3,0.2c-1.6,0-1.6,1.6-3.3,1.6c-1.6,0-1.6,0.2-3.3,0.2s-1.6,0.1-3.3,0.1H979
	c-1.6,0-1.6,0.4-3.3,0.4c-1.6,0-1.6-2.3-3.3-2.3c-1.6,0-1.6,0.8-3.3,0.8s-1.6,1.4-3.3,1.4c-1.6,0-1.6-2.4-3.3-2.4
	c-1.6,0-1.6,0.3-3.3,0.3c-1.6,0-1.6,1.1-3.3,1.1c-1.6,0-1.6,0.6-3.3,0.6c-1.6,0-1.6-0.8-3.3-0.8c-1.6,0-1.6,1.5-3.3,1.5
	c-1.6,0-1.6-1-3.3-1c-1.6,0-1.6,0.6-3.3,0.6c-1.6,0-1.6,0.1-3.3,0.1s-1.6-1.7-3.3-1.7c-1.6,0-1.6,0.3-3.3,0.3
	c-1.6,0-1.6,1.2-3.3,1.2c-1.6,0-1.6,0.5-3.3,0.5c-1.6,0-1.6-2-3.3-2c-1.6,0-1.6,0.3-3.3,0.3c-1.6,0-1.6,0.7-3.3,0.7
	c-1.6,0-1.6,0.1-3.3,0.1c-1.6,0-1.6-1.7-3.3-1.7c-1.6,0-1.6,1.9-3.3,1.9c-1.6,0-1.6-0.4-3.3-0.4c-1.6,0-1.6,0.2-3.3,0.2
	c-1.6,0-1.6-0.4-3.3-0.4c-1.6,0-1.6-1.2-3.3-1.2c-1.6,0-1.6,0.6-3.3,0.6c-1.6,0-1.6,1.1-3.3,1.1c-1.6,0-1.6-0.6-3.3-0.6
	c-1.6,0-1.6-0.7-3.3-0.7c-1.6,0-1.6,0.2-3.3,0.2c-1.6,0-1.6,1.9-3.3,1.9c-1.6,0-1.6-2.7-3.3-2.7c-1.6,0-1.6,2.6-3.3,2.6
	c-1.6,0-1.6-2.4-3.3-2.4s-1.6,2.4-3.3,2.4c-1.6,0-1.6-1.2-3.3-1.2c-1.6,0-1.6,0.9-3.3,0.9c-1.6,0-1.6,0.2-3.3,0.2
	c-1.6,0-1.6-2-3.3-2c-1.6,0-1.6-0.3-3.3-0.3c-1.6,0-1.6,1.2-3.3,1.2c-1.6,0-1.6,0.3-3.3,0.3c-1.6,0-1.6,0.3-3.3,0.3
	c-1.6,0-1.6,0.6-3.3,0.6s-1.6-2.5-3.3-2.5c-1.6,0-1.6,2.2-3.3,2.2c-1.6,0-1.6-1.2-3.3-1.2c-1.6,0-1.6,1.8-3.3,1.8
	c-1.6,0-1.6-1.9-3.3-1.9c-1.6,0-1.6,1.3-3.3,1.3c-1.6,0-1.6-1.4-3.3-1.4c-1.6,0-1.6,0.8-3.3,0.8c-1.6,0-1.6-0.5-3.3-0.5
	c-1.6,0-1.6,1-3.3,1c-1.6,0-1.6-1.8-3.3-1.8c-1.6,0-1.6,2.2-3.3,2.2c-1.6,0-1.6-0.5-3.3-0.5c-1.6,0-1.6-0.7-3.3-0.7
	c-1.6,0-1.6,0.6-3.3,0.6c-1.6,0-1.6-0.8-3.3-0.8s-1.6,1.3-3.3,1.3c-1.6,0-1.6-0.8-3.3-0.8c-1.6,0-1.6,0.2-3.3,0.2
	c-1.6,0-1.6-0.5-3.3-0.5c-1.6,0-1.6-1-3.3-1c-1.6,0-1.6,1.6-3.3,1.6c-1.6,0-1.6-1.2-3.3-1.2s-1.6-0.5-3.3-0.5
	c-1.6,0-1.6,1.1-3.3,1.1c-1.6,0-1.6-0.5-3.3-0.5c-1.6,0-1.6-0.6-3.3-0.6c-1.6,0-1.6,0.5-3.3,0.5s-1.6-0.8-3.3-0.8
	c-1.6,0-1.6,1.4-3.3,1.4c-1.6,0-1.6-0.7-3.3-0.7h-3.3c-1.6,0-1.6,0.6-3.3,0.6c-1.6,0-1.8-0.9-3.4-0.6
	C716.8,412.5,716.7,414,715.9,412.5L715.9,412.5z M620.9,387.7c-0.8-1.4,2.2-2,3-3.5c0.8-1.4,0.1-1.8,0.9-3.3c0.8-1.4,2-0.8,2.8-2.2
	c0.8-1.4,1.2-1.2,2-2.6s-0.7-2.3,0.1-3.7c0.8-1.4,0.4-1.6,1.2-3.1c0.8-1.4,1.2-1.2,2-2.6s0.2-1.8,1-3.2c0.8-1.4,0.6-1.6,1.4-3
	c0.8-1.4,1-1.3,1.8-2.7c0.8-1.4,0.6-1.5,1.4-3c0.8-1.4,3-0.2,3.8-1.6s-1.3-2.6-0.5-4s2.6-0.4,3.4-1.8c0.8-1.4-1.2-2.5-0.4-4
	c0.8-1.4,1.8-0.9,2.6-2.3s-0.1-1.9,0.7-3.4c0.8-1.4,3.2-0.1,4-1.5s-1.1-2.5-0.3-3.9s0.3-1.7,1.1-3.1s2.2-0.6,3-2.1
	c0.8-1.4,1.8-0.9,2.6-2.3s-1.6-2.8-0.8-4.2c0.8-1.4,2.4-0.5,3.2-1.9s-0.5-2.2,0.3-3.6s1.9-0.8,2.7-2.2c0.8-1.4-0.6-2.2,0.2-3.6
	s1-1.3,1.8-2.7c0.8-1.4,1.4-1.1,2.2-2.5s0.3-1.7,1.1-3.2c0.8-1.4,0.4-1.6,1.2-3s1.7-0.9,2.5-2.4c0.8-1.4,0.7-1.5,1.5-2.9
	s1.7-0.9,2.5-2.3s0.1-1.8,0.9-3.2c0.8-1.4,2.1-0.7,2.9-2.1c0.8-1.4-0.1-1.9,0.7-3.4c0.8-1.4,1.2-1.2,2-2.6s-0.2-2,0.6-3.4
	s1.9-0.8,2.7-2.2c0.8-1.4,0.7-1.5,1.5-2.9s1-1.3,1.8-2.7c0.8-1.4,0.2-1.7,1-3.2c0.8-1.4,0.3-1.7,1.1-3.1s-0.5-2.1,0.3-3.6
	c0.8-1.4,1-1.3,1.8-2.8c0.8-1.4,2.7-0.4,3.5-1.8c0.8-1.4,1-1.3,1.8-2.7s0.6-1.5,1.4-3c0.8-1.4,0.4-1.6,1.2-3.1
	c0.8-1.4-0.3-2,0.5-3.5c0.8-1.4,1-1.3,1.8-2.7s1.7-0.9,2.5-2.3s0.9-1.4,1.7-2.8c0.8-1.4,0.2-1.8,1-3.2s-0.4-2.1,0.4-3.5
	s1.8-0.9,2.6-2.3s2.3-0.6,3.1-2s-0.3-2,0.5-3.5c0.8-1.4,0.1-1.8,0.9-3.3c0.8-1.4,1.7-0.9,2.5-2.3s0.1-1.8,0.9-3.3
	c0.8-1.4,1.6-1,2.4-2.4c0.8-1.4,1.2-1.2,2-2.6c0.8-1.4-1.1-2.5-0.3-3.9s1.1-1.2,1.9-2.7c0.8-1.4,2.4-0.5,3.2-1.9s0.2-1.8,1-3.2
	s0.1-1.8,0.9-3.2c0.8-1.4,1.5-1,2.3-2.5c0.8-1.4,0.1-1.8,0.9-3.3c0.8-1.4,1.4-1.1,2.2-2.5s-0.8-2.3,0-3.7s1.6-1,2.4-2.4
	c0.8-1.4,0.9-1.4,1.7-2.8c0.8-1.4,1-1.3,1.8-2.7s0.1-1.8,0.9-3.2c0.8-1.4,2.4-0.5,3.2-2c0.8-1.4,0.2-1.8,1-3.2s1.3-1.1,2.1-2.6
	c0.8-1.4,0-1.9,0.8-3.3s0.8-1.4,1.6-2.9c0.8-1.4,2-0.8,2.8-2.2s-0.4-2.1,0.4-3.5s0.5-1.6,1.3-3s0.5-1.6,1.3-3s2.3-0.6,3.1-2
	s1.4-1.1,2.2-2.5s0.3-1.7,1.1-3.1c0.8-1.4,1.3-1.2,2.1-2.6c0.8-1.4-1.3-2.6-0.5-4s1.3-1.2,2.1-2.6s0.7-1.5,1.5-2.9s2.5-0.5,3.3-1.9
	s-1.3-2.6-0.5-4s2.2-0.6,3-2.1c0.8-1.4,1.5-1,2.3-2.5c0.8-1.4-1.6-2.8-0.8-4.2c0.8-1.4,3-0.2,3.8-1.6s-0.2-2,0.6-3.4
	s1.8-0.8,2.6-2.3c0.8-1.4-1-2.5-0.2-3.9s2.6-0.4,3.4-1.8c0.8-1.4,1-1.3,1.8-2.7c0.8-1.4-1.7-2.8-0.9-4.2c0.8-1.4,1.1-1.3,1.9-2.7
	c0.8-1.4,2.5-0.5,3.3-1.9s0.6-1.6,1.4-3c0.8-1.4,1-1.3,1.8-2.7c0.8-1.4-0.9-2.4-0.1-3.8s1.9-0.8,2.7-2.2c0.8-1.4,0-1.9,0.8-3.3
	s0.5-1.6,1.3-3s1.3-1.2,2.1-2.6c0.8-1.4,1.4-1.1,2.2-2.5s1.1-1.3,1.9-2.7c0.8-1.4,0.5-1.6,1.3-3s0.2-1.7,1-3.2
	c0.8-1.4,1.6-1,2.4-2.4c0.8-1.4,0.4-1.7,1.2-3.1c0.8-1.4,0-1.9,0.8-3.3s2-0.7,2.9-2.2c0.8-1.4,0.4-1.6,1.2-3.1
	c0.8-1.4,1.1-1.2,1.9-2.7c0.8-1.4,1.9-0.8,2.7-2.3c0.8-1.4-1.3-4.1,0.3-4.1s0.8,1.9,1.6,3.4c0.8,1.4,1.3,1.2,2.1,2.6
	c0.8,1.4,1.1,1.2,1.9,2.7c0.8,1.4,1.2,1.2,2,2.6c0.8,1.4,0.2,1.8,1,3.2s0,1.9,0.8,3.3s2.2,0.7,3,2.1c0.8,1.4,0.9,1.4,1.7,2.8
	c0.8,1.4-1.6,2.8-0.8,4.2s2.3,0.6,3.1,2s1,1.3,1.8,2.7s-0.8,2.3,0,3.7s1.4,1.1,2.2,2.5s0.1,1.8,0.9,3.2c0.8,1.4,0.9,1.4,1.7,2.8
	s1.1,1.3,1.9,2.7c0.8,1.4,1.2,1.2,2,2.6s0.2,1.8,1,3.2c0.8,1.4,2.2,0.6,3,2.1c0.8,1.4,1.2,1.2,2,2.6s0.1,1.8,0.9,3.2
	c0.8,1.4-0.2,2,0.6,3.4s2.7,0.4,3.5,1.8s0,1.9,0.8,3.3s1.1,1.3,1.9,2.7c0.8,1.4,0.3,1.7,1.1,3.1s0.7,1.5,1.5,2.9s-0.1,1.9,0.7,3.3
	s2.7,0.4,3.5,1.8s1.4,1.1,2.2,2.5s0.5,1.6,1.3,3s0,1.9,0.8,3.3s1,1.3,1.8,2.7c0.8,1.4,1,1.3,1.8,2.8c0.8,1.4,0.3,1.7,1.1,3.1
	c0.8,1.4,1.6,1,2.4,2.4c0.8,1.4,1.2,1.2,2,2.6c0.8,1.4-1.2,2.5-0.4,4c0.8,1.4,1,1.3,1.8,2.8c0.8,1.4,1.8,0.9,2.6,2.3
	s1.1,1.3,1.9,2.7c0.8,1.4-0.2,2,0.6,3.4s0.6,1.5,1.4,2.9c0.8,1.4,2.2,0.6,3,2s-1,2.4-0.2,3.9c0.8,1.4,1.6,1,2.4,2.4
	c0.8,1.4,1.1,1.2,1.9,2.7c0.8,1.4-0.6,2.2,0.2,3.6s2.5,0.5,3.3,1.9s0.6,1.5,1.4,3c0.8,1.4-0.7,2.3,0.1,3.7s3.1,0.1,3.9,1.6
	c0.8,1.4,0.4,1.7,1.2,3.1c0.8,1.4-0.8,2.3,0,3.8c0.8,1.4,0.6,1.5,1.4,3c0.8,1.4,1.9,0.8,2.7,2.2s-0.3,2,0.5,3.5
	c0.8,1.4,1.6,1,2.4,2.4c0.8,1.4,0.7,1.5,1.5,2.9s0.2,1.8,1,3.2s2.6,0.4,3.4,1.8c0.8,1.4,0.7,1.5,1.5,2.9s-0.8,2.3,0,3.7
	s1.9,0.8,2.7,2.2s0.1,1.8,0.9,3.2c0.8,1.4,2.2,0.6,3,2.1c0.8,1.4-0.3,2,0.5,3.5c0.8,1.4,2,0.8,2.8,2.2s-1,2.5-0.2,3.9s2.2,0.7,3,2.1
	c0.8,1.4,1.2,1.2,2,2.6c0.8,1.4,0.2,1.8,1,3.2s0.2,1.8,0.9,3.2c0.8,1.4,1.6,1,2.4,2.4c0.8,1.4,1.5,1.1,2.3,2.5s-1.7,2.8-0.9,4.2
	s1.3,1.1,2.1,2.6c0.8,1.4,2.4,0.5,3.2,2c0.8,1.4-0.2,2,0.6,3.4s0.5,1.6,1.3,3s0,1.9,0.8,3.3s3.2,0.1,4,1.5s-0.4,2.1,0.4,3.5
	s1.6,1,2.4,2.4c0.8,1.4-0.7,2.3,0.1,3.7c0.8,1.4,1.8,0.9,2.6,2.3s-0.3,2,0.5,3.5c0.8,1.4,2.3,0.6,3.1,2s0.7,1.5,1.5,2.9
	s-0.2,2,0.5,3.4c0.8,1.4,0.8,1.4,1.6,2.9c0.8,1.4,0,1.9,0.8,3.3s1.2,1.2,2,2.6s2.5,0.5,3.3,1.9s-0.7,2.3,0.1,3.7
	c0.8,1.4,1.1,1.2,1.9,2.7c0.8,1.4,0.3,1.7,1.1,3.2c0.8,1.4,1.8,0.9,2.6,2.3s1.2,1.2,2,2.6s1,1.3,1.8,2.7c0.8,1.4,0.5,1.6,1.3,3
	s-0.8,2.3,0,3.8c0.8,1.4,2.3,0.6,3.1,2s-0.3,2,0.5,3.4s1.5,1,2.3,2.5c0.8,1.4,1.6,1,2.4,2.4c0.8,1.4,0,1.9,0.8,3.3s0.8,1.4,1.6,2.9
	c0.8,1.4,1.9,0.8,2.7,2.3c0.8,1.4,0.4,1.6,1.2,3.1c0.8,1.4,0.1,1.8,0.9,3.3c0.8,1.4,0.3,1.7,1.1,3.1s2.7,0.3,3.5,1.8
	c0.8,1.4-1.3,2.6-0.5,4.1c0.8,1.4,2,0.8,2.8,2.2c0.8,1.4,1.2,1.2,2,2.7c0.8,1.4,0,1.9,0.8,3.3s1.1,1.2,1.9,2.7
	c0.8,1.4,1.9,0.8,2.7,2.3c0.8,1.4,0.2,1.8,1,3.2c0.8,1.4,0.5,1.6,1.3,3s0.9,1.4,1.7,2.8s0,1.9,0.8,3.3s0.1,1.8,0.9,3.2
	c0.8,1.4,0.7,1.5,1.5,2.9s2.7,0.3,1.8,1.7c-0.8,1.4-0.7-0.1-2.4-0.1c-1.6,0-1.6,1.5-3.3,1.5c-1.6,0-1.6,0.5-3.3,0.5
	s-1.6-0.6-3.3-0.6c-1.6,0-1.6,0.1-3.3,0.1c-1.6,0-1.6,0.3-3.3,0.3c-1.6,0-1.6-1.1-3.3-1.1h-3.3c-1.6,0-1.6-0.1-3.3-0.1
	c-1.6,0-1.6-1.1-3.3-1.1c-1.6,0-1.6,2.3-3.3,2.3c-1.6,0-1.6-1.2-3.3-1.2s-1.6-0.7-3.3-0.7s-1.6-0.6-3.3-0.6c-1.6,0-1.6,0.8-3.3,0.8
	c-1.6,0-1.6,1.8-3.3,1.8c-1.6,0-1.6-1.3-3.3-1.3s-1.6,0.5-3.3,0.5s-1.6,0.4-3.3,0.4c-1.6,0-1.6-1.1-3.3-1.1c-1.6,0-1.6-1-3.3-1
	c-1.6,0-1.6,1.1-3.3,1.1c-1.6,0-1.6-0.8-3.3-0.8c-1.6,0-1.6,1.6-3.3,1.6h-3.3c-1.6,0-1.6-0.1-3.3-0.1c-1.6,0-1.6-0.1-3.3-0.1
	c-1.6,0-1.6-2-3.3-2c-1.6,0-1.6,1.5-3.3,1.5s-1.6-1.5-3.3-1.5c-1.6,0-1.6,2.8-3.3,2.8s-1.6-1.2-3.3-1.2c-1.6,0-1.6-1.1-3.3-1.1
	s-1.6,1.9-3.3,1.9c-1.6,0-1.6-1.1-3.3-1.1c-1.6,0-1.6,1-3.3,1c-1.6,0-1.6-0.9-3.3-0.9c-1.6,0-1.6-1-3.3-1c-1.6,0-1.6-0.1-3.3-0.1
	c-1.6,0-1.6,0.1-3.3,0.1s-1.6-0.4-3.3-0.4c-1.6,0-1.6,0.2-3.3,0.2c-1.6,0-1.6,0.8-3.3,0.8c-1.6,0-1.6-1.1-3.3-1.1
	c-1.6,0-1.6,2.6-3.3,2.6s-1.6-2.1-3.3-2.1c-1.6,0-1.6,0.1-3.3,0.1c-1.6,0-1.6-0.7-3.3-0.7c-1.6,0-1.6,0.6-3.3,0.6
	c-1.6,0-1.6,0.5-3.3,0.5c-1.6,0-1.6,0.3-3.3,0.3c-1.6,0-1.6,1.4-3.3,1.4c-1.6,0-1.6-1.2-3.3-1.2c-1.6,0-1.6,1.3-3.3,1.3
	c-1.6,0-1.6-1.5-3.3-1.5s-1.6-0.3-3.3-0.3c-1.6,0-1.6-0.4-3.3-0.4c-1.6,0-1.6,1.4-3.3,1.4c-1.6,0-1.6-1.2-3.3-1.2
	c-1.6,0-1.6,1.6-3.3,1.6c-1.6,0-1.6-0.8-3.3-0.8c-1.6,0-1.6,0.1-3.3,0.1c-1.6,0-1.6-0.7-3.3-0.7c-1.6,0-1.6-0.7-3.3-0.7
	c-1.6,0-1.6-0.4-3.3-0.4c-1.6,0-1.6,2.8-3.3,2.8c-1.6,0-1.6-0.4-3.3-0.4c-1.6,0-1.6-0.3-3.3-0.3s-1.6-1.7-3.3-1.7s-1.6,1.3-3.3,1.3
	c-1.6,0-1.6,1-3.3,1s-1.6-1.8-3.3-1.8c-1.6,0-1.6-0.8-3.3-0.8c-1.6,0-1.6,1.1-3.3,1.1c-1.6,0-1.6-1.1-3.3-1.1
	c-1.6,0-1.6,0.4-3.3,0.4c-1.6,0-1.6,0.9-3.3,0.9c-1.6,0-1.6-0.9-3.3-0.9c-1.6,0-1.6,2.4-3.3,2.4s-1.6-0.9-3.3-0.9s-1.6-1.5-3.3-1.5
	c-1.6,0-1.6,1.3-3.3,1.3c-1.6,0-1.6-0.9-3.3-0.9c-1.6,0-1.6,1-3.3,1c-1.6,0-1.6-1.8-3.3-1.8c-1.6,0-1.6,0.4-3.3,0.4
	c-1.6,0-1.6-0.6-3.3-0.6c-1.6,0-1.6,2.7-3.3,2.7c-1.6,0-1.6-2.1-3.3-2.1c-1.6,0-1.6,0.1-3.3,0.1c-1.6,0-1.6,0.4-3.3,0.4
	c-1.6,0-1.6,0.4-3.3,0.4c-1.6,0-1.6-1.1-3.3-1.1c-1.6,0-1.6,2.1-3.3,2.1c-1.6,0-1.6-0.1-3.3-0.1c-1.6,0-1.6-1.1-3.3-1.1
	c-1.6,0-1.6-1.1-3.3-1.1c-1.6,0-1.6,0.5-3.3,0.5c-1.6,0-1.6,1.1-3.3,1.1s-1.6-0.6-3.3-0.6s-1.6,1.2-3.3,1.2c-1.6,0-1.6-1.9-3.3-1.9
	h-3.3c0,0-1.6,1.4-3.3,1.4c-1.6,0-1.6-0.5-3.3-0.5c-1.6,0-1.6,1.4-3.3,1.4c-1.6,0-1.6-1.2-3.3-1.2c-1.6,0-1.6,0.8-3.3,0.8
	c-1.6,0-1.6,0.5-3.3,0.5c-1.6,0-1.6-1.4-3.3-1.4c-1.6,0-1.6-1.3-3.3-1.3c-1.6,0-1.6,0.2-3.3,0.2c-1.6,0-1.6,0.5-3.3,0.5h-3.3
	c-1.6,0-1.6-0.1-3.3-0.1c-1.6,0-1.6,0.5-3.3,0.5c-1.6,0-1.6,0.9-3.3,0.9c-1.6,0-1.6-1.1-3.3-1.1c-1.6,0-1.6,1.1-3.3,1.1
	c-1.6,0-1.6-1.5-3.3-1.5c-1.6,0-1.6,1.7-3.3,1.7c-1.6,0-1.7-1.2-3.3-0.8C623,387.7,621.7,389.1,620.9,387.7L620.9,387.7z
	 M504.7,432.6c-0.8-1.4,0.2-1.1,1-2.5s1.7-0.9,2.4-2.4c0.8-1.4-0.3-2,0.5-3.4s1.8-0.9,2.6-2.3c0.8-1.4-0.5-2.1,0.3-3.6
	c0.8-1.4,1.3-1.2,2.1-2.6s1.6-1,2.4-2.4c0.8-1.4,0.6-1.5,1.4-2.9c0.8-1.4,1-1.3,1.8-2.8c0.8-1.4-0.5-2.2,0.3-3.6s0.9-1.4,1.7-2.8
	s2-0.7,2.8-2.2c0.8-1.4-0.5-2.2,0.3-3.6s0.9-1.3,1.7-2.8c0.8-1.4,1-1.3,1.8-2.8c0.8-1.4-0.1-1.9,0.7-3.4c0.8-1.4,0.6-1.5,1.4-3
	c0.8-1.4,1.6-1,2.4-2.4c0.8-1.4,2-0.8,2.8-2.2c0.8-1.4-1.2-2.5-0.4-3.9s1.7-0.9,2.5-2.3s2.2-0.6,3-2.1c0.8-1.4-1.5-2.7-0.7-4.1
	s0.6-1.5,1.4-2.9c0.8-1.4,2.5-0.5,3.3-1.9s-0.4-2.1,0.4-3.5s2.2-0.7,3-2.1s-0.1-1.9,0.7-3.4c0.8-1.4,0.5-1.6,1.3-3s0.3-1.7,1.1-3.1
	s1.6-1,2.4-2.4c0.8-1.4,0.7-1.5,1.4-2.9c0.8-1.4,1.5-1,2.3-2.5c0.8-1.4-0.1-2,0.7-3.4s0.7-1.5,1.5-2.9s1.5-1,2.3-2.4
	s2.1-0.7,2.9-2.1c0.8-1.4-0.1-1.9,0.7-3.4c0.8-1.4,0.5-1.6,1.3-3s-0.4-2.1,0.4-3.5s3.3,0,4.1-1.5c0.8-1.4-0.1-1.9,0.7-3.4
	c0.8-1.4,1.2-1.2,2-2.6s0.1-1.8,0.9-3.2c0.8-1.4,0.2-1.7,1-3.2c0.8-1.4,1.7-0.9,2.5-2.3s-0.6-2.2,0.2-3.6s0.9-1.3,1.7-2.8
	c0.8-1.4,2.9-0.2,3.7-1.7c0.8-1.4-0.9-2.4-0.1-3.8s0.6-1.5,1.4-3c0.8-1.4,2.2-0.6,3-2s0-1.9,0.8-3.3s1.7-0.9,2.5-2.3s1-1.3,1.8-2.8
	c0.8-1.4-0.9-2.4-0.1-3.8s1.3-1.1,2.1-2.6c0.8-1.4,0.9-1.4,1.7-2.8s1.2-1.2,2-2.6s-0.3-2,0.5-3.4s0.7-1.5,1.5-2.9s1.3-1.1,2.1-2.6
	c0.8-1.4,0.5-1.6,1.3-3s2-0.8,2.8-2.2s-0.3-2.1,0.5-3.5s0.5-1.6,1.3-3s2.5-0.5,3.3-1.9s0.6-1.6,1.4-3c0.8-1.4-0.9-2.4-0.1-3.8
	s1-1.3,1.8-2.8c0.8-1.4,2-0.8,2.8-2.2s0.3-1.7,1.1-3.1c0.8-1.4,0.3-1.7,1.1-3.1c0.8-1.4,2.3-0.6,3.1-2s-0.3-2,0.5-3.4s1.2-1.2,2-2.6
	c0.8-1.4,0.9-1.3,1.7-2.8c0.8-1.4,0.1-1.8,0.9-3.2c0.8-1.4,1.7-0.9,2.5-2.4c0.8-1.4,0.2-1.8,1-3.2l1.6-2.8c0.8-1.4-0.1-1.9,0.7-3.4
	c0.8-1.4,2.2-0.6,3-2.1c0.8-1.4-0.7-2.2,0.1-3.7c0.8-1.4,3.3,0,4.1-1.5c0.8-1.4-1.2-2.5-0.4-4c0.8-1.4,1.9-0.8,2.7-2.3
	c0.8-1.4,0.3-1.7,1.1-3.1c0.8-1.4,0.6-1.5,1.4-3c0.8-1.4,1.6-1,2.4-2.4c0.8-1.4,0.2-1.7,1-3.2c0.8-1.4,0.3-1.7,1.1-3.1
	c0.8-1.4,0.9-1.4,1.7-2.8c0.8-1.4,2.6-0.4,3.4-1.8c0.8-1.4-0.6-2.2,0.2-3.6s1.3-1.1,2.1-2.5s-0.2-2,0.6-3.4s2.2-0.7,3-2.1
	c0.8-1.4-0.6-2.2,0.2-3.7c0.8-1.4,0.9-1.4,1.7-2.8c0.8-1.4,2.3-0.6,3.1-2s0.7-1.5,1.5-2.9s-0.5-2.1,0.3-3.6c0.8-1.4,1.1-1.3,1.9-2.7
	c0.8-1.4,0.7-1.5,1.5-2.9l1.6-2.8c0.8-1.4,0.4-1.7,1.2-3.1s0.8-1.4,1.6-2.9c0.8-1.4,2.7-0.4,3.5-1.8s-0.4-2.1,0.4-3.5
	s1.8-0.9,2.6-2.3s-1.3-2.6-0.5-4.1c0.8-1.4,1.6-1,2.4-2.4c0.8-1.4,1.6-1,2.4-2.4c0.8-1.4-0.8-2.3,0-3.8c0.8-1.4,2.7-0.3,3.5-1.8
	c0.8-1.4-0.7-2.2,0.1-3.7c0.8-1.4,1.6-1,2.4-2.4c0.8-1.4,0.8-1.5,1.6-2.9s0.3-1.7,1.1-3.1s0.7-1.5,1.5-2.9s2.6-0.4,3.4-1.9
	c0.8-1.4-1.4-2.7-0.6-4.1c0.8-1.4,2.5-0.5,3.3-1.9s-1.1-2.5-0.3-3.9s1-2.9,2.7-3c1.6,0,1.3,1.8,2.1,3.3c0.8,1.4-1,2.4-0.2,3.8
	s0.9,1.4,1.7,2.8s2.7,0.3,3.5,1.8c0.8,1.4,1.3,1.1,2.1,2.6c0.8,1.4-0.5,2.1,0.3,3.6c0.8,1.4-0.1,1.9,0.7,3.3s0.9,1.4,1.7,2.8
	s2.9,0.3,3.7,1.7c0.8,1.4-1.7,2.8-0.9,4.2c0.8,1.4,2.5,0.5,3.3,1.9s1,1.3,1.8,2.8c0.8,1.4,0.9,1.4,1.7,2.8s-1,2.4-0.2,3.9
	c0.8,1.4,1.3,1.1,2.1,2.6c0.8,1.4,0.2,1.8,1,3.2c0.8,1.4,1.2,1.2,2,2.7c0.8,1.4,1.2,1.2,2,2.6s0.7,1.5,1.5,2.9
	c0.8,1.4,2,0.8,2.8,2.2s0.2,1.8,1,3.2s-0.2,2,0.6,3.4s0.4,1.6,1.2,3s1.5,1.1,2.3,2.5s0.2,1.8,1,3.2s1,1.3,1.8,2.7s0.5,1.6,1.3,3
	s1.7,0.9,2.5,2.4c0.8,1.4,1.6,1,2.4,2.4c0.8,1.4-0.7,2.3,0.1,3.7s1.8,0.9,2.6,2.3s1.7,0.9,2.5,2.4c0.8,1.4,0.3,1.7,1.1,3.1
	c0.8,1.4-0.5,2.1,0.3,3.6c0.8,1.4,1.3,1.1,2.1,2.6c0.8,1.4,1.2,1.2,2,2.6c0.8,1.4,1.4,1.1,2.2,2.5s0,1.8,0.8,3.3
	c0.8,1.4-0.1,1.9,0.7,3.4c0.8,1.4,1,1.3,1.8,2.7s2.6,0.4,3.4,1.8c0.8,1.4,0.9,1.4,1.7,2.8c0.8,1.4-0.7,2.3,0.1,3.7s2.4,0.5,3.2,1.9
	s-1,2.4-0.2,3.8s1.5,1.1,2.3,2.5s0.9,1.4,1.7,2.8c0.8,1.4,0,1.9,0.8,3.3s1.5,1,2.3,2.5c0.8,1.4-0.4,2.1,0.4,3.5s3,0.2,3.8,1.6
	c0.8,1.4-1,2.4-0.2,3.8s2.2,0.7,3,2.1c0.8,1.4-0.2,2,0.6,3.4s1.9,0.8,2.7,2.2s1,1.3,1.8,2.7s0.1,1.8,0.9,3.2
	c0.8,1.4,1.3,1.1,2.1,2.6c0.8,1.4-1.2,2.5-0.4,4c0.8,1.4,1.2,1.2,2,2.6c0.8,1.4,2.3,0.6,3.1,2s0.3,1.7,1.1,3.1
	c0.8,1.4-0.4,2.1,0.4,3.5s2.7,0.3,3.5,1.8c0.8,1.4,0.4,1.6,1.2,3.1c0.8,1.4,0,1.9,0.8,3.3s1,1.3,1.8,2.7c0.8,1.4,0.5,1.6,1.3,3
	s0.7,1.5,1.5,2.9s2,0.8,2.8,2.2c0.8,1.4,0.7,1.5,1.5,2.9s-1,2.4-0.2,3.9c0.8,1.4,2.9,0.2,3.7,1.7c0.8,1.4,1,1.3,1.8,2.8
	c0.8,1.4-1.5,2.7-0.7,4.1s2.1,0.7,2.9,2.1c0.8,1.4-0.1,1.9,0.7,3.3s1.3,1.2,2.1,2.6s2.1,0.7,2.9,2.1c0.8,1.4-0.5,2.1,0.3,3.6
	c0.8,1.4,2.1,0.7,2.9,2.1c0.8,1.4-1.2,2.5-0.4,4c0.8,1.4,2.5,0.5,3.3,1.9s0.4,1.6,1.2,3.1c0.8,1.4,0.6,1.5,1.4,3
	c0.8,1.4,0.9,1.4,1.7,2.8s0.9,1.4,1.7,2.8s0,1.9,0.8,3.3s1.4,1.1,2.2,2.5s0,1.9,0.8,3.3s1.1,1.3,1.9,2.7c0.8,1.4,0.8,1.4,1.6,2.9
	c0.8,1.4,0.8,1.4,1.6,2.9c0.8,1.4,0.4,1.6,1.2,3.1c0.8,1.4,1,1.3,1.8,2.7c0.8,1.4,0.2,1.8,1,3.2c0.8,1.4,1.4,1.1,2.2,2.5
	s0.6,1.5,1.4,3c0.8,1.4,1.5,1,2.3,2.5c0.8,1.4,0.4,1.7,1.2,3.1s1.1,1.3,1.9,2.7c0.8,1.4,2,0.7,2.8,2.2c0.8,1.4-0.1,1.9,0.7,3.4
	c0.8,1.4-0.1,1.9,0.7,3.3s1.2,1.2,2,2.6s1.5,1,2.3,2.4s0.7,1.5,1.5,2.9s1.7,0.9,2.5,2.3s-1.5,2.7-0.8,4.2c0.8,1.4,1.7,0.9,2.5,2.4
	c0.8,1.4-0.1,1.9,0.7,3.3s1.9,0.8,2.7,2.3c0.8,1.4-0.2,2,0.6,3.4s1.6,1,2.4,2.4c0.8,1.4,1.3,1.2,2.1,2.6s-0.6,2.2,0.2,3.7
	c0.8,1.4,1.6,1,2.4,2.4c0.8,1.4,2.3,0.6,3.1,2s0.4,1.6,1.2,3.1c0.8,1.4-0.4,2.1,0.4,3.6c0.8,1.4,0.7,1.5,1.5,2.9s2.5,0.5,3.3,1.9
	s0.3,1.7,1.1,3.2c0.8,1.4,0.9,1.4,1.7,2.8s-1.1,2.5-0.2,3.9c0.8,1.4,4.1,1.3,3.3,2.7c-0.8,1.4-2.3-1.8-4-1.8c-1.6,0-1.6,0.2-3.3,0.2
	c-1.6,0-1.6,1.3-3.3,1.3s-1.6,0.9-3.3,0.9c-1.6,0-1.6-0.9-3.3-0.9c-1.6,0-1.6-0.3-3.3-0.3c-1.6,0-1.6-0.8-3.3-0.8
	c-1.6,0-1.6,1.3-3.3,1.3c-1.6,0-1.6,0.1-3.3,0.1c-1.6,0-1.6,0.1-3.3,0.1c-1.6,0-1.6,0.1-3.3,0.1c-1.6,0-1.6-1-3.3-1
	c-1.6,0-1.6,1.4-3.3,1.4s-1.6-0.5-3.3-0.5s-1.6,0.1-3.3,0.1c-1.6,0-1.6-0.6-3.3-0.6h-3.3c-1.6,0-1.6,1.4-3.3,1.4
	c-1.6,0-1.6-0.3-3.3-0.3s-1.6-0.9-3.3-0.9c-1.6,0-1.6-1.2-3.3-1.2c-1.6,0-1.6,1.3-3.3,1.3c-1.6,0-1.6-1.6-3.3-1.6s-1.6,2.5-3.3,2.5
	c-1.6,0-1.6-1.5-3.3-1.5c-1.6,0-1.6-0.5-3.3-0.5c-1.6,0-1.6-0.1-3.3-0.1c-1.6,0-1.6-0.2-3.3-0.2c-1.6,0-1.6,0.2-3.3,0.2
	s-1.6,0.9-3.3,0.9c-1.6,0-1.6-1.3-3.3-1.3s-1.6,0.8-3.3,0.8c-1.6,0-1.6-0.8-3.3-0.8s-1.6,0.3-3.3,0.3s-1.6,1.1-3.3,1.1
	c-1.6,0-1.6-0.9-3.3-0.9c-1.6,0-1.6,2.1-3.3,2.1c-1.6,0-1.6-0.6-3.3-0.6s-1.6,0.7-3.3,0.7c-1.6,0-1.6-0.5-3.3-0.5s-1.6-0.3-3.3-0.3
	c-1.6,0-1.6,0.2-3.3,0.2c-1.6,0-1.6,0.7-3.3,0.7c-1.6,0-1.6-2.7-3.3-2.7c-1.6,0-1.6,1.6-3.3,1.6c-1.6,0-1.6,1-3.3,1
	c-1.6,0-1.6-2.2-3.3-2.2c-1.6,0-1.6,1.7-3.3,1.7c-1.6,0-1.6-1.8-3.3-1.8c-1.6,0-1.6,1.7-3.3,1.7c-1.6,0-1.6-0.4-3.3-0.4
	c-1.6,0-1.6,0.9-3.3,0.9c-1.6,0-1.6-2-3.3-2s-1.6-0.2-3.3-0.2c-1.6,0-1.6,1.6-3.3,1.6c-1.6,0-1.6,0.6-3.3,0.6
	c-1.6,0-1.6-0.5-3.3-0.5c-1.6,0-1.6-0.7-3.3-0.7c-1.6,0-1.6-1.1-3.3-1.1c-1.6,0-1.6,1.2-3.3,1.2c-1.6,0-1.6,0.1-3.3,0.1
	c-1.6,0-1.6-1.1-3.3-1.1c-1.6,0-1.6,0.9-3.3,0.9c-1.6,0-1.6-1.1-3.3-1.1c-1.6,0-1.6,1.6-3.3,1.6c-1.6,0-1.6,0.8-3.3,0.8
	c-1.6,0-1.6-2-3.3-2c-1.6,0-1.6-0.4-3.3-0.4s-1.6-0.2-3.3-0.2s-1.6,0.5-3.3,0.5c-1.6,0-1.6,1.3-3.3,1.3s-1.6,0.1-3.3,0.1
	c-1.6,0-1.6-2-3.3-2c-1.6,0-1.6,1.3-3.3,1.3c-1.6,0-1.6-0.5-3.3-0.5c-1.6,0-1.6,0.9-3.3,0.9c-1.6,0-1.6-1.5-3.3-1.5
	c-1.6,0-1.6,0.6-3.3,0.6c-1.6,0-1.6-0.1-3.3-0.1c-1.6,0-1.6,1.4-3.3,1.4h-3.3c-1.6,0-1.6-1.2-3.3-1.2c-1.6,0-1.6,1.4-3.3,1.4
	c-1.6,0-1.6-0.8-3.3-0.8c-1.6,0-1.6,1.1-3.3,1.1c-1.6,0-1.6,0.1-3.3,0.1s-1.6-0.1-3.3-0.1c-1.6,0-1.6-2.8-3.3-2.8
	c-1.6,0-1.6,0.7-3.3,0.7c-1.6,0-1.6,1.2-3.3,1.2c-1.6,0-1.6-0.6-3.3-0.6s-1.6-0.8-3.3-0.8c-1.6,0-1.6,0.5-3.3,0.5
	c-1.6,0-1.6-0.5-3.3-0.5c-1.6,0-1.6,0.9-3.3,0.9c-1.6,0-1.6-1.5-3.3-1.5c-1.6,0-1.6,0.3-3.3,0.3c-1.6,0-1.6,2.4-3.3,2.4
	c-1.6,0-1.6-0.1-3.3-0.1c-1.6,0-1.6-1.5-3.3-1.5c-1.6,0-1.6,1.6-3.3,1.6c-1.6,0-1.6-1.6-3.3-1.6c-1.6,0-1.6,1.7-3.3,1.7
	c-1.6,0-1.6-2.1-3.3-2.1c-1.6,0-1.6-0.5-3.3-0.5c-1.6,0-1.6,1.6-3.3,1.6c-1.6,0-1.6,1.1-3.3,1.1c-1.6,0-1.6-0.4-3.3-0.4H547
	c-1.6,0-1.6-1.1-3.3-1.1c-1.6,0-1.6-1.1-3.3-1.1c-1.6,0-1.6,0.7-3.3,0.7c-1.6,0-1.6,1.2-3.3,1.2c-1.6,0-1.6,0.6-3.3,0.6
	c-1.6,0-1.6-2.8-3.3-2.8c-1.6,0-1.6,2-3.3,2c-1.6,0-1.6-0.3-3.3-0.3c-1.6,0-1.6-1.1-3.3-1.1c-1.6,0-1.6,2-3.3,2
	c-1.6,0-1.6-1.4-3.3-1.4c-1.6,0-1.6,1-3.3,1c-1.6,0-1.8-1.6-3.4-1.2C505.8,432.8,505.5,434.1,504.7,432.6L504.7,432.6z M-88.2,399.8
	c-0.8-1.4,1.5-2.5,2.3-3.9s2.1-0.7,2.9-2.1s0.5-1.6,1.3-3s0.4-1.7,1.2-3.1c0.8-1.4,0.4-1.7,1.2-3.1c0.8-1.4,1.5-1.1,2.3-2.5
	s0-1.9,0.8-3.3s1.5-1,2.3-2.5c0.8-1.4,0.1-1.8,0.9-3.2c0.8-1.4,0.6-1.5,1.4-2.9s1.9-0.8,2.7-2.2c0.8-1.4-0.5-2.1,0.3-3.6
	c0.8-1.4,2.4-0.5,3.2-2c0.8-1.4,0.4-1.7,1.2-3.1c0.8-1.4-0.3-2,0.5-3.5c0.8-1.4,0.7-1.5,1.4-2.9c0.8-1.4,1-1.3,1.8-2.8
	c0.8-1.4,1.1-1.3,1.9-2.7c0.8-1.4,2.4-0.5,3.2-1.9s-1.3-2.6-0.5-4s1.1-1.2,1.9-2.7c0.8-1.4,0.3-1.7,1.1-3.1s2-0.8,2.8-2.2
	c0.8-1.4,1.4-1.1,2.2-2.5s-0.5-2.1,0.3-3.6c0.8-1.4,0.2-1.7,1-3.2c0.8-1.4,0.6-1.5,1.4-2.9c0.8-1.4,1.1-1.3,1.9-2.7
	c0.8-1.4,2.3-0.6,3.1-2s0-1.9,0.8-3.3s0-1.8,0.8-3.3c0.8-1.4,1.5-1,2.3-2.5c0.8-1.4,1.2-1.2,2-2.6s-0.4-2.1,0.4-3.5s1-1.3,1.8-2.7
	c0.8-1.4,0.7-1.5,1.5-2.9s0.5-1.6,1.3-3s2-0.8,2.8-2.2c0.8-1.4,1.8-0.9,2.6-2.3s-1-2.4-0.2-3.8s1-1.3,1.8-2.8
	c0.8-1.4,0.3-1.7,1.1-3.1c0.8-1.4,0.6-1.5,1.4-3c0.8-1.4,3.3,0,4.1-1.5c0.8-1.4-0.7-2.2,0.1-3.7c0.8-1.4,0-1.9,0.8-3.3
	s1.7-0.9,2.5-2.4c0.8-1.4,1.4-1.1,2.2-2.5s1-1.3,1.8-2.7c0.8-1.4,1.3-1.1,2.1-2.6c0.8-1.4,0.6-1.5,1.4-3c0.8-1.4-0.6-2.2,0.2-3.7
	c0.8-1.4,0.6-1.5,1.4-2.9s2.1-0.7,2.9-2.1c0.8-1.4,0.3-1.7,1.1-3.1c0.8-1.4,1.1-1.3,1.9-2.7s1.2-1.2,2-2.7c0.8-1.4-0.6-2.2,0.2-3.6
	l1.6-2.8c0.8-1.4,0.8-1.5,1.5-2.9c0.8-1.4,0.7-1.5,1.5-2.9s2.3-0.6,3.1-2s0.1-1.8,0.9-3.3c0.8-1.4,0.2-1.7,1-3.2
	c0.8-1.4,0.8-1.4,1.6-2.9c0.8-1.4,1.1-1.3,1.9-2.7s0.5-1.6,1.3-3s0.4-1.6,1.2-3.1l1.6-2.8c0.8-1.4,3-0.2,3.8-1.6
	c0.8-1.4-1.4-2.7-0.7-4.1c0.8-1.4,2.4-0.5,3.2-2c0.8-1.4-0.6-2.2,0.2-3.6s1.1-1.2,1.9-2.7c0.8-1.4,1.1-1.3,1.9-2.7
	c0.8-1.4,1.5-1.1,2.3-2.5s0.7-1.5,1.5-2.9s0.3-1.7,1.1-3.1c0.8-1.4-0.4-2.1,0.4-3.5s2.6-0.4,3.4-1.8c0.8-1.4,1.5-1,2.3-2.5
	c0.8-1.4-0.1-1.9,0.7-3.3c0.8-1.4,1.4-1.1,2.2-2.5s0.1-1.8,0.9-3.2c0.8-1.4,1.1-1.3,1.9-2.7c0.8-1.4,1.2-1.2,2-2.6
	c0.8-1.4-0.7-2.3,0.1-3.7s0.4-1.7,1.2-3.1c0.8-1.4,1.4-1.1,2.2-2.5s0.3-1.7,1.1-3.1c0.8-1.4,0.5-1.6,1.3-3s1.9-0.8,2.7-2.2
	s0.1-1.8,0.9-3.3c0.8-1.4,0.9-1.4,1.7-2.8c0.8-1.4,1.9-0.8,2.7-2.3c0.8-1.4,0.4-1.6,1.2-3.1c0.8-1.4,0.9-1.4,1.7-2.8
	c0.8-1.4,1-1.3,1.8-2.7c0.8-1.4,1.1-1.3,1.9-2.7c0.8-1.4-0.6-2.2,0.2-3.6s0.9-1.4,1.7-2.8s2.4-0.5,3.2-1.9c0.8-1.4,0.5-1.6,1.3-3
	s-1-2.4-0.2-3.8s2.2-0.6,3-2.1c0.8-1.4-0.6-2.2,0.2-3.6s1.5-1,2.3-2.5c0.8-1.4,1.4-1.1,2.2-2.5c0.8-1.4,0.1-1.8,0.9-3.2
	c0.8-1.4,2.1-0.7,2.9-2.1s-1.3-2.6-0.5-4s0.7-1.5,1.5-2.9s2.2-0.7,3-2.1s0.3-1.7,1.1-3.1c0.8-1.4,1.7-0.9,2.5-2.4
	c0.8-1.4,0.3-1.7,1.1-3.1c0.8-1.4,0.8-1.4,1.6-2.9c0.8-1.4,1.5-1,2.3-2.5c0.8-1.4-1.1-2.5-0.3-3.9s2.1-0.7,2.9-2.1
	c0.8-1.4,0.7-1.5,1.5-2.9s0.1-1.8,0.9-3.3c0.8-1.4,0.6-1.5,1.4-3c0.8-1.4,1-1.3,1.8-2.8c0.8-1.4,0.8-1.5,1.6-2.9s0.6-1.1,2.2-1.1
	s0.1,0.4,0.9,1.8s1,1.3,1.8,2.8c0.8,1.4,1.5,1,2.3,2.4s0.5,1.6,1.3,3s1.8,0.9,2.6,2.3s-0.1,1.9,0.7,3.3c0.8,1.4,1,1.3,1.8,2.7
	s1.9,0.8,2.7,2.2c0.8,1.4-0.9,2.4-0.1,3.8c0.8,1.4-0.1,2,0.7,3.4s0.9,1.4,1.7,2.8s3.1,0.1,3.9,1.6c0.8,1.4-1.4,2.7-0.6,4.1
	c0.8,1.4,2.5,0.5,3.3,1.9s-0.6,2.2,0.2,3.6s1.5,1.1,2.3,2.5s-0.1,1.9,0.7,3.3s2.5,0.5,3.3,1.9s1.3,1.1,2.1,2.6
	c0.8,1.4-0.6,2.2,0.2,3.6s0.2,1.8,0.9,3.2l1.6,2.8c0.8,1.4,0.5,1.6,1.3,3s1,1.3,1.8,2.8c0.8,1.4,2.1,0.7,2.9,2.1
	c0.8,1.4,1.4,1.1,2.1,2.5c0.8,1.4-0.6,2.2,0.2,3.7c0.8,1.4,1.3,1.1,2.1,2.6c0.8,1.4,1.7,0.9,2.5,2.4c0.8,1.4,0.3,1.7,1.1,3.1
	s0.7,1.5,1.5,2.9s1.1,1.3,1.9,2.7c0.8,1.4,0.9,1.4,1.7,2.8c0.8,1.4,0.5,1.6,1.3,3s-0.8,2.3,0,3.7s2.4,0.6,3.2,2s-0.4,2.1,0.4,3.5
	s1.9,0.8,2.7,2.3c0.8,1.4,1.6,1,2.4,2.4c0.8,1.4,0.5,1.6,1.3,3s-0.7,2.3,0.1,3.7s2.9,0.3,3.7,1.7s-0.8,2.3,0,3.7s1,1.3,1.8,2.7
	s-0.2,2,0.6,3.4s1.6,1,2.4,2.4c0.8,1.4,0.3,1.7,1.1,3.1c0.8,1.4,0.6,1.6,1.4,3c0.8,1.4,3,0.2,3.8,1.6c0.8,1.4-1.1,2.5-0.3,3.9
	s2.9,0.3,3.7,1.7s-0.1,1.9,0.7,3.4c0.8,1.4,0.7,1.5,1.5,2.9s0.1,1.8,0.9,3.3c0.8,1.4,0.5,1.6,1.3,3s1.1,1.3,1.9,2.7
	c0.8,1.4,0.1,1.8,0.9,3.2c0.8,1.4,0.9,1.4,1.7,2.8c0.8,1.4,2.3,0.6,3.1,2s0.3,1.7,1.1,3.1c0.8,1.4,1.6,1,2.4,2.4
	c0.8,1.4-0.9,2.4-0.1,3.8s2.7,0.3,3.5,1.8c0.8,1.4-0.4,2.1,0.4,3.5s0.1,1.8,0.9,3.2c0.8,1.4,0.6,1.5,1.4,3c0.8,1.4,2.5,0.5,3.3,1.9
	s1.3,1.1,2.1,2.6c0.8,1.4-1.2,2.5-0.4,4c0.8,1.4,0.7,1.5,1.5,2.9s1.9,0.8,2.7,2.2s0,1.9,0.8,3.3s0.8,1.4,1.6,2.9
	c0.8,1.4,0.9,1.4,1.7,2.8c0.8,1.4,2.5,0.5,3.2,1.9c0.8,1.4-0.2,2,0.6,3.4s1.9,0.8,2.7,2.2c0.8,1.4-1.5,2.7-0.7,4.2
	c0.8,1.4,1.8,0.9,2.6,2.3s1.5,1.1,2.3,2.5s0.8,1.4,1.6,2.9c0.8,1.4-0.8,2.3-0.1,3.8l1.6,2.8c0.8,1.4,2.3,0.6,3.1,2s1,1.3,1.8,2.7
	c0.8,1.4,0.1,1.8,0.9,3.2c0.8,1.4,1.6,1,2.4,2.4c0.8,1.4-0.4,2.1,0.3,3.6c0.8,1.4,0.9,1.4,1.7,2.8l1.6,2.8c0.8,1.4,0.5,1.6,1.3,3
	s1.5,1,2.3,2.5c0.8,1.4,1.4,1.1,2.2,2.5c0.8,1.4,1,1.3,1.8,2.8c0.8,1.4,0.2,1.7,1,3.2c0.8,1.4,1,1.3,1.8,2.7
	c0.8,1.4,0.8,1.4,1.6,2.9c0.8,1.4,0.4,1.7,1.2,3.1c0.8,1.4,1.4,1.1,2.2,2.5c0.8,1.4-1.2,2.5-0.4,4c0.8,1.4,1.3,1.1,2.1,2.6
	c0.8,1.4,0.6,1.6,1.4,3s1.2,1.2,2,2.6s1.3,1.2,2.1,2.6c0.8,1.4-0.1,1.9,0.7,3.4c0.8,1.4,2.4,0.5,3.2,1.9c0.8,1.4-0.2,2,0.6,3.4
	s1.8,0.8,2.6,2.3c0.8,1.4,0.2,1.8,1,3.2c0.8,1.4,0,1.9,0.8,3.3s0.8,1.4,1.6,2.9c0.8,1.4,2,0.8,2.8,2.2c0.8,1.4,0,1.9,0.8,3.3
	s0.3,1.7,1.1,3.1c0.8,1.4,2.1,0.7,2.9,2.2c0.8,1.4-0.6,2.2,0.2,3.6s2.9,0.3,3.7,1.7c0.8,1.4,0.4,1.6,1.2,3.1c0.8,1.4-1.2,2.6-0.4,4
	c0.8,1.4,1.6,1,2.4,2.4s0.7,1.5,1.5,2.9s2.4,0.5,3.2,2c0.8,1.4,0.2,1.8,1,3.2c0.8,1.4,1.2,1.2,2,2.6s-1.1,2.5-0.3,3.9
	s4.5,1.5,3.7,2.9s-2.7-1-4.3-1c-1.6,0-1.6,1.8-3.3,1.8c-1.6,0-1.6-2.2-3.3-2.2c-1.6,0-1.6,1.9-3.3,1.9c-1.6,0-1.6-2.3-3.3-2.3
	c-1.6,0-1.6,1.9-3.3,1.9s-1.6,0.1-3.3,0.1c-1.6,0-1.6,0.7-3.3,0.7c-1.6,0-1.6-2.9-3.3-2.9c-1.6,0-1.6,0.3-3.3,0.3
	c-1.6,0-1.6-0.3-3.3-0.3c-1.6,0-1.6,0.6-3.3,0.6c-1.6,0-1.6,0.6-3.3,0.6c-1.6,0-1.6-1.1-3.3-1.1c-1.6,0-1.6,2.2-3.3,2.2
	c-1.6,0-1.6,0.4-3.3,0.4c-1.6,0-1.6-1.5-3.3-1.5c-1.6,0-1.6,0.3-3.3,0.3c-1.6,0-1.6,1.2-3.3,1.2c-1.6,0-1.6-0.5-3.3-0.5
	c-1.6,0-1.6-0.8-3.3-0.8c-1.6,0-1.6-0.2-3.3-0.2c-1.6,0-1.6-1.2-3.3-1.2c-1.6,0-1.6,0.6-3.3,0.6c-1.6,0-1.6,2-3.3,2
	c-1.6,0-1.6-0.5-3.3-0.5c-1.6,0-1.6-0.4-3.3-0.4c-1.6,0-1.6-1.1-3.3-1.1c-1.6,0-1.6,1.3-3.3,1.3c-1.6,0-1.6-1.8-3.3-1.8
	c-1.6,0-1.6,1.2-3.3,1.2s-1.6-0.6-3.3-0.6c-1.6,0-1.6-0.1-3.3-0.1s-1.6,1-3.3,1c-1.6,0-1.6-0.2-3.3-0.2s-1.6-0.7-3.3-0.7
	c-1.6,0-1.6,1.8-3.3,1.8c-1.6,0-1.6-1-3.3-1c-1.6,0-1.6,0.5-3.3,0.5c-1.6,0-1.6,0.7-3.3,0.7c-1.6,0-1.6-1.5-3.3-1.5
	c-1.6,0-1.6,1.4-3.3,1.4c-1.6,0-1.6,0.1-3.3,0.1s-1.6-0.8-3.3-0.8h-6.6c0,0-1.6,0.8-3.3,0.8c-1.6,0-1.6-0.5-3.3-0.5
	c-1.6,0-1.6-1.4-3.3-1.4c-1.6,0-1.6,0.2-3.3,0.2c-1.6,0-1.6,1.1-3.3,1.1s-1.6,0.1-3.3,0.1c-1.6,0-1.6,0.5-3.3,0.5
	c-1.6,0-1.6-0.2-3.3-0.2s-1.6-0.2-3.3-0.2c-1.6,0-1.6-2-3.3-2c-1.6,0-1.6,1.5-3.3,1.5c-1.6,0-1.6-0.2-3.3-0.2
	c-1.6,0-1.6,0.1-3.3,0.1c-1.6,0-1.6,0.9-3.3,0.9H114c-1.6,0-1.6-2-3.3-2c-1.6,0-1.6,1.6-3.3,1.6c-1.6,0-1.6-0.9-3.3-0.9
	c-1.6,0-1.6,1.2-3.3,1.2c-1.6,0-1.6-0.4-3.3-0.4c-1.6,0-1.6,0.7-3.3,0.7c-1.6,0-1.6,0.1-3.3,0.1c-1.6,0-1.6-2.6-3.3-2.6
	c-1.6,0-1.6-0.1-3.3-0.1H81c-1.6,0-1.6,2-3.3,2c-1.6,0-1.6-0.4-3.3-0.4c-1.6,0-1.6-0.6-3.3-0.6c-1.6,0-1.6,0.9-3.3,0.9
	c-1.6,0-1.6-1-3.3-1c-1.6,0-1.6-1.2-3.3-1.2c-1.6,0-1.6,1.3-3.3,1.3c-1.6,0-1.6,0.5-3.3,0.5s-1.6-1.1-3.3-1.1
	c-1.6,0-1.6,1.9-3.3,1.9c-1.6,0-1.6-1-3.3-1c-1.6,0-1.6-0.7-3.3-0.7c-1.6,0-1.6,1.2-3.3,1.2c-1.6,0-1.6,0.1-3.3,0.1
	c-1.6,0-1.6-0.6-3.3-0.6c-1.6,0-1.6,0.2-3.3,0.2c-1.6,0-1.6,0.3-3.3,0.3c-1.6,0-1.6-1.6-3.3-1.6c-1.6,0-1.6,2.1-3.3,2.1
	c-1.6,0-1.6-1.1-3.3-1.1c-1.6,0-1.6,0.6-3.3,0.6c-1.6,0-1.6-1.6-3.3-1.6c-1.6,0-1.6,2-3.3,2c-1.6,0-1.6-1.9-3.3-1.9
	c-1.6,0-1.6,1.4-3.3,1.4c-1.6,0-1.6-0.8-3.3-0.8s-1.6,0.6-3.3,0.6s-1.6,0.8-3.3,0.8c-1.6,0-1.6-1.3-3.3-1.3c-1.6,0-1.6-1.2-3.3-1.2
	c-1.6,0-1.6,1.8-3.3,1.8c-1.6,0-1.6-0.7-3.3-0.7c-1.6,0-1.6,1.8-3.3,1.8c-1.6,0-1.6-2-3.3-2c-1.6,0-1.6-0.4-3.3-0.4
	c-1.6,0-1.6,2.2-3.3,2.2c-1.6,0-1.6-0.8-3.3-0.8c-1.6,0-1.6-1.8-3.3-1.8c-1.6,0-1.6,1.1-3.3,1.1c-1.6,0-1.6,0.4-3.3,0.4
	s-1.6-0.8-3.3-0.8c-1.6,0-1.6,0.5-3.3,0.5c-1.6,0-1.6-1.3-3.3-1.3c-1.6,0-1.6,2.1-3.3,2.1c-1.7,0-1.6,0.8-3.3,0.8
	c-1.6,0-1.6-1.6-3.3-1.6c-1.6,0-1.6,0.9-3.3,0.9c-1.6,0-1.6,0.6-3.3,0.6c-1.6,0-1.6-0.6-3.3-0.6c-1.6,0-1.6,0.6-3.3,0.6
	c-1.6,0-1.6-1.5-3.2-1.1C-85.9,400-87.3,401.2-88.2,399.8L-88.2,399.8z M18.1,364.6c-0.8-1.4,2.3-1.8,3.1-3.2
	c0.8-1.4-0.4-2.1,0.4-3.5s0.4-1.7,1.2-3.1c0.8-1.4,1.8-0.8,2.6-2.3c0.8-1.4,2-0.7,2.8-2.2c0.8-1.4,0-1.9,0.8-3.3s0.3-1.7,1.1-3.1
	c0.8-1.4-0.1-1.9,0.7-3.4c0.8-1.4,1.6-1,2.4-2.4s1.8-0.9,2.6-2.3s-0.1-1.9,0.7-3.3s0.5-1.6,1.3-3s1-1.3,1.8-2.8
	c0.8-1.4,1.6-1,2.4-2.4c0.8-1.4-0.2-2,0.6-3.4s0.1-1.8,0.9-3.2c0.8-1.4,1.6-1,2.4-2.4c0.8-1.4,1.6-1,2.4-2.4
	c0.8-1.4-0.5-2.1,0.3-3.6c0.8-1.4,2.8-0.3,3.5-1.8c0.8-1.4-0.1-1.9,0.7-3.4c0.8-1.4,1.4-1.1,2.2-2.5s-0.8-2.3,0-3.7
	c0.8-1.4,1.9-0.8,2.7-2.2c0.8-1.4,1.8-0.9,2.6-2.3s-1.3-2.6-0.5-4s1.1-1.2,1.9-2.7c0.8-1.4,2.5-0.5,3.3-1.9s-0.4-2.1,0.4-3.5
	s1.4-1.1,2.2-2.5c0.8-1.4,0-1.8,0.8-3.3c0.8-1.4,1-1.3,1.8-2.7c0.8-1.4,2-0.7,2.8-2.2c0.8-1.4-1.1-2.5-0.3-3.9s1-1.3,1.8-2.7
	c0.8-1.4,0.5-1.6,1.3-3s1-1.3,1.8-2.7c0.8-1.4,1-1.3,1.8-2.8c0.8-1.4,0.2-1.7,1-3.2c0.8-1.4,1-1.3,1.8-2.8c0.8-1.4,0.6-1.5,1.4-3
	c0.8-1.4,2.2-0.6,3-2s1.5-1,2.3-2.4s-1.2-2.5-0.4-3.9c0.8-1.4,1.3-1.2,2-2.6c0.8-1.4,1.6-1,2.3-2.4c0.8-1.4-0.6-2.2,0.2-3.6
	s1.1-1.2,1.9-2.7c0.8-1.4,2.3-0.6,3.1-2c0.8-1.4,0.3-1.7,1.1-3.1c0.8-1.4,1-1.3,1.8-2.7s0.3-1.7,1.1-3.1c0.8-1.4-0.2-2,0.6-3.4
	s1.5-1.1,2.3-2.5s2.2-0.6,3-2.1c0.8-1.4-1.7-2.8-0.9-4.2c0.8-1.4,1-1.3,1.8-2.7s0.7-1.5,1.5-2.9s3.1-0.1,3.9-1.6
	c0.8-1.4-0.1-1.9,0.7-3.3c0.8-1.4,0.3-1.7,1.1-3.1c0.8-1.4,0.2-1.8,1-3.2s2.1-0.7,2.9-2.1c0.8-1.4,0.7-1.5,1.5-2.9s1-1.3,1.8-2.8
	c0.8-1.4,0.1-1.8,0.9-3.2s1.2-1.2,2-2.7c0.8-1.4-0.1-1.9,0.7-3.4c0.8-1.4,0.3-1.7,1.1-3.1c0.8-1.4,1.6-1,2.4-2.4s0.6-1.5,1.4-2.9
	c0.8-1.4,1-1.3,1.8-2.7s1.7-0.9,2.5-2.4c0.8-1.4-0.7-2.3,0.1-3.7l1.6-2.8c0.8-1.4,1.4-1.1,2.2-2.5s1.4-1.1,2.2-2.5s-0.4-2.1,0.4-3.5
	s1.7-0.9,2.5-2.3s0.9-1.4,1.7-2.8l1.6-2.8c0.8-1.4-0.6-2.2,0.2-3.6s2-0.8,2.8-2.2c0.8-1.4,1-1.3,1.8-2.7c0.8-1.4,1.6-1,2.4-2.4
	c0.8-1.4-0.3-2,0.5-3.5c0.8-1.4,2.1-0.7,2.9-2.2c0.8-1.4-0.3-2,0.5-3.5c0.8-1.4,0.5-1.6,1.3-3s0.9-1.4,1.7-2.8s-0.1-1.9,0.7-3.4
	c0.8-1.4,1-1.3,1.8-2.8c0.8-1.4,2.5-0.5,3.3-1.9s-0.3-2,0.5-3.5c0.8-1.4,1.1-1.3,1.9-2.7c0.8-1.4,0.3-1.7,1.1-3.1s2.1-0.7,2.9-2.2
	c0.8-1.4,0.2-1.7,1-3.2c0.8-1.4,1.6-1,2.4-2.4c0.8-1.4,0.3-1.7,1.1-3.1s-0.6-2.2,0.2-3.6s0.4-1.6,1.2-3.1c0.8-1.4,1.9-0.8,2.7-2.3
	c0.8-1.4,1-1.3,1.8-2.7c0.8-1.4,1.7-0.9,2.5-2.4c0.8-1.4-0.9-2.4-0.1-3.8s1-1.3,1.8-2.7s-0.1-1.9,0.7-3.3c0.8-1.4,1.3-1.1,2.1-2.6
	c0.8-1.4,2.2-0.6,3-2s0.2-1.7,1-3.2c0.8-1.4,1.2-1.2,2-2.6c0.8-1.4,1-1.3,1.8-2.7s1.2-1.2,2-2.6c0.8-1.4,0-1.9,0.8-3.3
	s1.3-1.1,2.1-2.6c0.8-1.4,0.3-1.7,1.1-3.1s0.2-1.8,1-3.2c0.8-1.4,1.3-1.2,2.1-2.6s0.6-1.5,1.4-3c0.8-1.4,0.6-1.5,1.4-3
	c0.8-1.4,0.5-1.6,1.3-3s2.1-0.7,2.9-2.1c0.8-1.4-1-2.5-0.2-3.9s1.9-0.8,2.7-2.3c0.8-1.4-0.1-2.2,1.5-2.2s0.4,0.9,1.2,2.4
	c0.8,1.4,1.2,1.2,2,2.6s-0.4,2.1,0.3,3.5c0.8,1.4,2.6,0.4,3.4,1.9c0.8,1.4-0.7,2.3,0.1,3.7c0.8,1.4,1.8,0.8,2.6,2.3
	c0.8,1.4-0.5,2.2,0.3,3.6s2.6,0.4,3.4,1.8l1.6,2.8c0.8,1.4-0.6,2.2,0.2,3.7c0.8,1.4,2.6,0.4,3.4,1.8c0.8,1.4-1.2,2.5-0.4,4
	c0.8,1.4,2.5,0.5,3.3,1.9s-0.7,2.3,0.1,3.7s1.6,1,2.4,2.4c0.8,1.4,1,1.3,1.8,2.7s0.9,1.4,1.7,2.8c0.8,1.4,0.3,1.7,1.1,3.1
	c0.8,1.4,1.2,1.2,2,2.6c0.8,1.4,1.2,1.2,2,2.6c0.8,1.4-0.7,2.3,0,3.7c0.8,1.4,0.9,1.4,1.7,2.8s1.1,1.3,1.9,2.7
	c0.8,1.4,2.4,0.6,3.2,2c0.8,1.4,0.2,1.8,1,3.2c0.8,1.4,0.4,1.6,1.2,3.1c0.8,1.4,1.2,1.2,2,2.7c0.8,1.4,0.8,1.4,1.6,2.9
	c0.8,1.4,0.7,1.5,1.5,2.9s1,1.3,1.8,2.7c0.8,1.4,0.9,1.4,1.7,2.8c0.8,1.4,0.1,1.8,0.9,3.2c0.8,1.4,1.1,1.3,1.9,2.7
	c0.8,1.4-0.2,2,0.6,3.4s2.3,0.6,3.1,2c0.8,1.4-0.3,2,0.5,3.5c0.8,1.4,2.2,0.6,3,2.1c0.8,1.4-0.1,1.9,0.7,3.4l1.6,2.8
	c0.8,1.4-0.1,1.9,0.7,3.3c0.8,1.4,0.6,1.5,1.4,2.9s0.6,1.5,1.4,3c0.8,1.4,2.7,0.4,3.5,1.8c0.8,1.4,0.1,1.8,0.9,3.2s0.1,1.8,0.9,3.2
	s0.6,1.5,1.4,3c0.8,1.4,0.9,1.4,1.7,2.8c0.8,1.4,2.4,0.5,3.2,2c0.8,1.4-1,2.4-0.2,3.8s0.7,1.5,1.5,2.9s0.9,1.4,1.7,2.8
	c0.8,1.4,1.8,0.9,2.6,2.3s-0.6,2.2,0.2,3.6s2.6,0.4,3.4,1.8c0.8,1.4,0.9,1.4,1.7,2.8c0.8,1.4,0.1,1.8,0.9,3.3c0.8,1.4,1.2,1.2,2,2.6
	c0.8,1.4-0.2,2,0.6,3.4s0.6,1.5,1.4,2.9s0.6,1.5,1.4,2.9s1.9,0.8,2.7,2.3c0.8,1.4,1.8,0.9,2.6,2.3s1.1,1.3,1.9,2.7s-0.7,2.3,0.1,3.7
	c0.8,1.4,1.6,1,2.4,2.4s1.2,1.2,2,2.6c0.8,1.4,0,1.9,0.8,3.3s0.2,1.8,1,3.2s0.3,1.7,1.1,3.1c0.8,1.4,2.1,0.7,2.9,2.2
	c0.8,1.4,1.7,0.9,2.5,2.3s-1.2,2.6-0.4,4c0.8,1.4,1.7,0.9,2.5,2.3s-0.2,2,0.6,3.4s1,1.3,1.8,2.8c0.8,1.4,2,0.8,2.8,2.2
	s1,1.3,1.7,2.8c0.8,1.4-0.3,2.1,0.5,3.5s1.2,1.2,2,2.6c0.8,1.4,1.4,1.1,2.1,2.5c0.8,1.4-0.1,1.9,0.7,3.4c0.8,1.4,1.4,1.1,2.2,2.5
	c0.8,1.4,1.4,1.1,2.2,2.5c0.8,1.4-1.3,2.6-0.5,4s2.1,0.7,2.9,2.1c0.8,1.4,0.2,1.8,1,3.2s0.7,1.5,1.5,2.9s0.1,1.8,0.9,3.2
	s1.2,1.2,2,2.6l1.6,2.8c0.8,1.4,2.2,0.7,3,2.1s1.3,1.1,2.1,2.6s0.6,1.5,1.4,3c0.8,1.4,0.2,1.7,1,3.2c0.8,1.4-0.1,1.9,0.7,3.4
	c0.8,1.4,0.6,1.5,1.4,3c0.8,1.4,2.1,0.7,2.9,2.1s1.3,1.2,2.1,2.6c0.8,1.4-1.1,2.5-0.3,3.9s0.5,1.6,1.3,3s1.9,0.8,2.7,2.2
	c0.8,1.4,1.5,1,2.3,2.4s1.4,1.1,2.2,2.5c0.8,1.4-0.6,2.2,0.2,3.7c0.8,1.4-0.3,2,0.5,3.5c0.8,1.4,2.4,0.5,3.2,1.9
	c0.8,1.4-0.6,2.2,0.2,3.6s2.2,0.6,3,2.1c0.8,1.4,0.5,1.6,1.3,3s0.8,1.4,1.6,2.9c0.8,1.4,1.2,1.2,2,2.6s0.5,1.6,1.3,3
	s0.7,1.5,1.5,2.9s-0.4,2.1,0.4,3.5s3,0.2,3.8,1.6s-1.1,2.5-0.3,3.9s0.5,1.6,1.3,3s1.1,1.3,1.9,2.7c0.8,1.4,1.5,1,2.3,2.5
	c0.8,1.4-0.1,2,0.7,3.4c0.8,1.4,1.7,0.9,2.5,2.4c0.8,1.4-0.1,2,0.7,3.4c0.8,1.4,1.5,1,2.3,2.4s0.4,1.6,1.2,3.1
	c0.8,1.4,0.8,1.4,1.6,2.9c0.8,1.4,3.4,1.3,2.5,2.8c-0.8,1.4-2-0.2-3.6-0.2s-1.6,0.7-3.3,0.7c-1.6,0-1.6-0.7-3.3-0.7
	c-1.6,0-1.6-0.1-3.3-0.1h-3.3c-1.6,0-1.6-1.3-3.3-1.3c-1.6,0-1.6-0.1-3.3-0.1c-1.6,0-1.6,1-3.3,1s-1.6-1.1-3.3-1.1
	c-1.6,0-1.6,0.7-3.3,0.7c-1.6,0-1.6,1.2-3.3,1.2h-3.3c-1.6,0-1.6,0.1-3.3,0.1h-3.3c-1.6,0-1.6-0.3-3.3-0.3c-1.6,0-1.6-0.9-3.3-0.9
	c-1.6,0-1.6-0.1-3.3-0.1c-1.6,0-1.6,1.6-3.3,1.6c-1.6,0-1.6-1.2-3.3-1.2c-1.6,0-1.6-1.3-3.3-1.3s-1.6,0.8-3.3,0.8
	c-1.6,0-1.6,0.5-3.3,0.5c-1.6,0-1.6,0.9-3.3,0.9c-1.6,0-1.6-1.7-3.3-1.7c-1.6,0-1.6,2.1-3.3,2.1c-1.6,0-1.6-2.1-3.3-2.1
	s-1.6,1.7-3.3,1.7c-1.6,0-1.6-0.1-3.3-0.1c-1.6,0-1.6,0.1-3.3,0.1c-1.6,0-1.6-0.3-3.3-0.3c-1.6,0-1.6-1.6-3.3-1.6
	c-1.6,0-1.6,0.1-3.3,0.1c-1.6,0-1.6,1-3.3,1s-1.6,0.6-3.3,0.6c-1.6,0-1.6-1-3.3-1c-1.6,0-1.6,2-3.3,2c-1.6,0-1.6-2.8-3.3-2.8
	c-1.6,0-1.6,0.6-3.3,0.6c-1.6,0-1.6,1-3.3,1c-1.6,0-1.6-0.5-3.3-0.5c-1.6,0-1.6,0.2-3.3,0.2c-1.6,0-1.6,1.3-3.3,1.3
	c-1.6,0-1.6-0.3-3.3-0.3c-1.6,0-1.6-1.2-3.3-1.2c-1.6,0-1.6,0.7-3.3,0.7c-1.6,0-1.6-0.6-3.3-0.6c-1.6,0-1.6,0.4-3.3,0.4
	c-1.6,0-1.6,0.1-3.3,0.1c-1.6,0-1.6-0.4-3.3-0.4c-1.6,0-1.6-0.1-3.3-0.1c-1.6,0-1.6,0.7-3.3,0.7c-1.6,0-1.6-0.1-3.3-0.1
	c-1.6,0-1.6,1-3.3,1c-1.6,0-1.6-2.5-3.3-2.5c-1.6,0-1.6-0.2-3.3-0.2s-1.6,1-3.3,1c-1.6,0-1.6,1-3.3,1c-1.6,0-1.6-1.7-3.3-1.7
	c-1.6,0-1.6,0.5-3.3,0.5s-1.6,0.9-3.3,0.9c-1.6,0-1.6-0.4-3.3-0.4c-1.6,0-1.6,0.4-3.3,0.4c-1.6,0-1.6-1.5-3.3-1.5
	c-1.6,0-1.6,1.9-3.3,1.9c-1.6,0-1.6,0.1-3.3,0.1c-1.6,0-1.6-1.6-3.3-1.6c-1.6,0-1.6,0.2-3.3,0.2c-1.6,0-1.6,1.1-3.3,1.1
	c-1.6,0-1.6-0.1-3.3-0.1c-1.6,0-1.6,0.5-3.3,0.5c-1.6,0-1.6-0.4-3.3-0.4c-1.6,0-1.6-0.8-3.3-0.8s-1.6,0.9-3.3,0.9
	c-1.6,0-1.6-1-3.3-1c-1.6,0-1.6,1.6-3.3,1.6c-1.6,0-1.6-2.3-3.3-2.3c-1.6,0-1.6-0.3-3.3-0.3c-1.6,0-1.6,2.2-3.3,2.2
	s-1.6-0.2-3.3-0.2c-1.6,0-1.6-2.1-3.3-2.1s-1.6,1.3-3.3,1.3c-1.6,0-1.6-0.7-3.3-0.7c-1.6,0-1.6-0.2-3.3-0.2c-1.6,0-1.6,0.6-3.3,0.6
	c-1.6,0-1.6,0.8-3.3,0.8c-1.6,0-1.6-1.2-3.3-1.2c-1.6,0-1.6,0.8-3.3,0.8c-1.6,0-1.6,0.7-3.3,0.7c-1.6,0-1.6-1-3.3-1
	c-1.6,0-1.6-1-3.3-1c-1.6,0-1.6,2.5-3.3,2.5c-1.6,0-1.6-0.4-3.3-0.4c-1.6,0-1.6-1.8-3.3-1.8c-1.6,0-1.6,1.1-3.3,1.1
	c-1.6,0-1.6-0.7-3.3-0.7c-1.6,0-1.6-0.6-3.3-0.6c-1.6,0-1.6,0.8-3.3,0.8c-1.6,0-1.6-0.9-3.3-0.9c-1.6,0-1.6,0.6-3.3,0.6
	c-1.6,0-1.6-0.1-3.3-0.1c-1.6,0-1.6,1.6-3.3,1.6c-1.6,0-1.6-1.2-3.3-1.2c-1.6,0-1.6,0.7-3.3,0.7h-3.3c-1.6,0-1.6-1.6-3.3-1.6
	c-1.6,0-1.6,1.6-3.3,1.6c-1.6,0-1.6,0.5-3.3,0.5c-1.6,0-1.6-1.5-3.3-1.5c-1.6,0-1.6,0.7-3.3,0.7c-1.6,0-1.6,1.2-3.3,1.2
	c-1.6,0-1.6,0.3-3.3,0.3c-1.6,0-1.6-1.3-3.3-1.3c-1.6,0-1.6-0.8-3.3-0.8c-1.6,0-1.6,1.5-3.3,1.5c-1.6,0-1.6,0.5-3.3,0.5
	s-1.6-1.1-3.3-1.1c-1.6,0-1.6-1.3-3.3-1.3c-1.6,0-1.6,1.6-3.3,1.6c-1.6,0-1.6,0.5-3.3,0.5c-1.6,0-1.6-1.4-3.3-1.4
	c-1.6,0-1.6,1.7-3.3,1.7c-1.6,0-1.7-2-3.3-1.5C20.1,364.6,18.9,366,18.1,364.6L18.1,364.6z M176.2,441.9c-0.8-1.4,0-1.7,0.8-3.2
	c0.8-1.4,0.4-1.7,1.2-3.1s1.8-0.9,2.6-2.3s1-1.3,1.8-2.7c0.8-1.4,1.7-0.9,2.5-2.3s0.5-1.6,1.3-3s-0.2-2,0.6-3.4s2.3-0.6,3.1-2
	s-1.2-2.6-0.4-4s1.4-1.1,2.2-2.5s2.2-0.7,3-2.1s0.1-1.8,0.9-3.2c0.8-1.4,0.6-1.5,1.4-3c0.8-1.4,0.5-1.6,1.3-3s0.2-1.8,1-3.2
	c0.8-1.4,2.6-0.4,3.4-1.9c0.8-1.4,0.6-1.5,1.4-3c0.8-1.4,0.4-1.6,1.2-3l1.6-2.8c0.8-1.4,0.4-1.6,1.2-3.1c0.8-1.4,1.7-0.9,2.5-2.4
	c0.8-1.4-0.5-2.1,0.3-3.6c0.8-1.4,0-1.9,0.8-3.3s0.6-1.5,1.4-3c0.8-1.4,1.8-0.9,2.6-2.3s-0.1-2,0.7-3.4s0.7-1.5,1.5-2.9
	s1.6-1,2.4-2.4c0.8-1.4,1.7-0.9,2.5-2.4c0.8-1.4-0.7-2.2,0.1-3.7c0.8-1.4,1.6-1,2.4-2.4c0.8-1.4,1.9-0.8,2.7-2.2
	c0.8-1.4-1.1-2.5-0.3-3.9s0.9-1.4,1.7-2.8s2-0.8,2.8-2.2c0.8-1.4,0.6-1.5,1.4-2.9c0.8-1.4,0-1.9,0.8-3.3s1.4-1.1,2.2-2.5
	s1.3-1.2,2.1-2.6s0.8-1.4,1.6-2.9c0.8-1.4,1.3-1.1,2.1-2.6c0.8-1.4-1.2-2.6-0.4-4s3.1-0.1,3.9-1.6c0.8-1.4,0-1.9,0.8-3.3
	s1.4-1.1,2.2-2.5s-0.2-2,0.6-3.4s1-1.3,1.8-2.7c0.8-1.4-0.2-2,0.6-3.4s1.1-1.3,1.9-2.7c0.8-1.4,2.5-0.5,3.3-1.9
	c0.8-1.4,0.9-1.4,1.7-2.8c0.8-1.4-1.1-2.5-0.3-3.9s2-0.7,2.8-2.2c0.8-1.4-1.1-2.5-0.3-3.9s2-0.8,2.8-2.2c0.8-1.4,1.8-0.9,2.6-2.3
	s-1.3-2.6-0.5-4.1c0.8-1.4,1.2-1.2,2-2.6s2.5-0.5,3.3-1.9s-0.6-2.2,0.2-3.6s0.5-1.6,1.3-3s1.4-1.1,2.2-2.5c0.8-1.4,1-1.3,1.8-2.8
	c0.8-1.4,0.4-1.7,1.2-3.1c0.8-1.4,1.5-1.1,2.3-2.5s1.9-0.8,2.7-2.2c0.8-1.4-0.8-2.3,0-3.8c0.8-1.4,0.1-1.8,0.9-3.3
	c0.8-1.4,1.7-0.9,2.5-2.3s0-1.9,0.8-3.3s1.6-1,2.4-2.4s1.2-1.2,2-2.6c0.8-1.4-0.1-1.9,0.7-3.4c0.8-1.4,1.3-1.2,2.1-2.6
	c0.8-1.4,1.6-1,2.4-2.4s-0.8-2.3,0-3.7s2-0.7,2.8-2.2c0.8-1.4,1.8-0.9,2.6-2.3s0.7-1.5,1.5-2.9s-0.9-2.4-0.1-3.8s2.3-0.6,3.1-2
	c0.8-1.4,0.3-1.7,1.1-3.1c0.8-1.4,0.6-1.5,1.4-2.9s-0.4-2.1,0.4-3.5s1.1-1.2,1.9-2.7c0.8-1.4,1.4-1.1,2.2-2.5
	c0.8-1.4,2.1-0.7,2.9-2.1c0.8-1.4-0.7-2.2,0.1-3.7c0.8-1.4,1.1-1.2,1.9-2.7c0.8-1.4,1.4-1.1,2.2-2.5c0.8-1.4,0.4-1.7,1.2-3.1
	c0.8-1.4,0.6-1.6,1.4-3s-0.2-2,0.6-3.4s3-0.2,3.8-1.6c0.8-1.4,0-1.9,0.8-3.3s0.2-1.8,1-3.2s2.1-0.7,2.8-2.2s0-1.9,0.8-3.3
	s-0.5-2.2,0.3-3.6s3.1-0.1,3.9-1.6c0.8-1.4-1.1-2.5-0.3-3.9s1.8-0.9,2.6-2.3s1.3-1.2,2.1-2.6c0.8-1.4,0.7-1.5,1.5-2.9
	s0.6-1.5,1.4-2.9s0.1-1.8,0.9-3.2s0.6-1.5,1.4-3c0.8-1.4,2.2-0.6,3-2.1c0.8-1.4,0-1.8,0.8-3.3c0.8-1.4-0.1-1.9,0.7-3.3
	c0.8-1.4,0.4-1.6,1.2-3c0.8-1.4,2-0.8,2.8-2.2c0.8-1.4,1.6-1,2.4-2.4s0.3-1.7,1.1-3.1c0.8-1.4-0.1-1.9,0.7-3.4
	c0.8-1.4,1.8-0.8,2.6-2.3c0.8-1.4-0.9-2.4-0.1-3.8s1.4-1.1,2.2-2.5c0.8-1.4,2.1-0.7,2.9-2.1s-0.8-2.3,0-3.8c0.8-1.4,2.5-0.5,3.3-1.9
	s-1-2.4-0.2-3.9c0.8-1.4,1.5-1.1,2.3-2.5s-0.3-2.1,0.5-3.5s2.4-0.5,3.2-1.9c0.8-1.4-0.4-3.9,1.2-3.9s0.9,2.2,1.7,3.6
	c0.8,1.4,0.6,1.5,1.4,3c0.8,1.4,1,1.3,1.8,2.7c0.8,1.4,0.2,1.8,1,3.2c0.8,1.4-0.1,1.9,0.7,3.3c0.8,1.4,1.9,0.8,2.7,2.2
	c0.8,1.4,1.9,0.8,2.7,2.2c0.8,1.4,1.1,1.3,1.9,2.7c0.8,1.4,0.7,1.5,1.5,2.9s0.9,1.4,1.7,2.8c0.8,1.4-0.7,2.3,0.1,3.7
	c0.8,1.4,0.4,1.6,1.2,3.1c0.8,1.4,0.6,1.5,1.4,3c0.8,1.4,2.4,0.5,3.2,2c0.8,1.4,0.6,1.5,1.4,2.9s-0.6,2.2,0.2,3.7
	c0.8,1.4,2.6,0.4,3.4,1.8c0.8,1.4,0.5,1.6,1.3,3s0.2,1.7,1,3.2c0.8,1.4,1.2,1.2,2,2.6c0.8,1.4,0.1,1.8,0.9,3.2s0,1.9,0.8,3.3
	s2.6,0.4,3.4,1.8c0.8,1.4,1.2,1.2,2,2.6c0.8,1.4,0,1.9,0.8,3.3s0.7,1.5,1.5,2.9s0,1.9,0.8,3.3s2.1,0.7,2.9,2.1
	c0.8,1.4-1.2,2.5-0.4,3.9c0.8,1.4,0.7,1.5,1.5,2.9s3.1,0.1,3.9,1.6c0.8,1.4,0,1.9,0.8,3.3s1.4,1.1,2.2,2.5c0.8,1.4,0,1.9,0.8,3.3
	s1.8,0.9,2.6,2.3s-1.8,2.9-1,4.3s2.1,0.7,2.9,2.1c0.8,1.4-0.4,2.1,0.4,3.5s2.1,0.7,2.9,2.1c0.8,1.4,1.9,0.8,2.7,2.2
	c0.8,1.4,0.1,1.8,0.9,3.2s-0.2,2,0.6,3.4s0.3,1.7,1.1,3.1c0.8,1.4,2.8,0.3,3.6,1.8c0.8,1.4,0.4,1.6,1.2,3.1c0.8,1.4,1.3,1.1,2.1,2.6
	c0.8,1.4-1.3,2.6-0.5,4s1.5,1,2.3,2.5c0.8,1.4,0.9,1.4,1.7,2.8c0.8,1.4,0.3,1.7,1.1,3.1c0.8,1.4,2,0.7,2.8,2.2
	c0.8,1.4-1.1,2.5-0.3,3.9s1,1.3,1.8,2.8c0.8,1.4,2.6,0.4,3.4,1.8c0.8,1.4,0.1,1.8,0.9,3.3c0.8,1.4,0.5,1.6,1.3,3s1.2,1.2,2,2.6
	c0.8,1.4,1,1.3,1.8,2.7s1.4,1.1,2.2,2.5c0.8,1.4-0.3,2.1,0.5,3.5s0.1,1.8,0.9,3.3c0.8,1.4,2,0.7,2.8,2.2c0.8,1.4-0.3,2,0.5,3.5
	c0.8,1.4,2,0.7,2.8,2.2s-0.5,2.2,0.3,3.6s1.8,0.8,2.6,2.3c0.8,1.4,1.2,1.2,2,2.6s-0.7,2.3,0.1,3.7c0.8,1.4,1.4,1.1,2.2,2.5
	c0.8,1.4,0.9,1.4,1.7,2.8c0.8,1.4-0.2,2,0.6,3.4s2.5,0.5,3.3,1.9s-0.2,2,0.6,3.4s0.7,1.5,1.5,2.9s2.2,0.6,3,2.1
	c0.8,1.4-0.8,2.3,0,3.7c0.8,1.4,1.7,0.9,2.5,2.4c0.8,1.4,0,1.9,0.8,3.3s2.7,0.3,3.5,1.8c0.8,1.4-0.7,2.3,0.1,3.7
	c0.8,1.4,1.8,0.9,2.6,2.3s0.4,1.7,1.2,3.1c0.8,1.4-0.5,2.2,0.3,3.6s1.2,1.2,2,2.6l1.6,2.8c0.8,1.4,0.7,1.5,1.5,2.9s1.6,1,2.4,2.4
	c0.8,1.4,1.4,1.1,2.2,2.5s0.2,1.7,1,3.2c0.8,1.4,0.4,1.6,1.2,3.1c0.8,1.4,1.2,1.2,2,2.7c0.8,1.4-0.4,2.1,0.4,3.5s0.9,1.3,1.7,2.8
	c0.8,1.4,1.2,1.2,2,2.6s0.9,1.4,1.7,2.8s2.3,0.6,3.1,2s-1.4,2.6-0.6,4.1c0.8,1.4,1.4,1.1,2.2,2.5s1,1.3,1.8,2.7
	c0.8,1.4,0.3,1.7,1.1,3.1s0.9,1.4,1.7,2.8s0.7,1.5,1.5,2.9s1.6,1,2.4,2.4c0.8,1.4,1.4,1.1,2.2,2.5s0.6,1.5,1.4,3
	c0.8,1.4,0,1.9,0.8,3.3s-0.1,1.9,0.7,3.3s2.6,0.4,3.4,1.8c0.8,1.4,0,1.9,0.8,3.3s0.7,1.5,1.5,2.9s0.8,1.4,1.6,2.9
	c0.8,1.4,0.8,1.4,1.6,2.9c0.8,1.4,0.2,1.8,1,3.2c0.8,1.4,0.5,1.6,1.3,3s2.1,0.7,2.8,2.2c0.8,1.4,0.3,1.7,1.1,3.2
	c0.8,1.4,1.1,1.2,1.9,2.7c0.8,1.4,1.2,1.2,2,2.6s0.6,1.5,1.4,3c0.8,1.4,0.2,1.8,1,3.2c0.8,1.4,1.8,0.9,2.6,2.3s-0.5,2.1,0.3,3.6
	c0.8,1.4,2.1,0.7,2.9,2.1c0.8,1.4-0.6,2.2,0.2,3.6s0.9,1.4,1.7,2.8s3.9,1.6,3.1,3c-0.8,1.4-2.5-0.4-4.1-0.4s-1.6,0.6-3.3,0.6
	c-1.6,0-1.6-0.7-3.3-0.7s-1.6-0.5-3.3-0.5c-1.6,0-1.6-0.8-3.3-0.8c-1.6,0-1.6,0.8-3.3,0.8c-1.6,0-1.6-0.5-3.3-0.5
	c-1.6,0-1.6,2.1-3.3,2.1c-1.6,0-1.6-0.2-3.3-0.2h-3.3c-1.6,0-1.6-0.1-3.3-0.1c-1.6,0-1.6-0.8-3.3-0.8s-1.6,0.7-3.3,0.7
	s-1.6-0.4-3.3-0.4c-1.6,0-1.6,0.6-3.3,0.6c-1.6,0-1.6-2.2-3.3-2.2c-1.6,0-1.6,1.1-3.3,1.1s-1.6,1.2-3.3,1.2s-1.6,0.5-3.3,0.5
	c-1.6,0-1.6-2.2-3.3-2.2c-1.6,0-1.6-0.4-3.3-0.4c-1.6,0-1.6,1.5-3.3,1.5c-1.6,0-1.6-0.4-3.3-0.4c-1.6,0-1.6,1.2-3.3,1.2
	s-1.6-0.2-3.3-0.2c-1.6,0-1.6-1.4-3.3-1.4s-1.6,1.8-3.3,1.8c-1.6,0-1.6-0.8-3.3-0.8s-1.6,0.8-3.3,0.8c-1.6,0-1.6-0.6-3.3-0.6
	c-1.6,0-1.6-2.1-3.3-2.1c-1.6,0-1.6,1.9-3.3,1.9c-1.6,0-1.6-0.5-3.3-0.5s-1.6,0.1-3.3,0.1c-1.6,0-1.6-0.9-3.3-0.9
	c-1.6,0-1.6,0.4-3.3,0.4c-1.6,0-1.6,1.4-3.3,1.4c-1.6,0-1.6-1.9-3.3-1.9s-1.6,1.7-3.3,1.7c-1.6,0-1.6,0.2-3.3,0.2
	c-1.6,0-1.6-0.5-3.3-0.5c-1.6,0-1.6,0.4-3.3,0.4c-1.6,0-1.6-0.7-3.3-0.7c-1.6,0-1.6,1.1-3.3,1.1c-1.6,0-1.6-2.6-3.3-2.6
	c-1.6,0-1.6,1.7-3.3,1.7c-1.6,0-1.6-0.3-3.3-0.3c-1.6,0-1.6,0.5-3.3,0.5c-1.6,0-1.6,0.2-3.3,0.2c-1.6,0-1.6-1.8-3.3-1.8
	c-1.6,0-1.6,1.2-3.3,1.2c-1.6,0-1.6-1.2-3.3-1.2c-1.6,0-1.6,0.1-3.3,0.1c-1.6,0-1.6-0.1-3.3-0.1c-1.6,0-1.6,1.6-3.3,1.6
	c-1.6,0-1.6,0.4-3.3,0.4c-1.6,0-1.6-1.6-3.3-1.6s-1.6-0.2-3.3-0.2h-3.3c-1.6,0-1.6,1.4-3.3,1.4c-1.6,0-1.6,0.7-3.3,0.7
	c-1.6,0-1.6-2-3.3-2c-1.6,0-1.6,1.2-3.3,1.2c-1.6,0-1.6-1.2-3.3-1.2c-1.6,0-1.6,1.8-3.3,1.8h-3.3c-1.6,0-1.6-2.4-3.3-2.4
	c-1.6,0-1.6,1.6-3.3,1.6c-1.6,0-1.6-1.1-3.3-1.1h-3.3c-1.6,0-1.6-0.1-3.3-0.1s-1.6,0.4-3.3,0.4c-1.6,0-1.6,0.2-3.3,0.2
	s-1.6,0.6-3.3,0.6c-1.6,0-1.6,1.1-3.3,1.1c-1.6,0-1.6-2.1-3.3-2.1c-1.6,0-1.6,0.3-3.3,0.3c-1.6,0-1.6-0.7-3.3-0.7
	c-1.6,0-1.6,2.3-3.3,2.3c-1.6,0-1.6-1-3.3-1c-1.6,0-1.6,0.7-3.3,0.7s-1.6,0.5-3.3,0.5c-1.6,0-1.6-2.4-3.3-2.4
	c-1.6,0-1.6-0.2-3.3-0.2c-1.6,0-1.6,0.6-3.3,0.6s-1.6,1-3.3,1c-1.6,0-1.6,1-3.3,1c-1.6,0-1.6-2.5-3.3-2.5c-1.6,0-1.6,2-3.3,2
	c-1.6,0-1.6-0.9-3.3-0.9c-1.6,0-1.6,0.1-3.3,0.1c-1.6,0-1.6,0.3-3.3,0.3c-1.6,0-1.6,0.3-3.3,0.3c-1.6,0-1.6,0.8-3.3,0.8
	c-1.6,0-1.6-0.7-3.3-0.7c-1.6,0-1.6,0.7-3.3,0.7c-1.6,0-1.6-2.6-3.3-2.6c-1.6,0-1.6,1.4-3.3,1.4c-1.6,0-1.6,1.2-3.3,1.2
	c-1.6,0-1.6-1-3.3-1c-1.6,0-1.6,1-3.3,1c-1.6,0-1.6-1.7-3.3-1.7s-1.6-1-3.3-1c-1.6,0-1.6,1.4-3.3,1.4c-1.6,0-1.6-0.8-3.3-0.8
	s-1.6,0.6-3.3,0.6c-1.6,0-1.6-1.1-3.3-1.1c-1.6,0-1.6,1.8-3.3,1.8c-1.6,0-1.6-0.6-3.3-0.6c-1.6,0-1.6-0.6-3.3-0.6
	c-1.6,0-1.6,1.9-3.3,1.9c-1.6,0-1.6-2.5-3.3-2.5c-1.6,0-1.6,2.5-3.3,2.5c-1.6,0-1.6-2.2-3.3-2.2c-1.6,0-1.6,0.3-3.3,0.3
	s-1.6,2-3.3,2c-1.6,0-1.6-1.6-3.3-1.6h-3.3c-1.6,0-1.6,0.8-3.3,0.8c-1.6,0-1.6-0.7-3.3-0.7c-1.6,0-1.6,1.5-3.3,1.5
	c-1.6,0-1.4-0.5-3-0.1C178,443.7,177,443.3,176.2,441.9L176.2,441.9z M108.4,432.8c-0.8-1.4,0.3-1.3,1.1-2.8
	c0.8-1.4,1.4-1.1,2.2-2.5c0.8-1.4,1-1.3,1.8-2.7c0.8-1.4-0.2-2,0.6-3.4s1.6-1,2.4-2.4s-0.6-2.2,0.2-3.6s2.2-0.7,3-2.1
	s0.9-1.4,1.7-2.8c0.8-1.4,0.1-1.8,0.9-3.3c0.8-1.4,1.4-1.1,2.2-2.5c0.8-1.4-0.8-2.3,0-3.7c0.8-1.4,2.3-0.6,3.1-2
	c0.8-1.4,1.6-1,2.3-2.4c0.8-1.4-1.3-2.6-0.5-4s1.4-1.1,2.2-2.5s1.1-1.3,1.9-2.7c0.8-1.4,1.3-1.2,2.1-2.6s0.9-1.4,1.7-2.8
	s-0.7-2.3,0.1-3.7c0.8-1.4,0.8-1.4,1.6-2.9c0.8-1.4,2.8-0.3,3.6-1.7c0.8-1.4-1.5-2.7-0.7-4.1s2.7-0.3,3.5-1.8c0.8-1.4,0.6-1.6,1.4-3
	c0.8-1.4,1.5-1,2.3-2.5c0.8-1.4,0.4-1.6,1.2-3.1c0.8-1.4,0.5-1.6,1.3-3s0.4-1.7,1.2-3.1s0.7-1.5,1.5-2.9s-0.3-2,0.5-3.5
	c0.8-1.4,3-0.2,3.8-1.6s0.6-1.6,1.4-3c0.8-1.4,0.7-1.5,1.5-2.9s-0.5-2.2,0.3-3.6s0.3-1.7,1.1-3.1s1.9-0.8,2.7-2.2
	c0.8-1.4-0.4-2.1,0.4-3.5s1.8-0.9,2.6-2.3s0.3-1.7,1.1-3.2c0.8-1.4,1.3-1.2,2.1-2.6s0.2-1.8,1-3.2c0.8-1.4,1.9-0.8,2.7-2.2
	c0.8-1.4,1.7-0.9,2.5-2.4c0.8-1.4,0.9-1.4,1.7-2.8s-0.6-2.2,0.2-3.7c0.8-1.4,1.4-1.1,2.2-2.5s1.2-1.2,2-2.6s-1.2-2.5-0.4-4
	c0.8-1.4,3-0.2,3.8-1.6s-1.1-2.5-0.3-3.9s3-0.2,3.8-1.6s-1.6-2.8-0.8-4.2c0.8-1.4,1.1-1.2,1.9-2.7c0.8-1.4,2.1-0.7,2.9-2.1
	c0.8-1.4,1.5-1,2.3-2.5c0.8-1.4-0.5-2.1,0.3-3.6c0.8-1.4,2.1-0.7,2.9-2.1c0.8-1.4,0.4-1.6,1.2-3.1c0.8-1.4,0-1.9,0.8-3.3
	s-0.1-1.9,0.7-3.3s2-0.7,2.8-2.2c0.8-1.4,1.6-1,2.4-2.4c0.8-1.4-1.1-2.5-0.3-3.9s1.3-1.2,2.1-2.6c0.8-1.4,1.4-1.1,2.2-2.5
	s0-1.9,0.8-3.3s1.8-0.8,2.6-2.3c0.8-1.4,0.5-1.6,1.3-3s1.1-1.3,1.9-2.7c0.8-1.4-0.4-2.1,0.4-3.5s2.1-0.7,2.9-2.1
	c0.8-1.4-0.3-2,0.5-3.5c0.8-1.4,2-0.7,2.8-2.2c0.8-1.4,0.7-1.5,1.5-2.9s-1-2.4-0.2-3.9c0.8-1.4,1.6-1,2.4-2.4
	c0.8-1.4,1.3-1.1,2.1-2.6c0.8-1.4,0.4-1.6,1.2-3.1c0.8-1.4,1.9-0.8,2.7-2.2s1-1.3,1.8-2.7s-0.4-2.1,0.4-3.5s1.1-1.2,1.9-2.7
	c0.8-1.4,0.5-1.6,1.3-3s1.4-1.1,2.2-2.5s0.4-1.7,1.2-3.1c0.8-1.4,0-1.9,0.8-3.3s1.3-1.2,2.1-2.6c0.8-1.4-0.4-2.1,0.4-3.5
	s1.3-1.2,2.1-2.6c0.8-1.4,0.3-1.7,1.1-3.1c0.8-1.4,1.8-0.8,2.6-2.3c0.8-1.4,1.5-1,2.3-2.5c0.8-1.4,0.3-1.7,1.1-3.1
	c0.8-1.4,1.7-0.9,2.5-2.4c0.8-1.4-0.8-2.3,0-3.8c0.8-1.4,1.1-1.3,1.9-2.7s0.2-1.7,1-3.2c0.8-1.4,2.1-0.7,2.9-2.1l1.6-2.8
	c0.8-1.4-0.7-2.2,0.1-3.7c0.8-1.4,3.2-0.1,4-1.5s0.4-1.6,1.2-3.1c0.8-1.4,0.1-1.8,0.9-3.3c0.8-1.4-0.1-2,0.7-3.4
	c0.8-1.4,0.5-1.6,1.2-3.1c0.8-1.4,1.7-1,2.5-2.4s-0.2-2,0.6-3.4s3.2-0.1,4-1.5s0.6-1.6,1.4-3s-1.2-2.6-0.4-4
	c0.8-1.4,3.1-0.1,3.9-1.6c0.8-1.4-0.2-2,0.6-3.4s1.2-1.2,2-2.6s0.3-1.7,1.1-3.1c0.8-1.4,0.9-1.4,1.7-2.8c0.8-1.4,1.1-1.3,1.9-2.7
	c0.8-1.4-0.1-1.9,0.7-3.4c0.8-1.4,1.2-1.2,2-2.6s0.5-1.6,1.3-3s2.2-0.7,3-2.1s-1.3-2.6-0.5-4.1c0.8-1.4,2.7-0.4,3.5-1.8
	s-0.3-2.1,0.5-3.5s1.5-1,2.3-2.4s1.1-1.2,1.9-2.7c0.8-1.4-0.9-4.2,0.8-4.2c1.6,0,0.9,2.2,1.7,3.6c0.8,1.4,1.5,1,2.3,2.5
	c0.8,1.4-0.2,2,0.6,3.4s1.7,0.9,2.5,2.3s-0.3,2,0.5,3.5c0.8,1.4,1.4,1.1,2.2,2.5c0.8,1.4,1.9,0.8,2.7,2.3c0.8,1.4-0.3,2,0.5,3.4
	s0.3,1.7,1.1,3.1c0.8,1.4,1.1,1.3,1.9,2.7c0.8,1.4,1.8,0.9,2.6,2.3s0.7,1.5,1.5,2.9s0.2,1.7,1,3.2c0.8,1.4-0.6,2.2,0.2,3.6
	s2,0.8,2.8,2.2c0.8,1.4,1.6,1,2.4,2.4s-1.4,2.6-0.6,4.1c0.8,1.4,1.2,1.2,2,2.6s2.6,0.4,3.4,1.8s-1,2.4-0.2,3.9
	c0.8,1.4,2.6,0.4,3.4,1.8c0.8,1.4-0.1,1.9,0.7,3.3l1.6,2.8c0.8,1.4,1.9,0.8,2.7,2.2c0.8,1.4-0.4,2.1,0.4,3.5s0.9,1.4,1.7,2.8
	l1.6,2.8c0.8,1.4,1.6,1,2.4,2.4s-0.4,2.1,0.4,3.5s2.3,0.6,3.1,2c0.8,1.4,0.2,1.8,1,3.2s-0.2,2,0.6,3.4s2,0.8,2.8,2.2s0.5,1.6,1.3,3
	s-0.2,2,0.6,3.4s0.5,1.6,1.3,3s0.8,1.4,1.6,2.9c0.8,1.4,1.8,0.9,2.6,2.3s-0.1,1.9,0.7,3.3c0.8,1.4,2.5,0.5,3.3,1.9s0.1,1.8,0.9,3.2
	l1.6,2.8l1.6,2.8c0.8,1.4,1.2,1.2,2,2.6c0.8,1.4-0.8,2.3,0,3.7s1,1.3,1.8,2.7s1.5,1.1,2.3,2.5s1.5,1,2.3,2.4s0,1.9,0.8,3.3
	s0.9,1.4,1.7,2.8c0.8,1.4,0.3,1.7,1.1,3.1c0.8,1.4,0.2,1.7,1,3.2c0.8,1.4,2.3,0.6,3.1,2c0.8,1.4,1.4,1.1,2.2,2.5
	c0.8,1.4-1.4,2.7-0.6,4.1c0.8,1.4,1.8,0.9,2.6,2.3s-0.5,2.1,0.3,3.6c0.8,1.4,1.7,0.9,2.5,2.3s1.6,1,2.4,2.4l1.6,2.8
	c0.8,1.4,1.1,1.3,1.9,2.7s-0.6,2.2,0.2,3.6s1.9,0.8,2.7,2.2c0.8,1.4-0.1,1.9,0.7,3.3c0.8,1.4,1.9,0.8,2.7,2.2
	c0.8,1.4-0.7,2.2,0.1,3.7c0.8,1.4,1.3,1.2,2.1,2.6c0.8,1.4,1.2,1.2,2,2.7c0.8,1.4,1.4,1.1,2.2,2.5c0.8,1.4,1.2,1.2,2,2.6
	s0.9,1.4,1.7,2.8l1.6,2.8c0.8,1.4-1.4,2.7-0.6,4.1s1.6,1,2.4,2.4s1,1.3,1.8,2.8c0.8,1.4-0.5,2.1,0.3,3.6c0.8,1.4,0.9,1.4,1.7,2.8
	c0.8,1.4,0.8,1.4,1.6,2.9c0.8,1.4,1.5,1,2.3,2.5c0.8,1.4,1.1,1.2,1.9,2.7c0.8,1.4,1.1,1.3,1.9,2.7c0.8,1.4,0,1.9,0.8,3.3
	s1.9,0.8,2.7,2.2l1.6,2.8c0.8,1.4,1.4,1.1,2.2,2.5c0.8,1.4,0,1.9,0.8,3.3s1.2,1.2,2,2.6s0.3,1.7,1.1,3.1c0.8,1.4,0.1,1.8,0.9,3.3
	c0.8,1.4,2.5,0.5,3.3,1.9l1.6,2.8l1.6,2.8c0.8,1.4-0.2,2,0.6,3.4s1.8,0.9,2.6,2.3s0.3,1.7,1.1,3.1c0.8,1.4-0.2,2,0.6,3.4
	s0,1.9,0.8,3.3s2.4,0.5,3.2,2c0.8,1.4,0,1.9,0.8,3.3s0.6,1.6,1.4,3s2.5,0.5,3.3,1.9s-0.5,2.2,0.3,3.6s1,1.3,1.8,2.8
	c0.8,1.4,1.5,1,2.3,2.5c0.8,1.4-0.7,2.3,0.1,3.7c0.8,1.4,1,1.3,1.8,2.7c0.8,1.4,0.9,1.4,1.7,2.8c0.8,1.4,0.9,1.4,1.7,2.8
	c0.8,1.4,0.5,1.6,1.3,3s1.2,1.2,2,2.6s2.4,0.5,3.2,2c0.8,1.4-1.4,2.7-0.6,4.1s1.1,1.3,1.9,2.7c0.8,1.4,2.7,0.4,3.5,1.8
	s-1.7,2.8-0.9,4.2c0.8,1.4,1.5,1,2.3,2.5c0.8,1.4,0.3,1.7,1.1,3.1c0.8,1.4,0.6,1.6,1.4,3s2.6,0.4,3.4,1.9c0.8,1.4,0.1,1.8,0.9,3.3
	c0.8,1.4,1.5,1.1,2.3,2.5s0.6,1.6,1.4,3s0.1,1.8,0.9,3.2s0.3,1.7,1.1,3.1c0.8,1.4,0.8,1.5,1.6,2.9s3.1,0.7,2.2,2.1
	c-0.8,1.4-1.3,0.5-2.9,0.5s-1.6,0.7-3.3,0.7c-1.6,0-1.6-0.8-3.3-0.8c-1.6,0-1.6-0.4-3.3-0.4c-1.6,0-1.6-0.2-3.3-0.2
	c-1.6,0-1.6-0.2-3.3-0.2s-1.6-0.1-3.3-0.1c-1.6,0-1.6,0.9-3.3,0.9c-1.6,0-1.6-1.1-3.3-1.1c-1.6,0-1.6-0.5-3.3-0.5
	c-1.6,0-1.6,1.1-3.3,1.1s-1.6,1-3.3,1c-1.6,0-1.6-0.7-3.3-0.7c-1.6,0-1.6-0.9-3.3-0.9c-1.6,0-1.6,1.7-3.3,1.7
	c-1.6,0-1.6-1.8-3.3-1.8c-1.6,0-1.6-0.6-3.3-0.6c-1.6,0-1.6,1.5-3.3,1.5s-1.6-0.4-3.3-0.4c-1.6,0-1.6-1.3-3.3-1.3s-1.6,1.9-3.3,1.9
	c-1.6,0-1.6-0.9-3.3-0.9c-1.6,0-1.6-1-3.3-1c-1.6,0-1.6,2.2-3.3,2.2c-1.6,0-1.6-0.3-3.3-0.3c-1.6,0-1.6,0.2-3.3,0.2
	s-1.6-1.2-3.3-1.2c-1.6,0-1.6,0.3-3.3,0.3s-1.6,1.6-3.3,1.6c-1.6,0-1.6-0.6-3.3-0.6c-1.6,0-1.6-1.6-3.3-1.6s-1.6,2.4-3.3,2.4
	c-1.6,0-1.6-1.7-3.3-1.7c-1.6,0-1.6,0.3-3.3,0.3c-1.6,0-1.6,1-3.3,1c-1.6,0-1.6-1.1-3.3-1.1c-1.6,0-1.6-0.1-3.3-0.1
	c-1.6,0-1.6-0.6-3.3-0.6c-1.6,0-1.6,0.9-3.3,0.9c-1.6,0-1.6,1-3.3,1c-1.6,0-1.6,0.3-3.3,0.3c-1.6,0-1.6-2.7-3.3-2.7
	c-1.6,0-1.6,0.2-3.3,0.2c-1.6,0-1.6-0.3-3.3-0.3c-1.6,0-1.6,1.4-3.3,1.4c-1.6,0-1.6,0.9-3.3,0.9c-1.6,0-1.6,0.1-3.3,0.1
	c-1.6,0-1.6-1.6-3.3-1.6c-1.6,0-1.6-0.7-3.3-0.7c-1.6,0-1.6,0.7-3.3,0.7c-1.6,0-1.6-0.3-3.3-0.3c-1.6,0-1.6,1.7-3.3,1.7
	s-1.6-1.5-3.3-1.5c-1.6,0-1.6,1-3.3,1c-1.6,0-1.6-1.1-3.3-1.1s-1.6-0.5-3.3-0.5c-1.6,0-1.6,0.7-3.3,0.7c-1.6,0-1.6,1.6-3.3,1.6
	s-1.6-1.2-3.3-1.2s-1.6-0.1-3.3-0.1c-1.6,0-1.6-0.7-3.3-0.7s-1.6,0.6-3.3,0.6s-1.6-0.9-3.3-0.9s-1.6,2.2-3.3,2.2
	c-1.6,0-1.6-1.7-3.3-1.7c-1.6,0-1.6,2.1-3.3,2.1c-1.6,0-1.6-0.8-3.3-0.8c-1.6,0-1.6,0.4-3.3,0.4s-1.6-2.1-3.3-2.1
	c-1.6,0-1.6-0.1-3.3-0.1c-1.6,0-1.6,0.5-3.3,0.5s-1.6,0.4-3.3,0.4c-1.6,0-1.6,0.2-3.3,0.2c-1.6,0-1.6,0.7-3.3,0.7
	c-1.6,0-1.6,0.4-3.3,0.4c-1.6,0-1.6-1.5-3.3-1.5c-1.6,0-1.6,2.2-3.3,2.2c-1.6,0-1.6-1.4-3.3-1.4c-1.6,0-1.6-1.3-3.3-1.3
	c-1.6,0-1.6,2.7-3.3,2.7c-1.6,0-1.6-0.9-3.3-0.9c-1.6,0-1.6,0.8-3.3,0.8c-1.6,0-1.6,0.1-3.3,0.1c-1.6,0-1.6-0.4-3.3-0.4
	c-1.6,0-1.6-2.1-3.3-2.1c-1.6,0-1.6,0.4-3.3,0.4c-1.6,0-1.6-0.4-3.3-0.4s-1.6,2.2-3.3,2.2c-1.6,0-1.6-1.3-3.3-1.3
	c-1.6,0-1.6-0.6-3.3-0.6c-1.6,0-1.6,1.4-3.3,1.4c-1.6,0-1.6,0.6-3.3,0.6c-1.6,0-1.6-2.2-3.3-2.2c-1.6,0-1.6,0.4-3.3,0.4
	c-1.6,0-1.6-0.8-3.3-0.8c-1.6,0-1.6,1.7-3.3,1.7c-1.6,0-1.6-0.8-3.3-0.8c-1.6,0-1.6,1.1-3.3,1.1c-1.6,0-1.6-1.7-3.3-1.7
	c-1.6,0-1.6,1.5-3.3,1.5c-1.6,0-1.6-0.5-3.3-0.5c-1.6,0-1.6-0.7-3.3-0.7c-1.6,0-1.6,1.2-3.3,1.2c-1.6,0-1.6,0.8-3.3,0.8
	s-1.6-1.2-3.3-1.2c-1.6,0-1.6,0.8-3.3,0.8c-1.6,0-1.6-1.6-3.3-1.6c-1.6,0-1.6-0.8-3.3-0.8c-1.6,0-1.6,1.5-3.3,1.5
	c-1.6,0-1.6-0.1-3.3-0.1c-1.6,0-1.6-0.3-3.3-0.3c-1.6,0-1.6,0.6-3.3,0.6c-1.6,0-1.6,0.8-3.3,0.8c-1.6,0-1.6-1.8-3.3-1.8
	c-1.6,0-1.6,1.7-3.3,1.7s-1.6-1.3-3.3-1.3c-1.6,0-1.6,0.3-3.3,0.3c-1.6,0-1.6-0.6-3.3-0.6c-1.6,0-1.6-0.3-3.3-0.3
	c-1.6,0-1.6-0.2-3.3-0.2c-1.6,0-1.6,0.5-3.3,0.5c-1.6,0-1.6,0.8-3.2,1.2C109.9,433.8,109.2,434.2,108.4,432.8L108.4,432.8z
	 M281.7,413.2c-0.8-1.4-0.1-2.4,0.7-3.8c0.8-1.4,1.5-1,2.3-2.5c0.8-1.4,0.1-1.8,0.9-3.3c0.8-1.4,2.4-0.5,3.2-2
	c0.8-1.4,0.7-1.5,1.5-2.9s-0.5-2.2,0.3-3.6s1.4-1.1,2.2-2.5c0.8-1.4,1.5-1,2.3-2.4s1.9-0.8,2.7-2.3c0.8-1.4-0.5-2.1,0.3-3.6
	c0.8-1.4,0.3-1.7,1.1-3.1c0.8-1.4,1.5-1,2.3-2.4s0.4-1.7,1.2-3.1c0.8-1.4,0.7-1.5,1.5-2.9s1.5-1,2.3-2.5c0.8-1.4-0.4-2.1,0.4-3.5
	s2.8-0.3,3.6-1.7c0.8-1.4,0.9-1.4,1.7-2.8c0.8-1.4-0.4-2.1,0.4-3.5s1.3-1.1,2.1-2.6c0.8-1.4-0.1-1.9,0.7-3.4c0.8-1.4,1.2-1.2,2-2.6
	s0.3-1.7,1.1-3.1c0.8-1.4,0.3-1.7,1.1-3.1c0.8-1.4,0.7-1.5,1.5-2.9s0.9-1.4,1.7-2.8c0.8-1.4,2.7-0.4,3.5-1.8s0.7-1.5,1.5-2.9
	s-1.2-2.5-0.4-4c0.8-1.4,2.5-0.5,3.3-1.9s0.8-1.4,1.6-2.9c0.8-1.4,0.2-1.8,1-3.2c0.8-1.4,1.1-1.2,1.9-2.7c0.8-1.4,0.9-1.4,1.7-2.8
	c0.8-1.4,1.6-1,2.4-2.4s-0.1-2,0.7-3.4c0.8-1.4-0.1-1.9,0.7-3.4c0.8-1.4,1.9-0.8,2.7-2.2c0.8-1.4,0.1-1.8,0.8-3.3
	c0.8-1.4,0.3-1.7,1.1-3.1c0.8-1.4,0.3-1.7,1.1-3.1c0.8-1.4,0.9-1.4,1.7-2.8c0.8-1.4,2.6-0.4,3.4-1.8s1.3-1.1,2.1-2.6
	c0.8-1.4,0-1.9,0.8-3.3s-0.1-2,0.7-3.4l1.6-2.8c0.8-1.4,0.3-1.7,1.1-3.1l1.6-2.8c0.8-1.4,1.4-1.1,2.2-2.5c0.8-1.4,1.6-1,2.4-2.4
	s1.3-1.1,2.1-2.5s-0.8-2.3,0-3.8c0.8-1.4,2-0.8,2.8-2.2c0.8-1.4,0.5-1.6,1.3-3s1.1-1.2,1.9-2.7c0.8-1.4-0.3-2,0.5-3.4
	s1.7-0.9,2.5-2.4c0.8-1.4-0.2-2,0.6-3.4s1.4-1.1,2.2-2.5c0.8-1.4-0.4-2.1,0.4-3.5s1.9-0.8,2.6-2.3c0.8-1.4,0.3-1.7,1.1-3.1
	s1.4-1.1,2.2-2.5c0.8-1.4,2-0.7,2.8-2.2c0.8-1.4-1.7-2.8-0.9-4.2c0.8-1.4,3.3,0,4.1-1.5c0.8-1.4-0.1-1.9,0.7-3.4
	c0.8-1.4,1.4-1.1,2.2-2.5c0.8-1.4-0.5-2.1,0.3-3.6c0.8-1.4,2.1-0.7,2.9-2.1c0.8-1.4,0.2-1.7,1-3.2c0.8-1.4,0.7-1.5,1.5-2.9
	s-0.5-2.1,0.3-3.6c0.8-1.4,2.4-0.6,3.2-2c0.8-1.4,0.7-1.5,1.5-2.9s1.6-1,2.4-2.4s-0.1-2,0.7-3.4c0.8-1.4-0.8-2.3,0-3.7
	s1.1-1.3,1.9-2.7s0.6-1.5,1.4-3c0.8-1.4,2.9-0.3,3.7-1.7c0.8-1.4-0.9-2.4-0.1-3.8s2.5-0.4,3.3-1.9c0.8-1.4,0.7-1.5,1.5-2.9
	s-0.7-2.2,0.1-3.7c0.8-1.4,2.1-0.7,2.9-2.1c0.8-1.4-0.8-2.3,0-3.7s1.3-1.2,2.1-2.6c0.8-1.4,1.5-1.1,2.3-2.5s0.2-1.8,1-3.2
	s2.2-0.6,3-2.1c0.8-1.4-1.3-2.6-0.5-4s3-0.2,3.8-1.6c0.8-1.4,0.2-1.8,1-3.2s1.4-1.1,2.2-2.5c0.8-1.4-0.2-2,0.6-3.4s1.2-1.2,2-2.6
	c0.8-1.4,0-1.9,0.8-3.3s2-0.7,2.8-2.2c0.8-1.4-0.9-2.4-0.1-3.8s0.9-1.4,1.7-2.8c0.8-1.4,0.9-1.4,1.7-2.8c0.8-1.4,2.5-0.5,3.3-1.9
	s-0.3-2.1,0.5-3.5s0.6-1.5,1.4-3c0.8-1.4-0.4-2.1,0.4-3.5s3-0.2,3.8-1.6s-0.1-1.9,0.7-3.4c0.8-1.4,0.4-1.6,1.2-3.1
	c0.8-1.4,1.9-0.8,2.7-2.3c0.8-1.4,0.3-1.7,1.1-3.2c0.8-1.4,0.9-1.4,1.7-2.8c0.8-1.4,0.3-1.7,1.1-3.2c0.8-1.4,0.4-1.7,1.2-3.1
	c0.8-1.4,1.4-1.1,2.2-2.5c0.8-1.4-0.2-2,0.6-3.4s2.7-0.4,3.5-1.8s1-1.3,1.8-2.7c0.8-1.4,0.5-1.6,1.3-3l1.6-2.8
	c0.8-1.4,1-1.3,1.8-2.8c0.8-1.4-1-2.4-0.2-3.8s0.7-1.5,1.5-2.9s2.8-0.3,3.6-1.7c0.8-1.4-1.2-4.6,0.5-4.6c1.6,0-0.5,3.2,0.3,4.7
	c0.8,1.4,1.1,1.2,1.9,2.7c0.8,1.4,1.9,0.8,2.7,2.3c0.8,1.4,1.5,1.1,2.3,2.5c0.8,1.4-1.1,2.5-0.3,3.9s1.8,0.9,2.6,2.3
	s1.1,1.3,1.9,2.7c0.8,1.4,1.1,1.3,1.9,2.7c0.8,1.4,1.2,1.2,2,2.7c0.8,1.4-0.5,2.1,0.3,3.6c0.8,1.4,2.2,0.7,3,2.1s-1.4,2.7-0.6,4.1
	s1.4,1.1,2.2,2.5c0.8,1.4,1.5,1,2.3,2.4s1.2,1.2,2,2.6s1.3,1.1,2.1,2.6c0.8,1.4,0.5,1.6,1.3,3c0.8,1.4,1.2,1.2,2,2.6
	s0.9,1.4,1.7,2.8s0.9,1.4,1.7,2.8s-1.7,2.8-0.9,4.3c0.8,1.4,2.8,0.3,3.6,1.8c0.8,1.4-1.2,2.5-0.4,4c0.8,1.4,2.2,0.7,3,2.1
	s0,1.9,0.8,3.3s2.1,0.7,2.9,2.1c0.8,1.4-0.5,2.1,0.3,3.6c0.8,1.4,1.8,0.9,2.6,2.3s-0.6,2.2,0.2,3.7c0.8,1.4,2.9,0.2,3.7,1.7
	c0.8,1.4-1.5,2.7-0.7,4.1c0.8,1.4,2.6,0.4,3.4,1.8c0.8,1.4,0.2,1.8,1,3.2s0.9,1.4,1.7,2.8c0.8,1.4,1.8,0.9,2.6,2.3s-1.4,2.7-0.7,4.1
	c0.8,1.4,2.6,0.4,3.4,1.8c0.8,1.4,0.2,1.7,1,3.2c0.8,1.4,1.4,1.1,2.2,2.5s-0.5,2.2,0.3,3.6s1.7,0.9,2.5,2.4l1.6,2.8
	c0.8,1.4,1.7,0.9,2.5,2.3s-0.4,2.1,0.4,3.5s1.8,0.8,2.6,2.3c0.8,1.4,0.5,1.6,1.3,3s0.5,1.6,1.3,3s1.7,0.9,2.5,2.3s-1.2,2.5-0.4,4
	c0.8,1.4,1.2,1.2,2,2.6c0.8,1.4,2.3,0.6,3.1,2s-1,2.4-0.2,3.9c0.8,1.4,0.5,1.6,1.3,3s1.8,0.8,2.6,2.3c0.8,1.4,1,1.3,1.8,2.7
	s-0.5,2.2,0.3,3.6s1.1,1.3,1.8,2.7c0.8,1.4,1.6,1,2.4,2.4c0.8,1.4,0.5,1.6,1.3,3s2.1,0.7,2.9,2.1c0.8,1.4-1.3,2.6-0.5,4
	s2,0.8,2.8,2.2s-0.2,2,0.6,3.4s1.9,0.8,2.7,2.3c0.8,1.4,0.3,1.7,1.1,3.1c0.8,1.4,0.9,1.3,1.7,2.8c0.8,1.4,0.7,1.5,1.5,2.9
	s0.4,1.7,1.2,3.1c0.8,1.4,1.2,1.2,2,2.6c0.8,1.4,0.9,1.4,1.7,2.8c0.8,1.4,0.6,1.6,1.4,3c0.8,1.4,0.6,1.5,1.4,2.9
	c0.8,1.4,0.1,1.8,0.9,3.2c0.8,1.4,2.2,0.6,3,2s0.3,1.7,1.1,3.1s1.9,0.8,2.7,2.3c0.8,1.4-0.4,2.1,0.4,3.5s0.3,1.7,1.1,3.2
	c0.8,1.4,1.3,1.1,2.1,2.6c0.8,1.4,0.4,1.7,1.2,3.1s1.7,0.9,2.5,2.3s0.7,1.5,1.5,2.9s-0.1,1.9,0.7,3.4c0.8,1.4,1,1.3,1.8,2.7
	c0.8,1.4,1.6,1,2.4,2.4c0.8,1.4,1.2,1.2,2,2.6s1.6,1,2.4,2.4c0.8,1.4,0.1,1.8,0.9,3.2c0.8,1.4-1.1,2.5-0.3,3.9s1.7,0.9,2.5,2.3
	s1.8,0.8,2.6,2.3c0.8,1.4,1.4,1.1,2.2,2.5s-0.9,2.4-0.1,3.8s0.7,1.5,1.5,2.9s0.4,1.7,1.2,3.1s2.9,0.2,3.7,1.7c0.8,1.4,0.5,1.6,1.3,3
	s-1.3,2.6-0.5,4s2.9,0.3,3.7,1.7c0.8,1.4,0.9,1.4,1.7,2.8s1,1.3,1.8,2.7c0.8,1.4,0.1,1.8,0.9,3.2c0.8,1.4,0.7,1.5,1.5,2.9
	s0.1,1.8,0.9,3.3c0.8,1.4,2,0.8,2.8,2.2c0.8,1.4,1.3,1.2,2.1,2.6s0,1.8,0.8,3.3c0.8,1.4,1.6,1,2.4,2.4c0.8,1.4-1.6,2.8-0.8,4.2
	c0.8,1.4,1.5,1,2.3,2.5c0.8,1.4,2.3,0.6,3.1,2s-1.2,2.5-0.4,4c0.8,1.4,2.8,0.3,3.6,1.7c0.8,1.4,0.1,1.8,0.9,3.2
	c0.8,1.4,1.6,1,2.4,2.4c0.8,1.4,0.1,1.8,0.9,3.3c0.8,1.4-0.2,2,0.6,3.4s0.3,1.7,1.1,3.1s1.1,1.3,1.9,2.7c0.8,1.4,1.4,1.1,2.2,2.5
	s1.4,1.1,2.2,2.5s0.5,1.6,1.3,3s1.6,1,2.4,2.4c0.8,1.4,0.2,1.8,1,3.2c0.8,1.4,1.7,0.9,2.5,2.4s1.9,2.5,1.1,3.9
	c-0.8,1.4-2.3-0.4-3.9-0.4s-1.6,0.6-3.3,0.6c-1.6,0-1.6-1.6-3.3-1.6s-1.6,2.3-3.3,2.3c-1.6,0-1.6-2.3-3.3-2.3
	c-1.6,0-1.6,2.4-3.3,2.4c-1.6,0-1.6-0.5-3.3-0.5c-1.6,0-1.6-0.2-3.3-0.2c-1.6,0-1.6,0.1-3.3,0.1c-1.6,0-1.6-1.6-3.3-1.6
	s-1.6,1.1-3.3,1.1c-1.6,0-1.6,0.9-3.3,0.9c-1.6,0-1.6-1-3.3-1s-1.6,0.4-3.3,0.4c-1.6,0-1.6-2-3.3-2c-1.6,0-1.6,2.7-3.3,2.7
	c-1.6,0-1.6-1.7-3.3-1.7c-1.6,0-1.6,1.6-3.3,1.6c-1.6,0-1.6-0.4-3.3-0.4h-3.3c-1.6,0-1.6-1.9-3.3-1.9h-3.3c-1.6,0-1.6,0.4-3.3,0.4
	s-1.6,1.8-3.3,1.8c-1.6,0-1.6-1.2-3.3-1.2c-1.6,0-1.6,0.7-3.3,0.7s-1.6-0.5-3.3-0.5c-1.6,0-1.6-1.3-3.3-1.3c-1.6,0-1.6,2.1-3.3,2.1
	s-1.6-0.8-3.3-0.8s-1.6,1.2-3.3,1.2c-1.6,0-1.6-0.8-3.3-0.8c-1.6,0-1.6,0.3-3.3,0.3c-1.6,0-1.6-2.2-3.3-2.2c-1.6,0-1.6,2.7-3.3,2.7
	c-1.6,0-1.6-1.6-3.3-1.6c-1.6,0-1.6,1.9-3.3,1.9c-1.6,0-1.6-1.1-3.3-1.1c-1.6,0-1.6-1.1-3.3-1.1c-1.6,0-1.6-0.1-3.3-0.1
	c-1.6,0-1.6,2.1-3.3,2.1c-1.6,0-1.6-2.4-3.3-2.4c-1.6,0-1.6,1-3.3,1c-1.6,0-1.6-0.7-3.3-0.7c-1.6,0-1.6,0.7-3.3,0.7
	c-1.6,0-1.6,0.6-3.3,0.6c-1.6,0-1.6-1.6-3.3-1.6c-1.6,0-1.6,2-3.3,2h-3.3c-1.6,0-1.6,0.2-3.3,0.2c-1.6,0-1.6-0.2-3.3-0.2
	c-1.6,0-1.6-0.9-3.3-0.9c-1.6,0-1.6-1.1-3.3-1.1c-1.6,0-1.6,0.3-3.3,0.3c-1.6,0-1.6-0.1-3.3-0.1c-1.6,0-1.6,0.2-3.3,0.2
	c-1.6,0-1.6-0.6-3.3-0.6s-1.6,1.5-3.3,1.5c-1.6,0-1.6-0.4-3.3-0.4c-1.6,0-1.6,1.1-3.3,1.1c-1.6,0-1.6-1.4-3.3-1.4
	c-1.6,0-1.6,0.3-3.3,0.3c-1.6,0-1.6-1.2-3.3-1.2c-1.6,0-1.6,2.8-3.3,2.8c-1.6,0-1.6-1-3.3-1c-1.6,0-1.6-0.1-3.3-0.1
	c-1.6,0-1.6-1.8-3.3-1.8c-1.6,0-1.6,1.3-3.3,1.3c-1.6,0-1.6,0.5-3.3,0.5c-1.6,0-1.6,1.1-3.3,1.1c-1.6,0-1.6-1.3-3.3-1.3
	c-1.6,0-1.6-1.2-3.3-1.2c-1.6,0-1.6,1.2-3.3,1.2c-1.6,0-1.6,0.7-3.3,0.7c-1.6,0-1.6,0.2-3.3,0.2c-1.6,0-1.6-0.8-3.3-0.8
	c-1.6,0-1.6-0.6-3.3-0.6c-1.6,0-1.6,0.6-3.3,0.6s-1.6-1.4-3.3-1.4c-1.6,0-1.6-0.2-3.3-0.2c-1.6,0-1.6,1.3-3.3,1.3
	c-1.6,0-1.6-1.2-3.3-1.2c-1.6,0-1.6,0.5-3.3,0.5c-1.6,0-1.6,0.1-3.3,0.1c-1.6,0-1.6,2.1-3.3,2.1c-1.6,0-1.6-1.6-3.3-1.6
	c-1.6,0-1.6,0.5-3.3,0.5c-1.6,0-1.6,0.6-3.3,0.6c-1.6,0-1.6-1.4-3.3-1.4s-1.6,0.1-3.3,0.1c-1.6,0-1.6-0.2-3.3-0.2
	c-1.6,0-1.6,2-3.3,2c-1.6,0-1.6-1-3.3-1c-1.6,0-1.6,0.7-3.3,0.7h-3.3c-1.6,0-1.6-0.2-3.3-0.2c-1.6,0-1.6-0.1-3.3-0.1
	s-1.6-0.6-3.3-0.6c-1.6,0-1.6,0.3-3.3,0.3c-1.6,0-1.6,0.2-3.3,0.2c-1.6,0-1.6-0.3-3.3-0.3s-1.6,0.4-3.3,0.4c-1.6,0-1.6-1.4-3.3-1.4
	s-1.6,0.1-3.3,0.1c-1.6,0-1.6,1.1-3.3,1.1c-1.6,0-1.6-1.8-3.3-1.8c-1.6,0-1.6,0.3-3.3,0.3c-1.6,0-1.6,2.3-3.3,2.3
	c-1.6,0-1.6-1-3.3-1c-1.6,0-1.6,0.6-3.3,0.6c-1.6,0-1.6-1.7-3.3-1.7c-1.6,0-1.6,1.3-3.3,1.3c-1.6,0-1.6-0.7-3.3-0.7
	c-1.6,0-1.6,0.5-3.3,0.5c-1.6,0-1.6-1.3-3.3-1.3c-1.6,0-1.6,2.1-3.3,2.1c-1.6,0-1.6,0.2-3.3,0.2c-1.6,0-1.6-2.8-3.3-2.8
	c-1.6,0-1.6,2-3.3,2s-1.6,0.9-3.3,0.9c-1.6,0-1.6-1.4-3.3-1.4c-1.6,0-1.4,0.5-3,0.9C283.7,414.5,282.6,414.6,281.7,413.2
	L281.7,413.2z M377.5,447.7c-0.8-1.4-0.2-1.5,0.6-2.9s2.4-0.5,3.2-1.9c0.8-1.4-0.3-2,0.5-3.4s0.1-1.8,0.9-3.2
	c0.8-1.4,1.1-1.3,1.9-2.7c0.8-1.4,1.2-1.2,2-2.6s1.8-0.8,2.6-2.3c0.8-1.4-0.5-2.2,0.3-3.6s2.1-0.7,2.9-2.1s-0.2-2,0.6-3.4
	s-0.5-2.1,0.3-3.6c0.8-1.4,2.6-0.4,3.4-1.8s0.9-1.4,1.7-2.8c0.8-1.4-0.1-1.9,0.7-3.3c0.8-1.4,1.9-0.8,2.7-2.2c0.8-1.4-0.2-2,0.6-3.4
	s2-0.7,2.8-2.2c0.8-1.4,0.4-1.6,1.2-3.1c0.8-1.4-0.9-2.4-0.1-3.8l1.6-2.8c0,0,1.4-1.1,2.2-2.5c0.8-1.4,1.7-0.9,2.5-2.4
	c0.8-1.4,1.4-1.1,2.2-2.5c0.8-1.4-0.5-2.2,0.3-3.6s1.9-0.8,2.7-2.2c0.8-1.4,1-1.3,1.8-2.8c0.8-1.4-0.8-2.3,0-3.7
	c0.8-1.4,0.8-1.4,1.6-2.9c0.8-1.4,1.5-1,2.3-2.5c0.8-1.4-0.7-2.3,0.1-3.7c0.8-1.4,2.3-0.6,3.1-2c0.8-1.4-0.2-2,0.6-3.4
	s0.9-1.4,1.7-2.8c0.8-1.4,2.4-0.6,3.2-2l1.6-2.8l1.6-2.8c0.8-1.4,0.9-1.3,1.7-2.8c0.8-1.4-0.4-2.1,0.4-3.5s0.6-1.5,1.4-3
	c0.8-1.4,1.1-1.3,1.9-2.7c0.8-1.4,1.9-0.8,2.7-2.3c0.8-1.4,1-1.3,1.8-2.8c0.8-1.4-0.6-2.2,0.2-3.6s0.4-1.7,1.1-3.1
	c0.8-1.4,0.1-1.8,0.9-3.2c0.8-1.4,2.4-0.5,3.2-2c0.8-1.4-0.7-2.2,0.1-3.7c0.8-1.4,1.6-1,2.4-2.4s1.6-1,2.4-2.4s-0.6-2.2,0.2-3.6
	s1.6-1,2.4-2.4s1.7-0.9,2.5-2.3s1.1-1.2,1.9-2.7c0.8-1.4-1.5-2.7-0.7-4.2c0.8-1.4,2.6-0.4,3.4-1.9c0.8-1.4,0.2-1.8,1-3.2
	c0.8-1.4,0.4-1.6,1.2-3.1c0.8-1.4,0.4-1.6,1.2-3.1c0.8-1.4,1-1.3,1.8-2.7c0.8-1.4,0.5-1.6,1.3-3s2.8-0.3,3.6-1.8
	c0.8-1.4-1.4-2.6-0.6-4.1c0.8-1.4,2.3-0.6,3.1-2c0.8-1.4,0-1.9,0.8-3.3s0.3-1.7,1.1-3.1s2-0.7,2.8-2.2c0.8-1.4,0.2-1.8,1-3.2
	c0.8-1.4,0.6-1.5,1.4-3c0.8-1.4,1.4-1.1,2.2-2.5c0.8-1.4,0.3-1.7,1.1-3.1c0.8-1.4,0.9-1.4,1.7-2.8c0.8-1.4,1.2-1.2,2-2.6
	c0.8-1.4,1.2-1.2,2-2.6c0.8-1.4-0.9-2.4-0.1-3.8s2.1-0.7,2.9-2.1c0.8-1.4,1.7-0.9,2.5-2.4c0.8-1.4-1.3-2.6-0.5-4s3.1-0.1,3.9-1.6
	c0.8-1.4-1.5-2.7-0.7-4.1c0.8-1.4,1.7-0.9,2.5-2.4c0.8-1.4,1.7-0.9,2.5-2.4c0.8-1.4-0.5-2.2,0.3-3.6s1-1.3,1.8-2.8
	c0.8-1.4,1.4-1.1,2.2-2.5c0.8-1.4,0.5-1.6,1.3-3s2-0.8,2.8-2.2s-0.7-2.2,0.1-3.7c0.8-1.4,0.3-1.7,1.1-3.1c0.8-1.4,0.9-1.3,1.7-2.8
	c0.8-1.4,2.2-0.7,3-2.1c0.8-1.4-0.5-2.1,0.3-3.6c0.8-1.4,1.3-1.1,2.1-2.6c0.8-1.4,0.7-1.5,1.5-2.9s0.1-1.8,0.9-3.3
	c0.8-1.4,1.8-0.9,2.6-2.3s0.4-1.6,1.2-3.1c0.8-1.4,1.7-0.9,2.5-2.4c0.8-1.4,0.3-1.7,1.1-3.2c0.8-1.4-0.1-1.9,0.7-3.4l1.6-2.8
	c0.8-1.4,0.8-1.4,1.6-2.9c0.8-1.4,1.8-0.9,2.6-2.3s-0.2-2,0.6-3.4s2.4-0.5,3.2-2c0.8-1.4,1.6-1,2.4-2.4c0.8-1.4-1.7-2.8-0.9-4.2
	s2.9-0.3,3.7-1.7s0.8-1.4,1.6-2.9c0.8-1.4-0.6-2.2,0.2-3.6s2.1-0.7,2.9-2.1c0.8-1.4,1.4-1.1,2.2-2.5s-0.6-2.2,0.2-3.6
	s1.8-0.9,2.6-2.3s-0.4-2.1,0.4-3.5s1.2-1.2,2-2.6s0-1.9,0.8-3.3s1.3-1.1,2.1-2.6c0.8-1.4,0.5-1.6,1.3-3s1.3-1.2,2.1-2.6
	s1.3-1.1,2.1-2.6c0.8-1.4,0.7-1.5,1.5-2.9s0.1-1.8,0.9-3.3c0.8-1.4,2.4-0.5,3.2-2c0.8-1.4-1.3-2.6-0.5-4.1c0.8-1.4,1.4-1.1,2.2-2.5
	s0.2-2.5,1.8-2.5s1.6,0.7,2.4,2.1c0.8,1.4-0.3,2,0.5,3.5c0.8,1.4,1.6,1,2.4,2.4c0.8,1.4,0,1.9,0.8,3.3s0.7,1.5,1.5,2.9
	s1.2,1.2,1.9,2.7c0.8,1.4-0.3,2,0.5,3.5c0.8,1.4,1.2,1.2,2,2.6s0.5,1.6,1.3,3s1.8,0.8,2.6,2.3c0.8,1.4,0.5,1.6,1.3,3s1,1.3,1.8,2.8
	c0.8,1.4,0.4,1.6,1.2,3.1c0.8,1.4,1.6,0.9,2.4,2.4c0.8,1.4,0.1,1.8,0.9,3.2c0.8,1.4,2,0.8,2.8,2.2s0.5,1.6,1.3,3s-0.8,2.3,0,3.7
	s1.4,1.1,2.2,2.5s2.3,0.6,3.1,2s-1.4,2.7-0.6,4.1c0.8,1.4,1.1,1.2,1.9,2.7c0.8,1.4,2.4,0.6,3.2,2s0.5,1.6,1.3,3s0.2,1.7,1,3.2
	c0.8,1.4,1.8,0.9,2.6,2.3s0.5,1.6,1.3,3s0.1,1.8,0.9,3.2c0.8,1.4,0.7,1.5,1.5,2.9s0,1.9,0.8,3.3s1.8,0.8,2.6,2.3
	c0.8,1.4,1.7,0.9,2.5,2.4c0.8,1.4-0.3,2,0.5,3.5c0.8,1.4,1.1,1.2,1.9,2.7c0.8,1.4,1.8,0.9,2.6,2.3s-1.2,2.5-0.4,4
	c0.8,1.4,0.9,1.4,1.7,2.8c0.8,1.4,2.8,0.3,3.6,1.7s0.4,1.7,1.2,3.1c0.8,1.4,0.9,1.4,1.7,2.8c0.8,1.4-0.9,2.4-0.1,3.8s2.3,0.6,3.1,2
	s-0.3,2,0.5,3.5c0.8,1.4,1.2,1.2,2,2.6c0.8,1.4,0.9,1.4,1.7,2.8c0.8,1.4-0.3,2,0.5,3.5c0.8,1.4,1.2,1.2,2,2.7c0.8,1.4,0,1.9,0.8,3.3
	s1.3,1.1,2.1,2.6c0.8,1.4,1.4,1.1,2.2,2.5s2,0.8,2.8,2.2l1.6,2.8c0.8,1.4,1,1.3,1.8,2.7s0.5,1.6,1.3,3s-0.5,2.1,0.3,3.6
	c0.8,1.4,1.2,1.2,2,2.6c0.8,1.4-0.3,2,0.5,3.5c0.8,1.4,1.1,1.3,1.8,2.7c0.8,1.4,1.5,1,2.3,2.4s0.7,1.5,1.5,2.9s0.7,1.5,1.5,2.9
	s0.3,1.7,1.1,3.1s1.6,1,2.4,2.4c0.8,1.4-0.6,2.2,0.2,3.6s1.7,0.9,2.5,2.3s1.3,1.1,2.1,2.6c0.8,1.4-0.3,2.1,0.5,3.5s0.4,1.7,1.2,3.1
	s0.7,1.5,1.5,2.9s0.9,1.3,1.7,2.8c0.8,1.4,2.2,0.7,3,2.1s-0.6,2.2,0.2,3.6s1,1.3,1.8,2.7c0.8,1.4,2.4,0.5,3.2,2
	c0.8,1.4-1.1,2.5-0.3,3.9s1.5,1,2.3,2.5c0.8,1.4,2.6,0.4,3.4,1.8c0.8,1.4-0.1,1.9,0.7,3.4c0.8,1.4,0.2,1.7,1,3.2
	c0.8,1.4,0.5,1.6,1.3,3s1,1.3,1.8,2.8c0.8,1.4,0.5,1.6,1.3,3s2.5,0.5,3.3,1.9s0.1,1.8,0.9,3.2c0.8,1.4,1.2,1.2,2,2.7
	c0.8,1.4,1.3,1.2,2.1,2.6s0.8,1.5,1.6,2.9l1.6,2.8c0.8,1.4-0.1,1.9,0.7,3.4c0.8,1.4,0.9,1.4,1.7,2.8s-0.6,2.2,0.2,3.6s0.6,1.5,1.4,3
	c0.8,1.4,2.3,0.6,3.1,2s-0.5,2.2,0.3,3.6s1.6,1,2.4,2.4c0.8,1.4,0.3,1.7,1.1,3.1s1.5,1.1,2.3,2.5s1,1.3,1.8,2.7
	c0.8,1.4,0.7,1.5,1.5,2.9s1.9,0.8,2.7,2.2c0.8,1.4-0.8,2.3,0,3.7c0.8,1.4,0.8,1.4,1.6,2.9c0.8,1.4,0.1,1.8,0.9,3.3
	c0.8,1.4,2,0.7,2.8,2.2c0.8,1.4,0,1.8,0.8,3.3c0.8,1.4,0.7,1.5,1.5,2.9s0.5,1.6,1.3,3s1.5,1,2.3,2.5c0.8,1.4,1.1,1.2,1.9,2.7
	c0.8,1.4,1.5,1,2.3,2.5c0.8,1.4,1.1,1.3,1.9,2.7c0.8,1.4-0.5,2.2,0.3,3.6s1.4,1.1,2.2,2.5s0.9,1.4,1.7,2.8s-0.3,2.1,0.5,3.5
	s2.5,0.5,3.3,1.9s-1.2,2.5-0.4,3.9s2,0.7,2.8,2.2c0.8,1.4,0.2,1.8,1,3.2c0.8,1.4,1.9,0.8,2.7,2.3c0.8,1.4,0.4,1.7,1.2,3.1
	s1.1,1.2,1.9,2.7c0.8,1.4,0.9,1.4,1.7,2.8s-0.7,2.3,0.1,3.7c0.8,1.4,1.6,1,2.4,2.4c0.8,1.4,2.3,1.5,1.4,2.9
	c-0.8,1.4-1.6,1.3-3.3,1.3c-1.6,0-1.6-0.6-3.3-0.6c-1.6,0-1.6,0.7-3.3,0.7c-1.6,0-1.6-0.2-3.3-0.2c-1.6,0-1.6-0.2-3.3-0.2
	c-1.6,0-1.6-0.5-3.3-0.5c-1.6,0-1.6-1.5-3.3-1.5c-1.6,0-1.6,1.4-3.3,1.4c-1.6,0-1.6-0.3-3.3-0.3c-1.6,0-1.6-0.1-3.3-0.1
	c-1.6,0-1.6,0.8-3.3,0.8h-3.3c0,0-1.6-1-3.3-1c-1.6,0-1.6-0.2-3.3-0.2c-1.6,0-1.6,0.2-3.3,0.2c-1.6,0-1.6,0.1-3.3,0.1
	s-1.6-0.1-3.3-0.1c-1.6,0-1.6-0.2-3.3-0.2c-1.6,0-1.6-0.4-3.3-0.4c-1.6,0-1.6,0.9-3.3,0.9c-1.6,0-1.6,0.9-3.3,0.9
	c-1.6,0-1.6-1.6-3.3-1.6c-1.6,0-1.6-0.8-3.3-0.8c-1.6,0-1.6,0.2-3.3,0.2c-1.6,0-1.6,0.2-3.3,0.2c-1.6,0-1.6,0.6-3.3,0.6
	c-1.6,0-1.6,1.1-3.3,1.1c-1.6,0-1.6,0.5-3.3,0.5c-1.6,0-1.6-0.2-3.3-0.2s-1.6-2.4-3.3-2.4c-1.6,0-1.6-0.1-3.3-0.1
	c-1.6,0-1.6,0.4-3.3,0.4c-1.6,0-1.6,0.8-3.3,0.8c-1.6,0-1.6-0.7-3.3-0.7c-1.6,0-1.6,1.8-3.3,1.8c-1.6,0-1.6-0.8-3.3-0.8
	c-1.6,0-1.6,0.9-3.3,0.9c-1.6,0-1.6-0.8-3.3-0.8c-1.6,0-1.6-0.7-3.3-0.7c-1.6,0-1.6,0.7-3.3,0.7c-1.6,0-1.6-0.2-3.3-0.2
	c-1.6,0-1.6-0.8-3.3-0.8c-1.6,0-1.6,0.5-3.3,0.5c-1.6,0-1.6-0.1-3.3-0.1c-1.6,0-1.6,0.7-3.3,0.7c-1.6,0-1.6-0.2-3.3-0.2
	c-1.6,0-1.6-1.3-3.3-1.3c-1.6,0-1.6,1.3-3.3,1.3c-1.6,0-1.6-1.5-3.3-1.5c-1.6,0-1.6,1.4-3.3,1.4c-1.6,0-1.6,1.2-3.3,1.2
	c-1.6,0-1.6-2.5-3.3-2.5c-1.6,0-1.6,1.1-3.3,1.1c-1.6,0-1.6-0.5-3.3-0.5c-1.6,0-1.6,0.6-3.3,0.6c-1.6,0-1.6,0.5-3.3,0.5
	c-1.6,0-1.6-1.9-3.3-1.9c-1.6,0-1.6,0.4-3.3,0.4c-1.6,0-1.6-0.5-3.3-0.5c-1.6,0-1.6,2.6-3.3,2.6c-1.6,0-1.6-1.5-3.3-1.5
	c-1.6,0-1.6-0.6-3.3-0.6c-1.6,0-1.6-0.3-3.3-0.3c-1.6,0-1.6,0.2-3.3,0.2c-1.6,0-1.6,2-3.3,2c-1.6,0-1.6-0.3-3.3-0.3
	c-1.6,0-1.6,0.1-3.3,0.1c-1.6,0-1.6-1.6-3.3-1.6c-1.6,0-1.6,0.8-3.3,0.8c-1.6,0-1.6-1.1-3.3-1.1h-3.3c-1.6,0-1.6-0.1-3.3-0.1h-3.3
	c-1.6,0-1.6,1.3-3.3,1.3c-1.6,0-1.6,0.5-3.3,0.5c-1.6,0-1.6,0.1-3.3,0.1c-1.6,0-1.6-1-3.3-1c-1.6,0-1.6-0.7-3.3-0.7
	c-1.6,0-1.6,0.2-3.3,0.2c-1.6,0-1.6-0.6-3.3-0.6c-1.6,0-1.6,0.9-3.3,0.9c-1.6,0-1.6,0.6-3.3,0.6c-1.6,0-1.6-0.8-3.3-0.8
	c-1.6,0-1.6-0.1-3.3-0.1c-1.6,0-1.6,1.9-3.3,1.9c-1.6,0-1.6,0.5-3.3,0.5c-1.6,0-1.6-0.8-3.3-0.8c-1.6,0-1.6-0.3-3.3-0.3
	c-1.6,0-1.6-1.2-3.3-1.2c-1.6,0-1.6,2.3-3.3,2.3c-1.6,0-1.6-2.5-3.3-2.5c-1.6,0-1.6,2.4-3.3,2.4c-1.6,0-1.6-1.8-3.3-1.8
	c-1.6,0-1.6-0.8-3.3-0.8c-1.6,0-1.6,2.1-3.3,2.1c-1.6,0-1.6-1.6-3.3-1.6c-1.6,0-1.6-0.4-3.3-0.4c-1.6,0-1.6,0.7-3.3,0.7
	c-1.6,0-1.6,1.8-3.3,1.8c-1.6,0-1.6-0.4-3.3-0.4c-1.6,0-1.6-1.9-3.3-1.9c-1.6,0-1.6,0.1-3.3,0.1c-1.6,0-1.6,1.3-3.3,1.3
	s-1.6,0.4-3.3,0.4c-1.6,0-1.6-0.9-3.3-0.9c-1.6,0-1.6-1.1-3.3-1.1c-1.6,0-1.6,1.3-3.3,1.3c-1.6,0-1.6,0.5-3.3,0.5
	c-1.6,0-1.6-2-3.3-2c-1.6,0-1.6,2.6-3.3,2.6c-1.6,0-1.6-1.7-3.3-1.7c-1.6,0-1.6,1.2-3.3,1.2c-1.6,0-1.6-2.1-3.3-2.1
	c-1.6,0-1.6,0.4-3.3,0.4c-1.6,0-1.6,0.4-3.3,0.4c-1.6,0-1.6-0.4-3.3-0.4c-1.6,0-1.6,0.8-3.3,0.8c-1.6,0-1.6-0.2-3.3-0.2
	c-1.6,0-1.6-0.7-3.3-0.7s-1.6,0.4-3.3,0.4c-1.6,0-1.6,0.1-3.3,0.1c-1.6,0-1.4,1.5-3,1.8C379.1,449.6,378.4,449.1,377.5,447.7
	L377.5,447.7z M443,412.5c-0.8-1.4,0.5-0.6,1.3-2s-0.6-2.2,0.2-3.6s0.9-1.4,1.7-2.8c0.8-1.4,2.1-0.7,2.9-2.1s-1-2.4-0.2-3.8
	s1.6-1,2.4-2.4s0.1-1.8,0.9-3.2c0.8-1.4,1.2-1.2,1.9-2.7c0.8-1.4,2.6-0.4,3.4-1.8s-1-2.4-0.2-3.9c0.8-1.4,0.8-1.4,1.6-2.9
	c0.8-1.4,2.4-0.5,3.2-2c0.8-1.4,0.9-1.3,1.7-2.8c0.8-1.4,0-1.9,0.8-3.3s0.3-1.7,1.1-3.1c0.8-1.4,2.4-0.5,3.2-2
	c0.8-1.4-1.4-2.7-0.6-4.1s1.5-1.1,2.3-2.5s2.3-0.6,3.1-2c0.8-1.4,0.1-1.8,0.9-3.2c0.8-1.4,1.3-1.1,2.1-2.6c0.8-1.4,0.1-1.8,0.9-3.2
	c0.8-1.4,0.7-1.5,1.5-2.9s0.7-1.5,1.5-2.9s-0.4-2.1,0.4-3.5s1.1-1.3,1.9-2.7c0.8-1.4,2.6-0.4,3.4-1.8s-0.3-2.1,0.4-3.5
	c0.8-1.4,0.7-1.5,1.5-2.9s1.9-0.8,2.7-2.3c0.8-1.4-0.5-2.2,0.3-3.6s1.4-1.1,2.2-2.5c0.8-1.4,0.2-1.8,1-3.2c0.8-1.4,0.4-1.7,1.2-3.1
	c0.8-1.4,0.7-1.5,1.5-2.9s1.3-1.1,2.1-2.6c0.8-1.4,1.1-1.3,1.9-2.7c0.8-1.4,0.1-1.8,0.9-3.2c0.8-1.4,1.2-1.2,2-2.6s1.6-1,2.4-2.4
	s-1.1-2.5-0.3-3.9s3.2-0.1,4-1.5s-1.1-2.5-0.3-3.9s2.7-0.4,3.5-1.8s-1.1-2.5-0.3-3.9s1.6-1,2.4-2.4c0.8-1.4,1.2-1.2,2-2.6
	s0.1-1.8,0.9-3.2c0.8-1.4,0.4-1.7,1.2-3.1s1.1-1.3,1.9-2.7c0.8-1.4,1.4-1.1,2.2-2.5s1.3-1.1,2.1-2.6c0.8-1.4,0.5-1.6,1.3-3
	s-0.7-2.3,0.1-3.7c0.8-1.4,2.5-0.5,3.3-1.9s0.3-1.7,1.1-3.1c0.8-1.4-0.1-1.9,0.7-3.3c0.8-1.4,0.3-1.7,1.1-3.1c0.8-1.4,3-0.2,3.8-1.6
	c0.8-1.4,0.7-1.5,1.5-2.9s-0.3-2,0.5-3.4s2.2-0.6,3-2s0.2-1.7,1-3.2c0.8-1.4-0.5-2.2,0.3-3.6s0.9-1.4,1.7-2.8c0.8-1.4,0.6-1.5,1.4-3
	c0.8-1.4,2.9-0.3,3.7-1.7s0-1.9,0.8-3.3s1-1.3,1.8-2.7s-0.4-2.1,0.4-3.5s1.5-1,2.3-2.5c0.8-1.4,1.6-1,2.4-2.4
	c0.8-1.4-0.7-2.3,0.1-3.7s1-1.3,1.8-2.8c0.8-1.4,1.4-1.1,2.2-2.5s0.4-1.6,1.2-3s-0.4-2.1,0.4-3.5s1-1.3,1.8-2.7s1.5-1.1,2.3-2.5
	s1.8-0.9,2.6-2.3s1.3-1.2,2.1-2.6c0.8-1.4-0.3-2.1,0.5-3.5s0.9-1.3,1.7-2.8c0.8-1.4-0.1-1.9,0.7-3.4c0.8-1.4,2.1-0.7,2.9-2.1
	c0.8-1.4,0.5-1.6,1.3-3s0.7-1.5,1.5-2.9s1.6-1,2.4-2.4c0.8-1.4-0.2-2,0.6-3.4s-0.1-1.9,0.7-3.4c0.8-1.4,2.2-0.6,3-2s-0.8-2.3,0-3.8
	c0.8-1.4,1.4-1.1,2.2-2.5s1.4-1.1,2.2-2.5s0.1-1.8,0.9-3.3c0.8-1.4,1.1-1.2,1.9-2.7c0.8-1.4,0.1-1.8,0.9-3.2
	c0.8-1.4,1.8-0.9,2.6-2.3s0.3-1.7,1.1-3.1c0.8-1.4,2.2-0.6,3-2c0.8-1.4,0-1.9,0.8-3.3s0.6-1.5,1.4-3c0.8-1.4,1.6-1,2.4-2.4
	c0.8-1.4-0.7-2.3,0-3.7c0.8-1.4,1.5-1,2.3-2.5c0.8-1.4,0.3-1.7,1.1-3.1s2.1-0.7,2.9-2.2c0.8-1.4-1.3-2.6-0.5-4s3-0.2,3.8-1.6
	s-1.5-2.7-0.7-4.1s1.3-1.2,2.1-2.6s0.6-1.5,1.4-2.9c0.8-1.4,1.7-0.9,2.5-2.4c0.8-1.4,1-1.3,1.8-2.7c0.8-1.4,0.5-1.6,1.3-3
	s0.7-1.5,1.5-2.9s2.3-0.6,3.1-2s-1.3-2.6-0.5-4s0.4-1.6,1.2-3.1c0.8-1.4,3.3,0,4.1-1.4s-0.1-1.9,0.7-3.4c0.8-1.4-0.5-2.2,0.3-3.6
	s0.7-1.5,1.5-2.9s1.8-0.9,2.6-2.3l1.6-2.8c0.8-1.4,0-1.8,1.6-1.8s-0.1,0.8,0.7,2.2s1.1,1.3,1.9,2.7c0.8,1.4,0.4,1.6,1.2,3.1
	c0.8,1.4,2.1,0.7,2.9,2.1c0.8,1.4-0.4,2.1,0.4,3.5s0.9,1.4,1.7,2.8s1.8,0.9,2.6,2.3s1.2,1.2,2,2.6s-1.2,2.5-0.4,3.9s2.2,0.6,3,2.1
	c0.8,1.4,0.7,1.5,1.5,2.9s1.1,1.3,1.9,2.7c0.8,1.4,1.8,0.9,2.6,2.3s-0.8,2.3,0,3.8c0.8,1.4,2.4,0.5,3.2,1.9s0,1.8,0.8,3.3
	c0.8,1.4,0.4,1.6,1.2,3.1c0.8,1.4-0.5,2.1,0.3,3.6c0.8,1.4,1.9,0.8,2.7,2.2c0.8,1.4,1.3,1.1,2.1,2.6c0.8,1.4-1,2.4-0.2,3.8
	s1.7,0.9,2.5,2.3s1.4,1.1,2.2,2.5s0.7,1.5,1.5,2.9s0.2,1.8,1,3.2c0.8,1.4,0.7,1.5,1.5,2.9c0.8,1.4,0.6,1.5,1.4,2.9
	c0.8,1.4,1.1,1.3,1.9,2.7c0.8,1.4,0,1.9,0.8,3.3s3.2,0.1,4,1.5s0.5,1.6,1.3,3s-0.8,2.3,0,3.8c0.8,1.4,0.2,1.8,1,3.2s3.1,0.2,3.9,1.6
	c0.8,1.4-0.8,2.3,0,3.7s0.2,1.8,1,3.2s3,0.2,3.8,1.6c0.8,1.4-1,2.5-0.2,3.9s1.9,0.8,2.7,2.2s1.5,1,2.3,2.4s0.6,1.5,1.4,3l1.6,2.8
	c0.8,1.4,0.3,1.7,1.1,3.1c0.8,1.4-0.9,2.3-0.1,3.8c0.8,1.4,2.1,0.7,2.9,2.1c0.8,1.4,1.9,0.8,2.7,2.2s-0.2,2,0.6,3.4s1,1.3,1.8,2.8
	c0.8,1.4-0.4,2.1,0.4,3.5s1.7,0.9,2.5,2.4c0.8,1.4-0.1,1.9,0.7,3.3c0.8,1.4,2.2,0.6,3,2.1c0.8,1.4-0.5,2.1,0.3,3.6
	c0.8,1.4,1.3,1.2,2.1,2.6c0.8,1.4,1,1.3,1.8,2.7s1.4,1.1,2.2,2.5s0.3,1.7,1.1,3.1c0.8,1.4,0,1.9,0.8,3.3s2.7,0.4,3.5,1.8
	c0.8,1.4-1.7,2.8-0.9,4.3c0.8,1.4,1,1.3,1.8,2.8c0.8,1.4,2.7,0.3,3.5,1.8c0.8,1.4,1.1,1.3,1.9,2.7c0.8,1.4,0.3,1.7,1.1,3.1
	c0.8,1.4-0.3,2,0.5,3.4s1.2,1.2,2,2.6c0.8,1.4,2,0.8,2.8,2.2s0.5,1.6,1.3,3s-0.8,2.3,0,3.8c0.8,1.4,2.8,0.3,3.6,1.7s-0.3,2,0.5,3.5
	c0.8,1.4,1.5,1,2.3,2.5c0.8,1.4,0.9,1.4,1.7,2.8s0.4,1.6,1.2,3.1c0.8,1.4,0.4,1.6,1.2,3.1c0.8,1.4,0.9,1.4,1.7,2.8s0.8,1.5,1.6,2.9
	s0.5,1.6,1.3,3s0,1.9,0.8,3.3s0.5,1.6,1.3,3s2.1,0.7,2.9,2.1c0.8,1.4,1.3,1.1,2.1,2.6c0.8,1.4,0.4,1.6,1.2,3.1
	c0.8,1.4-0.2,2,0.6,3.4s2,0.7,2.8,2.2c0.8,1.4,0.2,1.8,1,3.2c0.8,1.4,0.9,1.3,1.7,2.8c0.8,1.4,0.1,1.8,0.9,3.2
	c0.8,1.4,0.9,1.4,1.7,2.8s0.1,1.8,0.9,3.2c0.8,1.4,1.1,1.3,1.9,2.7c0.8,1.4,2.1,0.7,2.9,2.1c0.8,1.4-0.1,1.9,0.7,3.4
	c0.8,1.4,2.5,0.5,3.3,1.9s-1.3,2.6-0.5,4s1.1,1.3,1.9,2.7c0.8,1.4,2.1,0.7,2.9,2.1c0.8,1.4-0.8,2.3,0,3.8c0.8,1.4,1.8,0.9,2.6,2.3
	s-0.2,2,0.6,3.4s1.8,0.8,2.6,2.3c0.8,1.4,1.8,0.9,2.6,2.3s0.4,1.6,1.2,3.1c0.8,1.4-0.8,2.3,0,3.8c0.8,1.4,2.9,0.3,3.7,1.7
	c0.8,1.4-0.9,2.4-0.1,3.8s1.9,0.8,2.7,2.2c0.8,1.4-0.6,2.2,0.2,3.6s2.8,0.3,3.6,1.7c0.8,1.4,0.8,1.4,1.6,2.9c0.8,1.4-0.8,2.3,0,3.7
	c0.8,1.4,2.1,0.7,2.9,2.1c0.8,1.4,1,1.3,1.8,2.7c0.8,1.4-1.2,2.6-0.4,4s1.7,0.9,2.5,2.4c0.8,1.4,1.8,0.9,2.6,2.3s0.4,1.7,1.2,3.1
	s0.1,1.8,0.9,3.2c0.8,1.4,1,1.3,1.8,2.7c0.8,1.4,0.4,1.6,1.2,3.1c0.8,1.4,1.1,1.2,1.9,2.7c0.8,1.4,0.9,1.4,1.7,2.8s-0.8,2.3,0,3.7
	c0.8,1.4,1.2,1.2,2,2.6s0.4,1.6,1.2,3.1c0.8,1.4,4.1,0.9,3.2,2.4c-0.8,1.4-2-1-3.6-1s-1.6,2.2-3.3,2.2c-1.6,0-1.6-1.9-3.3-1.9
	c-1.6,0-1.6,0.9-3.3,0.9c-1.6,0-1.6-1.6-3.3-1.6c-1.6,0-1.6,0.8-3.3,0.8c-1.6,0-1.6,0.1-3.3,0.1c-1.6,0-1.6,1.4-3.3,1.4
	c-1.6,0-1.6,0.3-3.3,0.3c-1.6,0-1.6-2.3-3.3-2.3c-1.6,0-1.6,0.9-3.3,0.9c-1.6,0-1.6,0.1-3.3,0.1s-1.6-0.8-3.3-0.8
	c-1.6,0-1.6,1.6-3.3,1.6c-1.6,0-1.6-0.9-3.3-0.9c-1.6,0-1.6,1.3-3.3,1.3s-1.6-2.9-3.3-2.9c-1.6,0-1.6,1.9-3.3,1.9
	c-1.6,0-1.6-1.1-3.3-1.1c-1.6,0-1.6-0.5-3.3-0.5c-1.6,0-1.6,0.9-3.3,0.9c-1.6,0-1.6,0.8-3.3,0.8c-1.6,0-1.6,0.6-3.3,0.6
	c-1.6,0-1.6-2.6-3.3-2.6H761c-1.6,0-1.6,1.3-3.3,1.3c-1.6,0-1.6-1.3-3.3-1.3c-1.6,0-1.6,2.7-3.3,2.7c-1.6,0-1.6-0.7-3.3-0.7
	c-1.6,0-1.6-0.3-3.3-0.3c-1.6,0-1.6-0.2-3.3-0.2c-1.6,0-1.6,0.1-3.3,0.1c-1.6,0-1.6-1.4-3.3-1.4c-1.6,0-1.6,2-3.3,2
	c-1.6,0-1.6-0.2-3.3-0.2c-1.6,0-1.6,0.3-3.3,0.3s-1.6-0.5-3.3-0.5c-1.6,0-1.6-2-3.3-2s-1.6,0.7-3.3,0.7c-1.6,0-1.6,2.2-3.3,2.2
	s-1.6-2.6-3.3-2.6c-1.6,0-1.6,2.5-3.3,2.5c-1.6,0-1.6-1.3-3.3-1.3c-1.6,0-1.6-0.1-3.3-0.1c-1.6,0-1.6-0.1-3.3-0.1s-1.6,1-3.3,1
	c-1.6,0-1.6-1.5-3.3-1.5c-1.6,0-1.6,0.7-3.3,0.7c-1.6,0-1.6-0.5-3.3-0.5c-1.6,0-1.6,1.2-3.3,1.2c-1.6,0-1.6-1.9-3.3-1.9
	c-1.6,0-1.6,2.7-3.3,2.7s-1.6-0.4-3.3-0.4h-3.3c-1.6,0-1.6-0.1-3.3-0.1c-1.6,0-1.6-2.2-3.3-2.2c-1.6,0-1.6,1.5-3.3,1.5
	c-1.6,0-1.6-1.1-3.3-1.1c-1.6,0-1.6,2.4-3.3,2.4c-1.6,0-1.6-0.1-3.3-0.1c-1.6,0-1.6-2.1-3.3-2.1c-1.6,0-1.6,0.5-3.3,0.5
	c-1.6,0-1.6,0.2-3.3,0.2c-1.6,0-1.6-1.2-3.3-1.2c-1.6,0-1.6,0.7-3.3,0.7c-1.6,0-1.6,0.3-3.3,0.3c-1.6,0-1.6-0.5-3.3-0.5
	c-1.6,0-1.6,0.7-3.3,0.7c-1.6,0-1.6,1.6-3.3,1.6c-1.6,0-1.6-0.7-3.3-0.7c-1.6,0-1.6-0.4-3.3-0.4c-1.6,0-1.6,0.6-3.3,0.6
	c-1.6,0-1.6-1.5-3.3-1.5c-1.6,0-1.6,1.5-3.3,1.5c-1.6,0-1.6-1.9-3.3-1.9c-1.6,0-1.6,1.4-3.3,1.4c-1.6,0-1.6,0.1-3.3,0.1
	c-1.6,0-1.6-1.6-3.3-1.6c-1.6,0-1.6,2-3.3,2c-1.6,0-1.6-0.6-3.3-0.6c-1.6,0-1.6-0.2-3.3-0.2c-1.6,0-1.6,0.6-3.3,0.6
	c-1.6,0-1.6-2-3.3-2c-1.6,0-1.6,1.7-3.3,1.7c-1.6,0-1.6-0.2-3.3-0.2s-1.6-0.8-3.3-0.8c-1.6,0-1.6,1.3-3.3,1.3
	c-1.6,0-1.6-0.2-3.3-0.2s-1.6,0.5-3.3,0.5h-3.3c-1.6,0-1.6,0.3-3.3,0.3c-1.6,0-1.6-2-3.3-2c-1.6,0-1.6-0.3-3.3-0.3
	c-1.6,0-1.6,1.9-3.3,1.9c-1.6,0-1.6-2.4-3.3-2.4c-1.6,0-1.6,1.1-3.3,1.1c-1.6,0-1.6-0.9-3.3-0.9c-1.6,0-1.6,2.2-3.3,2.2
	c-1.6,0-1.6-1.3-3.3-1.3c-1.6,0-1.6,1.8-3.3,1.8c-1.6,0-1.6-1.6-3.3-1.6c-1.6,0-1.6-0.2-3.3-0.2c-1.6,0-1.6-0.9-3.3-0.9
	c-1.6,0-1.6,1-3.3,1c-1.6,0-1.6-0.6-3.3-0.6s-1.6,0.2-3.3,0.2c-1.6,0-1.6,1.3-3.3,1.3c-1.6,0-1.6,0.9-3.3,0.9
	c-1.6,0-1.6-0.5-3.3-0.5c-1.6,0-1.6-0.6-3.3-0.6c-1.6,0-1.6-0.8-3.3-0.8c-1.6,0-1.6-0.2-3.3-0.2c-1.6,0-1.6,0.7-3.3,0.7
	c-1.6,0-1.6-0.2-3.3-0.2c-1.6,0-1.6,1.3-3.3,1.3s-1.6-1.5-3.3-1.5c-1.6,0-1.6,1.2-3.3,1.2c-1.6,0-1.6-0.1-3.3-0.1
	c-1.6,0-1.6-0.7-3.3-0.7s-1.6,0.8-3.3,0.8c-1.6,0-1.6-1.8-3.3-1.8c-1.6,0-1.6,1.2-3.2,1.5C444.1,413.9,443.8,413.9,443,412.5
	L443,412.5z M806,398.5c-0.8-1.4-0.7-1.2,0.1-2.6s2-0.7,2.8-2.2c0.8-1.4,0.4-1.6,1.2-3.1c0.8-1.4,0.6-1.5,1.4-2.9
	c0.8-1.4,0.1-1.8,0.9-3.2c0.8-1.4,1.8-0.8,2.6-2.3c0.8-1.4-0.2-2,0.6-3.4s1.7-0.9,2.5-2.3s0.3-1.7,1.1-3.1s0-1.9,0.8-3.3
	s0.6-1.5,1.4-3c0.8-1.4,3-0.2,3.8-1.6s0.4-1.7,1.2-3.1s1.3-1.2,2.1-2.6s0.5-1.6,1.3-3s-0.8-2.3,0-3.7c0.8-1.4,1-1.3,1.8-2.8
	c0.8-1.4,1.1-1.3,1.9-2.7c0.8-1.4,1.4-1.1,2.2-2.5s1-1.3,1.8-2.8c0.8-1.4,0.3-1.7,1.1-3.1s2-0.7,2.8-2.2c0.8-1.4,0.4-1.7,1.2-3.1
	s-1.2-2.5-0.4-4c0.8-1.4,3.1-0.2,3.9-1.6c0.8-1.4,1-1.3,1.8-2.7c0.8-1.4,0.5-1.6,1.3-3s-1.2-2.5-0.4-3.9s2.3-0.6,3.1-2
	s-0.7-2.2,0.1-3.7c0.8-1.4,2.1-0.7,2.9-2.1c0.8-1.4,0.4-1.6,1.2-3.1c0.8-1.4-0.2-2,0.6-3.4s2.3-0.6,3.1-2s1.5-1,2.3-2.4
	s-1.5-2.7-0.7-4.1s2.8-0.3,3.6-1.8c0.8-1.4,0.6-1.5,1.4-2.9c0.8-1.4,0.2-1.8,1-3.2c0.8-1.4,0.1-1.8,0.9-3.3c0.8-1.4,1.5-1,2.3-2.5
	c0.8-1.4-0.6-2.2,0.2-3.6s3.2-0.1,4-1.5s-0.5-2.2,0.3-3.6s0.6-1.5,1.4-3c0.8-1.4,1-1.3,1.8-2.8s-0.1-1.9,0.7-3.4l1.6-2.8
	c0.8-1.4,2.6-0.4,3.4-1.8c0.8-1.4-0.9-2.4-0.1-3.8s0.6-1.5,1.4-3c0.8-1.4,2.3-0.6,3.1-2s1.3-1.1,2.1-2.6c0.8-1.4-1.4-2.7-0.6-4.1
	c0.8-1.4,3.2-0.1,4-1.5s-1.2-2.5-0.4-3.9s1.9-0.8,2.7-2.2s-0.1-2,0.7-3.4l1.6-2.8c0.8-1.4,0.6-1.5,1.4-3c0.8-1.4,1.3-1.1,2.1-2.6
	c0.8-1.4,1.5-1.1,2.3-2.5s1.5-1,2.3-2.4s-0.8-2.3,0-3.7s1.1-1.3,1.9-2.7c0.8-1.4,2.3-0.6,3.1-2s0.5-1.6,1.3-3s0.3-1.7,1.1-3.1
	c0.8-1.4,0-1.9,0.8-3.3s1.4-1.1,2.2-2.5s1.2-1.2,2-2.6c0.8-1.4-0.5-2.2,0.3-3.6s1.3-1.1,2.1-2.5s1.4-1.1,2.2-2.5s1.3-1.1,2.1-2.6
	c0.8-1.4-1.4-2.7-0.6-4.1c0.8-1.4,2.8-0.3,3.6-1.8c0.8-1.4-1.2-2.5-0.4-3.9s3.2-0.1,4-1.5s0.5-1.6,1.3-3s-0.7-2.3,0.1-3.7
	s2.3-0.6,3.1-2s1-1.3,1.8-2.7s0.3-1.7,1.1-3.1c0.8-1.4,1.2-1.2,2-2.6c0.8-1.4,0.1-1.8,0.9-3.3c0.8-1.4-0.9-2.4-0.1-3.8
	s2.7-0.4,3.5-1.8c0.8-1.4-0.5-2.2,0.3-3.6s2-0.8,2.8-2.2s0.9-1.4,1.7-2.8c0.8-1.4-0.3-2,0.5-3.5c0.8-1.4,2.4-0.5,3.2-2
	c0.8-1.4,0.5-1.6,1.3-3s-1.2-2.5-0.4-4c0.8-1.4,1.5-1,2.3-2.5c0.8-1.4,2-0.8,2.8-2.2c0.8-1.4-0.6-2.2,0.2-3.6s1.7-0.9,2.5-2.4
	c0.8-1.4-0.4-2.1,0.4-3.5s1.5-1,2.3-2.5c0.8-1.4,0.5-1.6,1.2-3.1c0.8-1.4,2.7-0.4,3.5-1.8s-0.9-2.4-0.1-3.8s2.4-0.5,3.2-2
	c0.8-1.4-1-2.4-0.2-3.9c0.8-1.4,1.1-1.3,1.9-2.7c0.8-1.4,0.4-1.6,1.2-3.1c0.8-1.4,0.4-1.6,1.2-3.1c0.8-1.4,1-1.3,1.8-2.7
	c0.8-1.4,2.6-0.4,3.4-1.8c0.8-1.4,0-1.9,0.8-3.3s0-1.9,0.8-3.3s2-0.8,2.8-2.2c0.8-1.4,0-1.9,0.8-3.3s1.8-0.8,2.6-2.3
	c0.8-1.4,1.2-1.2,2-2.6s-1-2.4-0.2-3.9c0.8-1.4,1.9-0.8,2.7-2.3c0.8-1.4-0.7-2.3,0.1-3.7s3.1-0.2,3.9-1.6c0.8-1.4-0.8-2.3,0-3.8
	c0.8-1.4,2.4-0.5,3.2-2c0.8-1.4-0.8-2.3,0-3.8c0.8-1.4,1.3-1.1,2.1-2.6c0.8-1.4-0.2-2,1.4-2c1.6,0,0.5,0.6,1.3,2s0.2,1.8,1,3.2
	s1.1,1.3,1.9,2.7c0.8,1.4,2.2,0.6,3,2.1c0.8,1.4,0.7,1.5,1.5,2.9s1.1,1.3,1.9,2.7c0.8,1.4-1.2,2.5-0.4,3.9s2.1,0.7,2.9,2.1
	c0.8,1.4,0.9,1.4,1.7,2.8c0.8,1.4,0.6,1.6,1.4,3c0.8,1.4,0.6,1.5,1.4,3c0.8,1.4,0.5,1.6,1.2,3c0.8,1.4,1.6,1,2.4,2.4
	s1.3,1.1,2.1,2.5s-0.3,2.1,0.4,3.5c0.8,1.4,0.8,1.4,1.6,2.9c0.8,1.4,1.5,1,2.3,2.4s0,1.9,0.8,3.3s2.1,0.7,2.9,2.1s-0.9,2.4-0.1,3.8
	s2.2,0.6,3,2s0.8,1.4,1.6,2.9c0.8,1.4-0.1,1.9,0.7,3.3c0.8,1.4,0.3,1.7,1.1,3.1c0.8,1.4,1,1.3,1.8,2.7c0.8,1.4,0.4,1.7,1.2,3.1
	c0.8,1.4,0.9,1.4,1.7,2.8c0.8,1.4,2.2,0.7,3,2.1s0.5,1.6,1.3,3s-0.6,2.2,0.2,3.6s0.9,1.4,1.7,2.8c0.8,1.4,2.4,0.6,3.2,2
	c0.8,1.4,1.1,1.3,1.9,2.7s0.3,1.7,1.1,3.1c0.8,1.4,0.2,1.8,1,3.2s1.1,1.2,1.9,2.7c0.8,1.4,1.1,1.3,1.8,2.7c0.8,1.4,1.6,1,2.4,2.4
	s0.7,1.5,1.5,2.9s0.9,1.4,1.7,2.8c0.8,1.4,0.6,1.6,1.3,3c0.8,1.4-0.8,2.3,0,3.7s1.2,1.2,2,2.6c0.8,1.4,0.1,1.8,0.9,3.3
	c0.8,1.4,2,0.8,2.8,2.2s0.1,1.8,0.9,3.2s0,1.9,0.8,3.3s1.7,0.9,2.5,2.3s0,1.9,0.8,3.3s1.8,0.8,2.6,2.3c0.8,1.4,2.1,0.7,2.9,2.1
	c0.8,1.4,0.5,1.6,1.3,3s-0.8,2.3,0,3.7s2.1,0.7,2.9,2.1c0.8,1.4-0.2,2,0.6,3.4s1.5,1,2.3,2.4s-0.1,1.9,0.7,3.4
	c0.8,1.4,0.9,1.4,1.7,2.8c0.8,1.4,1.1,1.2,1.9,2.7c0.8,1.4,1.2,1.2,2,2.7c0.8,1.4-0.2,2,0.6,3.4s2.4,0.5,3.2,2
	c0.8,1.4-0.7,2.3,0.1,3.7c0.8,1.4,2.2,0.6,3,2.1s0.3,1.7,1,3.2c0.8,1.4,0.5,1.6,1.3,3s1,1.3,1.7,2.8c0.8,1.4,0.6,1.5,1.4,3
	c0.8,1.4,2,0.8,2.8,2.2s-1.5,2.7-0.7,4.1c0.8,1.4,1.6,1,2.4,2.4s0.3,1.7,1.1,3.1c0.8,1.4,1.1,1.2,1.9,2.7c0.8,1.4,1,1.3,1.8,2.7
	s1.4,1.1,2.2,2.5c0.8,1.4-0.4,2.1,0.4,3.5c0.8,1.4,1,1.3,1.8,2.8c0.8,1.4,1.7,0.9,2.5,2.4c0.8,1.4,0.9,1.3,1.7,2.8
	c0.8,1.4,1.6,1,2.4,2.4s-0.3,2.1,0.5,3.5s1.6,1,2.4,2.4s0.9,1.3,1.7,2.8c0.8,1.4-1.1,2.5-0.3,3.9s0.6,1.5,1.4,2.9s1.3,1.2,2.1,2.6
	c0.8,1.4,1.7,0.9,2.5,2.3s-0.2,2,0.6,3.4s1.3,1.2,2.1,2.6c0.8,1.4,1.1,1.2,1.9,2.7c0.8,1.4,0.2,1.8,1,3.2c0.8,1.4,1.3,1.2,2.1,2.6
	c0.8,1.4,0.6,1.5,1.4,3c0.8,1.4,2.1,0.7,2.9,2.1s0.2,1.8,1,3.2c0.8,1.4,1.5,1,2.3,2.5c0.8,1.4,0.8,1.4,1.6,2.9
	c0.8,1.4,0.3,1.7,1.1,3.1c0.8,1.4,0.5,1.6,1.3,3s1.7,0.9,2.5,2.4c0.8,1.4,0.3,1.7,1.1,3.1c0.8,1.4-0.2,2,0.6,3.4s1.2,1.2,2,2.6
	s0.2,1.8,1,3.2c0.8,1.4,1.5,1,2.3,2.5c0.8,1.4,0.2,1.8,1,3.2c0.8,1.4,2.4,0.5,3.2,2c0.8,1.4-0.6,2.2,0.2,3.6s1.6,1,2.4,2.4
	s-0.8,2.3,0,3.7c0.8,1.4,2.4,0.5,3.2,1.9c0.8,1.4,0.8,1.5,1.6,2.9s-0.9,2.4-0.1,3.8s1.4,1.1,2.2,2.5c0.8,1.4,1.5,1.1,2.3,2.5
	s1.6,1,2.4,2.4s-0.1,1.9,0.7,3.4c0.8,1.4,0.6,1.5,1.4,3c0.8,1.4,0.4,1.6,1.2,3.1c0.8,1.4,1.2,1.2,2,2.6s0.6,1.5,1.4,3
	c0.8,1.4,0.4,1.7,1.2,3.1c0.8,1.4,2.4,0.5,3.2,1.9c0.8,1.4-1.1,2.5-0.3,3.9s2.6,0.4,3.4,1.9c0.8,1.4,1.3,2,0.5,3.4s-1.5,0.4-3.2,0.4
	s-1.6-1.8-3.3-1.8c-1.6,0-1.6,2.5-3.3,2.5s-1.6-1.8-3.3-1.8s-1.6,1.7-3.3,1.7c-1.6,0-1.6-0.9-3.3-0.9s-1.6,1-3.3,1s-1.6-1.2-3.3-1.2
	s-1.6-0.9-3.3-0.9c-1.6,0-1.6,2.1-3.3,2.1c-1.6,0-1.6-2.1-3.3-2.1c-1.6,0-1.6,0.5-3.3,0.5s-1.6,0.7-3.3,0.7s-1.6-1.2-3.3-1.2
	s-1.6,1.9-3.3,1.9c-1.6,0-1.6-2.2-3.3-2.2s-1.6,2.1-3.3,2.1s-1.6-1.7-3.3-1.7c-1.6,0-1.6-0.4-3.3-0.4s-1.6,2.5-3.3,2.5
	s-1.6-1.2-3.3-1.2s-1.6-0.5-3.3-0.5c-1.6,0-1.6,1.1-3.3,1.1c-1.6,0-1.6-1.4-3.3-1.4s-1.6,1.8-3.3,1.8s-1.6,0.5-3.3,0.5
	s-1.6-1.3-3.3-1.3c-1.6,0-1.6-0.5-3.3-0.5s-1.6-0.6-3.3-0.6s-1.6-0.2-3.3-0.2c-1.6,0-1.6,0.2-3.3,0.2s-1.6,0.1-3.3,0.1
	s-1.6,0.2-3.3,0.2s-1.6,1.1-3.3,1.1s-1.6-0.7-3.3-0.7c-1.6,0-1.6,0.6-3.3,0.6c-1.6,0-1.6-0.7-3.3-0.7c-1.6,0-1.6,0.8-3.3,0.8
	c-1.6,0-1.6-1.3-3.3-1.3s-1.6,2.3-3.3,2.3s-1.6-1.4-3.3-1.4s-1.6,1-3.3,1c-1.6,0-1.6-1.4-3.3-1.4c-1.6,0-1.6-0.4-3.3-0.4
	c-1.6,0-1.6,1-3.3,1c-1.6,0-1.6-0.5-3.3-0.5c-1.6,0-1.6-0.1-3.3-0.1c-1.6,0-1.6,0.4-3.3,0.4s-1.6-0.1-3.3-0.1s-1.6,1.6-3.3,1.6
	s-1.6-2.3-3.3-2.3s-1.6,2.1-3.3,2.1s-1.6-0.3-3.3-0.3c-1.6,0-1.6-1.7-3.3-1.7c-1.6,0-1.6,1-3.3,1s-1.6-0.9-3.3-0.9
	c-1.6,0-1.6,0.8-3.3,0.8c-1.6,0-1.6-0.7-3.3-0.7c-1.6,0-1.6,0.2-3.3,0.2c-1.6,0-1.6,1.9-3.3,1.9c-1.6,0-1.6-0.8-3.3-0.8
	c-1.6,0-1.6-1.7-3.3-1.7c-1.6,0-1.6,2-3.3,2c-1.6,0-1.6,0.2-3.3,0.2c-1.6,0-1.6-1.7-3.3-1.7c-1.6,0-1.6,1.7-3.3,1.7
	c-1.6,0-1.6-0.9-3.3-0.9c-1.6,0-1.6-0.8-3.3-0.8c-1.6,0-1.6,1.5-3.3,1.5c-1.6,0-1.6,0.1-3.3,0.1c-1.6,0-1.6-1.8-3.3-1.8
	c-1.6,0-1.6,2.3-3.3,2.3c-1.6,0-1.6-1.1-3.3-1.1c-1.6,0-1.6,0.5-3.3,0.5c-1.6,0-1.6-1-3.3-1c-1.6,0-1.6,1.1-3.3,1.1
	c-1.6,0-1.6-1.4-3.3-1.4c-1.6,0-1.6-0.2-3.3-0.2c-1.6,0-1.6,1.6-3.3,1.6c-1.6,0-1.6,0.2-3.3,0.2c-1.6,0-1.6-1.7-3.3-1.7
	c-1.6,0-1.6,0.3-3.3,0.3c-1.6,0-1.6,0.1-3.3,0.1c-1.6,0-1.6,0.7-3.3,0.7c-1.6,0-1.6-1.7-3.3-1.7s-1.6,1.9-3.3,1.9
	c-1.6,0-1.6,0.3-3.3,0.3c-1.6,0-1.6-0.3-3.3-0.3s-1.6,0.3-3.3,0.3c-1.6,0-1.6-0.1-3.3-0.1c-1.6,0-1.6-0.4-3.3-0.4
	c-1.6,0-1.6-1.1-3.3-1.1c-1.6,0-1.6,0.7-3.3,0.7c-1.6,0-1.6,0.2-3.3,0.2c-1.6,0-1.6,1.1-3.3,1.1c-1.6,0-1.6-1-3.3-1
	c-1.6,0-1.6-1.7-3.3-1.7c-1.6,0-1.6,0.5-3.3,0.5c-1.6,0-1.6-0.4-3.3-0.4c-1.6,0-1.6,1.1-3.3,1.1c-1.6,0-1.6,0.6-3.3,0.6
	c-1.6,0-1.6,0.1-3.3,0.1c-1.6,0-1.6,0.3-3.3,0.3c-1.6,0-1.6,0.1-3.3,0.1c-1.6,0-1.6-2.1-3.3-2.1c-1.6,0-1.6,2.1-3.3,2.1
	c-1.6,0-1.6-0.6-3.3-0.6c-1.6,0-1.6-0.1-3.3-0.1c-1.6,0-1.6-0.4-3.3-0.4c-1.6,0-1.6-1.1-3.3-1.1c-1.6,0-1.6-0.2-3.3-0.2
	c-1.6,0-1.6,0.1-3.3,0.1c-1.6,0-1.6,1.8-3.3,1.8c-1.6,0-1.6-0.8-3.3-0.8c-1.6,0-1.6,0.6-3.3,0.6c-1.6,0-1.6-0.7-3.3-0.7
	c-1.6,0-1.6-0.7-3.3-0.7c-1.6,0-1.6,2.5-3.3,2.5c-1.6,0-1.6-0.9-3.3-0.9c-1.6,0-1.6-1.3-3.3-1.3c-1.6,0-1.6,1.7-3.3,1.7
	c-1.6,0-1.7-1.4-3.3-1.1C807,399.1,806.9,399.9,806,398.5L806,398.5z M901.5,433.4c-0.8-1.4,2.6-1.1,3.4-2.5c0.8-1.4,0.5-1.6,1.3-3
	s1.1-1.2,1.9-2.7c0.8-1.4-0.7-2.3,0.1-3.7c0.8-1.4,2.3-0.6,3.1-2s0.3-1.7,1.1-3.1s0.6-1.5,1.4-2.9c0.8-1.4-0.7-2.2,0.1-3.7
	c0.8-1.4,2.2-0.6,3-2.1c0.8-1.4,1.1-1.3,1.9-2.7c0.8-1.4-0.1-1.9,0.7-3.4c0.8-1.4,0.1-1.8,0.9-3.2c0.8-1.4,1.7-0.9,2.5-2.3
	s1.4-1.1,2.2-2.5s-1-2.5-0.2-3.9s1.1-1.3,1.9-2.7c0.8-1.4,2.2-0.7,2.9-2.1c0.8-1.4,0.5-1.6,1.3-3s0.3-1.7,1.1-3.1s2.2-0.7,3-2.1
	s-0.6-2.2,0.2-3.6s0.4-1.6,1.2-3.1l1.6-2.8c0.8-1.4,0.7-1.5,1.5-2.9s2.4-0.5,3.2-2c0.8-1.4,0.4-1.7,1.2-3.1s-0.5-2.2,0.3-3.6
	s2.2-0.7,3-2.1s-0.6-2.2,0.2-3.6s0.9-1.4,1.7-2.8s1.6-1,2.4-2.4c0.8-1.4,1.1-1.2,1.9-2.7c0.8-1.4,0.8-1.4,1.6-2.9
	c0.8-1.4,0.8-1.5,1.6-2.9s0.3-1.7,1.1-3.2c0.8-1.4-0.1-2,0.7-3.4s1.7-0.9,2.5-2.4c0.8-1.4,1.7-0.9,2.5-2.3s-1-2.4-0.2-3.8
	s3.2-0.1,4-1.5s0.2-1.8,1-3.2c0.8-1.4,1.3-1.1,2.1-2.6c0.8-1.4-0.3-2.1,0.5-3.5s-0.4-2.1,0.4-3.5s2.2-0.6,3-2s-0.6-2.2,0.2-3.6
	s2.9-0.2,3.7-1.7c0.8-1.4-0.2-2,0.6-3.4s1.3-1.2,2.1-2.6s1.3-1.1,2.1-2.5s-1.3-2.6-0.5-4s2.5-0.5,3.3-1.9s-0.1-2,0.7-3.4
	s1.5-1,2.3-2.5c0.8-1.4,1.3-1.1,2.1-2.6c0.8-1.4,0.1-1.8,0.9-3.2c0.8-1.4-0.6-2.2,0.2-3.6s0.7-1.5,1.5-2.9s1.1-1.2,1.9-2.7
	c0.8-1.4,0.5-1.6,1.3-3s1.1-1.3,1.9-2.7c0.8-1.4,2.2-0.7,3-2.1s1.6-1,2.4-2.4l1.6-2.8c0.8-1.4-1.6-2.8-0.8-4.2s2.5-0.5,3.3-1.9
	s-0.4-2.1,0.4-3.5s2.1-0.7,2.9-2.1c0.8-1.4,0.8-1.5,1.6-2.9s1.3-1.1,2.1-2.6c0.8-1.4-0.9-2.4-0.1-3.8s2.2-0.6,3-2.1
	c0.8-1.4-0.7-2.3,0.1-3.7s1.2-1.2,2-2.6c0.8-1.4,0.6-1.5,1.4-3c0.8-1.4,0.7-1.5,1.5-2.9s0.5-1.6,1.3-3c0.8-1.4,1-1.3,1.8-2.8
	c0.8-1.4,0.3-1.7,1.1-3.1c0.8-1.4,2.7-0.3,3.5-1.8c0.8-1.4-1.4-2.7-0.6-4.1c0.8-1.4,3.3,0,4.1-1.4c0.8-1.4,0.6-1.5,1.4-2.9
	s0.2-1.7,1-3.2c0.8-1.4-0.5-2.2,0.3-3.6s0.6-1.5,1.4-2.9s1.8-0.9,2.6-2.3s-0.1-1.9,0.7-3.4c0.8-1.4,0.7-1.5,1.5-2.9s2.4-0.5,3.2-1.9
	c0.8-1.4,0.1-1.8,0.9-3.3c0.8-1.4,1.2-1.2,2-2.6c0.8-1.4-0.4-2.1,0.4-3.5s1.8-0.9,2.6-2.3s-0.2-2,0.6-3.4s2.7-0.4,3.5-1.8
	c0.8-1.4,0.2-1.8,1-3.2s0.2-1.8,1-3.2s0.5-1.6,1.3-3s1.1-1.3,1.9-2.7s1.8-0.9,2.6-2.3s0.6-1.5,1.4-3c0.8-1.4-1.2-2.5-0.4-4
	c0.8-1.4,1.2-1.2,2-2.6c0.8-1.4,2.4-0.5,3.2-1.9c0.8-1.4-0.5-2.2,0.3-3.6s0.3-1.7,1.1-3.1c0.8-1.4,0.9-1.4,1.7-2.8
	c0.8-1.4,0.8-1.4,1.6-2.9c0.8-1.4,2.7-0.4,3.5-1.8s-0.3-2.1,0.5-3.5s0.3-1.7,1.1-3.1c0.8-1.4,0.3-1.7,1.1-3.1c0.8-1.4,1.6-1,2.4-2.4
	s-0.2-2,0.6-3.4s2.8-0.3,3.6-1.7c0.8-1.4-0.6-2.2,0.2-3.7c0.8-1.4,0.2-1.8,1-3.2c0.8-1.4,2.9-0.3,3.7-1.7c0.8-1.4-0.8-2.3,0-3.8
	c0.8-1.4,2.6-0.4,3.4-1.8s-0.1-1.9,0.7-3.3c0.8-1.4-0.6-2.2,0.2-3.7c0.8-1.4,1.2-1.2,2-2.6s0.8-1.4,1.6-2.9c0.8-1.4,0.7-1.3,2.4-1.3
	c1.6,0,0.8,0.2,1.6,1.7c0.8,1.4-0.2,2,0.6,3.4s0.7,1.5,1.5,2.9s1.2,1.2,2,2.6s2,0.8,2.8,2.2c0.8,1.4,0.4,1.6,1.2,3.1
	c0.8,1.4-0.6,2.2,0.2,3.6s1.4,1.1,2.2,2.5c0.8,1.4,0.1,1.8,0.9,3.3c0.8,1.4,2.5,0.5,3.3,1.9s-0.8,2.3,0,3.8c0.8,1.4,2.5,0.5,3.3,1.9
	s-0.4,2.1,0.4,3.5s2.5,0.5,3.3,1.9s-0.8,2.3,0,3.8s1.3,1.1,2.1,2.6c0.8,1.4-0.2,2,0.6,3.4s1.4,1.1,2.2,2.5c0.8,1.4,1.7,0.9,2.5,2.4
	c0.8,1.4,0.5,1.6,1.3,3s0.9,1.4,1.7,2.8c0.8,1.4,0.4,1.7,1.2,3.1c0.8,1.4,0.7,1.5,1.5,2.9s0,1.9,0.8,3.3s1.2,1.2,2,2.6
	c0.8,1.4,2.6,0.4,3.4,1.8c0.8,1.4-0.5,2.2,0.3,3.6s1.9,0.8,2.7,2.2c0.8,1.4-0.7,2.3,0.1,3.7c0.8,1.4,0,1.9,0.8,3.3s1.4,1.1,2.2,2.5
	c0.8,1.4,0.7,1.5,1.5,2.9s1.8,0.9,2.6,2.3s1.5,1,2.3,2.5c0.8,1.4,1.1,1.3,1.8,2.7c0.8,1.4-1.7,2.8-0.9,4.2c0.8,1.4,2.5,0.5,3.3,1.9
	s1.1,1.3,1.9,2.7s-0.4,2.1,0.4,3.6c0.8,1.4,2.1,0.7,2.9,2.1c0.8,1.4,1,1.3,1.8,2.8c0.8,1.4,0.2,1.7,1,3.2c0.8,1.4,1.5,1,2.3,2.5
	c0.8,1.4-0.6,2.2,0.2,3.7c0.8,1.4,0.3,1.7,1.1,3.1c0.8,1.4,0.6,1.6,1.4,3s1.8,0.9,2.6,2.3s0,1.9,0.8,3.3s1.5,1.1,2.3,2.5
	s0.5,1.6,1.3,3s2.5,0.5,3.3,1.9s-1.1,2.5-0.3,3.9s1.1,1.3,1.9,2.7s0.7,1.5,1.5,2.9s1,1.3,1.8,2.7s1.8,0.9,2.6,2.3s0.8,1.4,1.6,2.9
	c0.8,1.4,0,1.9,0.8,3.3s0,1.9,0.8,3.3s2.4,0.5,3.2,2c0.8,1.4-0.6,2.2,0.2,3.6s1.8,0.8,2.6,2.3c0.8,1.4,0.1,1.8,0.9,3.2
	s1.3,1.1,2.1,2.6c0.8,1.4,0.2,1.8,0.9,3.2c0.8,1.4,0.4,1.6,1.2,3c0.8,1.4,1.8,0.9,2.6,2.3s1.1,1.2,1.9,2.7c0.8,1.4,0.4,1.7,1.2,3.1
	c0.8,1.4-0.1,1.9,0.7,3.4c0.8,1.4,2.2,0.6,3,2.1c0.8,1.4-0.8,2.3,0,3.7c0.8,1.4,1.4,1.1,2.2,2.5c0.8,1.4,2,0.8,2.8,2.2
	c0.8,1.4-0.5,2.1,0.3,3.6c0.8,1.4,2.2,0.6,3,2s-0.3,2.1,0.5,3.5s0.5,1.6,1.3,3s0.7,1.5,1.5,2.9s1.3,1.1,2.1,2.6
	c0.8,1.4,0.1,1.8,0.9,3.3c0.8,1.4,0.7,1.5,1.5,2.9s1.6,1,2.4,2.4s0.1,1.8,0.8,3.3c0.8,1.4,2.4,0.5,3.2,1.9c0.8,1.4,0.3,1.7,1.1,3.1
	c0.8,1.4,1.2,1.2,2,2.6s-0.6,2.2,0.2,3.6s1,1.3,1.8,2.8c0.8,1.4,0.7,1.5,1.5,2.9s0.3,1.7,1.1,3.1c0.8,1.4,1.1,1.2,1.9,2.7
	c0.8,1.4,1.4,1.1,2.2,2.5c0.8,1.4,1.5,1.1,2.3,2.5s0.6,1.6,1.4,3s1.1,1.2,1.9,2.7c0.8,1.4,0.5,1.6,1.3,3s-0.7,2.3,0.1,3.7
	c0.8,1.4,2.1,0.7,2.9,2.1s0.9,1.4,1.7,2.8c0.8,1.4,0.6,1.5,1.4,3c0.8,1.4,0.7,1.5,1.5,2.9s1.3,1.2,2.1,2.6c0.8,1.4,0.4,1.6,1.2,3.1
	s-0.5,2.2,0.3,3.6s1.5,1,2.3,2.5c0.8,1.4,2.2,0.7,3,2.1s0.6,1.6,1.4,3s1.2,1.2,2,2.6s1,1.3,1.8,2.7c0.8,1.4,0.9,1.4,1.7,2.8
	c0.8,1.4-0.6,2.2,0.2,3.7c0.8,1.4,1.6,1,2.4,2.4s-0.2,2,0.6,3.4s2.1,0.7,2.9,2.1s-0.3,2.1,0.5,3.5s2,0.7,2.8,2.2
	c0.8,1.4,0.9,1.4,1.7,2.8c0.8,1.4-1.2,2.5-0.4,4c0.8,1.4,2.4,0.5,3.2,2c0.8,1.4-0.2,2,0.6,3.4s1.6,1,2.4,2.4s0.2,1.8,1,3.2
	c0.8,1.4-0.1,1.9,0.7,3.4l1.6,2.8c0.8,1.4,2.4,0.4,1.6,1.8s-0.7-0.3-2.4-0.3s-1.6,0.7-3.3,0.7c-1.6,0-1.6-0.1-3.3-0.1s-1.6,1-3.3,1
	h-3.3c-1.6,0-1.6-0.7-3.3-0.7c-1.6,0-1.6-0.8-3.3-0.8c-1.6,0-1.6-0.5-3.3-0.5s-1.6-0.1-3.3-0.1s-1.6,0.5-3.3,0.5s-1.6,0.2-3.3,0.2
	s-1.6,0.6-3.3,0.6c-1.6,0-1.6-1.3-3.3-1.3s-1.6,2.6-3.3,2.6c-1.6,0-1.6-0.2-3.3-0.2s-1.6-1.8-3.3-1.8c-1.6,0-1.6,1.1-3.3,1.1
	s-1.6-1.2-3.3-1.2c-1.6,0-1.6,0.5-3.3,0.5s-1.6,1.3-3.3,1.3s-1.6,0.5-3.3,0.5c-1.6,0-1.6-1.5-3.3-1.5s-1.6,1.2-3.3,1.2
	s-1.6-1.2-3.3-1.2s-1.6,1-3.3,1s-1.6-0.7-3.3-0.7c-1.6,0-1.6-0.8-3.3-0.8c-1.6,0-1.6-0.2-3.3-0.2s-1.6,0.6-3.3,0.6s-1.6,0.7-3.3,0.7
	s-1.6,0.2-3.3,0.2s-1.6-0.8-3.3-0.8s-1.6,1.3-3.3,1.3s-1.6-2.1-3.3-2.1c-1.6,0-1.6,0.3-3.3,0.3s-1.6,1-3.3,1c-1.6,0-1.6,0.9-3.3,0.9
	c-1.6,0-1.6-1-3.3-1c-1.6,0-1.6-0.1-3.3-0.1s-1.6,1.3-3.3,1.3s-1.6-2.1-3.3-2.1h-6.6c-1.6,0-1.6,1.9-3.3,1.9c-1.6,0-1.6-0.7-3.3-0.7
	c-1.6,0-1.6,0.4-3.3,0.4h-3.3c0,0-1.6,0.4-3.3,0.4s-1.6-1.4-3.3-1.4s-1.6,0.5-3.3,0.5c-1.6,0-1.6,0.9-3.3,0.9
	c-1.6,0-1.6-1.8-3.3-1.8c-1.6,0-1.6,0.5-3.3,0.5s-1.6-1.2-3.3-1.2c-1.6,0-1.6,0.2-3.3,0.2s-1.6-0.3-3.3-0.3c-1.6,0-1.6,0.7-3.3,0.7
	s-1.6,0.9-3.3,0.9c-1.6,0-1.6-1.6-3.3-1.6s-1.6,1-3.3,1s-1.6-1-3.3-1c-1.6,0-1.6,0.7-3.3,0.7c-1.6,0-1.6,1.3-3.3,1.3
	s-1.6-0.3-3.3-0.3s-1.6,0.1-3.3,0.1s-1.6-1.3-3.3-1.3c-1.6,0-1.6,0.6-3.3,0.6c-1.6,0-1.6-1.3-3.3-1.3s-1.6,2-3.3,2
	c-1.6,0-1.6-1.3-3.3-1.3s-1.6,0.5-3.3,0.5s-1.6,1-3.3,1s-1.6-1.6-3.3-1.6s-1.6,1.3-3.3,1.3s-1.6,0.7-3.3,0.7c-1.6,0-1.6-2.2-3.3-2.2
	c-1.6,0-1.6,0.4-3.3,0.4c-1.6,0-1.6-0.5-3.3-0.5c-1.6,0-1.6,1.4-3.3,1.4c-1.6,0-1.6-0.2-3.3-0.2s-1.6,0.2-3.3,0.2s-1.6,0.1-3.3,0.1
	c-1.6,0-1.6-1.2-3.3-1.2s-1.6-0.6-3.3-0.6c-1.6,0-1.6,0.7-3.3,0.7c-1.6,0-1.6,0.9-3.3,0.9c-1.6,0-1.6-0.2-3.3-0.2
	c-1.6,0-1.6-1.1-3.3-1.1s-1.6,2.1-3.3,2.1c-1.6,0-1.6-0.1-3.3-0.1c-1.6,0-1.6-1.1-3.3-1.1c-1.6,0-1.6,1.4-3.3,1.4
	c-1.6,0-1.6-1-3.3-1c-1.6,0-1.6-1.5-3.3-1.5c-1.6,0-1.6,0.5-3.3,0.5c-1.6,0-1.6,1-3.3,1c-1.6,0-1.6-0.5-3.3-0.5
	c-1.6,0-1.6-1.1-3.3-1.1c-1.6,0-1.6,0.5-3.3,0.5c-1.6,0-1.6,1.7-3.3,1.7c-1.6,0-1.6-2-3.3-2c-1.6,0-1.6,1.6-3.3,1.6
	c-1.6,0-1.6-0.6-3.3-0.6c-1.6,0-1.6,1.5-3.3,1.5c-1.6,0-1.6-1.1-3.3-1.1c-1.6,0-1.6-0.4-3.3-0.4c-1.6,0-1.6,1.6-3.3,1.6
	c-1.6,0-1.6-2.4-3.3-2.4c-1.6,0-1.6,1.8-3.3,1.8c-1.6,0-1.6-1.7-3.3-1.7c-1.6,0-1.6,0.5-3.3,0.5s-1.6-0.6-3.3-0.6
	c-1.6,0-1.6,0.9-3.3,0.9c-1.6,0-1.6,1.5-3.3,1.5c-1.6,0-1.6-0.3-3.3-0.3c-1.6,0-1.6-1.9-3.3-1.9H918c-1.6,0-1.6,1.2-3.3,1.2
	c-1.6,0-1.6,1.2-3.3,1.2h-3.3c-1.6,0-1.6-2-3.3-2c-1.6,0-2-0.8-3.6-0.3C903.1,432.6,902.3,434.8,901.5,433.4L901.5,433.4z"/>
</svg>
