<?xml version="1.0" encoding="utf-8"?>
<!-- Generator: Adobe Illustrator 25.2.0, SVG Export Plug-In . SVG Version: 6.00 Build 0)  -->
<svg version="1.1" id="圖層_1" xmlns="http://www.w3.org/2000/svg" xmlns:xlink="http://www.w3.org/1999/xlink" x="0px" y="0px"
	 viewBox="0 0 1032 316" style="enable-background:new 0 0 1032 316;" xml:space="preserve">
<style type="text/css">
	.st0{fill:#992414;}
	.st1{fill:#B79C00;}
</style>
<g>
	<path class="st0" d="M-82.9,343.6c-0.8-1.4-0.6-1.4,0.2-2.8l1.6-2.8c0.8-1.4,1.7-0.9,2.5-2.3s1-1.3,1.8-2.8c0.8-1.4,1.6-1,2.4-2.4
		s0.9-1.4,1.7-2.8c0.8-1.4-1.5-2.7-0.7-4.1s1-1.3,1.8-2.7c0.8-1.4,0.9-1.3,1.7-2.8c0.8-1.4,1-1.3,1.8-2.8c0.8-1.4,1.3-1.2,2.1-2.6
		c0.8-1.4,0.2-1.8,1-3.2c0.8-1.4,1.6-1,2.4-2.4c0.8-1.4,0.8-1.4,1.6-2.9c0.8-1.4,0.7-1.5,1.5-2.9s0.1-1.8,0.9-3.3
		c0.8-1.4,0.3-1.7,1.1-3.1s0.7-1.5,1.5-2.9s1.1-1.3,1.9-2.7c0.8-1.4,2.6-0.4,3.4-1.8c0.8-1.4,1-1.3,1.8-2.7c0.8-1.4-0.3-2,0.5-3.4
		s0.7-1.5,1.5-2.9s1-1.3,1.8-2.7c0.8-1.4-0.6-2.2,0.2-3.6s3.1-0.1,3.9-1.5c0.8-1.4-1-2.4-0.2-3.9c0.8-1.4,1.6-0.9,2.4-2.4
		c0.8-1.4,0.5-1.6,1.3-3s0.2-1.7,1-3.2c0.8-1.4,2.2-0.6,3-2.1c0.8-1.4,0.2-1.8,1-3.2s2-0.8,2.8-2.2s-0.5-2.2,0.3-3.6s-0.3-2,0.5-3.4
		s2.9-0.3,3.7-1.7c0.8-1.4-0.1-1.9,0.7-3.3c0.8-1.4,1-1.3,1.8-2.7s1.7-0.9,2.5-2.4c0.8-1.4,0.1-1.8,0.9-3.2s0.8-1.4,1.6-2.9
		c0.8-1.4,0.3-1.7,1.1-3.1c0.8-1.4,0.6-1.5,1.4-3c0.8-1.4,1-1.3,1.8-2.7s1.4-1.1,2.2-2.5s0.7-1.5,1.5-2.9s0.9-1.3,1.7-2.8
		c0.8-1.4,0.5-1.6,1.3-3s1.8-0.9,2.6-2.3s0.5-1.6,1.3-3s-0.9-2.4-0.1-3.8s2.7-0.3,3.5-1.8c0.8-1.4,0.2-1.7,1-3.2
		c0.8-1.4-0.3-2,0.5-3.4s0.2-1.8,1-3.2s0.8-1.4,1.6-2.9c0.8-1.4,3-0.2,3.8-1.6c0.8-1.4,0.5-1.6,1.3-3s-0.2-2,0.6-3.4
		s0.9-1.3,1.7-2.8c0.8-1.4,1.5-1,2.3-2.5c0.8-1.4-1.1-2.5-0.3-3.9s2.5-0.5,3.3-1.9c0.8-1.4,1-1.3,1.8-2.8c0.8-1.4,1.1-1.3,1.9-2.7
		s0-1.9,0.8-3.3s1.2-1.2,2-2.6c0.8-1.4,0.3-1.7,1.1-3.1c0.8-1.4,0.3-1.7,1.1-3.1c0.8-1.4,1.4-1.1,2.2-2.5s1.5-1,2.3-2.5
		c0.8-1.4-0.8-2.3,0-3.7s0.9-1.4,1.7-2.8c0.8-1.4,0.5-1.6,1.3-3s2.3-0.6,3.1-2s-0.7-2.3,0.1-3.7c0.8-1.4,0.6-1.5,1.4-3
		c0.8-1.4,2.9-0.2,3.7-1.7c0.8-1.4-1.1-2.5-0.3-3.9s0.9-1.4,1.7-2.8s1.4-1.1,2.2-2.5s1.9-0.8,2.7-2.3c0.8-1.4,0-1.9,0.8-3.3
		s0.1-1.8,0.9-3.3c0.8-1.4,1.4-1.1,2.2-2.5s2.1-0.7,2.9-2.1c0.8-1.4,0.2-1.8,1-3.2c0.8-1.4-0.4-2.1,0.4-3.5s0.2-1.7,1-3.2
		c0.8-1.4,2.4-0.5,3.2-2c0.8-1.4,0.9-1.4,1.7-2.8s1-1.3,1.8-2.8c0.8-1.4-0.7-2.3,0.1-3.7c0.8-1.4,1.4-1.1,2.2-2.5
		c0.8-1.4,0.7-1.5,1.5-2.9s0.3-1.7,1.1-3.2c0.8-1.4,2.8-0.3,3.6-1.7c0.8-1.4,0.3-1.7,1.1-3.1c0.8-1.4,0.5-1.6,1.3-3s1-1.3,1.8-2.7
		s1.2-1.2,2-2.6c0.8-1.4-1.2-2.1,0.4-2.1s0.6,0.1,1.4,1.6c0.8,1.4,2,0.8,2.8,2.2s0.6,1.5,1.4,3c0.8,1.4-0.4,2.1,0.4,3.5
		s1.3,1.1,2.1,2.6c0.8,1.4,0.9,1.4,1.7,2.8c0.8,1.4,1,1.3,1.8,2.7c0.8,1.4-0.5,2.2,0.3,3.6s2,0.7,2.8,2.2c0.8,1.4,0.3,1.7,1.1,3.1
		c0.8,1.4,1.3,1.2,2.1,2.6c0.8,1.4,1.8,0.8,2.6,2.3c0.8,1.4-0.7,2.3,0.1,3.7c0.8,1.4,0.9,1.4,1.7,2.8c0.8,1.4,1.1,1.3,1.9,2.7
		c0.8,1.4,1.5,1,2.3,2.4s0.5,1.6,1.3,3s-0.6,2.2,0.2,3.6s2.9,0.2,3.7,1.7l1.6,2.8c0.8,1.4-1.3,2.6-0.5,4s1.3,1.1,2.1,2.5
		s0.9,1.3,1.7,2.8c0.8,1.4-0.1,1.9,0.7,3.4c0.8,1.4,0.9,1.4,1.7,2.8c0.8,1.4,2.5,0.5,3.3,1.9s1,1.3,1.8,2.7c0.8,1.4-1.1,2.5-0.3,3.9
		s1.2,1.2,2,2.6c0.8,1.4,0.1,1.8,0.9,3.2s2.5,0.5,3.3,1.9s-0.9,2.3-0.1,3.8c0.8,1.4,0.6,1.6,1.3,3c0.8,1.4,2.8,0.3,3.6,1.7
		s0.5,1.6,1.3,3s0,1.9,0.8,3.3s2.3,0.6,3.1,2s-0.3,2,0.5,3.4s1.1,1.2,1.9,2.7c0.8,1.4-0.9,2.4-0.1,3.8s1.1,1.3,1.9,2.7
		c0.8,1.4,0.4,1.6,1.2,3s1.7,0.9,2.5,2.3s0.5,1.6,1.3,3s1.9,0.8,2.7,2.2s-0.1,1.9,0.7,3.4c0.8,1.4,2.1,0.7,2.9,2.1
		c0.8,1.4,0.3,1.7,1.1,3.1c0.8,1.4,0.2,1.7,1,3.2c0.8,1.4,0,1.9,0.8,3.3s3.2,0.1,4,1.5s-0.8,2.3,0,3.7s0.2,1.7,1,3.2
		c0.8,1.4,2.6,0.4,3.4,1.9c0.8,1.4-0.5,2.2,0.3,3.6s0.6,1.5,1.4,2.9c0.8,1.4,0.2,1.7,1,3.2c0.8,1.4,1.4,1.1,2.2,2.5s0.5,1.6,1.3,3
		s1,1.3,1.8,2.7s0.6,1.5,1.4,3c0.8,1.4,2.1,0.7,2.9,2.1c0.8,1.4,0.6,1.5,1.4,3c0.8,1.4,1.1,1.2,1.9,2.7c0.8,1.4-0.9,2.4-0.1,3.8
		s0.5,1.6,1.3,3s2.9,0.3,3.7,1.7s-1.2,2.5-0.4,4c0.8,1.4,2.7,0.4,3.5,1.8c0.8,1.4,0.3,1.7,1.1,3.1s-0.6,2.2,0.2,3.6s2.2,0.6,3,2
		s-0.5,2.2,0.3,3.6s3,0.2,3.8,1.6s-0.2,2,0.6,3.4s0.3,1.7,1,3.2c0.8,1.4,2.4,0.5,3.2,1.9s-0.4,2.1,0.4,3.5s1.2,1.2,2,2.6
		s-0.7,2.3,0.1,3.7c0.8,1.4,2.2,0.6,3,2.1c0.8,1.4,1.1,1.3,1.9,2.7c0.8,1.4-1.1,2.5-0.3,3.9s1.7,0.9,2.5,2.3s1.3,1.1,2.1,2.5
		s-0.1,1.9,0.7,3.4c0.8,1.4,0.9,1.3,1.7,2.8c0.8,1.4,2.4,0.5,3.2,2c0.8,1.4-0.5,2.2,0.3,3.6s1.7,0.9,2.5,2.4
		c0.8,1.4,0.7,1.5,1.5,2.9s-0.3,2,0.5,3.5c0.8,1.4,1.1,1.3,1.9,2.7c0.8,1.4,1.5,1,2.3,2.5c0.8,1.4,0.2,1.8,1,3.2
		c0.8,1.4,0.3,1.7,1.1,3.1s2.8,0.3,3.6,1.7c0.8,1.4-0.5,2.2,0.3,3.6s1.7,0.9,2.5,2.4c0.8,1.4,1.2,1.2,2,2.6s-0.4,2.1,0.4,3.5
		s1.6,1,0.8,2.5c-0.8,1.4-0.9,0.4-2.5,0.4s-1.6,0.8-3.3,0.8s-1.6-2-3.3-2c-1.6,0-1.6,2.1-3.3,2.1c-1.6,0-1.6-2.3-3.3-2.3
		c-1.6,0-1.6,0.5-3.3,0.5c-1.6,0-1.6,0.6-3.3,0.6c-1.6,0-1.6-1.2-3.3-1.2s-1.6,0.6-3.3,0.6c-1.6,0-1.6-0.2-3.3-0.2
		c-1.6,0-1.6,1.6-3.3,1.6s-1.6,0.5-3.3,0.5c-1.6,0-1.6-1-3.3-1c-1.6,0-1.6,0.2-3.3,0.2c-1.6,0-1.6-0.3-3.3-0.3
		c-1.6,0-1.6-0.6-3.3-0.6c-1.6,0-1.6-0.6-3.3-0.6c-1.6,0-1.6,0.1-3.3,0.1c-1.6,0-1.6,1-3.3,1c-1.6,0-1.6,1.9-3.3,1.9
		s-1.6-1.8-3.3-1.8c-1.6,0-1.6-0.1-3.3-0.1c-1.6,0-1.6,1.1-3.3,1.1c-1.6,0-1.6-1.2-3.3-1.2c-1.6,0-1.6,0.7-3.3,0.7
		c-1.6,0-1.6,1.2-3.3,1.2c-1.6,0-1.6-0.2-3.3-0.2c-1.6,0-1.6-1-3.3-1s-1.6,0.6-3.3,0.6s-1.6-0.6-3.3-0.6c-1.6,0-1.6-0.3-3.3-0.3
		c-1.6,0-1.6-1.2-3.3-1.2c-1.6,0-1.6,1.4-3.3,1.4c-1.6,0-1.6,0.2-3.3,0.2c-1.6,0-1.6,0.5-3.3,0.5c-1.6,0-1.6-0.2-3.3-0.2
		s-1.6,0.9-3.3,0.9s-1.6-1.5-3.3-1.5c-1.6,0-1.6,0.7-3.3,0.7c-1.6,0-1.6-0.1-3.3-0.1c-1.6,0-1.6-1.3-3.3-1.3s-1.6,1.3-3.3,1.3
		c-1.6,0-1.6,0.3-3.3,0.3c-1.6,0-1.6-1.4-3.3-1.4c-1.6,0-1.6,1.8-3.3,1.8c-1.6,0-1.6,0.3-3.3,0.3c-1.6,0-1.6-2.7-3.3-2.7
		c-1.6,0-1.6,0.5-3.3,0.5c-1.6,0-1.6,2-3.3,2c-1.6,0-1.6-0.3-3.3-0.3c-1.6,0-1.6-2.1-3.3-2.1c-1.6,0-1.6,0.7-3.3,0.7
		c-1.6,0-1.6,0.9-3.3,0.9c-1.6,0-1.6-0.1-3.3-0.1c-1.6,0-1.6,0.5-3.3,0.5c-1.6,0-1.6-1.8-3.3-1.8c-1.6,0-1.6,0.6-3.3,0.6
		c-1.6,0-1.6,0.6-3.3,0.6c-1.6,0-1.6-1-3.3-1c-1.6,0-1.6,2.4-3.3,2.4c-1.6,0-1.6-0.5-3.3-0.5c-1.6,0-1.6-0.2-3.3-0.2
		c-1.6,0-1.6-1.5-3.3-1.5c-1.6,0-1.6,0.8-3.3,0.8c-1.6,0-1.6-0.2-3.3-0.2c-1.6,0-1.6-0.5-3.3-0.5c-1.6,0-1.6,1.5-3.3,1.5
		c-1.6,0-1.6-2.1-3.3-2.1s-1.6,2.2-3.3,2.2c-1.6,0-1.6-1.1-3.3-1.1c-1.6,0-1.6-1-3.3-1c-1.6,0-1.6,0.7-3.3,0.7
		c-1.6,0-1.6,0.3-3.3,0.3s-1.6,1.3-3.3,1.3c-1.6,0-1.6-1.9-3.3-1.9c-1.6,0-1.6,1.1-3.3,1.1c-1.6,0-1.6-1.3-3.3-1.3
		c-1.6,0-1.6,1.1-3.3,1.1h-3.3c-1.6,0-1.6,0.5-3.3,0.5c-1.6,0-1.6-1.7-3.3-1.7c-1.6,0-1.6,1.1-3.3,1.1c-1.6,0-1.6,0.9-3.3,0.9
		c-1.6,0-1.6-1.1-3.3-1.1c-1.6,0-1.6,1.6-3.3,1.6c-1.6,0-1.6-1.4-3.3-1.4c-1.6,0-1.6-0.3-3.3-0.3c-1.6,0-1.6-0.3-3.3-0.3
		c-1.6,0-1.6,1.4-3.3,1.4c-1.6,0-1.6-0.3-3.3-0.3s-1.6-1.5-3.3-1.5c-1.6,0-1.6,2.2-3.3,2.2c-1.6,0-1.6-1-3.3-1
		c-1.6,0-1.6-0.9-3.3-0.9c-1.6,0-1.6-0.1-3.3-0.1c-1.6,0-1.6-0.5-3.3-0.5c-1.6,0-1.6,1.2-3.3,1.2c-1.6,0-1.8-0.7-3.4-0.4
		C-81.9,343.9-82.1,345-82.9,343.6L-82.9,343.6z M79.4,361.7c-0.8-1.4-0.3-1.4,0.5-2.8s2.5-0.5,3.3-1.9s-0.2-2,0.6-3.4
		s1.9-0.8,2.7-2.3c0.8-1.4-1.5-2.7-0.7-4.1s1.6-1,2.4-2.4s1.9-0.8,2.7-2.2c0.8-1.4-0.6-2.2,0.2-3.6s1.4-1.1,2.2-2.5
		c0.8-1.4-0.5-2.2,0.3-3.6l1.6-2.8c0.8-1.4,3.2-0.1,4-1.5s-0.8-2.3,0-3.8c0.8-1.4,1.6-1,2.4-2.4s1-1.3,1.8-2.7s0.4-1.7,1.2-3.1
		c0.8-1.4,0.5-1.6,1.3-3s2.2-0.7,2.9-2.1c0.8-1.4,0.2-1.8,1-3.2c0.8-1.4,0.1-1.8,0.9-3.3c0.8-1.4,2.2-0.7,3-2.1s-1.3-2.6-0.5-4
		s1.5-1.1,2.3-2.5s1.8-0.9,2.6-2.3s0-1.9,0.8-3.3s-0.1-1.9,0.7-3.3c0.8-1.4,1.2-1.2,2-2.6s0.3-1.7,1.1-3.1c0.8-1.4,1.2-1.2,2-2.6
		s0.5-1.6,1.3-3s2.2-0.7,2.9-2.1c0.8-1.4-1-2.4-0.2-3.8s2.9-0.2,3.7-1.7c0.8-1.4-0.7-2.3,0.1-3.7c0.8-1.4,0.4-1.6,1.2-3
		s1-1.3,1.8-2.7c0.8-1.4,1.9-0.8,2.7-2.2c0.8-1.4,0.9-1.4,1.7-2.8c0.8-1.4,1.4-1.1,2.2-2.5s-1.3-2.6-0.5-4s1.7-0.9,2.5-2.3
		s1.5-1.1,2.3-2.5s1.4-1.1,2.2-2.5s-0.8-2.3,0-3.8c0.8-1.4,2.2-0.7,3-2.1c0.8-1.4,0.1-1.8,0.9-3.2c0.8-1.4,0.4-1.6,1.2-3.1
		c0.8-1.4,1.7-0.9,2.5-2.3s0.6-1.5,1.4-2.9c0.8-1.4,0.1-1.8,0.9-3.2c0.8-1.4,0.7-1.5,1.5-2.9s1.4-1.1,2.1-2.5
		c0.8-1.4-0.9-2.4-0.1-3.8s3.1-0.1,3.9-1.5c0.8-1.4,1-1.3,1.8-2.8c0.8-1.4,0.1-1.8,0.9-3.2c0.8-1.4,0.5-1.6,1.3-3s0.9-1.4,1.6-2.8
		c0.8-1.4,1.4-1.1,2.2-2.5s0.4-1.7,1.2-3.1c0.8-1.4,0.8-1.4,1.6-2.9c0.8-1.4,0.4-1.6,1.2-3.1c0.8-1.4,0.9-1.3,1.7-2.8
		c0.8-1.4,1.7-0.9,2.5-2.4c0.8-1.4,0-1.9,0.8-3.3s0.2-1.8,1-3.2s2-0.7,2.8-2.2c0.8-1.4,0.7-1.5,1.5-2.9s-0.8-2.3,0-3.8
		c0.8-1.4,2.8-0.3,3.6-1.7s-0.3-2,0.5-3.5c0.8-1.4,0.9-1.3,1.7-2.8c0.8-1.4,1.1-1.3,1.9-2.7c0.8-1.4,0.3-1.7,1.1-3.1
		c0.8-1.4-0.2-2,0.6-3.4s2.9-0.3,3.7-1.7s0.2-1.8,1-3.2s-0.8-2.3,0-3.7s1.8-0.9,2.6-2.3s1.2-1.2,2-2.6c0.8-1.4,0.3-1.7,1.1-3.1
		c0.8-1.4,0.9-1.4,1.7-2.8c0.8-1.4,0.1-1.8,0.9-3.2c0.8-1.4,0.2-1.7,1-3.2c0.8-1.4,2-0.7,2.8-2.2c0.8-1.4,1.3-1.2,2.1-2.6
		s1.1-1.3,1.9-2.7l1.6-2.8c0.8-1.4-0.8-2.3,0-3.7l1.6-2.8c0.8-1.4,1.4-1.1,2.2-2.5s0-1.9,0.8-3.3s1.5-1.1,2.3-2.5s1.4-1.1,2.2-2.5
		s0.4-1.6,1.2-3.1c0.8-1.4,0-1.9,0.8-3.3s0.7-1.5,1.5-2.9s0.6-1.5,1.4-3c0.8-1.4,2.1-0.7,2.9-2.1c0.8-1.4,1.6-1,2.4-2.4
		c0.8-1.4-1.5-2.7-0.7-4.2c0.8-1.4,1.2-2.1,2.8-2.1s0.7,1.4,1.5,2.9c0.8,1.4,1.6,1,2.4,2.4c0.8,1.4,0.1,1.8,0.9,3.2
		c0.8,1.4,0.5,1.6,1.3,3s-0.2,2,0.6,3.4s2.2,0.6,3,2.1c0.8,1.4,1.8,0.9,2.6,2.3s-0.4,2.1,0.4,3.5s1.3,1.2,2,2.6
		c0.8,1.4-0.2,2,0.6,3.4c0.8,1.4,0.5,1.6,1.3,3s0.5,1.6,1.3,3s2.2,0.6,3,2s1.4,1.1,2.2,2.5c0.8,1.4-1.2,2.5-0.4,4
		c0.8,1.4,1.9,0.8,2.7,2.2c0.8,1.4,0.2,1.8,1,3.2c0.8,1.4,0.9,1.4,1.7,2.8c0.8,1.4,1.5,1.1,2.3,2.5s0.4,1.7,1.2,3.1
		c0.8,1.4,1.7,0.9,2.5,2.3s1.3,1.1,2.1,2.6c0.8,1.4,0.2,1.8,1,3.2s1.2,1.2,2,2.6c0.8,1.4-0.2,2,0.6,3.4s1.6,0.9,2.4,2.4
		c0.8,1.4,0.5,1.6,1.3,3s0.3,1.7,1.1,3.1c0.8,1.4,1.7,0.9,2.5,2.3s-0.7,2.3,0.1,3.7c0.8,1.4,2.5,0.5,3.3,1.9s0.1,1.8,0.9,3.2
		s1.7,0.9,2.5,2.3s-1.6,2.8-0.8,4.2c0.8,1.4,3.2,0.1,4,1.5s0.1,1.8,0.9,3.3c0.8,1.4,0.1,1.8,0.9,3.2s1.2,1.2,2,2.6
		c0.8,1.4,0.2,1.8,1,3.2s2.5,0.5,3.3,1.9s-1.7,2.8-0.9,4.3c0.8,1.4,2.2,0.6,3,2.1c0.8,1.4,0.6,1.5,1.4,2.9s1.1,1.3,1.9,2.7
		s0.6,1.5,1.4,3c0.8,1.4,1.6,1,2.4,2.4s-1.3,2.6-0.5,4s1.5,1,2.3,2.5c0.8,1.4,1.3,1.2,2.1,2.6c0.8,1.4-0.3,2.1,0.4,3.5
		c0.8,1.4,3.3,0,4.1,1.4c0.8,1.4,0.4,1.6,1.2,3.1c0.8,1.4-0.9,2.4-0.1,3.8s1.8,0.9,2.6,2.3s1,1.3,1.8,2.7s-0.9,2.4-0.1,3.8
		s1.5,1,2.3,2.5c0.8,1.4,1.6,1,2.4,2.4s0.6,1.5,1.4,3c0.8,1.4,0.9,1.4,1.7,2.8c0.8,1.4,0.3,1.7,1.1,3.1c0.8,1.4,0.1,1.8,0.9,3.3
		c0.8,1.4,2.2,0.6,3,2.1c0.8,1.4,0.1,1.8,0.9,3.2s0.2,1.8,1,3.2s1.7,0.9,2.5,2.3s2,0.7,2.8,2.2c0.8,1.4-0.6,2.2,0.2,3.6
		s1.3,1.1,2.1,2.6c0.8,1.4-0.6,2.2,0.2,3.6s2.4,0.5,3.2,1.9c0.8,1.4-0.6,2.2,0.2,3.6s2.9,0.3,3.7,1.7c0.8,1.4-1.3,2.6-0.5,4
		s2.1,0.7,2.9,2.1s-0.1,1.9,0.7,3.4c0.8,1.4,0.2,1.8,1,3.2c0.8,1.4,0.5,1.6,1.3,3s1.5,1,2.3,2.4s2.3,0.6,3.1,2
		c0.8,1.4,0.9,1.4,1.7,2.8c0.8,1.4-0.4,2.1,0.4,3.5s0.7,1.5,1.5,2.9s1.5,1,2.3,2.5c0.8,1.4,0.9,1.4,1.7,2.8c0.8,1.4,1.3,1.2,2.1,2.6
		c0.8,1.4,1.1,1.3,1.9,2.7c0.8,1.4-0.8,2.3,0,3.8c0.8,1.4,1.8,0.9,2.6,2.3s0.2,1.8,1,3.2c0.8,1.4,1.9,0.8,2.7,2.2
		c0.8,1.4-1.4,2.7-0.6,4.1s0.8,1.4,1.6,2.9c0.8,1.4,3.2,0.1,4,1.5s-0.3,2.1,0.5,3.5s1.2,1.2,2,2.6s0.5,1.6,1.3,3s0.9,1.4,1.7,2.8
		c0.8,1.4,0.4,1.7,1.2,3.1c0.8,1.4,0.3,1.7,1.1,3.1c0.8,1.4,0.7,1.5,1.5,2.9s2,0.3,1.1,1.7c-0.8,1.4-0.4,1-2.1,1s-1.6,1.1-3.3,1.1
		c-1.6,0-1.6-1.7-3.3-1.7h-3.3c-1.6,0-1.6,0.3-3.3,0.3c-1.6,0-1.6,1.2-3.3,1.2s-1.6-0.4-3.3-0.4c-1.6,0-1.6,0.7-3.3,0.7
		c-1.6,0-1.6-1.1-3.3-1.1c-1.6,0-1.6-1.6-3.3-1.6s-1.6,2-3.3,2c-1.6,0-1.6-0.3-3.3-0.3s-1.6-0.4-3.3-0.4s-1.6,0.5-3.3,0.5
		c-1.6,0-1.6-0.1-3.3-0.1s-1.6-0.4-3.3-0.4c-1.6,0-1.6-1-3.3-1h-3.3c-1.6,0-1.6,1.8-3.3,1.8h-3.3c0,0-1.6,0.3-3.3,0.3
		c-1.6,0-1.6-1.6-3.3-1.6s-1.6,0.9-3.3,0.9s-1.6,0.6-3.3,0.6c-1.6,0-1.6,0.4-3.3,0.4c-1.6,0-1.6-1.4-3.3-1.4c-1.6,0-1.6-0.9-3.3-0.9
		c-1.6,0-1.6-0.1-3.3-0.1s-1.6,2.4-3.3,2.4s-1.6-2.2-3.3-2.2c-1.6,0-1.6,1-3.3,1c-1.6,0-1.6,1.1-3.3,1.1c-1.6,0-1.6-1.4-3.3-1.4
		c-1.6,0-1.6-1-3.3-1s-1.6,0.8-3.3,0.8c-1.6,0-1.6,0.7-3.3,0.7s-1.6-1.1-3.3-1.1s-1.6,0.2-3.3,0.2s-1.6,1-3.3,1s-1.6-1.5-3.3-1.5
		s-1.6-0.5-3.3-0.5s-1.6,2.8-3.3,2.8s-1.6-0.8-3.3-0.8c-1.6,0-1.6-2-3.3-2c-1.6,0-1.6,2.1-3.3,2.1c-1.6,0-1.6-1.5-3.3-1.5
		c-1.6,0-1.6,0.6-3.3,0.6c-1.6,0-1.6,1.6-3.3,1.6c-1.6,0-1.6-0.2-3.3-0.2c-1.6,0-1.6-0.1-3.3-0.1H236c-1.6,0-1.6-2.2-3.3-2.2
		s-1.6,0.2-3.3,0.2c-1.6,0-1.6,0.5-3.3,0.5c-1.6,0-1.6,1.8-3.3,1.8c-1.6,0-1.6-1-3.3-1c-1.6,0-1.6-0.1-3.3-0.1s-1.6,0.9-3.3,0.9
		s-1.6-1.3-3.3-1.3c-1.6,0-1.6-0.5-3.3-0.5c-1.6,0-1.6,1.7-3.3,1.7c-1.6,0-1.6-2.3-3.3-2.3h-3.3c-1.6,0-1.6,0.5-3.3,0.5
		c-1.6,0-1.6-0.2-3.3-0.2c-1.6,0-1.6,1.3-3.3,1.3s-1.6,0.2-3.3,0.2c-1.6,0-1.6,0.2-3.3,0.2c-1.6,0-1.6-1.8-3.3-1.8
		c-1.6,0-1.6,1-3.3,1c-1.6,0-1.6-0.8-3.3-0.8c-1.6,0-1.6,2-3.3,2c-1.6,0-1.6-0.5-3.3-0.5c-1.6,0-1.6-0.6-3.3-0.6
		c-1.6,0-1.6,1.1-3.3,1.1c-1.6,0-1.6-1.4-3.3-1.4c-1.6,0-1.6-0.6-3.3-0.6c-1.6,0-1.6,0.5-3.3,0.5c-1.6,0-1.6,0.1-3.3,0.1
		c-1.6,0-1.6,0.6-3.3,0.6c-1.6,0-1.6,1.2-3.3,1.2c-1.6,0-1.6-0.5-3.3-0.5c-1.6,0-1.6-0.1-3.3-0.1c-1.6,0-1.6-1-3.3-1
		c-1.6,0-1.6-0.7-3.3-0.7c-1.6,0-1.6,1-3.3,1c-1.6,0-1.6,0.2-3.3,0.2c-1.6,0-1.6,0.9-3.3,0.9c-1.6,0-1.6-2.4-3.3-2.4
		c-1.6,0-1.6,2.2-3.3,2.2c-1.6,0-1.6-2.2-3.3-2.2c-1.6,0-1.6,0.6-3.3,0.6c-1.6,0-1.6-0.9-3.3-0.9h-3.3c-1.6,0-1.6,2.9-3.3,2.9
		s-1.6-2.6-3.3-2.6c-1.6,0-1.6,1.3-3.3,1.3c-1.6,0-1.8-1.1-3.4-0.8C80.5,361.8,80.3,363.1,79.4,361.7L79.4,361.7z M-0.2,295.7
		c-0.8-1.4,1.5-2.4,2.2-3.8c0.8-1.4,0.7-1.5,1.5-2.9s0.3-1.7,1.1-3.1s1.7-0.9,2.5-2.4c0.8-1.4,1.2-1.2,2-2.6s1.7-0.9,2.5-2.3
		s0.1-1.8,0.9-3.2c0.8-1.4,0.7-1.5,1.5-2.9s1.7-0.9,2.5-2.3c0.8-1.4-1.5-2.7-0.7-4.2c0.8-1.4,2.7-0.4,3.5-1.8s1.5-1.1,2.2-2.5
		c0.8-1.4-1-2.4-0.2-3.9c0.8-1.4,0.7-1.5,1.5-2.9s2.1-0.7,2.9-2.1c0.8-1.4-0.8-2.3,0-3.7s2.2-0.6,3-2.1c0.8-1.4,0.7-1.5,1.5-2.9
		s1.4-1.1,2.2-2.5s-0.8-2.3,0-3.7s0.5-1.6,1.3-3s1.9-0.8,2.7-2.2s0.4-1.7,1.2-3.1c0.8-1.4,0.4-1.6,1.2-3.1c0.8-1.4,1.1-1.3,1.9-2.7
		c0.8-1.4,0.6-1.6,1.4-3c0.8-1.4,1.3-1.2,2.1-2.6c0.8-1.4,0.2-1.8,1-3.2s0.7-1.5,1.5-2.9s2.6-0.4,3.4-1.8c0.8-1.4,0.1-1.8,0.9-3.2
		c0.8-1.4,0.3-1.7,1.1-3.1c0.8-1.4,0.2-1.8,1-3.2s2.1-0.7,2.8-2.1c0.8-1.4-0.7-2.3,0.1-3.7s0.9-1.3,1.7-2.8c0.8-1.4,2.7-0.3,3.5-1.8
		c0.8-1.4,0.1-1.8,0.9-3.2c0.8-1.4,1.3-1.1,2.1-2.6c0.8-1.4-1.2-2.5-0.4-3.9c0.8-1.4,1.1-1.2,1.9-2.7c0.8-1.4,2.6-0.4,3.4-1.9
		c0.8-1.4,0.6-1.5,1.4-2.9s0.6-1.6,1.4-3s-1.1-2.5-0.3-3.9l1.6-2.8c0.8-1.4,2.4-0.5,3.2-2c0.8-1.4,1.4-1.1,2.2-2.5
		c0.8-1.4,0.2-1.8,1-3.2s-0.2-2,0.6-3.4s2.2-0.6,3-2s0.3-1.7,1.1-3.1c0.8-1.4,0.3-1.7,1.1-3.1c0.8-1.4,1.6-1,2.4-2.4s0-1.9,0.8-3.3
		s0.6-1.5,1.4-3c0.8-1.4,0.2-1.8,1-3.2s2.6-0.4,3.4-1.8c0.8-1.4,0.7-1.5,1.5-2.9s-0.9-2.4-0.1-3.8s2-0.7,2.8-2.2
		c0.8-1.4,1.7-0.9,2.5-2.3s0.4-1.7,1.1-3.1c0.8-1.4-1-2.4-0.2-3.9c0.8-1.4,2.6-0.4,3.4-1.8s-0.8-2.3,0-3.7c0.8-1.4,2-0.8,2.8-2.2
		c0.8-1.4,1.2-1.2,2-2.6s-0.2-2,0.6-3.4s-0.1-1.9,0.7-3.3l1.6-2.8c0.8-1.4,1.3-1.1,2.1-2.6c0.8-1.4,1-1.3,1.8-2.7
		c0.8-1.4,1.9-0.8,2.7-2.2c0.8-1.4,0.9-1.3,1.7-2.8l1.6-2.8c0.8-1.4-0.4-2.1,0.4-3.5l1.6-2.8c0.8-1.4,1.3-1.2,2.1-2.6
		c0.8-1.4,0.1-1.8,0.9-3.3c0.8-1.4,2.2-0.7,2.9-2.1c0.8-1.4-0.9-2.4-0.1-3.8s1-1.3,1.8-2.7s0.8-1.4,1.6-2.9c0.8-1.4,2.8-0.3,3.6-1.8
		c0.8-1.4-0.8-2.3,0-3.7s1.1-1.2,1.9-2.7c0.8-1.4-0.4-2.1,0.4-3.5s1.1-1.3,1.9-2.7c0.8-1.4,0.7-1.5,1.5-2.9s1.9-0.8,2.7-2.2
		s-0.5-2.2,0.3-3.6s2.6-0.4,3.4-1.8c0.8-1.4-0.4-2.1,0.4-3.5s0.5-1.6,1.3-3s1.8-0.9,2.6-2.3s-0.4-2.1,0.4-3.5s2.9-0.2,3.7-1.7
		c0.8-1.4,0.9-1.4,1.7-2.8s-1.1-2.5-0.3-3.9s1.1-1.3,1.9-2.7c0.8-1.4,0.5-1.2,2.1-1.2s0.3,0.3,1.1,1.7s0.7,1.5,1.5,2.9
		s2.1,0.7,2.9,2.1c0.8,1.4-0.7,2.3,0.1,3.7s0.3,1.7,1.1,3.1s1.7,0.9,2.5,2.3s1.5,1,2.3,2.5c0.8,1.4,0.2,1.7,1,3.2s0.1,1.8,0.9,3.2
		c0.8,1.4,0.6,1.5,1.4,2.9c0.8,1.4,1.2,1.2,2,2.6c0.8,1.4,1.8,0.9,2.6,2.3s0.8,1.4,1.6,2.9c0.8,1.4-0.3,2,0.5,3.4s1.9,0.8,2.7,2.2
		s-0.8,2.3,0,3.7s1.5,1,2.3,2.4s1.3,1.1,2.1,2.6l1.6,2.8c0.8,1.4,0.1,1.8,0.9,3.2c0.8,1.4,1.4,1.1,2.2,2.5s0.6,1.5,1.4,2.9
		c0.8,1.4,1.5,1,2.3,2.5c0.8,1.4,1.5,1,2.3,2.5c0.8,1.4,0.7,1.5,1.5,2.9s0.9,1.4,1.7,2.8s-1.6,2.8-0.8,4.2c0.8,1.4,2.2,0.6,3,2.1
		c0.8,1.4-0.2,2,0.6,3.4s1.4,1.1,2.2,2.5s2,0.8,2.8,2.2c0.8,1.4,1,1.3,1.8,2.8c0.8,1.4-1.5,2.7-0.7,4.1s1.7,0.9,2.5,2.3
		s1.3,1.2,2.1,2.6s0.6,1.5,1.4,2.9c0.8,1.4-0.7,2.2,0.1,3.7c0.8,1.4,2,0.7,2.8,2.2c0.8,1.4-0.4,2.1,0.4,3.5s2.2,0.6,3,2.1l1.6,2.8
		c0.8,1.4,0.7,1.5,1.5,2.9l1.6,2.8c0.8,1.4-0.4,2.1,0.4,3.5s1.9,0.8,2.7,2.2s0.3,1.7,1.1,3.1c0.8,1.4,0.1,1.8,0.9,3.2
		c0.8,1.4,2.4,0.5,3.2,2c0.8,1.4,0.4,1.6,1.2,3.1c0.8,1.4-0.2,2,0.6,3.4s2.4,0.5,3.2,1.9s1.3,1.1,2.1,2.6c0.8,1.4,0,1.9,0.8,3.3
		s-0.7,2.3,0.1,3.7s1.2,1.2,2,2.6c0.8,1.4,0.5,1.6,1.3,3s2.2,0.6,3,2s1.7,0.9,2.5,2.4c0.8,1.4-0.8,2.3,0,3.7s1.6,1,2.4,2.4
		s1.3,1.1,2.1,2.6c0.8,1.4-0.5,2.2,0.3,3.6s2.2,0.7,3,2.1c0.8,1.4,0.1,1.8,0.9,3.3c0.8,1.4,0.1,1.8,0.9,3.3c0.8,1.4,2,0.7,2.8,2.2
		c0.8,1.4-0.6,2.2,0.2,3.6s2.4,0.5,3.2,2c0.8,1.4-0.8,2.3,0,3.7s0.9,1.4,1.7,2.8c0.8,1.4,2,0.8,2.8,2.2s0.2,1.7,1,3.2
		c0.8,1.4,1.7,0.9,2.5,2.4c0.8,1.4,0.7,1.5,1.5,2.9s0.3,1.7,1.1,3.1c0.8,1.4-0.7,2.2,0.1,3.7c0.8,1.4,2.8,0.3,3.6,1.8
		c0.8,1.4,0.7,1.5,1.5,2.9s1.2,1.2,2,2.6c0.8,1.4,1,1.3,1.8,2.7s0.2,1.8,1,3.2s-0.9,2.4-0.1,3.8s2.5,0.5,3.3,1.9s-0.3,2,0.5,3.5
		c0.8,1.4,2.2,0.7,3,2.1c0.8,1.4,0.3,1.7,1.1,3.1c0.8,1.4-0.2,2,0.6,3.4s2.1,0.7,2.9,2.1s-0.5,2.1,0.3,3.5s1.5,1,2.3,2.5
		c0.8,1.4-0.4,2.1,0.4,3.5s2.2,0.6,3,2.1c0.8,1.4,1.3,1.2,2,2.6c0.8,1.4,0.6,1.5,1.4,3c0.8,1.4-0.6,2.2,0.2,3.6s0.4,1.6,1.2,3.1
		c0.8,1.4,1.4,1.1,2.2,2.5c0.8,1.4,1.2,1.2,2,2.6s-0.1,1.9,0.7,3.3c0.8,1.4,1.7,0.9,2.5,2.4c0.8,1.4,1.3,1.2,2.1,2.6
		c0.8,1.4,2.6,2,1.7,3.4c-0.8,1.4-2.2,0.6-3.8,0.6c-1.6,0-1.6-1.6-3.3-1.6s-1.6,1-3.3,1c-1.6,0-1.6-0.4-3.3-0.4
		c-1.6,0-1.6,0.1-3.3,0.1s-1.6-0.6-3.3-0.6c-1.6,0-1.6,1.4-3.3,1.4c-1.6,0-1.6-1.1-3.3-1.1c-1.6,0-1.6,1.3-3.3,1.3s-1.6,0.4-3.3,0.4
		s-1.6-2.6-3.3-2.6c-1.6,0-1.6,1.6-3.3,1.6s-1.6-0.4-3.3-0.4c-1.6,0-1.6,1.3-3.3,1.3s-1.6-2.6-3.3-2.6c-1.6,0-1.6,1-3.3,1
		s-1.6,0.5-3.3,0.5c-1.6,0-1.6-0.7-3.3-0.7s-1.6,1.3-3.3,1.3h-3.3c0,0-1.6-1.5-3.3-1.5s-1.6,1.7-3.3,1.7c-1.6,0-1.6-0.1-3.3-0.1
		c-1.6,0-1.6-2-3.3-2s-1.6,1.6-3.3,1.6c-1.6,0-1.6-1.7-3.3-1.7c-1.6,0-1.6,2-3.3,2c-1.6,0-1.6-1-3.3-1c-1.6,0-1.6,0.1-3.3,0.1
		s-1.6,0.9-3.3,0.9s-1.6,0.6-3.3,0.6c-1.6,0-1.6-0.1-3.3-0.1s-1.6-1.7-3.3-1.7s-1.6-0.6-3.3-0.6s-1.6,1.4-3.3,1.4
		c-1.6,0-1.6,0.1-3.3,0.1s-1.6,0.6-3.3,0.6s-1.6-0.8-3.3-0.8c-1.6,0-1.6-0.3-3.3-0.3c-1.6,0-1.6-0.4-3.3-0.4c-1.6,0-1.6,0.8-3.3,0.8
		c-1.6,0-1.6,0.9-3.3,0.9s-1.6-0.5-3.3-0.5c-1.6,0-1.6-1.3-3.3-1.3c-1.6,0-1.6-0.3-3.3-0.3c-1.6,0-1.6,2.1-3.3,2.1
		c-1.6,0-1.6-0.5-3.3-0.5s-1.6-1.2-3.3-1.2c-1.6,0-1.6,0.7-3.3,0.7c-1.6,0-1.6-1.1-3.3-1.1c-1.6,0-1.6,2-3.3,2
		c-1.6,0-1.6,0.2-3.3,0.2c-1.6,0-1.6-2.5-3.3-2.5c-1.6,0-1.6,0.6-3.3,0.6c-1.6,0-1.6-0.5-3.3-0.5c-1.6,0-1.6-0.1-3.3-0.1
		c-1.6,0-1.6,2.4-3.3,2.4c-1.6,0-1.6-0.8-3.3-0.8c-1.6,0-1.6-0.4-3.3-0.4s-1.6-1.1-3.3-1.1c-1.6,0-1.6,1.9-3.3,1.9
		c-1.6,0-1.6,0.5-3.3,0.5s-1.6-1.1-3.3-1.1c-1.6,0-1.6-1.3-3.3-1.3c-1.6,0-1.6,0.7-3.3,0.7c-1.6,0-1.6,1.5-3.3,1.5
		c-1.6,0-1.6-2.6-3.3-2.6c-1.6,0-1.6,0.6-3.3,0.6s-1.6,1.7-3.3,1.7c-1.6,0-1.6-1.1-3.3-1.1c-1.6,0-1.6,0.7-3.3,0.7s-1.6,0.1-3.3,0.1
		c-1.6,0-1.6,0.7-3.3,0.7c-1.6,0-1.6-1-3.3-1c-1.6,0-1.6-0.7-3.3-0.7c-1.6,0-1.6,0.7-3.3,0.7c-1.6,0-1.6,1-3.3,1c-1.6,0-1.6-1-3.3-1
		c-1.6,0-1.6-0.6-3.3-0.6c-1.6,0-1.6,1.7-3.3,1.7h-3.3c-1.6,0-1.6-1.7-3.3-1.7c-1.6,0-1.6,1.6-3.3,1.6c-1.6,0-1.6-2-3.3-2
		c-1.6,0-1.6,0.9-3.3,0.9c-1.6,0-1.6-1.2-3.3-1.2c-1.6,0-1.6-0.2-3.3-0.2c-1.6,0-1.6,1.1-3.3,1.1c-1.6,0-1.6,0.8-3.3,0.8
		c-1.6,0-1.6-1.5-3.3-1.5c-1.6,0-1.6,2-3.3,2c-1.6,0-1.6,0.2-3.3,0.2c-1.6,0-1.6-1.6-3.3-1.6c-1.6,0-1.6-0.3-3.3-0.3
		c-1.6,0-1.6,1.9-3.3,1.9c-1.6,0-1.6,0.1-3.3,0.1c-1.6,0-1.6-2.2-3.3-2.2c-1.6,0-1.5,1.3-3,1.8C2.2,296.6,0.6,297.1-0.2,295.7
		L-0.2,295.7z M202.1,337.8c-0.8-1.4-0.2-1.6,0.6-3s2.6-0.4,3.4-1.8c0.8-1.4,0.1-1.8,0.9-3.2c0.8-1.4,0-1.9,0.8-3.3s1-1.3,1.8-2.7
		c0.8-1.4-0.2-2,0.6-3.4s2.2-0.6,3-2.1c0.8-1.4,0.7-1.5,1.5-2.9s1.7-0.9,2.5-2.3s0.4-1.6,1.2-3.1l1.6-2.8c0.8-1.4-0.6-2.2,0.2-3.6
		s0.2-1.7,1-3.2c0.8-1.4,3-0.2,3.8-1.6s-1.3-2.6-0.5-4s2.7-0.4,3.5-1.8s-0.7-2.3,0.1-3.7c0.8-1.4,1.8-0.9,2.6-2.3l1.6-2.8
		c0.8-1.4,0-1.9,0.8-3.3s1.8-0.8,2.6-2.3c0.8-1.4,0.1-1.8,0.9-3.2c0.8-1.4-0.3-2,0.5-3.4s1.1-1.2,1.9-2.7c0.8-1.4,2.4-0.5,3.2-2
		c0.8-1.4,0.6-1.5,1.4-2.9c0.8-1.4,0.9-1.4,1.7-2.8s1.2-1.2,2-2.6s-0.4-2.1,0.4-3.5s1.1-1.2,1.9-2.7c0.8-1.4,1.7-0.9,2.5-2.3
		s0-1.9,0.8-3.3s-0.1-1.9,0.7-3.3c0.8-1.4,2-0.7,2.8-2.2c0.8-1.4,0.9-1.4,1.7-2.8c0.8-1.4,1.3-1.2,2.1-2.6c0.8-1.4-1.4-2.7-0.6-4.1
		c0.8-1.4,2.1-0.7,2.9-2.1c0.8-1.4,1.1-1.2,1.9-2.7c0.8-1.4,0-1.9,0.8-3.3s-0.4-2.1,0.4-3.5s1.2-1.2,2-2.6l1.6-2.8
		c0.8-1.4,1.7-0.9,2.5-2.3s0.5-1.6,1.3-3s1.9-0.8,2.7-2.2c0.8-1.4-1.4-2.6-0.6-4.1c0.8-1.4,1.8-0.9,2.6-2.3s1.1-1.2,1.9-2.7
		c0.8-1.4,1.2-1.2,2-2.6c0.8-1.4,0.2-1.8,1-3.2s0.4-1.6,1.2-3.1c0.8-1.4,1.1-1.2,1.9-2.7c0.8-1.4,1.9-0.8,2.7-2.2
		c0.8-1.4-0.7-2.2,0.1-3.7c0.8-1.4,1.6-1,2.4-2.4s-0.9-2.4-0.1-3.8s2.5-0.4,3.3-1.9c0.8-1.4,1.6-1,2.4-2.4s-1.4-2.7-0.7-4.1
		c0.8-1.4,1.7-0.9,2.5-2.3s1.8-0.9,2.6-2.3s-1.3-2.6-0.5-4s1.8-0.9,2.6-2.3l1.6-2.8c0.8-1.4,0-1.9,0.8-3.3s2.4-0.5,3.2-2
		c0.8-1.4,1.6-1,2.4-2.4s-1.5-2.7-0.7-4.1c0.8-1.4,1.6-1,2.4-2.4s0.7-1.5,1.5-2.9s2.2-0.6,3-2s0.4-1.6,1.2-3.1
		c0.8-1.4,0.9-1.4,1.7-2.8c0.8-1.4,0.8-1.4,1.6-2.9c0.8-1.4,0.2-1.8,1-3.2c0.8-1.4-0.2-2,0.6-3.4l1.6-2.8c0.8-1.4,1.7-0.9,2.5-2.4
		c0.8-1.4-0.3-2,0.5-3.5c0.8-1.4,1.8-0.9,2.6-2.3s0.9-1.4,1.7-2.8c0.8-1.4,0.6-1.5,1.4-3c0.8-1.4-0.3-2.1,0.4-3.5
		c0.8-1.4,2.1-0.7,2.9-2.1s0-1.9,0.8-3.3s0.2-1.8,1-3.2c0.8-1.4,2.7-0.4,3.5-1.8s0.9-1.4,1.7-2.8c0.8-1.4,0-1.9,0.8-3.3
		s1.8-0.9,2.6-2.3s1.2-1.2,2-2.6s-1-2.4-0.2-3.9c0.8-1.4,2.1-0.7,2.9-2.1s-0.8-2.3,0-3.8c0.8-1.4,2.6-0.4,3.4-1.9
		c0.8-1.4,0.3-1.7,1.1-3.1c0.8-1.4,1.5-1,2.3-2.5c0.8-1.4-0.2-2,0.6-3.4s-0.2-2,0.6-3.4s2.4-0.6,3.2-2c0.8-1.4-0.7-4.4,0.9-4.4
		s2,1.9,2.8,3.3s0.5,1.6,1.3,3s-0.7,2.3,0.1,3.7c0.8,1.4,2.2,0.6,3,2s-0.6,2.2,0.2,3.7c0.8,1.4,2.1,0.7,2.9,2.1s0.2,1.8,1,3.2
		s-0.3,2,0.5,3.5c0.8,1.4,2.3,0.6,3.1,2c0.8,1.4-1,2.4-0.2,3.9c0.8,1.4,1.6,1,2.4,2.4s0.7,1.5,1.5,2.9s2,0.7,2.8,2.2
		c0.8,1.4,0.9,1.3,1.7,2.8c0.8,1.4-0.2,2,0.6,3.4s1.1,1.2,1.9,2.7c0.8,1.4,0.3,1.7,1.1,3.1c0.8,1.4,1.9,0.8,2.7,2.2
		c0.8,1.4,0.1,1.8,0.9,3.3c0.8,1.4,0.7,1.5,1.5,2.9s1.5,1.1,2.3,2.5s-0.8,2.3,0,3.8c0.8,1.4,0.7,1.5,1.5,2.9s2.4,0.6,3.2,2
		c0.8,1.4-0.4,2.1,0.4,3.5s2.2,0.7,3,2.1s1.1,1.2,1.9,2.7c0.8,1.4,0.2,1.8,1,3.2l1.6,2.8c0.8,1.4,1.1,1.3,1.9,2.7s1.3,1.2,2.1,2.6
		c0.8,1.4,0.7,1.5,1.5,2.9s-0.2,2,0.6,3.4s0.5,1.6,1.3,3s1.7,0.9,2.5,2.3s-0.5,2.1,0.3,3.6l1.6,2.8c0.8,1.4,1.9,0.8,2.7,2.2
		c0.8,1.4-0.8,2.3,0,3.7s1.9,0.8,2.6,2.2c0.8,1.4,1.4,1.1,2.2,2.5c0.8,1.4,0.2,1.7,1,3.2c0.8,1.4,0.5,1.6,1.3,3s0.1,1.8,0.9,3.2
		s2.7,0.4,3.5,1.8c0.8,1.4,0.1,1.8,0.9,3.2s-0.2,2,0.6,3.4s2.2,0.6,3,2.1c0.8,1.4,0.9,1.4,1.7,2.8c0.8,1.4,0.4,1.7,1.2,3.1
		c0.8,1.4-0.1,1.9,0.7,3.4c0.8,1.4,1.3,1.1,2.1,2.5s2.2,0.7,3,2.1c0.8,1.4,0.6,1.5,1.4,3c0.8,1.4-1.1,2.5-0.3,3.9s0.5,1.6,1.3,3
		s1.9,0.8,2.7,2.2c0.8,1.4,1.1,1.2,1.9,2.7c0.8,1.4-0.8,2.3,0,3.8c0.8,1.4,1.5,1.1,2.3,2.5s0.3,1.7,1.1,3.1c0.8,1.4,1.1,1.3,1.9,2.7
		s1.7,0.9,2.5,2.3s0.9,1.4,1.7,2.8c0.8,1.4-0.4,2.1,0.4,3.5s2.5,0.5,3.3,1.9s-1,2.4-0.2,3.9c0.8,1.4,2.6,0.4,3.4,1.8
		c0.8,1.4,0.3,1.7,1.1,3.1c0.8,1.4,0.6,1.6,1.4,3s0,1.9,0.8,3.3s1.7,0.9,2.5,2.3s-0.2,2,0.6,3.4s1.4,1.1,2.2,2.5
		c0.8,1.4,2.3,0.6,3.1,2c0.8,1.4-1.6,2.8-0.8,4.2c0.8,1.4,2.3,0.6,3.1,2c0.8,1.4,1,1.3,1.8,2.8c0.8,1.4,1.6,1,2.4,2.4s0.5,1.6,1.3,3
		s0.8,1.4,1.6,2.9c0.8,1.4-1.4,2.7-0.6,4.1s3,0.2,3.8,1.6s0.1,1.8,0.9,3.2c0.8,1.4,0.1,1.8,0.9,3.3c0.8,1.4,0.2,1.7,1,3.2
		c0.8,1.4,2.9,0.3,3.7,1.7c0.8,1.4-1.3,2.6-0.5,4s2,0.8,2.8,2.2c0.8,1.4,0.7,1.5,1.5,2.9s0.6,1.6,1.4,3s0.5,1.6,1.3,3s0,1.9,0.8,3.3
		c0.8,1.4,1.9,0.8,2.7,2.3c0.8,1.4,1.8,0.9,2.6,2.3s-1.2,2.5-0.4,4c0.8,1.4,1.3,1.2,2.1,2.6s1.1,1.2,1.9,2.7c0.8,1.4,1.2,1.2,2,2.7
		c0.8,1.4,0.1,1.8,0.9,3.3c0.8,1.4,1.7,0.9,2.5,2.4s1.7,1.3,0.8,2.7c-0.8,1.4-1.1,1.3-2.8,1.3c-1.6,0-1.6-2.3-3.3-2.3
		c-1.6,0-1.6,0.6-3.3,0.6c-1.6,0-1.6-0.3-3.3-0.3h-3.3c-1.6,0-1.6,2-3.3,2c-1.6,0-1.6,0.1-3.3,0.1c-1.6,0-1.6-1.4-3.3-1.4
		c-1.6,0-1.6-0.3-3.3-0.3c-1.6,0-1.6,1.5-3.3,1.5s-1.6-2.3-3.3-2.3s-1.6,2.4-3.3,2.4c-1.6,0-1.6-0.5-3.3-0.5s-1.6,0.5-3.3,0.5
		c-1.6,0-1.6-1.5-3.3-1.5s-1.6,0.5-3.3,0.5c-1.6,0-1.6,0.1-3.3,0.1s-1.6,0.8-3.3,0.8c-1.6,0-1.6-2.3-3.3-2.3s-1.6,2.2-3.3,2.2
		s-1.6,0.1-3.3,0.1s-1.6-2.2-3.3-2.2s-1.6,2.7-3.3,2.7c-1.6,0-1.6-0.2-3.3-0.2c-1.6,0-1.6-2.4-3.3-2.4c-1.6,0-1.6,2.3-3.3,2.3
		c-1.6,0-1.6-2.3-3.3-2.3c-1.6,0-1.6,0.9-3.3,0.9h-3.3c-1.6,0-1.6,0.6-3.3,0.6s-1.6,1.2-3.3,1.2s-1.6-1.6-3.3-1.6s-1.6,0.4-3.3,0.4
		c-1.6,0-1.6-1-3.3-1s-1.6,2.1-3.3,2.1c-1.6,0-1.6-0.4-3.3-0.4c-1.6,0-1.6-2.2-3.3-2.2s-1.6,2.8-3.3,2.8c-1.6,0-1.6-1.2-3.3-1.2
		c-1.6,0-1.6-1.4-3.3-1.4s-1.6-0.1-3.3-0.1c-1.6,0-1.6,1.3-3.3,1.3s-1.6-1.2-3.3-1.2c-1.6,0-1.6,0.4-3.3,0.4c-1.6,0-1.6,1.3-3.3,1.3
		c-1.6,0-1.6,0.1-3.3,0.1c-1.6,0-1.6-0.2-3.3-0.2c-1.6,0-1.6,0.5-3.3,0.5c-1.6,0-1.6-0.3-3.3-0.3c-1.6,0-1.6-0.8-3.3-0.8
		c-1.6,0-1.6-0.8-3.3-0.8c-1.6,0-1.6-0.1-3.3-0.1s-1.6,1.5-3.3,1.5c-1.6,0-1.6-0.5-3.3-0.5c-1.6,0-1.6,0.1-3.3,0.1
		c-1.6,0-1.6,1.4-3.3,1.4H339c-1.6,0-1.6-1.1-3.3-1.1s-1.6-0.9-3.3-0.9c-1.6,0-1.6-0.4-3.3-0.4c-1.6,0-1.6,1.3-3.3,1.3
		s-1.6-1.4-3.3-1.4c-1.6,0-1.6,0.9-3.3,0.9c-1.6,0-1.6-0.9-3.3-0.9c-1.6,0-1.6,0.2-3.3,0.2c-1.6,0-1.6,0.7-3.3,0.7s-1.6,0.8-3.3,0.8
		c-1.6,0-1.6,0.6-3.3,0.6c-1.6,0-1.6-1-3.3-1c-1.6,0-1.6,1.1-3.3,1.1c-1.6,0-1.6-2.8-3.3-2.8s-1.6,0.8-3.3,0.8
		c-1.6,0-1.6,1.4-3.3,1.4c-1.6,0-1.6-0.8-3.3-0.8c-1.6,0-1.6,1-3.3,1c-1.6,0-1.6-1.8-3.3-1.8c-1.6,0-1.6-0.2-3.3-0.2
		s-1.6,1.9-3.3,1.9c-1.6,0-1.6-1.7-3.3-1.7c-1.6,0-1.6,2.2-3.3,2.2s-1.6-1-3.3-1h-3.3c-1.6,0-1.6,0.9-3.3,0.9
		c-1.6,0-1.6-2.7-3.3-2.7c-1.6,0-1.6,1-3.3,1c-1.6,0-1.6-0.2-3.3-0.2c-1.6,0-1.6,0.4-3.3,0.4c-1.6,0-1.6-1-3.3-1
		c-1.6,0-1.6,1.4-3.3,1.4c-1.6,0-1.6-0.5-3.3-0.5c-1.6,0-1.6,0.2-3.3,0.2c-1.6,0-1.6-1.3-3.3-1.3c-1.6,0-1.6,1.1-3.3,1.1h-3.3
		c-1.6,0-1.6,1.7-3.3,1.7c-1.6,0-1.6-0.6-3.3-0.6c-1.6,0-1.6-1.9-3.3-1.9c-1.6,0-1.7,0.7-3.3,1C203.5,338.3,203,339.2,202.1,337.8
		L202.1,337.8z M332.9,374.5c-0.8-1.4,0.9-2.3,1.7-3.7l1.6-2.8c0.8-1.4,2.5-0.5,3.3-1.9s0.6-1.5,1.4-3c0.8-1.4,0.1-1.8,0.9-3.2
		c0.8-1.4-0.4-2.1,0.4-3.5s1.7-0.9,2.5-2.3s0.3-1.7,1.1-3.1c0.8-1.4,2.2-0.6,3-2.1c0.8-1.4,0.5-1.6,1.3-3s1.3-1.2,2.1-2.6
		c0.8-1.4-0.9-2.4-0.1-3.8s0.8-1.4,1.6-2.9c0.8-1.4,2.1-0.7,2.9-2.1s-0.4-2.1,0.4-3.5s1.4-1.1,2.2-2.5c0.8-1.4,1.2-1.2,2-2.6
		s1.7-0.9,2.5-2.4s-0.9-2.4-0.1-3.8s2.3-0.6,3.1-2s-0.9-2.4-0.1-3.8s0.4-1.6,1.2-3.1c0.8-1.4,1.8-0.9,2.6-2.3s2.1-0.7,2.9-2.1
		s-0.3-2,0.5-3.5c0.8-1.4,0.1-1.8,0.9-3.3c0.8-1.4,1.4-1.1,2.2-2.5c0.8-1.4,1.3-1.1,2.1-2.6c0.8-1.4-0.4-2.1,0.4-3.5
		s1.4-1.1,2.2-2.5c0.8-1.4-0.1-2,0.7-3.4c0.8-1.4,0.7-1.5,1.5-2.9s2.9-0.3,3.7-1.7c0.8-1.4,1.1-1.3,1.9-2.7c0.8-1.4,0.1-1.8,0.9-3.2
		c0.8-1.4-0.7-2.2,0.1-3.7c0.8-1.4,2.4-0.5,3.2-1.9c0.8-1.4,0.2-1.7,1-3.2c0.8-1.4,0.6-1.5,1.4-3c0.8-1.4,0.4-1.6,1.2-3.1
		c0.8-1.4,1.5-1,2.3-2.5c0.8-1.4-0.3-2,0.5-3.4s2.5-0.5,3.3-1.9s-0.5-2.1,0.3-3.5s1.7-0.9,2.5-2.4c0.8-1.4,0.2-1.8,0.9-3.2
		c0.8-1.4,2.3-0.6,3.1-2c0.8-1.4-1.7-2.8-0.9-4.2c0.8-1.4,2.3-0.6,3.1-2c0.8-1.4,1.3-1.2,2.1-2.6c0.8-1.4-0.4-2.1,0.4-3.5
		s2.4-0.5,3.2-2c0.8-1.4-1.5-2.7-0.7-4.1c0.8-1.4,2.6-0.4,3.4-1.8c0.8-1.4,1.3-1.1,2.1-2.6c0.8-1.4-0.8-2.3-0.1-3.8
		c0.8-1.4,2.1-0.7,2.9-2.1c0.8-1.4,1-1.3,1.8-2.8c0.8-1.4,0.3-1.7,1.1-3.1s1.6-1,2.4-2.4s-1-2.4-0.2-3.8s0.5-1.6,1.3-3
		s2.9-0.3,3.7-1.7s-1.2-2.6-0.4-4c0.8-1.4,2.8-0.3,3.6-1.7c0.8-1.4-0.6-2.2,0.2-3.7c0.8-1.4,0.4-1.6,1.2-3.1c0.8-1.4,2.4-0.5,3.2-2
		c0.8-1.4-1.2-2.5-0.4-4c0.8-1.4,2.3-0.6,3.1-2c0.8-1.4,1-1.3,1.8-2.7s0.3-1.7,1.1-3.1c0.8-1.4,1-1.3,1.8-2.7s0.6-1.5,1.4-3
		c0.8-1.4,0.2-1.7,1-3.2c0.8-1.4,1.6-0.9,2.4-2.4c0.8-1.4-0.6-2.2,0.2-3.7c0.8-1.4,1.8-0.9,2.6-2.3s-0.2-2,0.6-3.4s2.8-0.3,3.6-1.7
		c0.8-1.4,0.3-1.7,1.1-3.1c0.8-1.4,1.4-1.1,2.2-2.5c0.8-1.4,0.2-1.8,1-3.2s0.9-1.3,1.7-2.8c0.8-1.4-0.1-1.9,0.7-3.3
		c0.8-1.4-0.4-2.1,0.4-3.5s1.9-0.8,2.7-2.2c0.8-1.4,2.2-0.7,3-2.1s-1.5-2.7-0.7-4.1s2.6-0.4,3.4-1.9c0.8-1.4,0.2-1.7,1-3.2
		c0.8-1.4-0.1-2,0.6-3.4c0.8-1.4,1.3-1.2,2.1-2.6c0.8-1.4,1.7-0.9,2.5-2.3s0-1.8,0.8-3.3c0.8-1.4,0.3-1.7,1.1-3.1
		c0.8-1.4,2.6-0.4,3.4-1.8s0.4-1.6,1.2-3.1c0.8-1.4,0.4-1.7,1.2-3.1c0.8-1.4,1-1.3,1.8-2.7c0.8-1.4,0.1-1.8,0.9-3.2
		c0.8-1.4-0.1-1.9,1.6-2c1.6,0,0.8,0.5,1.6,1.9s0.6,1.5,1.4,3c0.8,1.4,1.5,1,2.3,2.5c0.8,1.4,0.6,1.5,1.4,3c0.8,1.4,1.4,1.1,2.2,2.5
		c0.8,1.4,0.5,1.6,1.3,3s0.9,1.4,1.7,2.8c0.8,1.4-1,2.4-0.2,3.9c0.8,1.4,2.2,0.6,3,2.1c0.8,1.4,0.9,1.4,1.7,2.8s-0.9,2.4-0.1,3.8
		c0.8,1.4,3.1,0.1,3.9,1.5c0.8,1.4-0.5,2.2,0.2,3.6c0.8,1.4,1,1.3,1.8,2.7c0.8,1.4,0.3,1.7,1.1,3.1s1.7,0.9,2.5,2.3
		s-0.5,2.1,0.3,3.6c0.8,1.4,1.7,0.9,2.5,2.4c0.8,1.4,0.1,1.8,0.8,3.3c0.8,1.4,1.9,0.8,2.7,2.2s1.2,1.2,2,2.6c0.8,1.4,1.2,1.2,2,2.6
		c0.8,1.4-1.3,2.6-0.5,4s1.6,1,2.4,2.4c0.8,1.4,1.7,0.9,2.5,2.4c0.8,1.4-0.9,2.3-0.1,3.8c0.8,1.4,2.2,0.6,3,2s1.4,1.1,2.2,2.5
		s-1.1,2.5-0.3,3.9s2.8,0.3,3.6,1.7s-0.2,2,0.6,3.4s0.9,1.4,1.7,2.8c0.8,1.4,1.2,1.2,2,2.6c0.8,1.4-1,2.4-0.2,3.8s0.5,1.6,1.3,3
		s1.1,1.3,1.9,2.7c0.8,1.4,1.1,1.3,1.9,2.7c0.8,1.4,1.3,1.1,2.1,2.6c0.8,1.4,1.6,1,2.4,2.4c0.8,1.4-0.6,2.2,0.2,3.6s1.1,1.2,1.9,2.7
		c0.8,1.4,1.5,1.1,2.2,2.5c0.8,1.4,0.7,1.5,1.5,2.9s0.7,1.5,1.5,2.9s-0.1,1.9,0.7,3.3c0.8,1.4,1.4,1.1,2.2,2.5s0.9,1.4,1.7,2.8
		c0.8,1.4,1.4,1.1,2.2,2.5s0.8,1.4,1.6,2.9c0.8,1.4,0.5,1.6,1.3,3s1.1,1.3,1.9,2.7c0.8,1.4-0.3,2,0.5,3.5c0.8,1.4,1.1,1.3,1.8,2.7
		c0.8,1.4,0.3,1.7,1.1,3.1c0.8,1.4,3.2,0.1,4,1.5s-1,2.4-0.2,3.9c0.8,1.4,0.8,1.4,1.6,2.9c0.8,1.4,0.5,1.6,1.3,3s0.9,1.4,1.7,2.8
		s2.9,0.2,3.7,1.7c0.8,1.4-0.9,2.4-0.1,3.8s1,1.3,1.8,2.7c0.8,1.4,2.2,0.6,3,2.1c0.8,1.4,0.3,1.7,1.1,3.1s-1,2.4-0.2,3.8
		s2.8,0.3,3.6,1.7c0.8,1.4,0.2,1.8,1,3.2c0.8,1.4,1.2,1.2,2,2.6s-0.8,2.3,0,3.7c0.8,1.4,0.7,1.5,1.5,2.9s2.1,0.7,2.9,2.1
		c0.8,1.4-0.5,2.2,0.3,3.6s1.3,1.1,2.1,2.6c0.8,1.4,0.9,1.4,1.7,2.8l1.6,2.8c0.8,1.4,1,1.3,1.8,2.7c0.8,1.4,0.9,1.3,1.7,2.8
		c0.8,1.4,1,1.3,1.8,2.8c0.8,1.4-0.5,2.1,0.3,3.6c0.8,1.4,2.4,0.6,3.2,2s-1,2.5-0.2,3.9s1.2,1.2,2,2.6s0.7,1.5,1.4,2.9
		c0.8,1.4,2.2,0.7,3,2.1s1.1,1.3,1.9,2.7c0.8,1.4-0.8,2.3,0,3.8c0.8,1.4,1,1.3,1.8,2.8c0.8,1.4,1.7,0.9,2.5,2.4
		c0.8,1.4,0.1,1.8,0.9,3.2c0.8,1.4,2.4,0.5,3.2,2c0.8,1.4-0.2,2,0.6,3.4s1.2,1.2,2,2.6s1.1,1.3,1.9,2.7c0.8,1.4,1.5,1,2.3,2.5
		c0.8,1.4-0.6,2.2,0.2,3.6s0.2,1.8,1,3.2c0.8,1.4,2.2,0.6,3,2.1c0.8,1.4,0.7,1.5,1.5,2.9s0.2,1.7,1,3.2c0.8,1.4,0.9,1.4,1.7,2.8
		s-0.3,2,0.5,3.5c0.8,1.4,2.4,0.3,1.6,1.7c-0.8,1.4-0.6,1.2-2.3,1.2c-1.6,0-1.6,0.8-3.3,0.8c-1.6,0-1.6-0.9-3.3-0.9h-3.3
		c-1.6,0-1.6-2-3.3-2c-1.6,0-1.6,2.5-3.3,2.5c-1.6,0-1.6-0.5-3.3-0.5c-1.6,0-1.6-0.7-3.3-0.7c-1.6,0-1.6-0.8-3.3-0.8
		c-1.6,0-1.6,1.2-3.3,1.2s-1.6-1.2-3.3-1.2c-1.6,0-1.6,1.7-3.3,1.7s-1.6,0.2-3.3,0.2c-1.6,0-1.6-1.9-3.3-1.9c-1.6,0-1.6,0.2-3.3,0.2
		c-1.6,0-1.6,1.1-3.3,1.1c-1.6,0-1.6-1.4-3.3-1.4c-1.6,0-1.6,1.2-3.3,1.2c-1.6,0-1.6-0.2-3.3-0.2s-1.6-0.6-3.3-0.6s-1.6,0.2-3.3,0.2
		s-1.6-0.1-3.3-0.1s-1.6,0.5-3.3,0.5c-1.6,0-1.6,0.4-3.3,0.4c-1.6,0-1.6-0.5-3.3-0.5c-1.6,0-1.6,0.1-3.3,0.1c-1.6,0-1.6,1.2-3.3,1.2
		c-1.6,0-1.6,0.2-3.3,0.2s-1.6-1-3.3-1H557c-1.6,0-1.6-1.7-3.3-1.7c-1.6,0-1.6,1.2-3.3,1.2h-3.3c-1.6,0-1.6,1.3-3.3,1.3
		s-1.6,0.3-3.3,0.3c-1.6,0-1.6-1.2-3.3-1.2s-1.6,0.1-3.3,0.1c-1.6,0-1.6,0.1-3.3,0.1s-1.6-0.5-3.3-0.5c-1.6,0-1.6,0.1-3.3,0.1
		s-1.6-0.1-3.3-0.1c-1.6,0-1.6-0.3-3.3-0.3c-1.6,0-1.6-0.2-3.3-0.2c-1.6,0-1.6,0.3-3.3,0.3c-1.6,0-1.6,1.8-3.3,1.8
		c-1.6,0-1.6-0.9-3.3-0.9c-1.6,0-1.6-1.1-3.3-1.1c-1.6,0-1.6,0.4-3.3,0.4c-1.6,0-1.6-0.2-3.3-0.2c-1.6,0-1.6-0.4-3.3-0.4
		c-1.6,0-1.6,0.4-3.3,0.4c-1.6,0-1.6,0.2-3.3,0.2c-1.6,0-1.6,1.1-3.3,1.1h-3.3c-1.6,0-1.6-0.4-3.3-0.4c-1.6,0-1.6-0.5-3.3-0.5
		c-1.6,0-1.6,0.2-3.3,0.2c-1.6,0-1.6,1.1-3.3,1.1s-1.6-1.4-3.3-1.4s-1.6,0.1-3.3,0.1c-1.6,0-1.6-0.9-3.3-0.9c-1.6,0-1.6-0.6-3.3-0.6
		c-1.6,0-1.6,2.4-3.3,2.4c-1.6,0-1.6-1-3.3-1c-1.6,0-1.6,0.8-3.3,0.8c-1.6,0-1.6,0.3-3.3,0.3c-1.6,0-1.6-1-3.3-1
		c-1.6,0-1.6,1.4-3.3,1.4c-1.6,0-1.6-0.1-3.3-0.1c-1.6,0-1.6-1.2-3.3-1.2c-1.6,0-1.6,0.4-3.3,0.4c-1.6,0-1.6-1.4-3.3-1.4
		c-1.6,0-1.6-0.1-3.3-0.1c-1.6,0-1.6,0.3-3.3,0.3c-1.6,0-1.6,1.4-3.3,1.4c-1.6,0-1.6-1-3.3-1s-1.6,0.2-3.3,0.2
		c-1.6,0-1.6-0.9-3.3-0.9c-1.6,0-1.6,1.2-3.3,1.2s-1.6-1.6-3.3-1.6c-1.6,0-1.6,2-3.3,2c-1.6,0-1.6-1-3.3-1c-1.6,0-1.6,1.8-3.3,1.8
		c-1.6,0-1.6-2.6-3.3-2.6c-1.6,0-1.6,2.3-3.3,2.3c-1.6,0-1.6-0.1-3.3-0.1c-1.6,0-1.6,0.1-3.3,0.1c-1.6,0-1.6-1.1-3.3-1.1
		c-1.6,0-1.6-0.7-3.3-0.7c-1.6,0-1.6-0.6-3.3-0.6c-1.6,0-1.6,0.7-3.3,0.7c-1.6,0-1.6,1.1-3.3,1.1c-1.6,0-1.6,0.7-3.3,0.7
		c-1.6,0-1.6-2.7-3.3-2.7c-1.6,0-1.6,0.2-3.3,0.2h-3.3c-1.6,0-2-0.3-3.6,0.1C334.6,373.5,333.8,375.9,332.9,374.5L332.9,374.5z
		 M437.6,373.6c-0.8-1.4,0.6-0.8,1.4-2.3c0.8-1.4,0-1.9,0.8-3.3s0.7-1.5,1.5-2.9s1-1.3,1.8-2.7c0.8-1.4,1.4-1.1,2.2-2.5
		c0.8-1.4-0.3-2.1,0.5-3.5s0.5-1.6,1.3-3s2-0.8,2.7-2.2c0.8-1.4,2-0.8,2.8-2.2c0.8-1.4-1.4-2.6-0.6-4.1c0.8-1.4,1.9-0.8,2.7-2.2
		c0.8-1.4,0.1-1.8,0.9-3.2c0.8-1.4,1.9-0.8,2.7-2.2c0.8-1.4,0.8-1.5,1.5-2.9l1.6-2.8c0.8-1.4-0.9-2.4-0.1-3.8s3.1-0.2,3.9-1.6
		s-1.2-2.6-0.4-4c0.8-1.4,2.2-0.6,3-2.1c0.8-1.4,0.5-1.6,1.3-3s0.3-1.7,1.1-3.1c0.8-1.4,1.4-1.1,2.2-2.5c0.8-1.4,0-1.9,0.8-3.3
		s2.3-0.6,3.1-2c0.8-1.4-0.8-2.3,0-3.8c0.8-1.4,2.7-0.4,3.4-1.8c0.8-1.4-1.2-2.5-0.4-4c0.8-1.4,1.3-1.2,2.1-2.6
		c0.8-1.4,0.2-1.7,1-3.2c0.8-1.4,0.9-1.4,1.7-2.8l1.6-2.8c0.8-1.4,1.3-1.1,2.1-2.6c0.8-1.4,0.8-1.4,1.6-2.9c0.8-1.4,0.4-1.6,1.2-3
		c0.8-1.4,1.5-1,2.3-2.4s1.7-0.9,2.5-2.3s0.2-1.8,1-3.2c0.8-1.4,0.4-1.7,1.2-3.1c0.8-1.4,0.3-1.7,1.1-3.1c0.8-1.4,0.9-1.4,1.7-2.8
		c0.8-1.4,0.1-1.8,0.9-3.2l1.6-2.8c0.8-1.4,2.8-0.3,3.6-1.7c0.8-1.4-0.8-2.3,0-3.7s0.5-1.6,1.3-3s2.6-0.4,3.4-1.9
		c0.8-1.4-0.8-2.3,0-3.7c0.8-1.4,1.3-1.2,2.1-2.6c0.8-1.4-0.3-2,0.5-3.4s3.1-0.1,3.9-1.6c0.8-1.4,0.7-1.5,1.5-2.9s0-1.9,0.8-3.3
		s1-1.3,1.8-2.7s0.3-1.7,1.1-3.1c0.8-1.4,0-1.9,0.8-3.3s0.9-1.4,1.7-2.8c0.8-1.4,2.8-0.3,3.6-1.7s-1.2-2.5-0.4-3.9s0.7-1.5,1.5-2.9
		s1.4-1.1,2.2-2.5s2.1-0.7,2.9-2.1c0.8-1.4,0.2-1.8,1-3.2s1-1.3,1.8-2.7s1-1.3,1.8-2.7s-0.5-2.2,0.3-3.6s1.9-0.8,2.7-2.2
		s-0.7-2.3,0.1-3.7s2-0.7,2.8-2.2c0.8-1.4,0.2-1.7,1-3.2c0.8-1.4,0-1.9,0.8-3.3s1.9-0.8,2.7-2.2l1.6-2.8c0.8-1.4,2-0.8,2.8-2.2
		s0.2-1.8,1-3.2s1.2-1.2,2-2.6c0.8-1.4,0.6-1.6,1.4-3c0.8-1.4-0.3-2,0.5-3.5c0.8-1.4,2.1-0.7,2.9-2.1c0.8-1.4,0.6-1.5,1.4-2.9
		c0.8-1.4-1-2.5-0.2-3.9s2.1-0.7,2.9-2.1c0.8-1.4,1.1-1.3,1.9-2.7c0.8-1.4,0.8-1.4,1.6-2.9c0.8-1.4,0.4-1.6,1.2-3.1
		c0.8-1.4-0.3-2,0.5-3.5c0.8-1.4,2-0.8,2.8-2.2c0.8-1.4,1.5-1,2.3-2.5c0.8-1.4-0.8-2.3,0-3.8l1.6-2.8c0.8-1.4,2.2-0.6,3-2
		s-0.9-2.4-0.1-3.8s2.9-0.3,3.7-1.7c0.8-1.4-1.5-2.7-0.7-4.2c0.8-1.4,0.7-1.5,1.5-2.9s1.5-1,2.3-2.5c0.8-1.4,1.7-0.9,2.5-2.4
		c0.8-1.4,0.3-1.7,1.1-3.1s2.2-0.6,3-2s-1.5-2.7-0.7-4.2c0.8-1.4,1.8-0.9,2.6-2.3s1.4-1.1,2.2-2.5s-0.6-4.6,1.1-4.6
		c1.6,0,1.7,2.4,2.5,3.8s1,1.3,1.8,2.7c0.8,1.4-0.2,2,0.6,3.4s1.1,1.2,1.9,2.6l1.6,2.8c0.8,1.4,1.6,1,2.4,2.4c0.8,1.4,0,1.9,0.8,3.3
		s-0.5,2.1,0.3,3.6c0.8,1.4,2.8,0.3,3.6,1.7c0.8,1.4-0.1,1.9,0.7,3.3s1.5,1,2.3,2.4s-1.1,2.5-0.3,3.9s1.6,1,2.4,2.4
		c0.8,1.4,0,1.9,0.8,3.3s0.5,1.6,1.3,3s1,1.3,1.8,2.7c0.8,1.4,0.4,1.7,1.2,3.1c0.8,1.4,2.7,0.3,3.5,1.8c0.8,1.4-1.1,2.5-0.3,3.9
		s1.8,0.9,2.6,2.3s0.3,1.7,1.1,3.1c0.8,1.4,2.2,0.6,3,2s0,1.9,0.8,3.3s0.1,1.8,0.9,3.2c0.8,1.4,2.1,0.7,2.9,2.1
		c0.8,1.4-0.7,2.3,0.1,3.7s1,1.3,1.8,2.7s1.8,0.8,2.6,2.3c0.8,1.4,1.5,1,2.3,2.5c0.8,1.4,0.4,1.6,1.2,3s-1,2.4-0.2,3.8
		s0.7,1.5,1.4,2.9c0.8,1.4,3.3,0,4.1,1.5c0.8,1.4-0.4,2.1,0.4,3.5s1,1.3,1.8,2.7s0.9,1.4,1.7,2.8c0.8,1.4-0.1,1.9,0.7,3.4
		c0.8,1.4,2.4,0.5,3.2,1.9s-0.7,2.3,0.1,3.7s1.5,1,2.3,2.5c0.8,1.4-0.6,2.2,0.2,3.6l1.6,2.8c0.8,1.4,3.2,0.1,3.9,1.5
		c0.8,1.4-0.7,2.3,0.1,3.7s1.5,1,2.3,2.5c0.8,1.4,0.4,1.7,1.2,3.1c0.8,1.4,0.7,1.5,1.5,2.9s0.6,1.5,1.4,3c0.8,1.4,1.4,1.1,2.2,2.5
		s-0.3,2,0.5,3.4s0.6,1.5,1.4,3c0.8,1.4,1.6,1,2.4,2.4c0.8,1.4,1.5,1,2.3,2.5c0.8,1.4,1.3,1.2,2.1,2.6c0.8,1.4-0.2,2,0.6,3.4
		s0.1,1.8,0.9,3.3c0.8,1.4,2.6,0.4,3.3,1.9c0.8,1.4-0.8,2.3,0,3.7s2.3,0.6,3.1,2s0.7,1.5,1.5,2.9s0.1,1.8,0.9,3.3
		c0.8,1.4,1,1.3,1.8,2.7c0.8,1.4,0,1.9,0.8,3.3s2.3,0.6,3.1,2s-1.5,2.7-0.7,4.1s2.3,0.6,3.1,2s0.6,1.5,1.4,2.9
		c0.8,1.4,1.4,1.1,2.2,2.5s1.2,1.2,2,2.6s-0.9,2.4-0.1,3.8s2.3,0.6,3.1,2s-0.5,2.2,0.3,3.6s1.6,1,2.4,2.4c0.8,1.4,0.4,1.6,1.2,3
		s0.7,1.5,1.5,2.9s1.5,1,2.3,2.4s-0.4,2.1,0.4,3.5s1.6,1,2.4,2.4c0.8,1.4-0.1,1.9,0.7,3.4c0.8,1.4,0.8,1.5,1.6,2.9s0.5,1.6,1.3,3
		s1.6,1,2.4,2.4c0.8,1.4,1,1.3,1.7,2.8l1.6,2.8c0.8,1.4,0.8,1.4,1.6,2.9c0.8,1.4,1.6,1,2.4,2.4c0.8,1.4,0.2,1.8,1,3.2
		c0.8,1.4,1.1,1.2,1.9,2.7c0.8,1.4,1,1.3,1.8,2.7c0.8,1.4-0.2,2,0.6,3.4s1.9,0.8,2.7,2.2c0.8,1.4-0.3,2,0.5,3.4s-0.2,2,0.6,3.4
		s3.3,0,4.1,1.5c0.8,1.4-1.7,2.8-0.9,4.3c0.8,1.4,0.9,1.4,1.7,2.8s1.1,1.3,1.9,2.7c0.8,1.4,1.3,1.1,2.1,2.6c0.8,1.4,2.1,0.7,2.9,2.1
		c0.8,1.4,0.3,1.7,1.1,3.1s1.4,1.1,2.2,2.5s1.5,2.1,0.7,3.5s-1.8,1.2-3.4,1.2c-1.6,0-1.6-0.5-3.3-0.5c-1.6,0-1.6-0.6-3.3-0.6
		c-1.6,0-1.6,0.7-3.3,0.7c-1.6,0-1.6-1.9-3.3-1.9c-1.6,0-1.6,2.2-3.3,2.2c-1.6,0-1.6-2.2-3.3-2.2c-1.6,0-1.6,2.2-3.3,2.2
		c-1.6,0-1.6-2-3.3-2c-1.6,0-1.6,0.4-3.3,0.4s-1.6,0.6-3.3,0.6c-1.6,0-1.6-0.5-3.3-0.5s-1.6,0.7-3.3,0.7c-1.6,0-1.6,0.1-3.3,0.1
		c-1.6,0-1.6-1.7-3.3-1.7c-1.6,0-1.6,0.1-3.3,0.1c-1.6,0-1.6,1.8-3.3,1.8c-1.6,0-1.6,0.1-3.3,0.1c-1.6,0-1.6-0.2-3.3-0.2
		s-1.6,0.4-3.3,0.4s-1.6-0.8-3.3-0.8s-1.6-1.3-3.3-1.3s-1.6,2.2-3.3,2.2c-1.6,0-1.6,0.2-3.3,0.2c-1.6,0-1.6-0.2-3.3-0.2
		c-1.6,0-1.6-1.3-3.3-1.3c-1.6,0-1.6-0.2-3.3-0.2c-1.6,0-1.6,1.1-3.3,1.1c-1.6,0-1.6-1.4-3.3-1.4s-1.6-0.5-3.3-0.5s-1.6-0.1-3.3-0.1
		s-1.6,1.7-3.3,1.7c-1.6,0-1.6-1.6-3.3-1.6c-1.6,0-1.6,2.3-3.3,2.3c-1.6,0-1.6-0.3-3.3-0.3s-1.6,0.2-3.3,0.2c-1.6,0-1.6-1.5-3.3-1.5
		c-1.6,0-1.6,1.6-3.3,1.6s-1.6-0.6-3.3-0.6c-1.6,0-1.6-1.1-3.3-1.1c-1.6,0-1.6,2.1-3.3,2.1s-1.6-2.7-3.3-2.7s-1.6,2.7-3.3,2.7
		c-1.6,0-1.6,0.2-3.3,0.2c-1.6,0-1.6-1.8-3.3-1.8c-1.6,0-1.6-0.6-3.3-0.6c-1.6,0-1.6,1-3.3,1c-1.6,0-1.6,1.1-3.3,1.1
		c-1.6,0-1.6-0.1-3.3-0.1c-1.6,0-1.6-1.9-3.3-1.9c-1.6,0-1.6-0.6-3.3-0.6c-1.6,0-1.6,2.1-3.3,2.1c-1.6,0-1.6,0.2-3.3,0.2
		c-1.6,0-1.6,0.2-3.3,0.2c-1.6,0-1.6-2.5-3.3-2.5c-1.6,0-1.6,2.6-3.3,2.6c-1.6,0-1.6-2-3.3-2c-1.6,0-1.6,1.1-3.3,1.1h-3.3
		c-1.6,0-1.6-0.5-3.3-0.5s-1.6,0.4-3.3,0.4c-1.6,0-1.6,0.6-3.3,0.6c-1.6,0-1.6-0.5-3.3-0.5h-3.3c-1.6,0-1.6-0.3-3.3-0.3
		c-1.6,0-1.6-0.9-3.3-0.9c-1.6,0-1.6,2.4-3.3,2.4c-1.6,0-1.6-2.7-3.3-2.7h-3.3c-1.6,0-1.6,0.7-3.3,0.7H528c0,0-1.6,1.2-3.3,1.2
		c-1.6,0-1.6-0.3-3.3-0.3c-1.6,0-1.6-1.7-3.3-1.7c-1.6,0-1.6,0.1-3.3,0.1c-1.6,0-1.6,2.2-3.3,2.2c-1.6,0-1.6-0.6-3.3-0.6
		s-1.6-1-3.3-1c-1.6,0-1.6-0.3-3.3-0.3c-1.6,0-1.6,0.3-3.3,0.3s-1.6,0.2-3.3,0.2c-1.6,0-1.6-0.2-3.3-0.2c-1.6,0-1.6,1.9-3.3,1.9
		c-1.6,0-1.6-2.7-3.3-2.7c-1.6,0-1.6,0.9-3.3,0.9c-1.6,0-1.6,0.3-3.3,0.3c-1.6,0-1.6,1.3-3.3,1.3c-1.6,0-1.6-1-3.3-1
		c-1.6,0-1.6-1.5-3.3-1.5c-1.6,0-1.6,1.2-3.3,1.2c-1.6,0-1.6,0.4-3.3,0.4c-1.6,0-1.6,1.1-3.3,1.1c-1.6,0-1.6-0.7-3.3-0.7
		c-1.6,0-1.6-1.1-3.3-1.1c-1.6,0-1.6,2.2-3.3,2.2c-1.6,0-1.6-0.8-3.3-0.8c-1.6,0-1.6,0.2-3.3,0.2c-1.6,0-1.6-0.8-3.2-0.4
		C438.9,374.7,438.4,375.1,437.6,373.6L437.6,373.6z M672.8,361.7c-0.8-1.4,1.2-0.5,2-2c0.8-1.4-0.9-2.4-0.1-3.8s2.3-0.6,3.1-2
		s1.2-1.2,2-2.6s-0.5-2.1,0.3-3.6c0.8-1.4,0-1.9,0.8-3.3s1.5-1,2.3-2.5s1.2-1.2,2-2.6s0.8-1.4,1.6-2.9c0.8-1.4,1.2-1.2,2-2.6
		s0.8-1.4,1.6-2.9c0.8-1.4-0.1-2,0.7-3.4s0.5-1.6,1.3-3s2.1-0.7,2.9-2.1l1.6-2.8c0.8-1.4,1.4-1.1,2.2-2.5s0-1.9,0.8-3.3
		s-0.3-2,0.5-3.5c0.8-1.4,0.4-1.7,1.2-3.1s1.7-0.9,2.5-2.3s1.4-1.1,2.2-2.5s-0.5-2.2,0.3-3.6s0.5-1.6,1.3-3s0.7-1.5,1.5-2.9
		s2.1-0.7,2.9-2.1c0.8-1.4,1.1-1.2,1.9-2.7c0.8-1.4,0.4-1.6,1.2-3.1c0.8-1.4,1.4-1.1,2.2-2.5s0.2-1.8,1-3.2c0.8-1.4,0.6-1.5,1.4-3
		c0.8-1.4,1.4-1.1,2.2-2.5s1-1.3,1.8-2.7c0.8-1.4-0.5-2.1,0.3-3.6c0.8-1.4,2.1-0.7,2.9-2.1c0.8-1.4-0.7-2.3,0-3.7
		c0.8-1.4,0.5-1.6,1.3-3s1.5-1,2.3-2.5c0.8-1.4,2.2-0.7,2.9-2.1c0.8-1.4-1.1-2.5-0.3-3.9s1.8-0.8,2.6-2.3c0.8-1.4,1.4-1.1,2.2-2.5
		s0.5-1.6,1.3-3s0.5-1.6,1.3-3s0.9-1.4,1.7-2.8c0.8-1.4,1-1.3,1.8-2.7s1.5-1,2.3-2.5c0.8-1.4-0.3-2,0.5-3.5c0.8-1.4-0.2-2,0.6-3.4
		s0.7-1.5,1.5-2.9s1.1-1.3,1.9-2.7c0.8-1.4,2.4-0.5,3.2-2c0.8-1.4,0.2-1.8,1-3.2s-0.1-1.9,0.7-3.3c0.8-1.4,2.3-0.6,3.1-2
		s-1-2.4-0.2-3.9c0.8-1.4,3-0.2,3.8-1.6c0.8-1.4-0.4-2.1,0.4-3.5s0.6-1.5,1.4-3c0.8-1.4,1.3-1.1,2.1-2.6c0.8-1.4,0.9-1.4,1.6-2.8
		c0.8-1.4-0.2-2,0.6-3.4s1-1.3,1.8-2.8c0.8-1.4,0.2-1.7,1-3.2c0.8-1.4,1.2-1.2,2-2.6c0.8-1.4,2.6-0.4,3.4-1.8l1.6-2.8
		c0.8-1.4-0.5-2.1,0.3-3.6c0.8-1.4-0.1-1.9,0.7-3.3c0.8-1.4,1.1-1.3,1.9-2.7c0.8-1.4,2.5-0.5,3.3-1.9s0-1.9,0.8-3.3s0.9-1.4,1.7-2.8
		c0.8-1.4-0.2-2,0.6-3.4s2.1-0.7,2.9-2.1c0.8-1.4,0.7-1.5,1.5-2.9s1.1-1.3,1.8-2.7l1.6-2.8c0.8-1.4-0.9-2.4-0.1-3.8s2.7-0.4,3.5-1.8
		c0.8-1.4-1-2.4-0.2-3.9c0.8-1.4,1.8-0.8,2.6-2.3c0.8-1.4,0.4-1.7,1.2-3.1s2-0.7,2.8-2.2c0.8-1.4-1-2.4-0.2-3.9
		c0.8-1.4,1.6-0.9,2.4-2.4c0.8-1.4,1.8-0.8,2.6-2.3c0.8-1.4-0.3-2,0.5-3.5c0.8-1.4,1.7-0.9,2.5-2.3s0.1-1.8,0.9-3.2
		c0.8-1.4,1.5-1,2.3-2.5c0.8-1.4,0.4-1.7,1.2-3.1s-0.6-2.2,0.2-3.6s1.4-1.1,2.2-2.5l1.6-2.8c0.8-1.4,0.4-1.6,1.2-3.1
		c0.8-1.4,0.5-1.6,1.3-3s1.3-1.2,2.1-2.6s0.1-1.8,0.9-3.2c0.8-1.4,2.4-0.5,3.2-2c0.8-1.4,0.9-1.4,1.7-2.8s-0.3-2,0.5-3.5
		c0.8-1.4,0.4-1.3,2-1.3s-0.2,0.7,0.6,2.1s2.3,0.6,3.1,2s1,1.3,1.8,2.7c0.8,1.4-0.5,2.2,0.2,3.6c0.8,1.4,2.1,0.7,2.9,2.1
		c0.8,1.4,0.1,1.8,0.9,3.2c0.8,1.4,0.8,1.4,1.6,2.9c0.8,1.4-0.3,2,0.5,3.5c0.8,1.4,1.2,1.2,2,2.6s0.7,1.5,1.5,2.9s0.6,1.6,1.4,3
		c0.8,1.4,1,1.3,1.8,2.7c0.8,1.4,2.7,0.3,3.5,1.8c0.8,1.4,0,1.9,0.8,3.3s0.1,1.8,0.8,3.3c0.8,1.4,1.4,1.1,2.2,2.5s0.4,1.7,1.2,3.1
		s1.8,0.9,2.6,2.3s-0.3,2,0.5,3.5c0.8,1.4,1,1.3,1.8,2.8c0.8,1.4,0.5,1.6,1.3,3s1.2,1.2,2,2.6c0.8,1.4-0.4,2.1,0.4,3.5
		s1.4,1.1,2.2,2.5s1.1,1.3,1.9,2.7c0.8,1.4,1.1,1.3,1.9,2.7c0.8,1.4,1.8,0.9,2.6,2.3s0.5,1.6,1.3,3s-0.7,2.2,0.1,3.7
		c0.8,1.4,0.4,1.6,1.2,3.1c0.8,1.4,2.5,0.5,3.3,1.9s-0.6,2.2,0.2,3.6s2.1,0.7,2.9,2.1c0.8,1.4-0.6,2.2,0.2,3.6s0.5,1.6,1.3,3
		s0.9,1.4,1.7,2.8c0.8,1.4,1.1,1.2,1.9,2.7c0.8,1.4,2,0.8,2.8,2.2s-0.5,2.1,0.3,3.6c0.8,1.4,1.4,1.1,2.2,2.5s2.2,0.6,3,2.1
		c0.8,1.4,0.5,1.6,1.3,3s0.2,1.8,1,3.2s0.6,1.5,1.4,3c0.8,1.4,1.1,1.3,1.9,2.7c0.8,1.4,1.6,1,2.4,2.4c0.8,1.4-1.2,2.6-0.4,4
		s3,0.2,3.8,1.6c0.8,1.4-0.8,2.3,0,3.7s2.2,0.6,3,2s0.5,1.6,1.3,3s-0.1,1.9,0.7,3.4c0.8,1.4,2.2,0.7,3,2.1l1.6,2.8
		c0.8,1.4-0.1,1.9,0.7,3.3c0.8,1.4,0.9,1.4,1.7,2.8c0.8,1.4-0.6,2.2,0.2,3.6s2.6,0.4,3.4,1.9c0.8,1.4,1.3,1.1,2.1,2.6
		c0.8,1.4,0.4,1.6,1.2,3.1c0.8,1.4-0.2,2,0.6,3.4s1.6,1,2.4,2.4c0.8,1.4,0.4,1.6,1.2,3.1c0.8,1.4,0.3,1.7,1.1,3.1l1.6,2.8
		c0.8,1.4,1,1.3,1.8,2.7c0.8,1.4,0.3,1.7,1.1,3.1s1.8,0.9,2.6,2.3s-0.9,2.4-0.1,3.8s1.8,0.9,2.6,2.3s0.7,1.5,1.5,2.9
		s-0.1,1.9,0.7,3.3s2.7,0.4,3.5,1.8s-0.7,2.3,0.1,3.7c0.8,1.4,0.3,1.7,1.1,3.1s1.6,1,2.4,2.4c0.8,1.4,2.3,0.6,3.1,2s0.7,1.5,1.5,2.9
		s0.5,1.6,1.3,3s-0.9,2.4-0.1,3.8s1.9,0.8,2.7,2.2c0.8,1.4,0.3,1.7,1.1,3.2c0.8,1.4,2.4,0.5,3.2,2c0.8,1.4-0.6,2.2,0.2,3.6
		s2,0.7,2.8,2.2c0.8,1.4-0.1,1.9,0.7,3.3s0.9,1.4,1.7,2.8s1.4,1.1,2.2,2.5s-0.5,2.1,0.3,3.6l1.6,2.8c0.8,1.4,1.8,0.9,2.6,2.3
		s-0.7,2.3,0.1,3.7c0.8,1.4,2.9,0.2,3.7,1.7c0.8,1.4,0.5,1.6,1.3,3s1,1.3,1.8,2.8c0.8,1.4,1,1.3,1.8,2.7c0.8,1.4,0.3,1.7,1.1,3.1
		s1.3,1.1,2.1,2.6c0.8,1.4-0.2,2,0.6,3.4s1.4,1.1,2.2,2.5s-0.3,2,0.5,3.5c0.8,1.4,3,1.5,2.1,2.9c-0.8,1.4-2-0.8-3.6-0.8
		s-1.6,1.1-3.3,1.1c-1.6,0-1.6-0.2-3.3-0.2c-1.6,0-1.6-0.2-3.3-0.2c-1.6,0-1.6-1-3.3-1c-1.6,0-1.6,0.8-3.3,0.8
		c-1.6,0-1.6-0.1-3.3-0.1c-1.6,0-1.6,1.4-3.3,1.4c-1.6,0-1.6-2.5-3.3-2.5c-1.6,0-1.6,0.2-3.3,0.2s-1.6,0.1-3.3,0.1s-1.6,0.2-3.3,0.2
		c-1.6,0-1.6-0.1-3.3-0.1c-1.6,0-1.6-0.5-3.3-0.5h-3.3c-1.6,0-1.6-0.1-3.3-0.1c-1.6,0-1.6,1.2-3.3,1.2c-1.6,0-1.6-0.3-3.3-0.3
		c-1.6,0-1.6,1.2-3.3,1.2c-1.6,0-1.6-0.9-3.3-0.9c-1.6,0-1.6-0.1-3.3-0.1s-1.6,1-3.3,1c-1.6,0-1.6-0.6-3.3-0.6s-1.6-1.2-3.3-1.2
		c-1.6,0-1.6,0.9-3.3,0.9c-1.6,0-1.6,0.6-3.3,0.6c-1.6,0-1.6,0.1-3.3,0.1s-1.6-0.1-3.3-0.1c-1.6,0-1.6,0.2-3.3,0.2s-1.6-1.2-3.3-1.2
		h-3.3c0,0-1.6,0.2-3.3,0.2c-1.6,0-1.6-0.5-3.3-0.5c-1.6,0-1.6,0.5-3.3,0.5s-1.6,0.7-3.3,0.7c-1.6,0-1.6,0.8-3.3,0.8s-1.6-1-3.3-1
		c-1.6,0-1.6,0.4-3.3,0.4s-1.6-0.2-3.3-0.2h-3.3c0,0-1.6-1.4-3.3-1.4s-1.6,2-3.3,2c-1.6,0-1.6-2-3.3-2c-1.6,0-1.6,2.2-3.3,2.2
		c-1.6,0-1.6,0.4-3.3,0.4c-1.6,0-1.6-1.4-3.3-1.4s-1.6,0.9-3.3,0.9c-1.6,0-1.6-2.3-3.3-2.3c-1.6,0-1.6,1.1-3.3,1.1
		c-1.6,0-1.6-1.2-3.3-1.2c-1.6,0-1.6,0.4-3.3,0.4c-1.6,0-1.6,2-3.3,2c-1.6,0-1.6-0.8-3.3-0.8c-1.6,0-1.6-1.2-3.3-1.2
		c-1.6,0-1.6,0.6-3.3,0.6c-1.6,0-1.6-0.5-3.3-0.5c-1.6,0-1.6,1.1-3.3,1.1c-1.6,0-1.6-1.3-3.3-1.3c-1.6,0-1.6,2-3.3,2
		s-1.6-0.1-3.3-0.1c-1.6,0-1.6-0.8-3.3-0.8c-1.6,0-1.6-0.3-3.3-0.3c-1.6,0-1.6-0.9-3.3-0.9s-1.6,1.2-3.3,1.2c-1.6,0-1.6,1.5-3.3,1.5
		c-1.6,0-1.6-2.3-3.3-2.3c-1.6,0-1.6,1.9-3.3,1.9s-1.6-1.6-3.3-1.6s-1.6,0.5-3.3,0.5c-1.6,0-1.6-0.9-3.3-0.9c-1.6,0-1.6,0.4-3.3,0.4
		s-1.6,0.4-3.3,0.4c-1.6,0-1.6,0.7-3.3,0.7c-1.6,0-1.6,0.7-3.3,0.7c-1.6,0-1.6-2.3-3.3-2.3s-1.6,1.6-3.3,1.6c-1.6,0-1.6,0.4-3.3,0.4
		c-1.6,0-1.6-1.1-3.3-1.1c-1.6,0-1.6,1.3-3.3,1.3c-1.6,0-1.6,0.3-3.3,0.3c-1.6,0-1.6-1.7-3.3-1.7c-1.6,0-1.6,0.6-3.3,0.6
		c-1.6,0-1.6-1.1-3.3-1.1c-1.6,0-1.6,0.7-3.3,0.7c-1.6,0-1.6,1.4-3.3,1.4c-1.6,0-1.6-0.8-3.3-0.8c-1.6,0-1.6-1.5-3.3-1.5
		c-1.6,0-1.6,0.9-3.3,0.9h-3.3c-1.6,0-1.6-0.3-3.3-0.3c-1.6,0-1.6,1.6-3.3,1.6c-1.6,0-1.6,0.2-3.3,0.2c-1.6,0-1.6,0.1-3.3,0.1
		c-1.6,0-1.6-0.3-3.3-0.3c-1.6,0-1.6-0.9-3.3-0.9c-1.6,0-1.6,0.1-3.3,0.1c-1.6,0-1.6-1.2-3.3-1.2c-1.6,0-1.8,0.3-3.4,0.6
		C673.9,361.9,673.6,363.1,672.8,361.7L672.8,361.7z M777.1,322.7c-0.8-1.4,0.6-0.9,1.4-2.3c0.8-1.4-0.6-2.2,0.2-3.7
		c0.8-1.4,2.3-0.6,3-2c0.8-1.4,1.2-1.2,2-2.6s0-1.8,0.8-3.3c0.8-1.4,1.3-1.1,2.1-2.6c0.8-1.4,0.3-1.7,1.1-3.1s2-0.8,2.8-2.2
		c0.8-1.4-0.2-2,0.6-3.4s1.5-1,2.3-2.5c0.8-1.4,0.2-1.8,1-3.2c0.8-1.4-0.3-2,0.5-3.4s0.5-1.6,1.3-3s0.5-1.6,1.3-3s2.6-0.4,3.4-1.8
		c0.8-1.4,0-1.9,0.8-3.3s1.1-1.3,1.8-2.7c0.8-1.4,0-1.9,0.8-3.3s2.4-0.5,3.2-2c0.8-1.4-0.1-1.9,0.7-3.3s1-1.3,1.8-2.7
		c0.8-1.4-0.5-2.1,0.3-3.6c0.8-1.4,1.6-1,2.4-2.4c0.8-1.4,1.7-0.9,2.5-2.3s0.2-1.7,1-3.2c0.8-1.4-0.4-2.1,0.4-3.5s1.8-0.9,2.6-2.3
		s-0.2-2,0.6-3.4s3.1-0.1,3.9-1.6c0.8-1.4,0.1-1.8,0.9-3.2c0.8-1.4,0.6-1.6,1.3-3c0.8-1.4,0.2-1.7,1-3.2c0.8-1.4,2.2-0.6,3-2
		s0.6-1.5,1.4-3c0.8-1.4-0.2-2,0.5-3.4c0.8-1.4,1.3-1.2,2.1-2.6c0.8-1.4,1.5-1,2.3-2.4s-1.2-2.6-0.4-4s3.1-0.1,3.9-1.6
		c0.8-1.4-1-2.4-0.2-3.8s1.2-1.2,2-2.6c0.8-1.4-0.2-2,0.6-3.4s2.1-0.7,2.9-2.1c0.8-1.4-0.4-2.1,0.4-3.5s1.5-1,2.3-2.5
		c0.8-1.4,1.2-1.2,2-2.6c0.8-1.4-0.3-2.1,0.5-3.5s2-0.8,2.8-2.2s1-1.3,1.8-2.7s1-1.3,1.7-2.8c0.8-1.4,1.2-1.2,2-2.6
		c0.8-1.4,0.7-1.5,1.5-2.9s0.9-1.4,1.7-2.8c0.8-1.4-0.8-2.3,0-3.7s2.5-0.5,3.3-1.9s-0.2-2,0.6-3.4s1.4-1.1,2.2-2.5s-0.4-2.1,0.4-3.5
		l1.6-2.8c0.8-1.4,2.4-0.5,3.2-1.9s0.2-1.8,1-3.2s1.5-1,2.3-2.4s0.5-1.6,1.3-3s-0.7-2.2,0.1-3.7c0.8-1.4,2.2-0.6,3-2s-1-2.4-0.2-3.9
		c0.8-1.4,0.7-1.5,1.5-2.9s1.7-0.9,2.5-2.4c0.8-1.4,0.1-1.8,0.8-3.3c0.8-1.4,2.1-0.7,2.9-2.1c0.8-1.4-0.5-2.2,0.3-3.6s2.4-0.5,3.2-2
		c0.8-1.4,0.3-1.7,1.1-3.1s0.3-1.7,1.1-3.1s1-1.3,1.8-2.8c0.8-1.4,1.8-0.9,2.6-2.3l1.6-2.8c0.8-1.4,0.8-1.4,1.6-2.9l1.6-2.8
		c0.8-1.4,0.7-1.5,1.5-2.9s-1-2.4-0.2-3.9c0.8-1.4,2.4-0.5,3.2-1.9s-0.8-2.3,0-3.8c0.8-1.4,1.3-1.2,2.1-2.6s0.4-1.7,1.2-3.1
		s0.5-1.6,1.3-3s2.2-0.7,3-2.1s2-0.8,2.8-2.2c0.8-1.4-0.6-2.2,0.2-3.6s0.5-1.6,1.3-3s0.1-1.8,0.9-3.2c0.8-1.4,1.3-1.2,2.1-2.6
		c0.8-1.4,1-1.3,1.8-2.8c0.8-1.4,1.5-1,2.3-2.5c0.8-1.4-0.2-2,0.6-3.4s1.3-1.2,2.1-2.6c0.8-1.4,0.2-1.7,1-3.2
		c0.8-1.4,1.3-1.1,2.1-2.6c0.8-1.4,0.2-1.8,1-3.2s2-0.7,2.8-2.2c0.8-1.4-0.3-2,0.5-3.5c0.8-1.4,0.8-2.6,2.4-2.6
		c1.6,0,2.1,0.9,2.9,2.3c0.8,1.4-0.3,2,0.5,3.5c0.8,1.4,0.4,1.6,1.2,3.1c0.8,1.4,1.2,1.2,1.9,2.6c0.8,1.4-0.3,2,0.5,3.5
		c0.8,1.4,1.6,1,2.4,2.4c0.8,1.4,1.1,1.3,1.9,2.7c0.8,1.4,1.6,1,2.4,2.4c0.8,1.4,0,1.9,0.8,3.3s1.6,0.9,2.4,2.4
		c0.8,1.4,1,1.3,1.8,2.7l1.6,2.8c0.8,1.4,0.4,1.6,1.2,3.1c0.8,1.4-1.1,2.5-0.3,3.9s2.5,0.4,3.3,1.9c0.8,1.4,0.2,1.7,1,3.2
		c0.8,1.4,1.7,0.9,2.5,2.4c0.8,1.4-0.6,2.2,0.2,3.6s2.3,0.6,3.1,2s-1.1,2.5-0.3,3.9s2.5,0.5,3.3,1.9s-0.4,2.1,0.4,3.5s1.2,1.2,2,2.6
		l1.6,2.8c0.8,1.4,0.3,1.7,1.1,3.2c0.8,1.4,0.9,1.4,1.7,2.8s1.4,1.1,2.2,2.5s0.2,1.8,1,3.2c0.8,1.4,1.8,0.9,2.6,2.3
		s-0.7,2.2,0.1,3.7c0.8,1.4,0.6,1.6,1.3,3c0.8,1.4,1.4,1.1,2.2,2.5s1.9,0.8,2.6,2.3c0.8,1.4,0.8,1.4,1.6,2.9c0.8,1.4,0,1.9,0.8,3.3
		s0.7,1.5,1.5,2.9s0.3,1.7,1.1,3.1c0.8,1.4,2.7,0.4,3.5,1.8s0.2,1.8,1,3.2s-0.7,2.2,0.1,3.7c0.8,1.4,2.4,0.5,3.2,2
		c0.8,1.4,0.6,1.5,1.4,2.9c0.8,1.4,1.4,1.1,2.2,2.5s1,1.3,1.8,2.7s-1.7,2.8-0.9,4.2s3.1,0.2,3.9,1.6c0.8,1.4,0.7,1.5,1.4,2.9
		c0.8,1.4-1.2,2.6-0.4,4s2.4,0.5,3.2,1.9s1.6,1,2.4,2.4c0.8,1.4-0.6,2.2,0.2,3.6s0,1.9,0.8,3.3s2.6,0.4,3.4,1.8
		c0.8,1.4-1.3,2.6-0.5,4c0.8,1.4,1.5,1.1,2.2,2.5c0.8,1.4,1.1,1.3,1.9,2.7s2.3,0.6,3.1,2c0.8,1.4-1.5,2.7-0.7,4.1
		c0.8,1.4,1.9,0.8,2.7,2.2c0.8,1.4,0.1,1.8,0.9,3.2s1,1.3,1.8,2.7s1.6,1,2.4,2.4s0.6,1.5,1.4,2.9s-0.5,2.2,0.3,3.6s1.5,1,2.3,2.5
		c0.8,1.4,1.5,1,2.3,2.4s0.6,1.6,1.4,3s1.7,0.9,2.5,2.3s-0.6,2.2,0.2,3.6l1.6,2.8c0.8,1.4,0.7,1.5,1.5,2.9s0.5,1.6,1.3,3
		s1.3,1.2,2.1,2.6c0.8,1.4,1.4,1.1,2.2,2.5c0.8,1.4,0.1,1.8,0.9,3.2s0.1,1.8,0.9,3.2s0.9,1.3,1.7,2.8c0.8,1.4,0.6,1.5,1.4,2.9
		s3.1,0.2,3.9,1.6c0.8,1.4,0.6,1.5,1.4,3c0.8,1.4-0.9,2.4-0.1,3.8s1.2,1.2,2,2.6s1.2,1.2,2,2.6s0.6,1.5,1.4,2.9s1.9,0.8,2.7,2.2
		s-0.8,2.3,0,3.8c0.8,1.4,0.6,1.6,1.4,3s2.2,0.7,3,2.1s-0.8,2.3,0,3.7c0.8,1.4,0.5,1.6,1.3,3s0.8,1.4,1.6,2.9c0.8,1.4,3,0.2,3.8,1.6
		s-0.7,2.2,0.1,3.7c0.8,1.4,0.5,1.6,1.3,3s0.9,1.4,1.7,2.8c0.8,1.4,0.7,1.5,1.5,2.9s1.4,1.1,2.2,2.5c0.8,1.4,0.7,1.5,1.5,2.9
		s1.1,1.3,1.9,2.7c0.8,1.4,0.4,1.7,1.2,3.1c0.8,1.4-0.2,2,0.6,3.4s2.9,0.3,2.1,1.7c-0.8,1.4-0.9-0.1-2.5-0.1s-1.6,0.3-3.3,0.3
		s-1.6,0.7-3.3,0.7s-1.6-1.8-3.3-1.8s-1.6,1.6-3.3,1.6h-3.3c-1.6,0-1.6,0.4-3.3,0.4s-1.6-0.9-3.3-0.9c-1.6,0-1.6-1-3.3-1
		c-1.6,0-1.6,0.7-3.3,0.7s-1.6-0.1-3.3-0.1h-3.3c-1.6,0-1.6-0.3-3.3-0.3c-1.6,0-1.6,1.5-3.3,1.5s-1.6,0.5-3.3,0.5s-1.6-1.5-3.3-1.5
		s-1.6,0.7-3.3,0.7s-1.6-1.3-3.3-1.3c-1.6,0-1.6,0.8-3.3,0.8c-1.6,0-1.6,0.1-3.3,0.1c-1.6,0-1.6-1.2-3.3-1.2s-1.6,2.9-3.3,2.9
		s-1.6-0.3-3.3-0.3s-1.6-0.4-3.3-0.4c-1.6,0-1.6,0.5-3.3,0.5c-1.6,0-1.6-0.2-3.3-0.2s-1.6-0.2-3.3-0.2c-1.6,0-1.6-1.7-3.3-1.7
		s-1.6,0.8-3.3,0.8c-1.6,0-1.6-0.5-3.3-0.5c-1.6,0-1.6-0.5-3.3-0.5s-1.6,0.3-3.3,0.3c-1.6,0-1.6-0.1-3.3-0.1s-1.6,0.9-3.3,0.9H986
		c0,0-1.6-1.2-3.3-1.2c-1.6,0-1.6-0.2-3.3-0.2s-1.6,2.1-3.3,2.1c-1.6,0-1.6-0.3-3.3-0.3c-1.6,0-1.6,0.8-3.3,0.8
		c-1.6,0-1.6-0.2-3.3-0.2c-1.6,0-1.6-1.7-3.3-1.7s-1.6,0.7-3.3,0.7c-1.6,0-1.6-1.1-3.3-1.1s-1.6,1-3.3,1c-1.6,0-1.6-0.8-3.3-0.8
		s-1.6,1.8-3.3,1.8c-1.6,0-1.6-0.3-3.3-0.3c-1.6,0-1.6-1.1-3.3-1.1c-1.6,0-1.6,1.4-3.3,1.4c-1.6,0-1.6-1.4-3.3-1.4
		c-1.6,0-1.6,0.1-3.3,0.1c-1.6,0-1.6,0.6-3.3,0.6c-1.6,0-1.6-0.2-3.3-0.2c-1.6,0-1.6,0.7-3.3,0.7c-1.6,0-1.6-0.8-3.3-0.8
		c-1.6,0-1.6-1.2-3.3-1.2c-1.6,0-1.6,1.9-3.3,1.9s-1.6-2-3.3-2c-1.6,0-1.6-0.2-3.3-0.2c-1.6,0-1.6,2.3-3.3,2.3s-1.6-1.1-3.3-1.1
		c-1.6,0-1.6,0.1-3.3,0.1c-1.6,0-1.6,1.6-3.3,1.6c-1.6,0-1.6-1-3.3-1c-1.6,0-1.6-1.1-3.3-1.1s-1.6-0.1-3.3-0.1s-1.6-0.6-3.3-0.6
		c-1.6,0-1.6,1.8-3.3,1.8c-1.6,0-1.6-1.1-3.3-1.1c-1.6,0-1.6,1-3.3,1s-1.6-1.3-3.3-1.3c-1.6,0-1.6,2.1-3.3,2.1
		c-1.6,0-1.6-1.2-3.3-1.2c-1.6,0-1.6,1.1-3.3,1.1c-1.6,0-1.6-0.6-3.3-0.6c-1.6,0-1.6-1.5-3.3-1.5c-1.6,0-1.6-0.3-3.3-0.3
		c-1.6,0-1.6,2.6-3.3,2.6c-1.6,0-1.6-0.7-3.3-0.7h-3.3c-1.6,0-1.6,0.8-3.3,0.8c-1.6,0-1.6-0.1-3.3-0.1c-1.6,0-1.6-1.9-3.3-1.9
		c-1.6,0-1.6,0.7-3.3,0.7c-1.6,0-1.6-1.5-3.3-1.5c-1.6,0-1.6,1.9-3.3,1.9c-1.6,0-1.6-0.1-3.3-0.1c-1.6,0-1.6,0.1-3.3,0.1
		c-1.6,0-1.6,0.1-3.3,0.1c-1.6,0-1.6-0.7-3.3-0.7c-1.6,0-1.6-1.2-3.3-1.2c-1.6,0-1.6,0.7-3.3,0.7c-1.6,0-1.6,1.2-3.3,1.2
		c-1.6,0-1.6-1.7-3.3-1.7c-1.6,0-1.6,0.2-3.3,0.2c-1.6,0-1.6,2.2-3.3,2.2c-1.6,0-1.9-2.8-3.5-2.5C778.1,322.1,778,324.1,777.1,322.7
		L777.1,322.7z"/>
</g>
<g>
	<path class="st1" d="M98.5,249.9c-8.2,0-9.2,13.9-0.6,13.9C106.1,263.8,107.1,249.9,98.5,249.9z M116.4,218.5
		c-6.4,0-7.2,10.9-0.5,10.9C122.3,229.3,123.1,218.5,116.4,218.5z M139.5,234.5c-0.5-0.6-1.2-1.1-2-1.3s-1.6-0.2-2.4,0
		c-0.7,0.1-1.2,0.2-1.8,0.6c-2.8,1.7-3.4,6.2-0.5,8.1c0.7,0.4,1.1,0.5,1.8,0.7c0.4,0.1,0.8,0.1,1.2,0.2c0.8,0,1.6-0.2,2.3-0.6
		c1.5-0.9,2.4-2.5,2.5-4.2C140.7,236.7,140.3,235.4,139.5,234.5z M175.2,253.8c-2.4,0-2.7,4-0.2,4
		C177.4,257.9,177.6,253.8,175.2,253.8L175.2,253.8z M268.8,196.8c-1.4-1.6-3.4-2.6-5.5-2.6H263c-0.2,0-0.4-0.1-0.6-0.1
		c-1.4,0-2.8,0.4-4,1.1c-2.6,1.6-4.3,4.5-4.4,7.6c-0.1,2.2,0.6,4.4,2,6.1c1,1.1,2.1,1.9,3.5,2.3c1.4,0.4,2.8,0.4,4.2,0
		c2.3-0.5,4.6-2.1,5.8-4.2c0.8-1.3,1.2-2.8,1.3-4.4C270.8,200.6,270.2,198.5,268.8,196.8L268.8,196.8z M194.4,189.5
		c-4,0-7.1,3.6-7.3,7.5c-0.2,3.8,2.6,7.5,6.6,7.5s7.1-3.6,7.3-7.5C201.1,193.1,198.4,189.5,194.4,189.5z M109.4,152.6
		c-5.2,0-5.8,8.8-0.4,8.8C114.1,161.4,114.8,152.6,109.4,152.6z M228.4,262.3c-10,0-11.3,17-0.8,17
		C237.6,279.4,238.9,262.3,228.4,262.3z M275.1,249.9c-2.7,0-4.7,2.4-4.8,5c-0.1,2.5,1.7,5,4.4,5s4.7-2.4,4.8-5
		C279.6,252.3,277.8,249.9,275.1,249.9z M443.8,232.9c-2.3,0-2.6,3.9-0.2,3.9C445.9,236.8,446.2,232.9,443.8,232.9z M438.7,260.8
		c0.1-0.1,0.1-0.2,0.2-0.3c0.1-0.2,0.2-0.3,0.3-0.5c0-0.1,0.1-0.2,0.1-0.3c0.1-0.3,0.2-0.5,0.3-0.8c0.6-1.9,0.5-3.9-0.4-5.7
		c-0.3-0.5-0.6-1-0.9-1.4c0,0,0-0.1-0.1-0.1l-0.1-0.1l-0.3-0.3c-0.2-0.1-0.3-0.3-0.5-0.4l-0.3-0.3c-0.1-0.1-0.2-0.1-0.3-0.2
		c-0.1-0.1-0.3-0.2-0.5-0.3c-0.1,0-0.2-0.1-0.2-0.1c-0.3-0.1-0.5-0.2-0.8-0.3c-0.1,0-0.2-0.1-0.2-0.1c-0.6-0.1-1.2-0.2-1.9-0.3
		c-1.3,0-2.4,0.3-3.5,1c-0.5,0.3-0.9,0.6-1.3,1c-0.7,0.6-1.4,1.3-1.9,2.1c-0.7,1.1-1,2.3-1.1,3.6c-0.1,1.2,0.2,2.4,0.7,3.4
		c0.3,0.5,0.6,1,0.9,1.4c0.2,0.3,0.5,0.5,0.8,0.8s0.7,0.6,1,0.9c1.1,0.7,2.3,1.1,3.6,1.1c1,0,1.9-0.2,2.8-0.6
		c0.3-0.1,0.6-0.3,0.9-0.5c0.5-0.3,1-0.7,1.4-1.1l0.1-0.1l0.1-0.1c0.2-0.2,0.3-0.4,0.5-0.5l0.1-0.1
		C438.4,261.2,438.5,261,438.7,260.8L438.7,260.8z M476,256.8c-9.5,0-10.7,16.2-0.8,16.2C484.8,272.9,486,256.8,476,256.8z
		 M502.9,223.8c-8.4,0-9.4,14.2-0.7,14.2C510.6,238,511.7,223.8,502.9,223.8z M535.3,240.1c-0.7-0.9-1.7-1.5-2.8-1.8s-2.2-0.3-3.3,0
		c-2.9,0.8-4.9,3.6-5,6.6c-0.1,2.3,0.9,4.6,2.8,5.9c1,0.6,2,1,3.2,1c1.8,0,3.2-0.8,4.5-1.9C537.5,247.4,538.1,242.7,535.3,240.1z
		 M556.8,255c-8.1,0-9,13.7-0.6,13.7C564.2,268.7,565.2,255,556.8,255L556.8,255z M572.7,216.3c-6.6,0-7.4,11.2-0.5,11.2
		C578.8,227.5,579.6,216.3,572.7,216.3z M751.5,214.9c-7,0-7.9,11.9-0.6,11.9C758,226.9,758.8,214.9,751.5,214.9z M735.2,255.8
		C735.2,255.8,735.2,255.9,735.2,255.8C735.3,255.9,735.3,255.8,735.2,255.8z M764.9,262.3c-0.6-1.2-1.5-1.9-2.7-2.4
		c-0.1-0.1-0.3-0.1-0.4-0.2c-1.2-0.5-2.7-0.1-3.7,0.5c-1.6,1-2.6,2.7-2.7,4.6c-0.1,1.3,0.4,2.7,1.2,3.7c1.1,1.3,3,2,4.7,1.4
		c0.1-0.1,0.3-0.1,0.4-0.2c0.8-0.2,1.5-0.7,2.1-1.3c1-1,1.5-2.3,1.6-3.7C765.4,264,765.3,263.1,764.9,262.3L764.9,262.3z M735.5,246
		c-5.7,0-6.4,9.7-0.4,9.7C740.7,255.7,741.4,246,735.5,246z M785.4,247.3c-6.5,0-7.3,11.1-0.5,11.1
		C791.4,258.4,792.2,247.3,785.4,247.3L785.4,247.3z M800.9,192.8h-0.5c-2.1,0.1-3.9,1.2-5,3c-1.4,2.3-1.3,5.3,0.5,7.4
		c1.3,1.5,3.4,2.2,5.4,1.6c1-0.3,1.8-0.8,2.6-1.5c1.2-1.2,1.7-2.7,1.9-4.3c0-0.2,0-0.3,0.1-0.5C806.1,195.7,803.8,192.7,800.9,192.8
		z M816.1,246.8C816.1,246.8,816.1,246.9,816.1,246.8C816.2,246.9,816.2,246.8,816.1,246.8z M335.1,193.4c-6.6,0-7.4,11.2-0.5,11.2
		C341.2,204.5,342,193.4,335.1,193.4z M347,280.9c0-2.4-0.8-4.6-2.4-6.5c-1.5-1.8-3.9-2.8-6.2-2.8c-2.3,0-4.6,1-6.2,2.6
		c-1.8,1.8-2.7,4.1-2.9,6.7c-0.1,1.5,0.2,3.2,0.9,4.6c0.1,0.2,0.1,0.4,0.2,0.5c0.6,1.2,1.4,2.2,2.6,3c0.6,0.5,1.3,0.7,2,1
		c1.4,0.5,2.8,0.3,4.1,0c0.4-0.1,0.9-0.3,1.3-0.5s0.9-0.4,1.3-0.6c1.4-0.8,2.8-1.9,3.6-3.3C346.1,284.2,347,282.6,347,280.9
		L347,280.9z M372.3,266.5v-0.1c0.1-0.3,0.2-0.7,0.2-1v-1.2c0-0.3,0-0.5-0.1-0.8v-0.2c0-0.2-0.1-0.3-0.1-0.5
		c-0.1-0.2-0.1-0.4-0.2-0.6c0-0.1,0-0.1-0.1-0.2l-0.3-0.6c0,0,0-0.1-0.1-0.1c-0.7-1-1.7-2-2.8-2.1c-0.5-0.1-1-0.2-1.4-0.2h-0.3
		c-0.7,0-1.3,0.1-1.9,0.4c-0.1,0-0.3,0-0.4,0.1c-0.9,0.3-1.7,0.8-2.4,1.5c-1.1,1.1-1.7,2.6-1.8,4.2c0,1,0.1,2,0.6,2.9
		c0.5,1.1,1.8,2.5,3.1,2.7c0.1,0,0.3,0,0.4,0.1c0.1,0,0.2,0.1,0.4,0.1c0.8,0.2,1.6,0.3,2.4,0.1c0.3,0,0.5-0.1,0.8-0.2
		c1.1-0.2,2.3-1.1,3-2.1c0,0,0-0.1,0.1-0.1c0.1-0.2,0.3-0.4,0.4-0.6c0.1-0.1,0.1-0.2,0.2-0.3v-0.1
		C372.1,267.2,372.2,266.8,372.3,266.5L372.3,266.5z M363.9,232.4c-1.1-0.7-2.7-0.8-3.8,0c-0.2,0.1-0.4,0.2-0.6,0.4
		c-1.1,0.8-1.8,1.8-1.8,3.2c-0.1,1.3,0.5,2.3,1.5,3.1c0.2,0.1,0.3,0.3,0.5,0.4c1.1,0.8,2.7,0.7,3.8,0c1.2-0.7,2-2.1,2.1-3.5
		C365.6,234.5,365,233.2,363.9,232.4L363.9,232.4z M89.1,206.7c-1.1-0.7-2.4-0.7-3.5,0c-0.1,0.1-0.2,0.1-0.4,0.2
		c-2.1,1.2-2.6,4.8-0.3,6.1c0.1,0.1,0.2,0.1,0.3,0.2c2.5,1.4,5.3-0.5,5.4-3.2C90.7,208.7,90.2,207.4,89.1,206.7z M81.8,180.4
		c-0.5-1-1.4-1.6-2.5-1.6c-2,0-3.4,2.1-3,4c0.1,0.3,0.1,0.5,0.2,0.8c0.3,1.2,1.3,2.2,2.6,2.2c1.2,0,2.5-1,2.8-2.2
		c0.1-0.3,0.1-0.5,0.2-0.8C82.2,182,82.2,181.2,81.8,180.4z M137.7,284.4c-0.5-1-1.1-1.7-2-2.3c0,0-0.1,0-0.1-0.1
		c-1.3-1-3.1-1.3-4.6-0.9c-2.1,0.6-3.9,2.6-4.3,4.8c-0.3,1.1-0.4,2.2-0.1,3.3c0.1,0.2,0.1,0.4,0.2,0.7c0.4,1.4,0.7,2.8,1.7,3.9
		c1.4,1.7,3.7,2.3,5.8,1.7c2.8-0.8,4.6-3.5,4.8-6.3C139,287.5,138.3,286,137.7,284.4L137.7,284.4z M124.4,260.5
		c-6.3,0-7.1,10.7-0.5,10.7C130.2,271.2,131,260.5,124.4,260.5z M154.1,172.9C154,172.9,154,173,154.1,172.9
		C154.2,173,154.2,172.9,154.1,172.9z M61.6,273.9c-4.8,0-8.4,4.3-8.6,8.9c-0.2,4.5,3.1,8.9,7.8,8.9c4.8,0,8.4-4.3,8.6-8.9
		C69.7,278.3,66.4,273.9,61.6,273.9z M65.2,143c-0.7-0.8-1.7-1.3-2.8-1.3c-1,0-2.2,0.4-2.8,1.2c-0.3,0.3-0.5,0.6-0.8,1
		c-0.7,0.9-1.2,1.8-1.3,3c0,1,0.3,2.1,1,2.9c0.7,0.8,1.7,1.2,2.7,1.2c1.1,0,1.9-0.5,2.7-1.2c0.3-0.3,0.6-0.5,0.9-0.8
		c0.8-0.7,1.3-2,1.3-3.1C66.2,144.9,65.9,143.8,65.2,143L65.2,143z M104.2,118C104.1,118,104.1,118.1,104.2,118
		C104.2,118.1,104.2,118,104.2,118z M612.1,283.1c-0.8-0.9-1.8-1.6-3-2l-1.8-0.3c-1.2,0-2.4,0.3-3.4,1l-1.9,0.9
		c-0.5,0.4-1.1,0.8-1.6,1.3c-1,1-1.8,2.3-2.2,3.7c-0.8,2.7-0.3,5.7,1.5,7.9c1.3,1.5,3.3,2.5,5.3,2.5c1.4,0,2.6-0.4,3.8-1.1
		s2.2-1.7,2.9-2.9c0.3-0.6,0.6-1.3,0.9-1.9c0.7-1.2,1.1-2.4,1.1-3.8C613.9,286.4,613.3,284.5,612.1,283.1L612.1,283.1z
		 M1005.2,226.2c5.1-6.6-5.5-16.1-10.9-9.2C989.2,223.7,999.9,233.2,1005.2,226.2z M959.5,229.9c1.1-0.1,2.2-0.4,3.1-1.1
		c0.9-0.7,1.6-1.5,2-2.6c1.1-2.8,0.1-6.1-2.2-8c-1.7-1.5-4.2-2.1-6.4-1.3c-1.1,0.4-2,1-2.7,1.9c-1.1,1.4-1.3,3-1.2,4.8
		C952.3,227.2,955.8,230.6,959.5,229.9L959.5,229.9z M915.6,277.9c4.9-6.4-5.3-15.5-10.5-8.8C900.2,275.5,910.5,284.6,915.6,277.9z
		 M968.5,286.1c4-5.2-4.3-12.7-8.5-7.2C956,284.1,964.4,291.6,968.5,286.1z M903.6,232.6c1.2-0.1,2.4-0.5,3.4-1.2
		c0.4-0.4,0.9-0.8,1.3-1.3c0.7-1,1.2-2.1,1.3-3.3l0.4-2v-2c-0.2-1.5-0.7-2.8-1.6-4c-1.6-2.3-4.3-3.8-7.2-3.6c-2,0.1-3.9,1.1-5.2,2.7
		c-0.8,1.1-1.3,2.3-1.5,3.7s0,2.8,0.5,4.1c0.3,0.6,0.6,1.3,1,1.9c0.5,1.3,1.3,2.3,2.3,3.2C899.9,232.1,901.7,232.7,903.6,232.6
		L903.6,232.6z M696.5,284c-2.6,0-4.5,2.3-4.7,4.8c-0.1,2.4,1.7,4.8,4.2,4.8c2.6,0,4.5-2.3,4.7-4.8C700.8,286.4,699.1,284,696.5,284
		z M718.3,229.3c-0.3,0.1-0.5,0.1-0.8,0.2c-1.9,0.5-3.2,2.4-3.3,4.4c-0.1,1.9,1,3.8,2.9,4.4l0.8,0.2c2.9,0.8,5.6-1.7,5.8-4.6
		C723.8,231,721.3,228.5,718.3,229.3L718.3,229.3z M818.5,276.9c-10.5,0-11.8,17.9-0.8,17.9C828.2,294.8,829.5,276.9,818.5,276.9z
		 M836.3,236.8c-4.8,0-5.4,8.2-0.4,8.2C840.7,245,841.3,236.8,836.3,236.8z M848.3,180.5c-6.4,0-7.2,10.9-0.5,10.9
		C854.2,191.4,855,180.5,848.3,180.5z M817.3,167c-4.7,0-5.3,8-0.4,8C821.6,175,822.2,167,817.3,167z"/>
</g>
</svg>
