<?xml version="1.0" encoding="utf-8"?>
<!-- Generator: Adobe Illustrator 25.2.0, SVG Export Plug-In . SVG Version: 6.00 Build 0)  -->
<svg version="1.1" id="圖層_1" xmlns="http://www.w3.org/2000/svg" xmlns:xlink="http://www.w3.org/1999/xlink" x="0px" y="0px"
	 viewBox="0 0 768 256" style="enable-background:new 0 0 768 256;" xml:space="preserve">
<style type="text/css">
	.st0{fill:#AF8831;}
</style>
<path class="st0" d="M780.3,691.4l-35.4,3.9l-36.1-2.5l-36.1-4.1l-36,3.3l-36.1,1.9l-36.1-0.4l-36.1-1l-36.1,1.7l-36.1,0.1
	l-36.1-3.9l-36.1-0.2l-36.1,5.6l-36.1-4.1l-36-0.8l-36.1-1.5l-36.1,0.4l-36.1,2.5l-36.1,0.7l-36.1-1.5l-36.1,2.9l-36.1-3.9
	l-37.3,3.1l-1.1-45.4l1.7-43.9l0.3-43.9l-0.5-43.9l0.5-44.1l1.7-43.9l-2.8-43.9l2.8-43.9l-1.1-43.9l1.5-43.9l-4.2-44.1l5.1-43.9
	l-0.4-43.9l0.1-43.9l-3.8-43.9l3.3-43.9l-2.2-44.1l-0.5-43.9l13.8-43l23.1-0.6l36.1-3.6l36.1-0.1l36,2.1l36.1,3.9l36.1-1.6l36.1-1.5
	l36.1,2.1l36.1-4.4l36.1,1.7l36.1-2.4l36.1,0.7l36.1-0.7l36,5.3l36.1-2.1l36.1-3.3l36.1,4.2l36.1-3.6l36.1,2.2l36.1-1.6l36.1-0.2
	l23.1,3.5l13.5,43l0.2,43.9l1.2,43.9l-4,44.1l1.9,43.9l2.6,43.9l-1.9,43.9l-1.2,43.9l-0.4,43.9l3.6,43.9l-2.2,44.1l-3.3,43.9l2,43.9
	l3.4,43.9l-4.9,43.9l4.1,43.9l1,44.1l-4.6,43.9L780.3,691.4z"/>
</svg>
